<?xml version="1.0" standalone="no"?>
<!DOCTYPE svg PUBLIC "-//W3C//DTD SVG 20010904//EN"
 "http://www.w3.org/TR/2001/REC-SVG-20010904/DTD/svg10.dtd">
<svg version="1.0" xmlns="http://www.w3.org/2000/svg"
 width="300.000000pt" height="200.000000pt" viewBox="0 0 300.000000 200.000000"
 preserveAspectRatio="xMidYMid meet">
<metadata>
Created by potrace 1.10, written by Peter Selinger 2001-2011
</metadata>
<g transform="translate(0.000000,200.000000) scale(0.100000,-0.100000)"
fill="#000000" stroke="none">
<path d="M1519 1748 c-1 -18 -2 -49 -2 -68 0 -19 -5 -38 -11 -42 -6 -4 3 -8
20 -8 18 0 38 -8 49 -20 10 -11 20 -18 23 -16 2 3 -10 19 -27 37 -22 21 -32
40 -31 58 4 54 0 91 -10 91 -5 0 -11 -15 -11 -32z"/>
<path d="M1455 1582 c-69 -8 -39 -18 45 -14 94 5 154 -11 167 -44 3 -8 11 -14
19 -14 8 0 14 -7 14 -15 0 -8 -6 -15 -12 -15 -9 0 -8 -4 2 -10 8 -5 20 -10 25
-10 6 0 3 5 -5 10 -11 7 -11 10 -2 10 7 0 21 -13 30 -30 9 -16 23 -30 30 -30
6 0 12 -11 12 -25 0 -14 7 -41 14 -60 8 -19 11 -35 6 -35 -5 0 -7 -16 -4 -36
4 -31 2 -35 -13 -29 -10 4 -93 10 -185 13 -139 4 -168 2 -168 -9 0 -11 -2 -11
-10 1 -5 8 -10 10 -10 4 0 -6 6 -17 14 -23 11 -9 15 -9 19 1 4 10 7 11 18 1 7
-7 20 -13 29 -13 13 0 13 1 0 10 -17 11 -17 11 53 12 33 0 51 -4 50 -11 -2 -6
9 -11 23 -11 17 0 23 4 18 13 -6 9 -4 9 8 -1 10 -8 19 -9 22 -3 8 12 30 9 52
-9 13 -12 18 -12 21 -2 3 6 12 12 21 12 11 0 13 -3 6 -8 -8 -5 -7 -11 4 -22 9
-8 19 -15 21 -15 3 0 4 -11 3 -25 -5 -49 16 2 28 67 14 73 7 134 -21 189 -28
55 -156 174 -188 175 -15 1 -48 2 -76 3 -27 1 -63 0 -80 -2z"/>
<path d="M408 1447 c-5 -10 -3 -28 4 -40 7 -12 11 -28 10 -34 -2 -7 4 -13 13
-13 19 0 20 24 1 40 -8 6 -16 24 -18 38 -2 23 -4 24 -10 9z"/>
<path d="M2680 1405 c-1 -5 -1 -18 0 -28 1 -13 -4 -18 -17 -17 -38 4 -74 0
-69 -9 3 -4 17 -6 31 -3 18 3 25 0 25 -12 0 -9 5 -16 11 -16 6 0 9 7 5 15 -3
8 -1 15 4 15 5 0 11 -10 13 -22 l4 -23 8 23 c4 12 12 22 18 22 6 0 4 6 -5 13
-9 6 -18 21 -21 32 -3 11 -6 16 -7 10z"/>
<path d="M352 1338 c9 -7 19 -22 21 -33 2 -11 3 -8 2 8 -2 33 10 36 20 5 6
-21 8 -21 12 -4 3 11 8 15 12 8 8 -14 26 -19 28 -9 1 5 10 15 20 23 16 12 9
13 -56 14 -62 0 -72 -2 -59 -12z"/>
<path d="M2685 1280 c4 -6 -12 -10 -39 -10 -51 0 -64 -16 -14 -18 40 -1 47
-14 45 -84 -1 -32 1 -58 4 -58 3 0 4 -22 1 -49 -3 -39 -1 -49 14 -55 16 -6 16
2 10 118 -5 97 -4 125 6 128 10 4 10 8 -1 21 -14 18 -36 24 -26 7z"/>
<path d="M430 1270 c11 -7 2 -10 -32 -10 -26 0 -50 -4 -53 -10 -4 -6 8 -10 29
-10 19 0 37 -4 40 -9 3 -4 6 -41 8 -82 1 -41 7 -77 12 -81 7 -5 7 -8 -1 -8 -7
0 -13 -9 -13 -20 0 -11 6 -20 13 -20 9 0 9 -2 1 -8 -9 -5 -8 -11 2 -20 23 -21
28 8 21 127 -4 74 -3 111 5 119 14 14 -7 42 -31 42 -14 0 -14 -2 -1 -10z"/>
<path d="M1290 1233 c-44 -8 -43 -21 2 -17 24 1 45 3 48 4 3 1 17 1 33 0 15
-1 27 3 27 9 0 11 -60 13 -110 4z"/>
<path d="M2590 1120 c-3 -63 -4 -117 -2 -119 9 -16 12 22 10 120 l-3 114 -5
-115z"/>
<path d="M1185 1183 c38 -6 70 -42 49 -58 -11 -8 -9 -12 11 -22 23 -10 25 -9
25 10 -1 37 -44 77 -82 76 l-33 -2 30 -4z"/>
<path d="M1500 1169 c-74 -3 -150 -9 -169 -14 -24 -5 -36 -3 -42 6 -12 20 -16
8 -8 -31 4 -20 7 -26 8 -13 2 32 17 33 345 34 83 0 101 -3 116 -18 14 -15 14
-21 4 -31 -15 -14 -28 -16 -20 -3 3 4 -6 6 -20 3 -34 -6 -22 -15 27 -19 l40
-4 -3 42 -3 43 -64 -3 c-35 -1 -67 1 -70 6 -3 4 -67 5 -141 2z"/>
<path d="M1953 1147 c0 -6 -4 -19 -7 -28 -5 -11 -1 -18 13 -22 17 -4 21 0 21
18 0 24 -26 55 -27 32z"/>
<path d="M2403 1139 c4 -13 -4 -18 -36 -24 -23 -4 -35 -10 -27 -13 8 -3 18
-10 22 -16 5 -7 8 -3 8 8 0 20 0 20 15 0 8 -10 15 -14 15 -9 0 6 4 4 9 -3 6
-10 10 -7 13 12 3 15 -1 34 -9 43 -13 15 -14 16 -10 2z"/>
<path d="M922 1100 c1 -44 18 -48 18 -6 0 20 -4 36 -9 36 -5 0 -9 -14 -9 -30z"/>
<path d="M2133 1090 c-2 -22 2 -40 7 -40 6 0 10 18 10 40 0 52 -14 52 -17 0z"/>
<path d="M648 1103 c12 -2 22 -10 22 -16 0 -7 4 -6 10 3 6 10 10 11 10 3 0
-18 27 -16 34 2 4 12 -4 15 -47 14 -29 -1 -42 -4 -29 -6z"/>
<path d="M1056 1068 c3 -4 40 -8 83 -8 43 0 80 -2 83 -5 3 -3 2 -22 -1 -43 -5
-28 -11 -36 -24 -34 -9 2 -17 -2 -17 -8 0 -6 10 -10 23 -9 48 4 59 0 52 -21
-4 -11 -2 -20 4 -20 6 0 11 13 11 29 0 24 -4 29 -20 26 -13 -2 -20 2 -20 11 0
8 3 13 8 13 25 -4 32 4 32 42 l0 40 -110 -2 c-60 -1 -107 -6 -104 -11z"/>
<path d="M1790 1070 c0 -6 18 -7 44 -4 45 7 156 -6 123 -14 -15 -3 -16 -6 -6
-19 10 -12 10 -16 -2 -24 -10 -6 -10 -9 -1 -9 6 0 12 -4 12 -10 0 -5 -9 -10
-20 -10 -14 0 -20 7 -20 24 0 26 -24 51 -40 41 -5 -3 -10 -19 -10 -36 0 -41
-28 -39 -32 4 -4 44 -22 41 -26 -5 l-3 -38 93 1 c51 0 88 3 81 5 -16 7 -4 76
16 91 13 10 -6 12 -96 13 -68 0 -113 -4 -113 -10z"/>
<path d="M2094 1064 c3 -9 -3 -31 -15 -50 -11 -18 -17 -39 -13 -45 5 -9 -1
-10 -20 -5 l-26 6 0 -227 c0 -126 4 -223 8 -216 4 6 6 93 6 192 -1 100 3 181
8 181 4 0 6 11 2 24 -5 21 -1 25 25 31 21 4 31 13 31 25 0 30 11 50 29 50 14
0 14 -2 1 -10 -10 -6 -11 -10 -2 -10 20 0 15 -58 -5 -63 -13 -3 -11 -5 7 -7
l25 -2 -25 -8 c-17 -5 -19 -8 -7 -9 9 -1 17 -8 17 -17 0 -8 4 -13 9 -10 5 4
12 0 14 -6 3 -7 6 4 6 25 1 20 -3 37 -9 37 -5 0 -10 20 -10 45 0 38 -3 45 -20
45 -13 0 -20 7 -20 20 0 11 -5 20 -11 20 -6 0 -8 -7 -5 -16z"/>
<path d="M2406 1053 c-3 -3 -20 -9 -38 -13 -31 -7 -31 -8 -6 -9 36 -1 40 -10
42 -96 0 -40 4 -77 9 -81 15 -15 6 -24 -22 -24 -16 0 -38 -3 -48 -7 -13 -6 -8
-9 22 -13 31 -4 40 -10 41 -25 1 -11 3 -22 4 -25 1 -3 2 -27 3 -54 1 -32 7
-51 16 -54 11 -4 13 9 7 76 -5 55 -4 82 4 87 7 4 8 11 2 18 -14 18 -25 197
-12 197 5 0 10 4 10 9 0 11 -26 22 -34 14z"/>
<path d="M673 1043 c-18 -2 -33 -9 -33 -14 0 -6 4 -7 10 -4 5 3 18 1 29 -5 15
-8 19 -19 18 -52 -1 -24 -6 -46 -12 -50 -6 -5 -6 -8 1 -8 6 0 10 -12 8 -28 -3
-26 10 -61 20 -52 9 10 10 214 0 215 -5 1 -24 0 -41 -2z"/>
<path d="M1051 960 c-4 -206 0 -455 7 -462 4 -4 7 90 7 207 -1 210 0 215 20
216 16 1 16 2 3 6 -12 3 -19 19 -23 51 -11 82 -13 79 -14 -18z"/>
<path d="M1163 1043 c-7 -3 -13 -18 -13 -33 0 -16 -4 -32 -10 -35 -5 -3 -10
-11 -10 -17 0 -7 6 -6 15 2 8 7 15 19 15 26 0 8 10 14 23 15 21 1 21 1 -3 8
-23 7 -24 8 -6 18 19 11 10 24 -11 16z"/>
<path d="M1280 774 c0 -302 0 -305 -58 -296 -20 2 -32 0 -32 -7 0 -8 43 -11
137 -11 l137 0 -34 30 c-27 24 -31 32 -21 44 14 16 11 57 -3 68 -6 4 -5 12 2
21 7 7 9 17 5 20 -3 4 0 7 8 7 12 0 11 2 -1 10 -9 6 -11 13 -5 18 14 10 16 45
2 54 -9 6 -9 8 1 8 8 0 10 8 6 24 -3 14 0 29 10 39 9 8 16 21 16 28 0 9 3 9
14 0 10 -9 16 -9 21 -1 4 6 14 9 22 6 8 -4 11 -2 7 5 -9 16 13 27 41 21 21 -4
23 -7 14 -24 -8 -15 -7 -19 3 -17 44 6 84 -21 73 -49 -3 -8 0 -19 7 -24 8 -5
9 -11 3 -15 -14 -11 -12 -36 3 -46 7 -5 10 -12 7 -17 -3 -5 -1 -11 4 -15 6 -3
8 19 6 57 -2 35 -4 68 -4 75 -2 23 -56 76 -98 95 l-42 19 -51 -26 c-82 -42
-90 -63 -90 -241 0 -139 -2 -152 -19 -157 -10 -2 -26 0 -35 5 -10 6 -16 5 -16
-2 0 -5 -7 -10 -15 -10 -13 0 -15 38 -15 285 l0 285 258 3 257 2 -262 3 -263
2 0 -276z"/>
<path d="M907 1024 c4 -11 8 -12 13 -4 4 7 10 -3 14 -24 4 -20 11 -36 16 -36
13 0 13 17 0 25 -5 3 -10 17 -10 31 0 17 -5 24 -20 24 -14 0 -18 -5 -13 -16z"/>
<path d="M965 1004 c8 -46 10 -48 30 -40 14 5 14 9 0 35 -24 48 -39 50 -30 5z"/>
<path d="M1096 1024 c-9 -24 -7 -54 4 -54 6 0 10 6 10 14 0 8 6 17 13 19 9 4
9 6 0 6 -7 1 -10 8 -7 16 4 8 2 15 -4 15 -5 0 -13 -7 -16 -16z"/>
<path d="M1310 991 c0 -21 34 -26 57 -9 6 5 14 5 18 -2 9 -15 35 -12 35 4 0
16 -43 30 -48 16 -5 -13 -42 -13 -42 0 0 6 -4 10 -10 10 -5 0 -10 -9 -10 -19z"/>
<path d="M1556 1002 c-3 -5 6 -8 19 -6 14 1 25 -2 25 -7 0 -11 34 -7 38 5 3
12 -75 19 -82 8z"/>
<path d="M1660 1001 c0 -11 62 -12 79 -2 8 5 -4 9 -33 9 -25 1 -46 -2 -46 -7z"/>
<path d="M2707 983 c-4 -4 -33 -5 -65 -4 -31 1 -54 0 -51 -3 3 -4 23 -7 42 -8
50 -2 75 -32 54 -65 -5 -7 -5 -18 -2 -24 12 -18 13 -59 1 -59 -6 0 -4 -6 4
-13 9 -7 14 -21 12 -32 -3 -13 -1 -17 6 -10 11 10 21 225 11 225 -3 0 -9 -3
-12 -7z"/>
<path d="M398 973 c-32 -2 -58 -8 -58 -14 0 -5 13 -8 29 -7 30 2 65 -18 55
-33 -3 -5 2 -6 10 -3 20 8 20 0 0 -20 -8 -9 -11 -16 -6 -16 4 0 7 -13 4 -30
-2 -16 -8 -30 -13 -30 -5 0 -9 -5 -9 -11 0 -7 9 -9 21 -6 15 4 18 2 10 -7 -6
-7 -8 -16 -4 -19 3 -4 -3 -7 -15 -7 -12 0 -22 -4 -22 -10 0 -5 6 -7 14 -4 8 3
17 1 21 -5 3 -6 13 -11 21 -11 13 0 14 15 8 105 -5 76 -4 105 5 105 6 0 11 7
11 15 0 8 -6 14 -12 13 -7 -1 -39 -3 -70 -5z"/>
<path d="M1789 918 c0 -29 -1 -123 -3 -208 -1 -85 1 -166 5 -180 6 -23 7 -22
9 10 1 19 1 115 1 213 -2 164 4 200 24 167 3 -5 12 -10 18 -10 7 0 6 4 -3 10
-10 6 14 10 75 13 l90 3 -103 2 c-61 1 -101 6 -97 11 3 5 1 12 -5 16 -6 4 -10
-14 -11 -47z"/>
<path d="M2586 913 c-9 -56 -6 -182 3 -158 9 20 15 195 8 195 -3 0 -7 -17 -11
-37z"/>
<path d="M1323 907 c3 -9 2 -19 -3 -22 -5 -3 -7 -12 -4 -20 5 -11 9 -11 18 -2
17 15 15 49 -3 55 -10 3 -12 0 -8 -11z"/>
<path d="M1125 845 c-22 -21 -25 -33 -25 -90 l0 -65 38 0 c46 0 51 3 44 35 -6
33 -28 32 -37 -2 -7 -28 -7 -28 -16 -5 -5 12 -5 32 0 45 4 12 6 28 4 35 -3 6
2 12 10 12 9 0 17 5 19 12 6 17 39 1 45 -22 7 -26 23 -26 23 0 0 25 -42 70
-65 70 -9 0 -27 -11 -40 -25z"/>
<path d="M1865 854 c-16 -12 -21 -30 -25 -94 -3 -50 -2 -76 5 -70 5 6 29 10
55 11 25 0 39 3 33 6 -7 2 -13 13 -13 24 0 22 -35 27 -43 7 -2 -7 -7 -10 -11
-7 -9 8 13 109 24 109 5 0 12 -5 15 -11 4 -6 13 -8 21 -5 9 3 17 -6 23 -27 l9
-32 1 37 c1 57 -50 86 -94 52z"/>
<path d="M2068 856 c-14 -11 -18 -29 -18 -90 l0 -76 47 0 c25 0 43 3 39 8 -4
4 -11 7 -14 7 -13 1 -67 34 -56 35 6 0 10 19 10 42 -1 25 4 43 12 45 7 3 12
-5 12 -19 1 -18 2 -20 10 -7 10 17 9 37 -3 57 -10 15 -17 15 -39 -2z"/>
<path d="M2160 837 c0 -18 -5 -38 -12 -45 -8 -8 -8 -12 -1 -12 7 0 11 -45 12
-127 1 -70 4 -129 6 -132 3 -2 5 75 5 172 0 98 -2 177 -5 177 -3 0 -5 -15 -5
-33z"/>
<path d="M957 842 c-12 -13 -17 -37 -17 -85 0 -67 0 -67 28 -66 15 0 21 3 14
6 -10 4 -9 10 5 26 12 15 13 18 2 9 -9 -6 -19 -9 -22 -5 -4 3 1 12 11 19 9 7
14 16 10 20 -4 4 -14 1 -23 -6 -10 -8 -15 -9 -15 -1 0 6 5 11 10 11 6 0 10 9
10 20 0 11 5 20 10 20 6 0 10 -5 10 -12 0 -8 6 -6 17 5 16 15 16 18 -2 37 -22
25 -28 25 -48 2z"/>
<path d="M1734 835 c-11 -28 -9 -78 4 -82 8 -3 12 10 12 46 0 51 -6 64 -16 36z"/>
<path d="M333 785 c0 -33 2 -45 4 -27 2 18 2 45 0 60 -2 15 -4 0 -4 -33z"/>
<path d="M1315 723 c0 -79 4 -118 12 -120 14 -5 29 17 17 26 -14 10 -15 31 -1
31 9 0 8 3 -2 9 -10 7 -11 13 -1 31 8 15 8 20 1 16 -15 -10 -14 49 1 73 9 15
9 23 -1 35 -8 9 -16 16 -20 16 -3 0 -6 -52 -6 -117z"/>
<path d="M670 820 c-45 -6 -48 -7 -18 -8 31 -2 39 -6 44 -27 3 -14 3 -36 0
-49 -3 -14 -2 -27 4 -31 8 -5 3 -62 -6 -74 -2 -2 -18 -5 -35 -7 -47 -6 -46
-11 3 -18 40 -6 43 -9 42 -36 0 -17 -4 -33 -7 -37 -4 -3 -2 -12 4 -19 14 -17
3 -34 -22 -34 -30 0 -17 -24 14 -27 20 -1 25 2 20 15 -4 14 -3 15 5 2 15 -20
142 -22 142 -3 0 11 -16 13 -66 10 l-66 -4 2 76 c1 42 2 78 1 81 -8 32 -8 170
-1 175 12 7 14 26 3 23 -5 -1 -33 -4 -63 -8z"/>
<path d="M2770 790 c-16 -4 -28 -16 -35 -35 -5 -17 -10 -32 -12 -34 -1 -2 -34
-3 -73 -2 -38 1 -70 -2 -70 -6 0 -4 23 -8 52 -8 48 0 53 -2 71 -33 18 -31 18
-32 0 -25 -16 6 -16 5 -4 -10 25 -31 96 5 87 44 -4 17 19 42 43 47 13 3 40
-25 41 -40 0 -5 -15 -8 -32 -9 -18 0 -27 -3 -20 -6 15 -6 16 -24 1 -20 -6 1
-13 -4 -14 -11 -2 -7 -1 -8 2 -2 2 5 9 7 15 4 5 -3 15 2 22 12 11 14 14 15 22
3 13 -21 14 -39 1 -39 -5 0 -8 -3 -4 -6 9 -10 98 -14 92 -4 -6 10 26 23 34 14
3 -4 0 -9 -6 -11 -7 -3 -13 -9 -13 -15 0 -6 6 -6 15 2 8 7 15 26 15 43 0 24
-3 28 -12 19 -7 -7 -19 -12 -28 -12 -9 0 -25 -9 -35 -20 -22 -25 -46 -10 -25
15 11 13 10 14 -4 9 -22 -8 -21 15 2 32 15 12 15 15 2 23 -8 6 -16 15 -16 21
-1 5 -2 14 -3 19 0 5 -10 7 -21 4 -12 -3 -27 4 -42 19 -17 18 -29 23 -48 18z
m21 -67 c-5 -10 -19 -26 -32 -37 -17 -14 -23 -15 -30 -5 -11 18 29 55 64 58 4
1 3 -7 -2 -16z"/>
<path d="M1517 776 c-9 -7 -17 -22 -17 -32 1 -16 3 -15 15 6 7 14 16 24 20 22
10 -5 18 5 8 11 -4 3 -16 0 -26 -7z"/>
<path d="M623 705 c0 -38 2 -53 4 -32 2 20 2 52 0 70 -2 17 -4 1 -4 -38z"/>
<path d="M1559 758 c-1 -7 -1 -17 0 -22 1 -5 -1 -16 -5 -25 -5 -14 -7 -13 -14
4 -8 19 -9 19 -9 -2 -1 -17 5 -23 19 -23 17 0 20 7 20 40 0 37 -8 57 -11 28z"/>
<path d="M2988 764 c-5 -4 -8 -15 -8 -24 0 -10 -7 -23 -16 -31 -14 -12 -13
-14 7 -21 29 -11 31 -8 27 42 -2 23 -6 38 -10 34z"/>
<path d="M1730 730 c13 -9 13 -11 0 -20 -11 -7 -12 -12 -4 -17 7 -5 14 -17 17
-28 2 -11 4 1 4 28 0 37 -3 47 -16 47 -14 0 -14 -2 -1 -10z"/>
<path d="M454 718 c-3 -5 -18 -9 -32 -8 -55 4 -103 0 -98 -8 3 -5 19 -7 35 -4
20 3 36 -2 47 -12 9 -10 23 -15 30 -12 23 9 16 -20 -8 -38 l-23 -17 23 5 c31
6 28 -8 -5 -20 l-27 -9 27 -29 c28 -30 36 -46 15 -28 -10 8 -13 4 -14 -15 -2
-20 2 -24 17 -20 10 3 17 1 14 -3 -3 -5 -1 -11 4 -14 6 -4 10 37 10 101 1 63
5 109 11 111 5 2 10 9 10 16 0 14 -28 17 -36 4z"/>
<path d="M2578 585 c-2 -67 1 -104 7 -102 12 4 16 195 4 202 -4 3 -9 -42 -11
-100z"/>
<path d="M1471 643 c0 -27 0 -28 10 -5 5 13 13 21 18 17 5 -3 12 -1 16 5 4 6
-5 10 -19 10 -22 0 -26 -4 -25 -27z"/>
<path d="M326 625 c-8 -40 -10 -154 -3 -161 2 -3 7 39 11 92 8 99 3 132 -8 69z"/>
<path d="M956 618 c-22 -31 -21 -98 0 -98 11 0 15 6 11 20 -3 13 0 20 9 20 17
0 18 16 2 24 -7 4 -3 4 10 2 28 -5 31 29 3 44 -16 8 -23 6 -35 -12z"/>
<path d="M1126 619 c-23 -18 -26 -28 -26 -78 0 -32 -5 -62 -12 -70 -11 -10 -3
-12 37 -9 46 3 50 5 53 31 2 15 -1 27 -7 27 -6 0 -11 -11 -11 -25 0 -18 -5
-25 -20 -25 -21 0 -27 15 -10 25 5 3 7 21 4 41 -2 22 0 33 6 29 5 -3 10 1 10
9 0 9 -6 16 -12 17 -19 1 24 18 47 18 16 1 17 -1 5 -9 -8 -5 -12 -10 -10 -12
38 -25 50 -28 50 -13 0 20 -44 65 -63 65 -8 0 -26 -9 -41 -21z"/>
<path d="M1862 620 c-18 -17 -22 -32 -22 -80 0 -36 4 -60 11 -60 5 0 7 -5 4
-11 -5 -6 10 -9 44 -8 27 1 48 7 44 11 -3 5 -12 7 -20 4 -12 -5 -14 -1 -9 19
5 18 2 25 -9 25 -9 0 -15 -9 -15 -25 0 -21 -2 -23 -13 -13 -16 14 -14 101 2
106 6 2 11 10 11 18 0 8 5 14 10 14 6 0 10 -5 10 -11 0 -5 5 -7 10 -4 6 3 15
-6 22 -22 l12 -28 4 25 c3 16 -3 30 -18 42 -29 23 -51 23 -78 -2z"/>
<path d="M2064 615 c-12 -18 -15 -39 -12 -69 6 -50 2 -60 -27 -64 -55 -8 -60
-7 -57 11 2 11 -3 17 -15 17 -14 0 -15 -2 -5 -9 8 -4 13 -11 13 -15 -1 -3 -1
-10 -1 -16 0 -6 53 -10 140 -9 91 1 140 5 140 12 0 6 -3 7 -7 4 -3 -4 -12 -2
-20 4 -10 9 -13 8 -13 0 0 -7 -5 -9 -12 -5 -7 4 -27 7 -45 6 -27 -2 -32 0 -27
15 5 17 5 17 -6 1 -12 -19 -40 -25 -40 -8 0 6 6 10 13 10 8 0 8 3 -2 9 -9 6
-11 15 -6 27 4 11 7 29 6 40 -1 12 5 24 14 28 13 4 15 1 10 -13 -3 -11 -2 -22
3 -25 18 -11 22 38 5 56 -21 24 -29 23 -49 -7z"/>
<path d="M2382 633 c-30 -3 -50 -8 -47 -14 4 -5 11 -7 16 -4 5 4 9 1 9 -5 0
-6 4 -9 9 -6 5 4 19 2 31 -2 18 -7 22 -17 24 -55 1 -26 -1 -47 -4 -47 -3 0 -6
-9 -7 -20 -1 -14 4 -20 20 -20 18 0 19 2 7 10 -8 5 -10 10 -4 10 8 0 10 22 6
70 -3 50 -1 70 7 70 7 0 9 5 6 10 -3 6 -9 9 -13 8 -4 -1 -31 -3 -60 -5z"/>
<path d="M2775 611 c7 -13 -15 -26 -24 -14 -3 5 -13 9 -21 8 -18 0 -26 -35 -8
-36 7 0 2 -5 -12 -11 -21 -9 -22 -12 -7 -15 9 -3 17 -9 17 -14 0 -18 29 -9 35
11 3 11 11 20 16 20 5 0 9 8 9 18 0 10 5 23 12 30 9 9 8 12 -6 12 -9 0 -15 -4
-11 -9z"/>
<path d="M1659 601 c12 -8 12 -12 2 -25 -8 -10 -9 -16 -3 -16 6 0 12 -8 14
-17 3 -10 5 1 6 25 1 33 -3 42 -16 42 -14 0 -15 -2 -3 -9z"/>
<path d="M618 587 c-12 -29 -10 -73 3 -60 6 6 9 26 7 44 -2 26 -5 30 -10 16z"/>
<path d="M1729 598 c0 -2 -2 -19 -4 -38 -3 -25 -1 -29 4 -15 8 20 8 20 13 0 3
-11 5 -3 5 18 1 20 -3 37 -8 37 -5 0 -9 -1 -10 -2z"/>
<path d="M1310 563 c0 -17 6 -33 14 -36 11 -5 13 0 5 25 -12 43 -19 47 -19 11z"/>
<path d="M1530 581 c0 -5 6 -11 14 -14 8 -3 16 -18 19 -34 l4 -28 2 31 c0 16
-4 35 -11 42 -14 14 -28 16 -28 3z"/>
<path d="M2950 530 c-8 -16 -8 -18 5 -14 8 4 17 -1 21 -10 3 -9 10 -14 15 -11
9 6 -10 55 -22 55 -5 0 -13 -9 -19 -20z"/>
<path d="M2864 526 c-3 -8 -11 -13 -17 -10 -7 2 -19 -1 -27 -6 -13 -8 -13 -12
3 -27 15 -15 19 -16 27 -4 14 24 39 -4 34 -38 -4 -23 3 -36 33 -67 21 -22 45
-39 53 -39 10 0 14 -7 12 -20 -3 -13 0 -17 6 -10 12 12 4 75 -9 75 -5 0 -8 -3
-8 -7 3 -20 -2 -23 -17 -9 -8 9 -20 14 -25 11 -5 -4 -6 1 -2 10 3 10 0 21 -8
26 -12 7 -12 12 -1 30 12 18 12 23 0 30 -10 7 -10 9 2 10 8 0 4 4 -10 8 -18 5
-24 14 -23 29 3 25 -15 30 -23 8z"/>
<path d="M1510 500 c-8 -5 -25 -10 -38 -10 -21 0 -22 -2 -8 -15 18 -18 186
-22 186 -4 0 6 -12 9 -27 7 -18 -2 -27 2 -25 10 3 17 -8 15 -25 -5 -8 -10 -11
-12 -7 -4 12 24 -28 39 -56 21z"/>
<path d="M1645 500 c-4 -6 -1 -10 4 -10 6 0 11 -7 11 -15 0 -11 17 -14 85 -14
53 0 85 4 85 11 0 6 -9 8 -20 5 -11 -3 -20 -1 -20 3 0 5 -13 5 -30 0 -19 -5
-32 -5 -36 2 -3 5 -15 8 -25 5 -11 -3 -19 -2 -19 3 0 12 -29 20 -35 10z"/>
<path d="M940 489 c0 -5 6 -7 13 -3 6 4 8 3 4 -1 -4 -5 -26 -8 -47 -6 -24 1
-40 -2 -40 -8 0 -6 3 -11 8 -12 86 -7 92 -6 92 11 0 10 6 21 13 23 6 3 0 6
-15 6 -16 1 -28 -4 -28 -10z"/>
<path d="M2706 492 c-2 -4 -1 -14 5 -22 5 -8 9 -27 9 -43 0 -25 2 -26 20 -15
24 15 26 43 5 52 -8 3 -15 12 -15 21 0 16 -15 21 -24 7z"/>
<path d="M595 482 c-3 -3 -31 -6 -62 -7 -35 0 -58 -5 -60 -12 -3 -9 18 -12 80
-11 65 1 84 4 80 14 -6 15 -29 25 -38 16z"/>
<path d="M2276 475 c5 -11 21 -15 63 -15 44 1 52 3 38 11 -10 6 -21 8 -24 5
-4 -3 -12 -1 -19 5 -8 7 -14 7 -19 -1 -4 -7 -12 -7 -25 0 -16 8 -18 8 -14 -5z"/>
<path d="M2460 468 c0 -5 18 -8 40 -8 22 0 40 3 40 8 0 4 -18 7 -40 7 -22 0
-40 -3 -40 -7z"/>
<path d="M430 442 c0 -15 6 -17 38 -13 l37 6 -33 3 c-18 2 -30 8 -27 13 4 5 1
9 -4 9 -6 0 -11 -8 -11 -18z"/>
<path d="M1758 403 c-3 -41 -6 -48 -25 -51 -18 -3 -23 -10 -23 -31 0 -17 -5
-28 -14 -28 -11 0 -13 8 -9 27 3 16 0 31 -6 35 -8 5 -10 -1 -5 -19 5 -22 3
-26 -15 -26 -12 0 -21 6 -20 13 3 27 -2 35 -25 35 -28 0 -44 -27 -24 -40 10
-6 9 -8 -3 -8 -9 0 -19 7 -23 15 -3 8 -1 15 4 15 6 0 10 4 10 8 0 13 -68 14
-76 1 -5 -8 -1 -11 12 -7 14 4 20 0 20 -13 0 -11 -6 -19 -12 -19 -16 0 -24
-24 -14 -40 7 -11 11 -11 26 1 11 9 15 9 10 2 -5 -9 -1 -13 13 -13 10 0 22 -6
25 -12 3 -7 4 -4 1 8 -4 15 1 24 20 32 28 13 31 6 10 -22 -22 -29 -20 -32 30
-53 25 -10 45 -21 45 -25 0 -5 17 -8 38 -8 31 -1 54 -14 152 -90 116 -91 137
-103 126 -74 -4 12 -2 15 9 10 33 -12 12 5 -25 21 -22 10 -40 22 -40 26 0 11
-42 46 -56 47 -6 0 -19 9 -29 20 -14 16 -15 20 -4 20 8 0 20 -5 26 -11 12 -12
28 4 19 20 -5 8 -95 22 -156 25 -23 1 -25 5 -26 49 -1 37 2 47 13 43 10 -4 13
-1 8 13 -11 37 4 51 54 48 54 -3 75 -13 67 -33 -3 -8 0 -13 7 -11 7 1 11 -4
10 -10 -2 -7 1 -13 6 -13 17 0 23 20 16 48 -5 20 -8 23 -16 11 -7 -12 -9 -12
-9 1 0 10 -13 16 -42 18 -51 3 -62 10 -47 28 8 10 8 14 0 14 -6 0 -11 7 -11
15 0 8 6 15 13 15 8 0 7 4 -3 10 -25 16 -29 12 -32 -37z m-48 -135 c0 -4 -4
-8 -10 -8 -5 0 -10 -11 -10 -25 0 -27 -17 -32 -43 -12 -11 8 -15 20 -11 34 5
18 13 22 40 21 19 -1 34 -5 34 -10z"/>
<path d="M1968 443 c18 -2 45 -2 60 0 15 2 0 4 -33 4 -33 0 -45 -2 -27 -4z"/>
<path d="M2153 443 c37 -2 96 -2 130 0 34 2 4 3 -68 3 -71 0 -99 -1 -62 -3z"/>
<path d="M2420 443 c30 -2 58 -10 63 -16 6 -8 7 -7 4 3 -3 11 -19 15 -63 16
l-59 1 55 -4z"/>
<path d="M2548 443 c12 -2 22 -10 22 -16 0 -9 2 -9 8 -1 4 7 18 14 32 17 14 2
0 4 -30 4 -30 0 -45 -2 -32 -4z"/>
<path d="M63 432 c-37 -5 -16 -32 26 -32 20 0 45 -7 55 -15 15 -11 23 -12 33
-3 7 6 17 8 20 4 4 -4 1 -11 -7 -16 -13 -8 -13 -10 1 -10 14 0 28 26 29 52 0
4 -12 6 -27 6 -51 -2 -74 2 -68 12 6 9 -9 10 -62 2z"/>
<path d="M360 432 c0 -7 -4 -11 -8 -8 -12 7 -102 -14 -102 -24 0 -12 82 -9 98
3 9 7 11 6 7 -4 -4 -10 3 -15 21 -17 38 -3 50 -13 28 -25 -17 -10 -17 -11 1
-17 15 -5 19 -18 20 -61 2 -58 14 -131 22 -139 3 -3 2 28 -1 68 -6 56 -4 72 6
72 9 0 9 3 -2 10 -12 8 -13 13 -2 30 10 17 10 26 -3 51 -11 20 -22 29 -31 25
-9 -4 -18 3 -24 17 -5 12 -9 18 -10 12 0 -5 -5 -3 -10 5 -7 11 -10 11 -10 2z"/>
<path d="M623 433 c26 -2 68 -2 95 0 26 2 4 3 -48 3 -52 0 -74 -1 -47 -3z"/>
<path d="M826 425 c-3 -8 -1 -15 4 -15 6 0 10 6 10 13 0 8 4 7 10 -3 6 -10 10
-11 10 -2 0 6 7 12 16 12 11 0 14 -6 10 -17 -6 -16 -5 -17 7 -2 7 9 21 19 32
22 11 2 -5 5 -36 6 -42 1 -58 -3 -63 -14z"/>
<path d="M978 433 c17 -2 47 -2 65 0 17 2 3 4 -33 4 -36 0 -50 -2 -32 -4z"/>
<path d="M3 394 c0 -26 2 -33 6 -20 5 14 10 16 15 8 4 -7 11 -10 16 -7 13 8 1
35 -15 35 -7 0 -15 5 -17 11 -2 7 -4 -6 -5 -27z"/>
<path d="M2741 386 c-14 -16 -14 -23 -6 -120 6 -75 14 -99 16 -48 2 44 3 49
12 58 4 4 7 12 7 18 0 6 -5 4 -10 -4 -7 -11 -10 -6 -10 22 0 39 20 59 53 54
23 -3 57 -36 57 -55 0 -14 2 -14 10 -1 8 13 10 13 10 -2 0 -9 -4 -18 -10 -20
-12 -4 -22 -77 -13 -91 8 -14 14 -50 16 -104 1 -23 6 -45 11 -50 5 -4 6 35 2
92 -5 90 -5 98 9 81 8 -11 18 -16 22 -12 5 4 -5 18 -21 31 -28 23 -31 58 -4
53 21 -5 20 30 -1 37 -12 3 -21 15 -21 25 0 10 -7 26 -16 34 -20 20 -97 21
-113 2z"/>
<path d="M2504 376 c-9 -23 15 -49 32 -35 10 8 12 6 9 -10 -2 -12 3 -24 12
-30 10 -5 14 -15 10 -25 -5 -11 -3 -15 5 -10 8 5 9 2 5 -9 -4 -10 -2 -17 4
-17 6 0 9 9 6 20 -3 11 1 27 10 35 13 13 12 15 -2 15 -12 0 -16 6 -12 20 6 25
-11 47 -45 56 -21 4 -29 2 -34 -10z"/>
<path d="M2634 382 c-6 -4 -10 -25 -9 -47 1 -22 -2 -44 -6 -50 -4 -6 3 -11 18
-12 19 -1 22 1 12 8 -11 6 -11 11 -1 21 6 6 12 8 12 4 0 -5 6 -4 13 2 10 9 12
3 9 -26 -3 -20 -9 -43 -16 -51 -8 -11 -8 -13 1 -8 8 5 15 -2 19 -20 4 -15 11
-34 17 -40 6 -9 6 -13 -1 -13 -16 0 -19 -55 -4 -70 11 -10 11 -14 2 -20 -9 -6
-9 -9 1 -13 12 -5 12 -7 1 -15 -11 -7 -11 -10 3 -15 14 -6 15 3 13 73 -2 44
-6 80 -9 80 -3 0 -6 39 -6 88 0 49 -5 97 -12 110 -12 22 -36 28 -57 14z"/>
<path d="M250 365 c0 -17 34 -15 52 3 9 9 5 12 -20 12 -22 0 -32 -5 -32 -15z"/>
<path d="M550 354 c0 -20 4 -25 18 -22 24 7 45 -18 39 -44 -6 -21 8 -58 21
-58 12 0 1 134 -11 142 -7 4 -24 8 -39 8 -24 0 -28 -4 -28 -26z"/>
<path d="M718 370 c-19 -12 -13 -54 8 -46 7 3 17 -6 23 -22 9 -24 10 -21 8 22
-2 52 -11 62 -39 46z"/>
<path d="M802 360 c-26 -24 -28 -45 -6 -54 8 -3 13 -2 10 3 -3 5 1 14 9 21 10
8 15 9 15 2 0 -6 6 -9 13 -6 8 3 25 0 39 -5 14 -5 29 -7 32 -4 11 11 56 12 56
2 0 -6 4 -8 9 -5 5 3 12 -6 15 -20 5 -20 12 -25 26 -21 12 3 24 -1 30 -11 5
-10 10 -12 10 -5 0 6 -4 14 -9 17 -9 6 -9 23 0 41 14 26 3 40 -32 41 -20 1
-41 4 -47 8 -17 10 -62 -4 -62 -20 0 -20 -19 -17 -27 4 -14 37 -48 42 -81 12z"/>
<path d="M2356 372 c-12 -11 -6 -60 8 -65 16 -6 36 11 36 30 0 7 7 13 15 13 9
0 12 -6 8 -17 -6 -15 -5 -15 17 0 18 12 27 14 37 5 10 -8 13 -5 13 14 0 24 -3
25 -64 25 -36 0 -67 -2 -70 -5z"/>
<path d="M660 353 c0 -10 -3 -29 -7 -43 -6 -22 -5 -24 10 -11 14 11 17 11 17
0 0 -8 3 -9 9 -3 13 14 1 74 -15 74 -8 0 -14 -8 -14 -17z"/>
<path d="M1945 354 c-13 -7 -25 -8 -27 -3 -2 5 -3 -30 -3 -77 0 -76 2 -88 21
-100 20 -14 20 -14 8 59 -11 61 -10 74 2 87 12 12 16 12 29 -5 14 -20 14 -19
15 3 0 14 4 21 11 16 10 -6 28 11 29 28 0 11 -59 6 -85 -8z"/>
<path d="M2036 354 c-9 -23 -8 -24 14 -24 13 0 22 -10 29 -32 l9 -33 1 33 c1
21 6 32 16 32 9 0 12 -6 9 -17 -3 -10 1 -7 9 6 14 23 15 24 20 5 4 -16 5 -16
6 -1 0 9 8 17 16 17 8 0 15 -8 16 -17 0 -10 9 -43 19 -73 l19 -55 0 39 c1 32
4 37 19 32 11 -4 9 0 -5 10 -17 12 -23 26 -23 55 0 39 0 39 -41 39 -22 0 -50
-5 -62 -11 -16 -9 -22 -9 -25 0 -6 17 -39 13 -46 -5z"/>
<path d="M2254 346 c-6 -27 4 -72 14 -61 7 6 8 11 11 36 1 8 6 8 16 -1 8 -7
15 -9 16 -4 0 5 5 -2 11 -16 14 -33 21 -11 10 32 -7 28 -13 34 -40 36 -26 3
-32 -1 -38 -22z"/>
<path d="M1076 347 c2 -7 0 -26 -5 -40 -7 -19 -7 -27 0 -27 6 0 8 -7 5 -16 -3
-8 -2 -13 3 -10 10 6 21 -17 21 -42 0 -15 -2 -15 -10 -2 -8 13 -10 13 -10 -2
0 -9 5 -20 10 -23 17 -11 11 -28 -7 -20 -14 5 -15 4 -6 -6 7 -7 26 -12 43 -12
16 0 30 -2 30 -3 0 -5 -51 -54 -56 -54 -3 0 -3 9 1 20 5 15 3 18 -9 14 -9 -3
-17 -12 -17 -20 -1 -8 -3 -18 -4 -24 -1 -5 -3 -13 -4 -17 -1 -5 -5 -2 -10 6
-7 11 -14 9 -35 -13 -15 -14 -37 -27 -49 -27 -17 -1 -18 -2 -4 -6 9 -2 14 -9
11 -15 -7 -11 44 14 101 51 22 14 49 31 60 37 11 6 48 27 82 47 35 20 71 36
80 37 37 4 63 0 63 -11 0 -6 -7 -8 -17 -5 -10 4 -14 4 -10 0 4 -4 -7 -23 -25
-41 -24 -25 -35 -30 -45 -21 -11 8 -12 7 -7 -5 6 -17 -51 -75 -69 -69 -5 1 -6
-2 -3 -7 4 -5 0 -12 -6 -14 -7 -3 -2 -6 12 -6 17 0 43 16 79 50 40 38 56 48
62 38 4 -7 3 -19 -3 -26 -8 -10 -6 -13 7 -13 10 0 16 2 13 5 -3 3 1 27 7 53
l12 47 72 3 c39 2 71 0 71 -5 0 -4 -7 -33 -15 -63 -17 -62 -19 -90 -7 -90 5 0
15 36 22 80 l14 81 70 -3 71 -3 50 -77 c27 -42 53 -77 57 -78 12 0 -4 33 -36
75 -22 28 -26 37 -13 32 18 -7 17 2 -6 31 -8 10 -12 10 -18 0 -5 -8 -11 -4
-20 14 -13 31 -41 36 -129 27 -30 -3 -71 -2 -92 1 -21 4 -35 3 -32 -1 3 -5 1
-9 -5 -9 -16 0 -25 22 -11 30 8 5 9 16 5 31 -7 22 -8 22 -19 -11 -6 -18 -17
-35 -23 -38 -14 -4 -18 22 -15 101 2 30 -2 47 -9 47 -6 0 -9 -8 -6 -19 2 -11
-3 -26 -15 -35 -14 -13 -18 -24 -13 -46 8 -35 2 -38 -66 -41 -30 -1 -59 -6
-66 -11 -7 -6 -16 -4 -24 5 -11 12 -16 11 -30 -7 -16 -20 -17 -18 -7 34 5 30
14 58 19 61 5 3 7 14 3 24 -5 12 -4 16 4 11 7 -4 9 -23 5 -51 -3 -29 -2 -45 5
-45 6 0 10 27 11 65 0 36 -4 63 -8 60 -5 -2 -11 1 -14 8 -3 7 -21 14 -41 15
-26 2 -34 -1 -30 -11z"/>
<path d="M1178 335 c2 -14 8 -25 13 -25 5 0 9 11 9 25 0 14 -6 25 -14 25 -9 0
-12 -8 -8 -25z"/>
<path d="M1223 341 c9 -10 6 -17 -11 -31 -17 -14 -22 -29 -22 -66 0 -52 12
-54 14 -2 1 29 5 33 29 33 16 1 30 -2 33 -6 2 -4 15 -2 29 4 18 9 25 20 25 40
0 17 5 27 14 27 8 0 17 4 20 8 2 4 -28 8 -69 7 -61 0 -71 -2 -62 -14z"/>
<path d="M1379 347 c13 -13 15 -30 2 -23 -4 3 -6 -6 -3 -20 2 -14 7 -22 10
-20 3 3 11 -2 19 -12 8 -9 12 -11 8 -4 -4 7 0 12 9 12 9 0 16 7 16 15 0 8 -4
15 -10 15 -5 0 -10 -5 -10 -12 0 -6 -3 -9 -6 -6 -3 4 0 16 6 28 14 26 10 31
-25 34 -19 3 -23 0 -16 -7z"/>
<path d="M1459 360 c-7 -29 -3 -82 8 -91 7 -6 13 -10 14 -8 6 40 4 72 -7 86
-7 10 -14 16 -15 13z"/>
<path d="M469 334 c-9 -11 -9 -18 -2 -22 12 -7 13 -62 1 -62 -3 0 -4 -10 0
-22 5 -21 6 -21 13 -2 4 10 8 31 8 47 1 22 6 27 25 27 14 0 27 4 30 9 7 11
-22 36 -31 27 -3 -3 0 -6 8 -7 8 0 3 -5 -10 -10 -26 -10 -43 -3 -22 10 8 5 9
11 3 15 -5 3 -16 -1 -23 -10z"/>
<path d="M178 301 c-11 -22 -14 -37 -7 -41 6 -4 7 -24 3 -48 -4 -29 -3 -42 5
-42 11 0 15 13 12 38 -2 14 8 15 27 3 16 -10 12 -56 -5 -56 -22 0 -25 -13 -8
-39 13 -19 15 -33 8 -53 -5 -16 -7 -36 -5 -45 5 -26 32 -22 33 5 1 12 3 32 4
44 1 13 -2 23 -7 23 -5 0 -6 4 -3 10 3 5 8 51 10 102 3 79 2 88 -7 58 -6 -19
-13 -37 -15 -40 -9 -11 -23 28 -23 64 0 33 3 38 20 33 11 -3 20 -2 20 3 0 4
-10 10 -22 12 -18 3 -27 -3 -40 -31z"/>
<path d="M1790 325 c0 -8 -7 -15 -15 -15 -10 0 -15 -10 -15 -27 0 -22 2 -25
10 -13 6 10 10 11 10 3 0 -7 9 -13 20 -13 11 0 20 5 20 11 0 8 4 8 14 0 9 -7
17 -8 20 -2 10 15 -3 35 -34 53 -25 14 -30 15 -30 3z"/>
<path d="M134 282 c-7 -10 -15 -38 -19 -62 -4 -25 -11 -49 -15 -55 -12 -15 0
-65 16 -65 19 0 17 -15 -3 -31 -16 -13 -17 -12 -4 4 7 9 9 17 3 17 -15 0 -29
-22 -36 -60 -4 -25 -3 -31 4 -20 5 8 10 11 10 5 0 -5 8 1 16 15 l15 25 -6 -27
c-4 -23 -2 -28 14 -28 16 0 19 11 25 81 5 52 4 85 -3 93 -13 16 -12 96 2 114
5 6 5 12 1 12 -5 0 -14 -8 -20 -18z"/>
<path d="M40 279 c0 -4 7 -9 15 -13 8 -3 15 -12 15 -19 0 -8 -7 -20 -15 -27
-13 -11 -15 -8 -16 16 -1 25 -3 23 -13 -14 -6 -24 -14 -40 -19 -36 -4 4 -7 2
-7 -4 0 -17 16 -15 35 5 16 16 17 15 14 -3 -2 -10 -14 -23 -27 -29 -12 -6 -20
-16 -17 -23 3 -8 5 -18 5 -23 0 -6 4 -7 10 -4 5 3 10 14 10 25 0 10 7 20 15
24 8 3 15 13 15 21 0 9 4 13 10 10 6 -4 7 1 3 11 -5 13 -3 16 9 11 10 -3 19 0
22 9 3 8 -1 14 -9 14 -7 0 -16 13 -20 28 -3 16 -12 29 -20 29 -8 0 -15 -4 -15
-8z"/>
<path d="M2920 255 c-13 -15 -11 -16 20 -11 24 3 38 0 48 -12 11 -14 11 -12
-1 8 -17 30 -49 37 -67 15z"/>
<path d="M1487 223 c-12 -11 -8 -23 8 -23 8 0 15 5 15 10 0 6 11 8 26 4 19 -5
25 -4 20 5 -8 12 -58 15 -69 4z"/>
<path d="M2575 193 c1 -21 -3 -44 -8 -50 -6 -8 -6 -13 0 -13 13 0 11 -43 -2
-52 -6 -5 -5 -8 4 -8 11 0 11 -3 1 -15 -12 -15 -5 -55 11 -55 8 0 14 51 11 90
-4 37 -4 106 -1 119 2 7 -1 15 -7 18 -7 2 -10 -10 -9 -34z"/>
<path d="M1027 180 c3 -12 2 -20 -3 -19 -21 4 -35 -2 -29 -11 4 -6 11 -8 16
-4 5 3 17 0 26 -8 10 -8 14 -8 10 -1 -4 6 -3 14 3 18 7 4 7 12 0 26 -14 25
-30 25 -23 -1z"/>
<path d="M2627 106 c-4 -27 -7 -63 -6 -80 l1 -31 10 28 c5 15 14 25 19 21 15
-9 10 13 -6 26 -10 8 -12 16 -6 20 6 3 7 17 2 35 -7 28 -8 27 -14 -19z"/>
<path d="M1396 125 c-3 -9 -6 -29 -6 -44 0 -25 3 -28 28 -23 16 4 20 7 11 9
-10 3 -16 15 -17 34 -1 37 -7 46 -16 24z"/>
<path d="M2190 119 c0 -13 -5 -19 -13 -16 -8 3 -14 -3 -14 -14 -3 -33 23 -21
34 16 6 20 7 35 2 35 -5 0 -9 -9 -9 -21z"/>
<path d="M1580 118 c0 -4 3 -7 8 -7 33 5 41 -2 38 -36 -2 -19 0 -35 5 -35 5 0
9 19 9 43 0 42 -1 44 -30 44 -16 0 -30 -4 -30 -9z"/>
<path d="M43 87 c8 -13 17 -32 20 -42 2 -11 5 -1 6 23 1 36 -2 42 -20 42 -20
0 -20 -2 -6 -23z"/>
<path d="M2220 56 c0 -8 14 -22 32 -31 l32 -16 -29 31 c-33 34 -35 35 -35 16z"/>
</g>
</svg>
