<?xml version="1.0" standalone="no"?>
<!DOCTYPE svg PUBLIC "-//W3C//DTD SVG 20010904//EN"
 "http://www.w3.org/TR/2001/REC-SVG-20010904/DTD/svg10.dtd">
<svg version="1.0" xmlns="http://www.w3.org/2000/svg"
 width="300.000000pt" height="200.000000pt" viewBox="0 0 300.000000 200.000000"
 preserveAspectRatio="xMidYMid meet">
<metadata>
Created by potrace 1.10, written by Peter Selinger 2001-2011
</metadata>
<g transform="translate(0.000000,200.000000) scale(0.100000,-0.100000)"
fill="#000000" stroke="none">
<path d="M0 1929 c0 -55 4 -75 17 -84 15 -11 15 -17 1 -73 -20 -77 -24 -242
-7 -253 17 -10 19 -48 2 -42 -8 3 -13 -2 -13 -14 0 -18 12 -22 90 -33 50 -7
97 -18 105 -24 18 -13 34 -113 17 -102 -7 4 -12 20 -12 36 0 27 -3 29 -42 32
-24 2 -69 1 -100 0 -54 -4 -58 -6 -58 -28 0 -19 7 -26 30 -31 17 -3 33 -9 36
-14 7 -13 -7 -60 -17 -53 -5 3 -9 0 -9 -6 0 -7 -5 -6 -14 2 -8 7 -11 18 -8 23
3 6 1 7 -3 2 -5 -4 -9 -16 -10 -27 -1 -15 5 -20 24 -21 l26 -1 -27 -11 c-16
-6 -28 -16 -28 -23 0 -16 53 -25 62 -11 6 9 8 9 8 0 0 -8 14 -13 34 -13 19 0
37 -3 40 -8 2 -4 -14 -6 -36 -4 -30 3 -39 1 -36 -9 2 -7 22 -13 49 -13 29 -1
43 -5 42 -13 -5 -21 7 -15 17 10 7 17 9 18 9 5 1 -10 7 -18 15 -18 11 0 12 7
7 28 -5 15 -13 26 -20 25 -6 -2 -11 10 -11 27 0 19 -5 30 -14 30 -7 0 -19 7
-27 16 -9 11 -22 14 -42 10 -27 -5 -29 -4 -23 17 3 12 6 28 6 34 0 9 10 11 33
6 42 -8 60 -22 48 -37 -7 -8 -2 -18 15 -31 54 -40 65 -53 52 -58 -18 -6 -6
-17 39 -32 45 -15 52 -12 30 13 -22 24 -21 49 2 61 15 9 20 7 24 -10 3 -11 15
-23 26 -26 11 -3 18 -9 16 -14 -3 -4 7 -16 22 -26 15 -10 30 -21 33 -24 8 -11
33 -13 57 -5 14 4 34 1 55 -10 31 -16 32 -17 10 -25 -30 -11 -28 -16 8 -13 17
1 30 -1 30 -5 0 -11 57 -41 79 -41 12 0 21 -4 21 -10 0 -17 30 -11 37 8 4 9
13 22 21 28 12 8 11 12 -2 23 -11 9 -14 24 -11 50 10 77 17 139 22 209 3 39 9
72 14 72 5 0 9 -4 9 -10 0 -5 8 -10 18 -10 12 0 14 2 4 8 -7 5 -14 23 -15 40
-1 18 -6 32 -11 32 -4 0 -6 6 -3 13 3 8 2 19 -2 26 -4 6 -13 -44 -20 -111 -14
-133 -21 -161 -21 -80 0 44 -2 50 -17 45 -11 -4 -14 -3 -9 5 11 18 -13 14 -63
-8 -24 -11 -49 -20 -57 -20 -21 0 -28 -22 -10 -32 9 -5 16 -17 16 -28 0 -10
12 -25 28 -33 66 -35 87 -49 65 -44 -15 3 -20 1 -16 -9 3 -7 8 -13 11 -12 31
3 38 -4 38 -37 -1 -19 -5 -35 -10 -35 -5 0 -3 -7 4 -15 10 -12 10 -15 0 -15
-10 0 -10 -3 0 -15 7 -8 11 -15 9 -16 -41 -8 -49 -8 -44 1 3 5 1 10 -4 10 -6
0 -11 10 -11 21 0 18 2 19 15 9 9 -7 18 -10 21 -7 9 9 -5 27 -22 27 -17 0 -17
5 -4 31 8 15 7 23 -5 35 -13 14 -15 12 -15 -17 0 -18 -7 -38 -17 -46 -17 -14
-17 -14 0 -9 13 4 17 0 17 -18 0 -12 -3 -25 -6 -28 -7 -8 -38 23 -47 45 -4 10
-10 17 -14 16 -19 -3 -33 2 -33 12 0 8 4 9 13 0 17 -14 27 -4 27 26 0 16 6 23
20 23 11 0 20 5 20 10 0 6 -11 10 -25 10 -22 0 -25 -4 -25 -35 0 -34 -1 -35
-22 -23 -13 7 -26 17 -29 21 -3 5 -9 2 -12 -7 -4 -9 -13 -13 -22 -10 -8 3 -15
1 -15 -5 0 -16 -25 -13 -40 4 -11 13 -7 15 26 15 35 0 37 1 23 16 -9 8 -27 17
-40 18 -46 6 -109 27 -109 36 0 13 26 13 50 0 32 -17 70 -2 71 29 2 23 2 24 6
4 5 -27 11 -28 37 -8 11 8 33 15 49 15 19 0 27 4 24 13 -2 8 -24 12 -62 12
-49 -1 -60 -4 -73 -23 -13 -20 -40 -33 -28 -14 8 13 -48 8 -62 -5 -11 -11 -20
-8 -45 11 -23 17 -41 22 -63 19 -23 -4 -33 0 -37 12 -4 10 -3 14 4 9 6 -3 23
5 37 19 18 18 32 23 41 18 7 -5 10 -14 7 -20 -4 -6 -4 -16 0 -22 9 -15 24 9
24 38 0 12 4 25 10 28 6 4 7 -11 3 -41 -4 -34 -3 -45 5 -40 7 4 12 23 12 42
l0 34 43 -21 c23 -12 45 -26 48 -31 4 -6 9 -6 14 2 9 15 4 19 -38 34 -28 9
-33 15 -26 31 6 17 8 17 8 3 1 -10 9 -18 19 -18 9 0 29 -11 44 -25 27 -25 88
-35 88 -14 0 5 -4 7 -10 4 -5 -3 -10 -1 -10 6 0 7 -3 10 -6 6 -4 -3 -13 1 -21
9 -8 8 -19 12 -24 9 -5 -4 -21 5 -36 19 -29 27 -43 28 -166 10 l-48 -7 7 27
c4 16 2 26 -5 26 -6 0 -12 20 -13 48 l-1 47 -4 -42 c-2 -24 -7 -43 -11 -42 -4
0 -27 14 -52 30 -25 16 -57 34 -71 41 -18 8 -26 19 -26 36 0 13 -6 28 -13 32
-15 9 16 217 36 241 12 13 10 19 -16 44 -24 23 -29 35 -25 57 3 15 8 42 11 58
5 26 3 30 -15 30 -19 0 -21 -6 -21 -71z m688 -665 c27 -13 32 -20 32 -49 0
-19 -4 -35 -10 -35 -5 0 -10 6 -10 14 0 8 -12 28 -26 43 -14 15 -22 21 -18 13
6 -12 4 -13 -7 -2 -7 6 -21 12 -30 12 -9 0 -19 6 -22 13 -6 17 44 12 91 -9z
m-408 -30 c0 -18 -20 -17 -42 0 -25 19 -22 23 12 18 17 -2 30 -10 30 -18z
m-150 -30 c0 -17 4 -23 13 -18 9 5 9 4 0 -6 -10 -10 -18 -10 -42 -1 -16 7 -39
10 -50 6 -36 -11 -23 9 17 27 52 23 62 22 62 -8z"/>
<path d="M2918 1851 c-8 -10 -22 -21 -29 -23 -8 -3 -10 -9 -6 -14 4 -4 21 6
38 24 16 18 26 32 22 32 -5 0 -16 -8 -25 -19z"/>
<path d="M725 1835 c-5 -3 -101 -9 -211 -14 -218 -9 -252 -18 -268 -63 -11
-32 8 -108 28 -108 7 0 35 -12 62 -26 135 -73 241 -114 295 -114 24 0 -32 32
-104 60 -112 43 -240 115 -249 140 -11 31 5 55 49 68 39 13 402 11 453 -2 21
-5 22 -5 5 3 -11 5 -32 10 -47 10 -16 1 -28 6 -28 11 0 10 20 14 55 10 24 -2
75 -29 58 -30 -23 0 -13 -15 20 -29 47 -20 208 -99 236 -115 35 -21 71 -65 65
-81 -9 -22 -90 -55 -136 -55 -41 0 -150 -28 -118 -30 8 0 46 -3 83 -5 60 -4
78 -1 143 26 79 33 83 39 60 93 -18 44 -57 72 -204 145 -68 34 -135 70 -150
80 -27 20 -79 33 -97 26z"/>
<path d="M2500 1800 c-21 -13 -6 -23 22 -14 13 4 27 7 31 6 5 -1 6 2 2 8 -8
12 -35 13 -55 0z"/>
<path d="M2395 1758 c-33 -23 -66 -48 -73 -55 -7 -7 -17 -13 -21 -13 -7 0 -31
-44 -31 -57 0 -3 9 2 20 12 11 10 20 25 20 33 0 9 3 12 7 9 8 -8 54 20 66 40
4 7 13 13 18 13 15 0 69 40 69 51 0 15 -12 10 -75 -33z"/>
<path d="M2926 1739 c-16 -16 -25 -29 -20 -29 11 1 35 20 53 43 22 28 -1 18
-33 -14z"/>
<path d="M2807 1741 c-3 -14 -11 -19 -20 -15 -8 3 -18 1 -22 -5 -10 -17 34
-13 52 5 11 10 12 19 6 25 -7 7 -12 3 -16 -10z"/>
<path d="M2504 1655 c-5 -11 -17 -29 -29 -40 -12 -11 -24 -28 -28 -37 -3 -10
-11 -18 -17 -18 -6 0 -8 5 -5 10 4 6 -6 10 -21 10 -27 0 -27 -1 -8 -16 10 -8
14 -13 8 -10 -7 3 -17 -1 -24 -9 -15 -18 -14 -18 30 -2 36 12 95 60 110 88 5
8 5 21 0 29 -7 12 -10 11 -16 -5z"/>
<path d="M518 1482 c-89 -25 -76 -51 37 -76 39 -8 91 -17 117 -19 44 -4 46 -3
52 26 9 44 7 59 -6 55 -6 -2 -12 -14 -13 -26 -2 -31 -5 -32 -60 -20 -54 11
-79 27 -56 35 11 5 11 7 0 14 -10 6 -11 9 -1 9 6 0 12 5 12 10 0 12 -10 11
-82 -8z"/>
<path d="M930 1435 c0 -11 -7 -14 -27 -10 -26 5 -26 5 -5 -4 12 -6 22 -15 22
-21 0 -9 -43 -15 -77 -11 -6 1 -14 -2 -17 -7 -3 -5 13 -12 37 -16 23 -4 63
-10 90 -15 35 -6 50 -4 58 6 6 7 19 13 27 13 9 0 -5 13 -30 29 -25 16 -49 34
-52 40 -10 16 -26 13 -26 -4z"/>
<path d="M760 1337 c0 -12 3 -39 6 -59 l6 -37 62 -5 c33 -3 88 -7 120 -10 l60
-5 -38 23 c-30 18 -35 24 -22 29 26 10 19 21 -37 50 -50 26 -89 38 -57 17 12
-8 12 -10 -5 -10 -17 0 -16 -3 9 -24 29 -22 29 -24 10 -34 -33 -17 -116 28
-85 47 7 5 4 13 -9 24 -19 16 -20 16 -20 -6z"/>
<path d="M752 1225 c0 -22 2 -35 4 -29 3 7 28 6 82 -3 113 -19 117 -22 20 -18
-51 2 -88 0 -88 -6 0 -12 190 -12 209 0 12 8 10 11 -10 15 -13 3 -37 8 -54 11
-16 4 -48 9 -70 11 -72 9 -83 13 -88 37 -2 12 -5 4 -5 -18z"/>
<path d="M510 1230 c16 -10 11 -13 -35 -23 -15 -4 -13 -5 7 -6 16 -1 28 -8 31
-18 4 -17 5 -17 6 0 1 18 21 25 21 6 0 -5 5 -7 10 -4 6 3 10 17 10 31 0 20 -5
24 -32 24 -24 0 -29 -3 -18 -10z"/>
<path d="M580 1216 c0 -14 47 -28 55 -16 2 4 -7 12 -21 19 -32 14 -34 14 -34
-3z"/>
<path d="M742 1120 c0 -30 3 -47 6 -37 7 16 9 16 25 -3 9 -11 17 -25 17 -31 0
-5 5 -7 10 -4 6 3 13 -1 16 -10 4 -9 18 -21 33 -27 24 -10 25 -11 6 -18 -19
-7 -19 -8 3 -11 25 -4 26 -24 1 -23 -8 0 -23 -10 -33 -23 -15 -20 -15 -23 -1
-23 8 0 15 7 15 15 0 8 9 15 20 15 23 0 25 -17 10 -69 -5 -19 -8 -36 -6 -38 4
-4 30 72 40 120 6 24 10 26 34 21 41 -8 102 -36 102 -46 0 -4 11 -8 24 -8 12
0 52 -21 87 -48 82 -61 130 -86 154 -79 15 3 13 5 -8 6 -15 1 -40 14 -58 31
-17 16 -40 32 -50 35 -36 12 -19 25 30 25 28 0 52 4 55 9 8 12 80 -3 111 -23
16 -11 25 -12 25 -5 0 8 6 7 18 -3 14 -13 57 -26 107 -33 6 -1 17 -5 25 -8 16
-6 82 -15 170 -23 31 -3 81 -17 115 -34 33 -16 78 -31 100 -34 130 -19 355
-28 355 -15 0 12 12 11 -150 20 -155 9 -189 12 -232 22 -16 4 -39 9 -53 12
-14 3 -25 10 -25 16 0 6 11 8 28 5 15 -3 33 -2 40 2 14 9 -123 32 -188 32 -20
0 -40 4 -46 10 -5 5 -45 16 -89 24 -134 25 -175 37 -175 51 0 8 -19 14 -55 17
-70 6 -122 -1 -104 -14 21 -14 -109 0 -151 17 -19 7 -48 17 -65 20 -27 7 -28
8 -10 15 12 5 14 9 6 9 -8 1 -28 13 -43 28 -15 15 -28 21 -28 14 0 -7 -4 -10
-8 -7 -5 3 -29 6 -55 7 -27 2 -48 8 -51 16 -3 7 -2 13 3 13 4 0 6 11 3 25 -5
28 3 32 24 10 23 -22 40 -18 20 4 -12 14 -31 20 -58 19 l-39 0 22 -21 c13 -12
18 -22 11 -25 -12 -4 -53 33 -45 41 2 3 -4 10 -15 16 -12 6 -23 21 -25 33 -2
13 -5 -2 -5 -32z"/>
<path d="M226 1125 c4 -10 14 -15 25 -12 12 3 19 0 19 -9 0 -8 -9 -14 -20 -14
-25 0 -27 -20 -2 -21 14 0 14 -2 -3 -8 -11 -5 -25 -5 -31 0 -6 5 -57 11 -113
15 l-103 6 4 -24 c2 -17 10 -24 31 -26 17 -2 27 1 27 10 0 10 3 9 10 -2 9 -13
11 -13 20 0 6 10 10 11 10 3 0 -7 7 -13 15 -13 8 0 15 4 15 8 0 5 7 9 15 9 8
0 15 -6 15 -13 0 -10 9 -12 33 -7 56 11 77 22 87 47 5 13 15 26 22 29 13 4 -7
15 -59 31 -19 6 -22 4 -17 -9z"/>
<path d="M840 1129 c0 -6 18 -9 45 -8 35 2 48 -1 59 -16 8 -11 18 -17 22 -12
4 4 2 7 -5 7 -8 0 -10 7 -6 20 6 18 2 20 -54 20 -37 0 -61 -4 -61 -11z"/>
<path d="M972 1128 c3 -7 19 -14 36 -16 18 -2 32 -8 32 -14 0 -6 -10 -8 -25
-4 -15 4 -25 2 -25 -4 0 -7 17 -10 43 -8 24 2 40 7 37 13 -3 6 -9 9 -13 7 -5
-1 -11 7 -14 18 -4 15 -14 20 -40 20 -23 0 -33 -4 -31 -12z"/>
<path d="M1255 1070 c-13 -6 14 -9 80 -11 55 -1 109 -3 120 -6 11 -2 54 -6 95
-9 61 -5 73 -4 63 7 -24 24 -310 40 -358 19z"/>
<path d="M990 1063 c0 -6 -3 -19 -6 -27 -5 -12 -2 -15 10 -10 12 5 15 2 10
-10 -4 -11 -1 -16 10 -16 10 0 13 6 9 18 -9 26 -33 58 -33 45z"/>
<path d="M1036 1042 c-9 -27 13 -72 38 -77 12 -2 41 -6 66 -9 43 -4 44 -4 20
9 -14 8 -38 15 -55 15 -16 0 -37 5 -45 10 -10 7 2 8 39 5 30 -3 57 -9 60 -14
4 -5 20 -11 37 -14 17 -3 41 -10 52 -16 11 -6 27 -11 34 -11 7 1 0 7 -17 15
-19 8 -24 14 -13 14 11 1 15 6 12 16 -5 13 12 15 117 15 288 1 458 -1 527 -6
50 -5 72 -3 72 5 0 7 -38 11 -119 11 -66 0 -122 4 -125 8 -3 5 67 8 155 8 89
-1 163 3 166 8 3 4 -171 6 -386 5 -215 -2 -391 -8 -391 -12 0 -5 -27 -7 -60
-5 -33 1 -60 6 -60 10 0 5 -6 8 -14 8 -8 0 -16 5 -18 12 -3 7 -7 6 -11 -5 -4
-12 -1 -17 11 -17 14 0 15 -2 2 -10 -10 -6 -20 -4 -32 7 -10 9 -18 11 -18 6 0
-6 -7 -14 -16 -17 -11 -4 -15 -2 -11 7 3 8 2 20 -3 27 -6 9 -9 7 -14 -8z"/>
<path d="M736 1031 c-8 -12 4 -41 16 -41 6 0 5 7 -2 15 -7 9 -9 19 -5 23 4 4
10 1 12 -5 3 -7 13 -13 23 -13 10 0 22 -4 25 -10 3 -5 11 -10 17 -10 7 0 3 8
-8 18 -23 22 -70 36 -78 23z"/>
<path d="M2094 1033 c10 -10 101 -13 131 -5 23 6 9 9 -53 9 -46 1 -81 -1 -78
-4z"/>
<path d="M2857 1018 c-6 -4 17 -6 51 -4 34 1 65 6 69 10 10 9 -105 4 -120 -6z"/>
<path d="M12 1012 c-28 -9 -8 -20 48 -25 64 -6 100 0 100 15 0 5 -4 6 -10 3
-5 -3 -10 -1 -10 4 0 6 -5 11 -11 11 -5 0 -7 -6 -3 -12 6 -10 4 -10 -8 0 -15
12 -76 14 -106 4z"/>
<path d="M2135 1000 c-117 -5 -107 -6 415 -25 232 -9 425 -17 434 -18 5 -1 11
4 13 11 4 9 -29 12 -139 13 -78 0 -183 2 -233 4 -237 9 -367 15 -373 17 -4 2
-56 1 -117 -2z"/>
<path d="M105 933 c-68 -5 -105 -13 -105 -25 0 -13 111 -1 210 22 32 8 31 8
-15 7 -27 -1 -68 -3 -90 -4z"/>
<path d="M530 932 c0 -4 -11 -9 -26 -10 -14 -1 -33 -6 -43 -12 -10 -5 -41 -17
-67 -26 -81 -27 -97 -34 -92 -40 5 -4 247 72 256 81 2 1 -4 5 -13 8 -8 4 -15
3 -15 -1z"/>
<path d="M935 920 c3 -5 24 -10 46 -10 21 0 39 5 39 10 0 6 -21 10 -46 10 -27
0 -43 -4 -39 -10z"/>
<path d="M65 853 c-11 -2 -30 -6 -42 -9 -15 -3 -23 -12 -23 -24 0 -26 34 -29
115 -10 22 5 52 11 68 15 41 8 33 22 -13 21 -22 -1 -40 2 -40 7 0 7 -30 8 -65
0z"/>
<path d="M1070 810 c0 -5 15 -12 33 -15 22 -4 40 -18 57 -43 14 -20 50 -66 80
-103 30 -37 63 -78 73 -90 19 -26 23 -9 5 24 -6 12 -33 50 -60 84 -26 34 -48
67 -48 73 0 5 12 10 26 10 14 0 23 4 19 10 -3 6 -21 10 -40 10 -19 0 -38 6
-42 13 -14 24 -103 48 -103 27z"/>
<path d="M1470 774 c0 -7 57 -31 153 -64 135 -47 82 -11 -66 45 -68 25 -87 30
-87 19z"/>
<path d="M875 758 c-3 -11 -1 -51 4 -68 4 -14 21 29 21 53 0 27 -17 38 -25 15z"/>
<path d="M1295 730 c4 -6 10 -8 14 -5 5 2 13 -7 19 -20 6 -14 43 -45 81 -69
38 -25 72 -49 76 -55 3 -6 11 -9 16 -6 5 4 23 -3 39 -15 17 -12 30 -17 30 -12
0 5 -24 22 -52 37 -29 16 -59 37 -66 47 -7 10 -18 18 -23 18 -11 0 -72 41 -77
53 -2 4 -10 14 -19 22 -16 17 -48 21 -38 5z"/>
<path d="M2331 685 c7 -7 99 -55 105 -55 10 0 -21 25 -53 43 -28 15 -63 24
-52 12z"/>
<path d="M1080 567 c0 -21 23 -27 38 -11 7 8 8 14 3 14 -5 0 -16 3 -25 6 -10
4 -16 1 -16 -9z"/>
</g>
</svg>
