<?xml version="1.0" standalone="no"?>
<!DOCTYPE svg PUBLIC "-//W3C//DTD SVG 20010904//EN"
 "http://www.w3.org/TR/2001/REC-SVG-20010904/DTD/svg10.dtd">
<svg version="1.0" xmlns="http://www.w3.org/2000/svg"
 width="300.000000pt" height="400.000000pt" viewBox="0 0 300.000000 400.000000"
 preserveAspectRatio="xMidYMid meet">
<metadata>
Created by potrace 1.10, written by Peter Selinger 2001-2011
</metadata>
<g transform="translate(0.000000,400.000000) scale(0.100000,-0.100000)"
fill="#000000" stroke="none">
<path d="M829 3724 c0 -27 -2 -61 -3 -76 -1 -14 2 -24 7 -21 5 3 11 -4 14 -15
3 -12 15 -23 27 -25 19 -4 18 -4 -4 -6 -23 -2 -22 -4 9 -15 23 -8 37 -21 42
-37 l6 -25 -86 2 c-80 2 -111 -6 -111 -28 0 -5 9 -4 20 2 25 14 108 21 115 10
3 -5 13 -7 23 -5 9 1 25 -2 35 -7 15 -7 17 -4 17 27 0 29 -9 46 -48 88 -45 49
-48 55 -50 111 -3 73 -12 87 -13 20z"/>
<path d="M2228 3704 c-2 -27 3 -61 10 -77 14 -29 4 -59 -27 -85 -14 -12 -13
-13 9 -8 14 3 33 6 42 6 11 0 15 5 12 15 -4 8 -1 15 5 15 10 0 15 -14 12 -32
0 -5 4 -8 10 -8 7 0 9 -9 6 -21 -3 -12 -3 -18 0 -15 4 3 13 0 21 -7 13 -10 15
-7 9 28 -5 30 -17 50 -48 78 -37 34 -41 43 -46 94 -5 73 -11 79 -15 17z"/>
<path d="M2237 3454 c3 -7 14 -15 26 -17 12 -3 -1 -4 -30 -3 -28 0 -49 4 -46
8 2 5 -1 8 -6 8 -6 0 -11 -4 -11 -8 0 -5 -44 -8 -97 -6 -66 1 -100 -2 -105 -9
-6 -9 -8 -9 -8 0 0 16 -198 17 -217 1 -8 -7 -13 -7 -13 0 0 6 -64 9 -177 8
-135 -1 -178 -4 -178 -13 0 -7 -4 -13 -10 -12 -5 0 -9 6 -8 12 2 9 -14 13 -52
13 -42 1 -55 -2 -58 -15 -4 -14 -5 -13 -6 2 -1 13 -10 17 -35 17 -19 0 -36 -5
-38 -12 -3 -7 -9 -8 -19 -3 -8 5 -41 11 -74 12 -33 1 -86 5 -118 7 -33 2 -55
0 -51 -5 8 -14 -50 -11 -64 3 -9 9 -15 9 -23 1 -9 -9 -18 -8 -37 0 -20 9 -26
9 -30 -1 -4 -14 -32 -16 -32 -2 0 7 -115 9 -337 8 l-338 -3 -3 -69 c-2 -38 1
-73 6 -78 6 -6 8 12 6 45 -3 62 15 101 37 80 7 -7 22 -13 33 -13 17 0 18 2 6
10 -12 8 -11 10 7 10 17 0 21 -4 16 -17 -6 -15 -4 -16 9 -5 11 9 33 10 72 6
39 -5 56 -3 56 5 0 6 5 11 11 11 6 0 9 -9 6 -19 -4 -17 -2 -18 17 -9 54 28 58
29 51 19 -8 -14 28 -14 42 0 7 7 15 5 27 -6 15 -15 16 -15 16 2 0 11 3 14 8 7
8 -13 60 -16 67 -3 3 4 19 3 36 -3 16 -5 38 -8 49 -5 10 3 22 0 25 -7 3 -8 7
-8 11 2 7 15 34 16 34 1 0 -8 4 -9 13 0 8 6 16 9 18 7 11 -9 69 -15 64 -6 -6
10 267 8 295 -3 8 -3 44 -8 79 -10 36 -3 67 -11 72 -18 6 -10 11 -10 24 1 21
18 43 21 51 8 4 -6 10 -5 16 3 7 11 11 11 14 2 4 -9 11 -9 30 -1 20 10 27 9
34 -2 5 -8 6 -18 4 -22 -3 -5 -2 -8 3 -7 25 4 32 -5 35 -43 l3 -41 15 27 c14
27 13 29 -13 52 -15 12 -27 27 -27 32 0 16 27 21 40 9 10 -9 11 -9 6 0 -3 6
-2 14 3 17 5 3 12 -1 15 -10 3 -8 10 -12 16 -9 5 3 10 2 10 -4 0 -6 8 -15 19
-20 15 -8 18 -7 17 6 0 10 7 19 18 21 13 3 16 0 11 -9 -5 -8 -4 -10 4 -5 6 4
9 11 6 16 -3 4 6 7 20 6 14 0 25 -3 25 -6 0 -5 54 -5 75 0 23 5 42 5 68 -2 16
-4 39 -2 52 4 18 8 28 8 38 0 8 -7 17 -9 21 -5 4 4 76 9 161 10 153 3 154 3
158 -19 l4 -23 2 22 c1 16 6 21 16 17 8 -4 15 -1 15 5 0 6 7 11 15 11 8 0 15
-5 15 -10 0 -7 6 -8 16 -2 9 5 32 6 50 2 22 -5 35 -4 39 4 3 8 7 7 11 -2 4 -9
10 -10 19 -2 13 11 63 9 82 -3 7 -4 13 0 16 10 4 17 5 17 6 1 1 -17 21 -26 21
-10 0 6 79 9 323 12 28 0 36 3 31 13 -6 9 -5 9 8 0 8 -7 18 -10 21 -6 4 3 7 0
7 -8 0 -11 2 -11 10 1 5 8 10 18 10 23 0 4 -56 7 -125 7 -77 0 -125 -4 -125
-10 0 -5 -5 -10 -11 -10 -5 0 -7 5 -4 10 4 6 -10 10 -34 10 -26 0 -41 -5 -41
-12 0 -9 -3 -9 -8 -3 -4 7 -51 9 -130 5 -68 -3 -127 -1 -132 4 -5 5 -29 12
-54 16 -33 5 -43 4 -39 -6z"/>
<path d="M2947 3437 c-4 -10 4 -14 24 -14 17 0 29 6 29 14 0 7 -11 13 -24 13
-13 0 -26 -6 -29 -13z"/>
<path d="M123 3392 c-17 -12 -35 -52 -23 -52 7 0 10 -15 8 -37 -2 -29 -8 -37
-26 -40 -15 -2 -21 1 -17 8 9 13 -27 8 -37 -6 -11 -15 -10 -37 2 -30 6 4 10
-6 10 -22 0 -20 -3 -24 -9 -14 -5 8 -10 -40 -13 -120 -5 -125 1 -164 19 -144
5 4 2 10 -4 12 -19 7 -16 21 7 28 18 6 19 8 4 22 -9 9 -13 25 -10 37 3 12 6
32 6 46 0 20 2 22 11 10 13 -18 9 -5 -11 34 -11 23 -12 30 -2 34 7 2 12 21 12
43 0 21 5 40 10 40 6 1 14 2 19 3 5 0 13 4 17 9 4 4 34 7 66 7 45 0 58 3 58
15 0 18 -46 21 -52 3 -3 -7 -17 7 -32 30 -31 49 -28 75 6 70 18 -2 24 -11 26
-35 3 -29 7 -33 30 -32 25 2 25 2 3 6 -18 4 -22 10 -18 29 3 19 -2 28 -22 39
-15 7 -32 10 -38 7z"/>
<path d="M243 3383 c-8 -3 -13 -25 -13 -61 1 -42 3 -53 10 -40 6 9 9 33 8 54
-3 33 0 39 22 45 19 5 21 7 5 7 -11 0 -26 -2 -32 -5z"/>
<path d="M387 3366 c-14 -14 -28 -22 -31 -19 -3 4 -6 1 -6 -5 0 -7 7 -12 15
-12 8 0 15 -4 15 -10 0 -5 -17 -10 -37 -9 -21 0 -32 3 -25 6 6 2 12 12 12 21
0 14 -2 14 -9 3 -7 -11 -10 -9 -14 10 -3 17 -5 13 -6 -13 -1 -38 -1 -38 38
-38 30 0 40 -4 44 -20 3 -10 0 -21 -7 -23 -6 -2 73 -5 175 -6 158 -2 186 0
186 13 0 11 -9 13 -34 9 l-33 -6 0 51 c0 50 16 72 42 55 7 -3 8 -1 4 5 -11 19
-33 14 -51 -10 -12 -17 -18 -20 -24 -10 -5 8 -8 2 -8 -17 0 -22 4 -28 12 -21
8 7 11 0 11 -25 -1 -32 -3 -35 -31 -34 -25 0 -27 2 -10 8 14 6 5 8 -27 7 -27
0 -48 -5 -48 -10 0 -5 -17 -5 -37 -2 -21 4 -54 8 -73 10 -33 2 -35 4 -38 41
-3 28 1 43 13 51 28 21 45 6 46 -40 0 -28 3 -35 8 -22 9 22 2 76 -9 76 -5 0
-15 3 -23 6 -8 3 -26 -6 -40 -20z"/>
<path d="M533 3364 c-15 -16 -22 -29 -16 -33 6 -3 13 -15 16 -26 3 -12 5 -6 6
16 2 71 61 78 61 8 0 -21 5 -39 10 -39 18 0 11 59 -10 80 -26 26 -36 25 -67
-6z"/>
<path d="M971 3382 c0 -7 -6 -10 -12 -7 -5 4 -21 4 -35 1 -21 -6 -24 -12 -24
-50 0 -26 -5 -46 -12 -49 -8 -4 -7 -6 4 -6 9 -1 18 -6 20 -12 5 -14 58 -22 58
-9 0 11 -30 21 -41 14 -10 -6 -11 -3 -14 49 -2 40 15 63 40 53 10 -4 15 -20
16 -53 0 -35 3 -42 8 -28 5 11 6 24 4 28 -3 4 1 14 7 22 8 10 9 15 2 15 -6 0
-13 10 -15 23 -2 12 -5 16 -6 9z"/>
<path d="M1652 3383 c-10 -4 -8 -9 7 -20 15 -10 21 -26 22 -56 1 -41 1 -41 10
-12 6 22 4 36 -9 55 -9 14 -15 28 -14 33 1 4 1 7 0 6 -2 0 -9 -3 -16 -6z"/>
<path d="M2373 3377 c9 -8 17 -26 17 -40 0 -14 5 -29 11 -32 7 -5 9 4 7 25 -2
22 -11 38 -28 47 -22 13 -23 13 -7 0z"/>
<path d="M2474 3378 c-4 -6 -3 -8 4 -4 18 11 42 -24 42 -61 l0 -36 -52 6 c-43
5 -49 4 -30 -5 12 -6 22 -19 22 -28 0 -13 -7 -16 -30 -12 -17 2 -27 9 -23 15
3 6 1 7 -5 3 -15 -9 -16 6 -2 20 7 7 -2 9 -26 6 l-36 -4 3 51 c4 50 4 50 -13
29 -11 -15 -13 -25 -6 -29 6 -4 8 -17 5 -29 -3 -13 0 -23 9 -27 21 -8 17 -20
-7 -19 -12 1 -24 -5 -27 -13 -3 -10 1 -12 17 -8 11 3 21 2 21 -3 0 -4 -9 -10
-20 -13 -14 -4 -20 -13 -20 -34 1 -24 2 -25 11 -10 5 9 7 22 4 27 -3 6 1 10 9
10 9 0 16 -5 16 -12 0 -6 6 -4 13 6 10 14 12 8 12 -44 0 -46 -3 -59 -13 -55
-7 2 -10 1 -7 -4 3 -6 13 -9 23 -8 16 1 18 9 14 74 -2 48 0 73 7 73 6 0 11
-10 12 -22 0 -13 3 -17 6 -10 2 6 14 12 24 12 11 0 17 -4 14 -10 -4 -6 1 -7
11 -3 13 5 16 2 12 -9 -4 -9 -3 -33 2 -54 5 -22 6 -42 2 -46 -10 -10 -2 -109
9 -102 13 8 11 -6 -4 -20 -8 -8 -11 -30 -7 -62 l5 -49 3 40 c2 22 9 43 15 47
8 5 7 8 -3 8 -12 0 -12 2 -1 9 10 6 13 38 12 130 -2 112 0 122 16 119 10 -1
23 1 30 5 7 5 16 0 23 -13 6 -11 7 -20 2 -20 -5 0 -9 -11 -9 -25 0 -21 2 -23
14 -13 9 7 13 24 11 44 -3 27 -1 31 10 22 9 -8 13 -34 11 -90 -1 -43 1 -81 5
-85 3 -3 6 0 7 8 4 85 10 143 14 147 3 3 5 -7 5 -21 0 -20 4 -25 15 -21 11 5
13 10 5 19 -15 18 -2 42 26 48 13 2 24 1 24 -3 0 -8 36 -5 63 5 9 4 17 3 17
-3 0 -15 -26 -33 -35 -24 -5 4 -5 1 -1 -6 4 -7 17 -10 32 -6 21 5 24 3 24 -21
0 -15 -4 -24 -10 -20 -5 3 -10 1 -10 -4 0 -6 4 -11 8 -11 5 0 5 -24 2 -52 -4
-29 -5 -65 -3 -80 2 -14 -1 -29 -7 -33 -7 -4 -8 -11 -2 -18 10 -12 23 -391 15
-414 -3 -8 -11 -9 -26 -2 -56 24 -282 29 -274 6 2 -7 10 -12 18 -12 8 0 17 -4
22 -10 4 -6 10 -6 15 2 8 12 43 11 76 -2 11 -5 21 -3 28 6 7 11 11 11 15 2 2
-7 16 -13 29 -13 14 0 22 4 19 10 -3 6 -1 10 4 10 6 0 11 -4 11 -10 0 -5 13
-10 29 -10 20 0 30 -6 34 -20 6 -24 0 -25 -22 -6 -12 10 -54 15 -149 18 -102
3 -136 8 -143 19 -9 15 -10 13 -12 -38 -1 -10 -8 -23 -16 -29 -11 -9 -11 -13
-1 -19 8 -5 16 -2 22 9 5 9 16 16 24 16 8 0 17 7 20 15 5 11 22 13 92 9 122
-7 122 -7 122 -17 0 -5 7 -4 15 3 21 18 35 4 33 -35 -1 -35 -15 -44 -35 -24
-9 9 -20 9 -43 0 -26 -9 -31 -8 -27 3 4 9 -2 12 -19 10 -13 -1 -24 2 -24 7 0
5 -5 9 -11 9 -5 0 -7 -5 -3 -12 5 -7 0 -9 -14 -6 -14 4 -23 0 -27 -11 -6 -15
-7 -14 -16 1 -7 12 -6 25 1 38 10 19 10 20 -9 8 -12 -7 -21 -21 -21 -31 0 -10
-4 -16 -9 -12 -5 3 -12 1 -16 -5 -3 -5 -13 -10 -21 -10 -8 0 -13 3 -11 8 3 4
-8 7 -23 7 -27 0 -28 -1 -12 -18 12 -13 24 -16 46 -11 16 3 77 5 135 4 58 -1
125 -3 149 -3 l42 0 0 -116 c-1 -250 3 -402 9 -406 4 -2 13 12 20 32 11 30 11
38 0 47 -13 10 -15 25 -9 51 2 6 3 26 4 45 1 31 4 35 25 32 13 -2 21 0 17 6
-3 6 1 18 10 26 13 14 14 16 0 16 -8 0 -18 -5 -21 -10 -11 -18 -37 11 -31 34
3 11 0 26 -6 33 -14 17 -11 17 53 -5 77 -27 109 -34 109 -24 0 5 -34 17 -75
27 -94 24 -103 29 -87 48 10 12 10 21 0 42 -10 23 -10 29 5 40 20 15 22 35 3
35 -11 0 -14 19 -14 83 0 45 -3 91 -7 101 -5 10 -4 31 1 45 6 14 7 37 3 51 -4
14 -7 57 -8 95 0 66 1 68 14 45 l15 -25 -6 33 c-4 20 -3 32 5 32 18 0 12 20
-6 20 -17 1 -17 2 0 14 10 8 14 17 8 20 -5 3 -17 -2 -27 -11 -16 -16 -16 -16
-9 7 5 14 9 41 10 60 2 19 5 42 7 50 3 8 3 12 1 8 -3 -5 -8 -8 -12 -8 -11 0
-12 63 -1 80 6 10 10 11 10 3 0 -7 5 -13 10 -13 6 0 10 11 10 25 0 25 -20 37
-20 13 0 -7 -5 -5 -11 5 -7 11 -7 23 0 35 10 16 10 16 11 0 0 -22 16 -23 24
-2 10 25 7 64 -4 64 -6 0 -15 12 -21 27 -8 22 -12 24 -19 13 -7 -11 -9 -7 -7
15 1 20 -2 29 -11 27 -8 -1 -11 2 -7 8 3 6 11 7 17 4 6 -4 8 -2 4 4 -3 6 -1
12 6 15 7 2 2 2 -12 0 -14 -3 -35 -6 -48 -8 -35 -4 -39 -15 -6 -15 21 -1 25
-3 14 -9 -23 -14 -82 -15 -110 -3 -24 10 -24 11 10 13 19 1 28 3 20 5 -12 4
-14 17 -12 60 3 37 0 54 -6 50 -6 -3 -13 -2 -17 4 -3 5 -11 10 -18 10 -6 0 -1
-7 11 -16 16 -11 22 -25 22 -55 0 -37 -2 -39 -30 -39 -29 0 -30 2 -32 48 l-1
47 -4 -42 c-4 -36 -8 -43 -26 -44 -17 -1 -18 -2 -4 -6 9 -2 17 -9 17 -14 0 -5
9 -9 21 -9 11 0 18 -4 15 -8 -5 -9 -96 -5 -106 4 -3 3 2 11 10 17 10 8 14 26
12 53 -2 32 -8 44 -27 52 -18 8 -26 8 -31 0z"/>
<path d="M2730 3341 c0 -39 -4 -51 -17 -54 -14 -4 -12 -5 5 -6 20 -1 22 3 22
54 0 30 -2 55 -5 55 -3 0 -5 -22 -5 -49z"/>
<path d="M2770 3377 c17 -8 27 -24 31 -47 l6 -35 2 41 c1 35 -2 43 -21 48 -37
10 -45 7 -18 -7z"/>
<path d="M2858 3376 c3 -6 8 -28 9 -48 2 -29 -1 -38 -12 -38 -8 0 -15 -5 -15
-11 0 -6 7 -8 16 -5 10 4 22 -1 30 -11 7 -10 14 -13 14 -6 0 6 9 9 20 6 11 -3
20 0 20 6 0 6 -13 11 -30 11 -30 0 -30 1 -30 53 0 40 -4 54 -15 54 -8 0 -11
-5 -7 -11z"/>
<path d="M1014 3358 c-3 -10 -2 -22 1 -28 3 -5 2 -10 -3 -10 -5 0 -9 -7 -9
-15 0 -8 4 -12 9 -9 4 3 8 -6 8 -20 0 -21 5 -26 24 -26 13 0 32 -3 41 -6 9 -4
15 -3 14 2 -1 5 -1 21 0 36 1 20 5 26 16 22 11 -5 15 1 15 22 0 27 -1 27 -15
8 -14 -18 -14 -18 -15 8 0 20 -6 29 -22 32 -39 8 -57 3 -64 -16z m74 -40 c3
-47 3 -48 -27 -48 -30 0 -31 2 -31 43 0 50 6 59 35 55 16 -2 21 -12 23 -50z"/>
<path d="M1749 3373 c-10 -2 -20 -12 -23 -21 -3 -9 -9 -23 -12 -31 -4 -8 -2
-11 4 -7 6 3 13 -2 15 -11 3 -10 5 -2 6 18 2 65 51 61 52 -4 0 -23 3 -36 6
-29 2 6 9 10 14 6 5 -3 9 2 9 10 0 9 -4 16 -10 16 -5 0 -7 6 -4 14 3 7 -2 21
-11 30 -17 16 -18 17 -46 9z"/>
<path d="M1888 3370 c18 -8 22 -17 22 -49 0 -22 5 -43 12 -47 7 -4 8 -3 4 4
-4 7 -1 12 7 12 10 0 13 7 10 20 -3 11 -10 17 -15 14 -6 -4 -6 2 1 13 8 17 6
22 -15 32 -14 6 -30 11 -37 10 -7 0 -2 -4 11 -9z"/>
<path d="M2000 3371 c21 -6 25 -13 28 -54 3 -46 3 -47 -27 -47 -31 0 -31 1
-31 52 0 28 -3 48 -7 44 -4 -3 -7 -31 -8 -61 l-1 -55 37 0 c21 0 39 6 42 13 3
9 9 9 26 -1 11 -7 21 -10 21 -8 0 2 3 11 6 19 4 11 -1 13 -20 10 -24 -5 -26
-2 -26 26 0 18 4 30 9 26 5 -3 12 -1 16 5 3 5 -1 10 -9 10 -9 0 -16 6 -16 13
0 7 -13 13 -32 14 -29 1 -30 1 -8 -6z"/>
<path d="M2078 3348 c-3 -15 -1 -33 4 -40 5 -8 8 -1 8 19 0 36 11 47 40 38 15
-5 20 -15 20 -41 0 -22 4 -33 11 -29 6 4 8 13 5 20 -3 8 0 15 5 17 5 2 0 13
-11 26 -31 33 -77 27 -82 -10z"/>
<path d="M2445 3349 c-4 -18 -3 -35 4 -42 8 -8 11 0 11 31 0 50 -6 54 -15 11z"/>
<path d="M1323 3356 c4 -6 7 -24 7 -42 0 -27 3 -31 19 -27 13 3 24 -2 33 -16
8 -14 23 -21 42 -21 29 0 29 12 0 16 -38 6 -43 13 -39 56 3 42 3 43 -8 11 -10
-34 -21 -41 -32 -23 -3 6 -1 10 4 10 6 0 11 8 10 18 0 10 -3 12 -6 4 -3 -9 -9
-7 -21 6 -10 9 -14 13 -9 8z"/>
<path d="M1614 3355 c-4 -8 -13 -15 -22 -15 -14 0 -14 -1 0 -12 8 -7 18 -27
21 -45 5 -25 2 -33 -11 -37 -9 -2 29 -4 85 -3 74 2 99 5 92 13 -15 19 -49 24
-49 8 0 -10 -12 -14 -41 -14 -24 0 -38 4 -34 10 3 6 -4 10 -15 10 -20 0 -22 4
-18 50 3 52 1 60 -8 35z"/>
<path d="M1841 3354 c-11 -13 -11 -20 -1 -39 7 -13 9 -28 6 -34 -4 -6 -2 -11
3 -11 6 0 11 21 11 50 0 28 -1 50 -2 50 -2 -1 -9 -8 -17 -16z"/>
<path d="M820 3341 c0 -12 6 -21 16 -21 9 0 14 7 12 17 -5 25 -28 28 -28 4z"/>
<path d="M1491 3350 c-2 -8 -3 -18 -2 -23 1 -4 2 -24 3 -45 1 -32 4 -37 24
-37 13 0 26 6 29 13 3 7 -5 12 -20 12 -21 0 -24 5 -28 48 -2 26 -5 40 -6 32z"/>
<path d="M2234 3346 c-4 -10 0 -24 9 -33 15 -15 16 -14 13 10 -3 35 -14 45
-22 23z"/>
<path d="M1212 3310 c0 -25 2 -38 5 -30 3 8 11 18 17 23 8 5 8 9 0 15 -6 4
-14 14 -17 22 -3 8 -5 -5 -5 -30z"/>
<path d="M781 3288 c0 -16 -8 -28 -18 -31 -10 -3 14 -5 52 -5 48 0 64 2 50 8
-11 5 -32 9 -47 9 -19 1 -28 7 -31 24 -4 19 -4 19 -6 -5z"/>
<path d="M291 3280 c-8 -4 -20 -6 -28 -3 -8 3 -13 2 -12 -3 4 -26 -5 -33 -48
-37 -43 -3 -42 -4 15 -5 34 -1 78 -9 97 -16 33 -14 35 -14 35 5 0 21 -16 26
-23 7 -4 -10 -6 -10 -6 0 -1 7 -14 12 -31 12 -16 0 -30 5 -30 11 0 6 8 8 19 4
12 -4 21 0 25 11 8 21 4 25 -13 14z"/>
<path d="M1134 3261 c0 -15 3 -17 13 -9 9 7 13 7 13 -1 0 -13 56 -15 64 -2 3
5 -9 11 -27 14 -17 3 -39 8 -47 11 -11 5 -16 0 -16 -13z"/>
<path d="M1267 3267 c3 -5 -1 -14 -8 -19 -10 -7 -4 -8 20 -4 18 3 42 6 53 6
35 0 9 18 -31 22 -22 2 -37 -1 -34 -5z"/>
<path d="M2216 3265 c4 -8 15 -15 25 -15 10 0 19 -5 19 -10 0 -6 -17 -10 -40
-8 -22 1 -43 -2 -47 -7 -5 -4 0 -5 9 -2 22 8 29 -3 31 -52 2 -31 -1 -38 -13
-33 -9 3 -7 -2 5 -11 12 -10 15 -16 7 -17 -10 0 -12 -10 -7 -37 8 -55 15 -74
25 -68 10 6 0 48 -14 57 -6 4 -1 8 13 8 15 0 21 -5 18 -13 -3 -8 3 -14 14 -14
17 -2 19 6 19 63 0 41 -4 63 -10 59 -5 -3 -10 -18 -10 -33 0 -29 -9 -46 -25
-49 -6 -1 -9 21 -6 55 2 41 6 51 12 37 7 -19 8 -19 8 3 1 12 6 22 12 22 6 0 9
7 5 15 -3 9 0 15 8 15 8 0 16 7 20 15 3 9 0 15 -9 15 -8 0 -15 5 -15 10 0 6
-13 10 -30 10 -22 0 -28 -4 -24 -15z"/>
<path d="M1833 3262 c-62 -6 -33 -17 38 -14 39 2 69 5 67 6 -7 7 -75 12 -105
8z"/>
<path d="M2090 3262 c0 -4 18 -8 41 -8 26 -1 36 2 28 7 -17 11 -69 12 -69 1z"/>
<path d="M890 3247 c0 -16 -9 -18 -75 -16 -41 1 -78 0 -81 -3 -4 -5 59 -21 91
-22 6 -1 12 -17 15 -36 l5 -35 132 -3 c115 -2 132 -5 136 -20 4 -16 5 -16 6 1
0 9 6 17 12 17 7 0 9 -10 7 -25 -3 -14 1 -30 8 -36 15 -13 19 -33 5 -25 -5 3
-9 -10 -8 -29 1 -19 6 -35 11 -35 7 0 6 -3 -1 -8 -8 -5 -3 -14 17 -27 17 -11
30 -23 30 -27 0 -5 7 -8 15 -8 18 0 20 16 3 23 -7 3 -1 6 15 6 37 1 35 16 -3
19 -19 1 -30 -2 -30 -10 0 -9 -3 -8 -10 2 -5 8 -10 11 -11 5 0 -5 -5 3 -9 19
-5 16 -6 34 -3 40 11 17 12 57 2 51 -12 -8 -12 7 1 39 7 20 17 26 52 29 42 3
42 4 -9 5 -46 2 -51 4 -46 22 4 15 2 19 -10 14 -9 -3 -14 -11 -11 -18 4 -11
-26 -14 -139 -15 -131 -1 -145 0 -149 16 -8 33 6 58 35 61 20 3 27 -1 28 -15
0 -14 2 -15 6 -3 3 8 11 18 17 22 6 5 2 8 -11 8 -12 0 -27 8 -32 18 -10 16
-10 16 -11 -1z"/>
<path d="M2883 3243 c-23 -3 -33 -10 -33 -21 0 -14 2 -15 10 -2 8 12 10 12 16
-4 5 -13 13 -16 32 -11 25 6 61 35 44 35 -6 0 -16 2 -24 3 -7 2 -28 2 -45 0z"/>
<path d="M106 3224 c-9 -22 -8 -26 6 -18 7 5 8 3 2 -7 -4 -8 -10 -23 -11 -34
-2 -10 -9 -23 -16 -27 -8 -5 -7 -8 6 -8 19 0 23 -26 5 -33 -10 -3 -10 -7 1
-20 7 -9 11 -23 8 -31 -3 -8 -3 -17 1 -20 10 -10 10 -99 1 -118 -6 -11 -4 -18
6 -22 10 -4 15 2 15 17 0 12 1 93 3 180 2 115 -1 157 -9 157 -7 0 -15 -7 -18
-16z"/>
<path d="M366 3204 c3 -42 12 -54 24 -34 6 9 5 19 0 24 -5 5 -5 16 1 28 8 14
6 18 -9 18 -16 0 -19 -6 -16 -36z"/>
<path d="M419 3231 c9 -6 12 -22 9 -50 -2 -27 1 -42 10 -46 9 -3 12 9 11 50
-2 49 -5 55 -23 55 -16 0 -18 -2 -7 -9z"/>
<path d="M484 3226 c-3 -8 -1 -23 5 -33 9 -16 11 -14 11 12 1 17 4 24 7 17 5
-13 23 -7 23 9 0 15 -40 10 -46 -5z"/>
<path d="M545 3188 c2 -29 5 -87 6 -128 2 -58 3 -64 6 -27 3 33 8 47 19 47 7
0 14 7 14 15 0 8 -5 14 -12 13 -15 -4 -23 108 -9 117 7 4 11 -7 11 -30 0 -22
4 -34 10 -30 6 3 10 1 10 -4 0 -6 -4 -11 -10 -11 -5 0 -10 -8 -10 -17 0 -15 2
-15 9 -4 7 11 10 9 14 -10 2 -13 5 6 6 42 1 70 -5 79 -49 79 -16 0 -18 -7 -15
-52z"/>
<path d="M628 3231 c14 -9 15 -13 1 -48 -5 -15 -3 -25 7 -34 13 -11 15 -10 14
2 -5 35 1 79 11 79 7 0 18 -8 25 -17 12 -16 13 -16 14 -1 0 9 6 19 13 21 6 3
-13 6 -43 6 -34 0 -50 -3 -42 -8z"/>
<path d="M2104 3228 c-3 -4 2 -8 10 -8 9 0 16 -5 16 -11 0 -8 5 -7 15 1 9 7
13 15 10 18 -9 9 -45 9 -51 0z"/>
<path d="M2970 3230 c0 -5 4 -10 8 -10 5 0 9 -24 11 -52 3 -76 11 -73 11 5 0
53 -3 67 -15 67 -8 0 -15 -4 -15 -10z"/>
<path d="M961 3213 c0 -11 3 -13 6 -5 8 20 23 14 24 -10 0 -13 3 -17 6 -10 2
6 11 12 19 12 8 0 14 5 14 10 0 20 19 9 23 -12 l4 -23 10 24 c7 17 12 21 17
12 6 -9 11 -9 21 -1 14 12 45 3 45 -12 0 -6 7 -5 15 2 9 7 35 15 58 17 84 9
47 13 -106 13 -143 0 -157 -2 -156 -17z"/>
<path d="M1293 3219 c9 -5 17 -20 18 -32 0 -21 1 -21 8 -2 5 11 6 24 3 29 -3
5 0 6 6 3 5 -4 9 -18 7 -32 -2 -27 12 -45 19 -23 15 50 17 53 26 38 5 -9 5
-19 -2 -27 -10 -12 -4 -17 15 -14 4 0 7 -3 7 -9 0 -5 -8 -10 -17 -10 -17 -1
-17 -1 0 -11 18 -11 24 -49 7 -49 -15 0 -12 -19 5 -36 13 -14 15 -13 15 3 2
68 9 122 19 143 10 23 11 21 8 -17 -2 -36 1 -43 15 -43 12 0 18 7 17 23 0 21
-1 21 -10 2 -7 -15 -8 -8 -6 28 l2 47 -90 0 c-66 -1 -85 -3 -72 -11z"/>
<path d="M1474 3214 c3 -9 6 -25 6 -36 0 -12 9 -22 23 -26 22 -6 22 -6 -3 -13
-19 -5 -15 -7 20 -7 34 -1 40 2 25 8 -11 5 -14 9 -7 9 7 1 12 14 12 32 0 19 4
28 11 23 6 -3 8 -17 4 -33 -5 -20 -4 -23 6 -14 6 6 12 23 12 37 0 18 5 26 17
26 10 0 21 -6 23 -12 4 -9 6 -9 6 -1 1 6 10 9 21 6 11 -3 20 0 20 6 0 7 -33
11 -101 11 -88 0 -100 -2 -95 -16z"/>
<path d="M1685 3222 c15 -11 14 -40 -2 -46 -7 -3 -16 1 -19 9 -9 23 -19 18
-20 -10 -2 -26 5 -29 44 -19 17 5 22 14 23 38 l1 31 13 -35 c8 -20 14 -27 14
-17 1 10 5 16 10 13 5 -3 20 4 35 15 15 12 26 16 26 9 0 -10 4 -9 15 0 16 14
45 7 45 -11 0 -6 -7 -9 -15 -5 -18 7 -19 -1 -2 -18 17 -17 37 -9 37 15 0 25
38 26 56 2 13 -17 15 -17 28 0 7 10 31 20 52 22 21 3 39 7 42 9 2 2 -86 4
-195 5 -109 0 -193 -2 -188 -7z"/>
<path d="M246 3194 c-3 -8 -2 -13 2 -10 4 3 13 -4 20 -15 11 -17 9 -19 -12
-19 -19 0 -23 -4 -19 -20 3 -11 10 -20 15 -20 6 0 8 -7 4 -15 -3 -8 2 -19 12
-24 9 -6 12 -11 6 -11 -6 0 -11 -7 -11 -15 0 -11 4 -12 14 -4 10 9 13 8 13 -5
0 -9 -7 -19 -15 -22 -8 -4 -15 -11 -15 -17 0 -7 4 -7 12 1 26 26 28 10 3 -19
-14 -17 -23 -34 -19 -38 4 -3 9 0 11 7 3 7 17 27 31 44 15 18 21 29 14 24 -10
-6 -12 -1 -8 21 2 15 5 45 5 65 1 30 5 37 24 41 15 3 12 5 -12 6 -29 1 -32 3
-21 16 10 12 10 18 0 30 -16 20 -46 19 -54 -1z"/>
<path d="M2159 3168 l-1 -33 -8 30 c-4 17 -8 24 -9 17 0 -7 -5 -11 -10 -8 -5
3 -11 -1 -15 -9 -3 -8 -10 -15 -16 -15 -6 0 -8 5 -5 10 3 6 2 10 -4 10 -5 0
-11 -5 -13 -11 -2 -6 -20 -11 -40 -12 -30 -1 -37 -5 -41 -24 -2 -13 0 -26 6
-30 5 -3 7 -2 4 3 -3 6 -3 15 1 21 8 13 107 33 119 24 4 -3 8 -24 8 -46 0 -32
-4 -40 -17 -39 -29 3 -20 -14 9 -18 24 -3 25 -5 12 -18 -15 -16 -19 -67 -6
-87 5 -7 5 -13 0 -13 -4 0 -9 -23 -11 -50 -2 -29 1 -50 7 -50 6 0 8 -12 5 -29
-6 -29 7 -48 26 -36 6 4 6 15 -1 32 -7 19 -6 29 3 36 10 6 9 8 -3 4 -12 -4
-18 2 -21 18 -3 13 -1 28 3 32 5 5 10 40 13 78 2 39 7 88 10 110 4 27 3 32 -2
15 -8 -24 -9 -24 -14 10 -3 22 -1 39 7 45 15 12 26 65 14 65 -5 0 -10 -15 -10
-32z"/>
<path d="M2914 3189 c-8 -14 11 -33 25 -25 11 7 4 36 -9 36 -5 0 -12 -5 -16
-11z"/>
<path d="M2690 3178 c0 -4 7 -8 16 -8 8 0 22 -7 30 -15 17 -16 39 -21 30 -6
-4 5 0 12 6 15 7 3 2 3 -11 0 -14 -4 -21 -2 -17 4 3 5 -8 12 -24 14 -17 3 -30
1 -30 -4z"/>
<path d="M1617 3160 c4 -16 0 -20 -23 -21 -24 -1 -25 -2 -6 -6 12 -2 20 -7 18
-11 -2 -4 2 -13 10 -19 8 -8 15 -9 19 -3 3 6 1 10 -5 10 -6 0 -9 4 -5 10 3 5
79 9 178 9 158 1 170 0 143 -14 -15 -8 -32 -13 -36 -10 -4 3 -11 -2 -14 -11
-4 -10 -1 -14 6 -12 12 4 38 -14 38 -26 0 -3 -7 -6 -15 -6 -19 0 -19 -14 0
-30 11 -9 13 -16 5 -24 -7 -7 -14 -4 -25 10 -8 10 -15 14 -15 7 0 -16 39 -43
56 -36 7 2 11 10 8 18 -3 7 3 21 13 31 17 17 17 18 -1 11 -16 -7 -18 -4 -11
30 4 21 10 40 14 43 10 7 10 41 0 34 -4 -2 -13 4 -19 13 -10 15 -11 15 -6 1 4
-14 -5 -16 -72 -16 -48 -1 -79 4 -84 11 -5 8 -8 8 -8 1 0 -7 -28 -12 -75 -13
-70 -2 -75 -1 -75 18 0 12 -4 21 -9 21 -5 0 -7 -9 -4 -20z"/>
<path d="M2880 3130 c4 -27 3 -50 -2 -50 -4 0 -8 -7 -8 -15 0 -15 39 -42 41
-28 1 4 5 -8 8 -27 9 -46 4 -60 -23 -60 -31 0 -43 -11 -48 -47 -6 -45 8 -42
20 5 l10 37 1 -38 c1 -23 5 -36 11 -32 6 3 7 18 4 32 -6 23 -5 24 14 14 33
-17 51 -14 45 9 -3 11 -9 20 -13 20 -5 0 -5 14 0 30 5 18 5 30 -1 30 -14 0
-11 17 7 34 9 10 11 16 4 16 -6 0 -11 10 -10 23 3 38 1 47 -14 41 -9 -3 -15 5
-19 25 -4 17 -13 31 -20 31 -10 0 -12 -12 -7 -50z"/>
<path d="M2430 3145 c-12 -32 -12 -35 -2 -35 14 0 33 48 22 55 -6 4 -15 -6
-20 -20z"/>
<path d="M365 3110 c0 -22 4 -38 10 -37 6 2 10 15 10 28 0 13 4 30 8 37 6 8 2
12 -10 12 -14 0 -18 -8 -18 -40z"/>
<path d="M784 3070 c0 -44 2 -80 4 -80 2 0 10 7 18 15 9 8 11 15 6 15 -12 0
-13 88 -1 96 16 9 10 34 -8 34 -16 0 -18 -11 -19 -80z"/>
<path d="M645 3103 c1 -13 -2 -23 -6 -23 -5 0 -9 -7 -9 -15 0 -13 4 -13 28 2
43 28 57 43 38 43 -8 0 -18 -4 -21 -10 -10 -15 -23 -12 -28 8 -2 9 -3 7 -2 -5z"/>
<path d="M1513 3114 c3 -3 2 -17 -3 -30 -11 -28 3 -32 27 -9 20 21 31 11 25
-21 -3 -19 -1 -25 7 -20 6 4 11 21 11 38 0 27 -2 30 -25 24 -18 -5 -25 -2 -25
9 0 8 -5 15 -12 15 -6 0 -9 -3 -5 -6z"/>
<path d="M1740 3095 c0 -8 -7 -15 -15 -15 -17 0 -21 -55 -5 -65 6 -4 8 -10 5
-14 -2 -5 4 -16 14 -25 16 -15 19 -15 31 -1 12 15 4 20 -22 16 -12 -2 -9 13 5
29 9 11 8 11 -7 0 -18 -14 -19 -13 -12 5 12 30 20 85 12 85 -3 0 -6 -7 -6 -15z"/>
<path d="M1111 3063 c-1 -12 -8 -26 -16 -31 -14 -7 -13 -11 6 -28 12 -10 19
-13 15 -6 -4 7 -4 18 2 25 5 7 5 23 1 37 -6 23 -7 23 -8 3z"/>
<path d="M1608 3068 c9 -11 12 -68 4 -68 -1 0 -18 6 -37 14 -18 8 -37 11 -41
8 -4 -4 -4 -2 0 5 9 16 -14 29 -24 13 -4 -7 -13 -9 -19 -6 -6 4 -11 3 -11 -3
0 -5 8 -11 17 -13 9 -2 -30 -20 -88 -42 -116 -42 -268 -124 -356 -190 -39 -30
-60 -41 -65 -33 -5 7 -8 3 -8 -10 0 -13 -4 -23 -10 -23 -5 0 -10 -5 -10 -10 0
-6 -10 -24 -22 -40 -12 -16 -19 -32 -17 -34 3 -3 15 12 28 32 29 46 110 115
176 150 27 15 54 32 60 38 25 28 320 154 360 154 17 0 150 -51 221 -85 28 -14
55 -25 60 -25 15 0 105 -50 164 -91 82 -57 124 -99 180 -180 57 -83 67 -82 16
3 -21 34 -32 64 -29 76 4 16 0 19 -20 17 -17 -2 -35 7 -57 30 -30 31 -32 36
-22 64 10 29 10 30 -7 21 -10 -5 -21 -6 -25 -3 -3 3 -6 1 -6 -5 0 -7 5 -12 10
-12 6 0 10 -7 10 -15 0 -13 -3 -13 -26 1 -14 10 -21 20 -16 23 10 6 15 26 13
49 0 7 -6 10 -11 7 -6 -4 -7 -11 -4 -17 5 -7 2 -8 -6 -3 -9 5 -10 2 -5 -14 8
-26 4 -26 -37 0 -18 11 -24 18 -13 15 11 -3 29 1 39 9 16 12 17 17 6 30 -7 8
-16 13 -20 10 -5 -3 -10 3 -12 12 -2 13 -9 6 -22 -22 -11 -22 -21 -34 -24 -27
-2 6 -8 10 -13 6 -5 -3 -9 0 -9 5 0 6 5 11 10 11 6 0 10 4 10 9 0 6 -15 7 -32
5 -45 -7 -231 72 -236 100 -2 10 2 22 8 26 8 5 7 12 -5 24 -20 19 -43 23 -27
4z"/>
<path d="M2356 3055 c-10 -7 -15 -18 -11 -24 3 -6 1 -11 -6 -11 -7 0 -9 -3 -6
-7 4 -3 16 3 27 15 12 12 17 22 13 22 -4 0 -1 5 7 10 8 5 11 10 5 10 -5 -1
-18 -7 -29 -15z"/>
<path d="M400 3031 c0 -5 6 -12 13 -15 7 -4 8 -8 2 -11 -29 -15 -37 -24 -30
-35 5 -8 12 -7 26 6 32 29 104 -1 139 -59 l20 -32 0 26 c0 37 -34 75 -91 104
-50 26 -79 32 -79 16z"/>
<path d="M2621 3026 c-6 -7 -30 -25 -54 -40 -24 -15 -49 -37 -56 -49 -13 -21
-13 -21 5 -6 10 9 36 24 57 34 37 17 39 17 84 -6 52 -27 93 -74 94 -110 1 -22
2 -21 10 6 11 34 3 79 -11 70 -6 -3 -10 1 -10 10 0 10 5 14 13 10 6 -4 3 0 -8
9 -11 8 -25 19 -31 24 -5 5 -27 17 -48 27 -27 13 -34 20 -24 26 8 5 9 9 2 9
-6 0 -17 -6 -23 -14z"/>
<path d="M352 3014 c-12 -8 -22 -20 -22 -26 0 -6 8 -4 18 5 10 10 24 17 30 17
7 0 12 5 12 10 0 14 -12 12 -38 -6z"/>
<path d="M2270 3016 c0 -8 -8 -17 -17 -19 -17 -4 -17 -5 0 -6 14 -1 17 -6 12
-21 -4 -11 -2 -20 4 -20 6 0 11 18 11 40 0 22 -2 40 -5 40 -3 0 -5 -6 -5 -14z"/>
<path d="M632 2996 c3 -4 2 -20 -2 -36 -9 -31 -3 -70 10 -70 4 0 10 21 12 46
2 32 -1 49 -12 57 -8 6 -12 8 -8 3z"/>
<path d="M2021 2981 c-7 -12 -15 -20 -19 -17 -4 3 -9 -6 -10 -19 -1 -18 2 -23
13 -19 8 4 15 14 15 24 0 10 7 20 15 22 10 2 12 8 6 17 -7 11 -11 9 -20 -8z"/>
<path d="M1540 2986 c0 -2 30 -14 67 -27 38 -12 92 -33 122 -46 29 -13 55 -22
57 -20 5 5 -136 65 -196 83 -51 16 -50 15 -50 10z"/>
<path d="M160 2960 c0 -6 -5 -8 -12 -4 -7 5 -8 3 -2 -7 10 -16 11 -20 13 -50
0 -11 5 -18 10 -15 12 8 8 -27 -4 -36 -6 -5 -5 -8 3 -8 6 0 12 -5 12 -11 0 -5
-4 -7 -10 -4 -15 9 -12 -21 4 -34 10 -9 16 -8 26 4 7 8 8 15 3 15 -5 0 -9 23
-9 52 1 33 -4 53 -11 55 -18 6 -16 43 1 43 8 0 17 -5 19 -10 3 -6 4 -5 3 2 -3
16 -46 24 -46 8z"/>
<path d="M2211 2954 c7 -8 12 -38 12 -67 -1 -29 1 -44 4 -34 2 10 10 17 16 14
7 -2 21 0 32 5 18 8 18 8 -3 4 -28 -5 -47 30 -28 53 8 11 8 13 -1 7 -9 -5 -13
0 -13 13 0 13 -7 21 -16 21 -14 0 -14 -3 -3 -16z"/>
<path d="M2030 2931 c0 -17 5 -31 10 -31 6 0 10 11 10 24 0 14 -4 28 -10 31
-6 4 -10 -7 -10 -24z"/>
<path d="M445 2937 c3 -7 -11 -21 -32 -32 -20 -11 -45 -29 -55 -39 -15 -17
-18 -17 -18 -3 0 8 5 19 10 22 6 3 10 11 10 18 0 6 -7 2 -15 -10 -11 -16 -14
-50 -12 -150 l2 -130 30 2 c17 1 29 7 28 13 -2 6 -3 43 -4 82 -2 77 9 98 63
126 31 16 83 20 59 5 -11 -7 -7 -10 15 -13 23 -2 29 -8 28 -25 0 -13 -1 -61
-2 -108 l-2 -85 -72 0 c-39 0 -69 -3 -65 -6 3 -3 37 -6 75 -6 l69 0 -4 -26 -5
-27 14 25 c8 14 13 43 12 65 -2 22 -4 79 -5 128 -1 48 -6 87 -10 87 -5 0 -9
11 -9 24 0 17 -11 32 -32 46 -32 21 -32 21 -9 1 14 -13 18 -21 10 -21 -19 0
-34 12 -42 33 -3 9 -13 17 -21 17 -9 0 -13 -6 -11 -13z m34 -40 c8 -11 6 -16
-12 -24 -33 -17 -61 -26 -69 -25 -4 1 -5 -5 -2 -13 4 -8 1 -15 -5 -15 -21 0
-11 33 19 61 33 32 52 36 69 16z"/>
<path d="M1345 2915 c-38 -18 -65 -33 -60 -33 13 -1 153 66 140 67 -5 0 -41
-15 -80 -34z"/>
<path d="M2590 2925 c0 -8 -7 -15 -15 -15 -25 0 -65 -47 -65 -75 0 -21 4 -25
18 -21 21 7 88 -18 115 -42 17 -15 17 -14 11 4 -5 15 -4 16 5 8 9 -8 12 -37 9
-88 l-3 -76 31 0 31 0 -4 103 c-5 117 -18 177 -37 177 -8 0 -19 7 -26 15 -7 8
-18 15 -24 15 -6 0 1 -10 17 -21 40 -31 33 -42 -13 -18 -22 12 -40 23 -40 26
0 2 5 1 10 -2 6 -3 10 1 10 9 0 9 -7 16 -15 16 -8 0 -15 -7 -15 -15z m68 -61
c15 -17 18 -27 13 -50 0 -4 -8 0 -17 7 -9 7 -33 21 -53 30 -20 10 -30 18 -23
18 7 1 10 5 7 11 -11 18 56 3 73 -16z"/>
<path d="M1485 2915 c-16 -8 -58 -26 -92 -41 -38 -16 -63 -33 -63 -42 0 -13 3
-13 19 2 10 9 28 18 39 21 11 2 30 8 41 14 11 6 27 8 35 5 11 -4 16 -1 16 10
0 12 10 16 44 16 51 0 146 -20 146 -31 0 -4 12 -10 28 -14 53 -13 93 -37 83
-49 -7 -8 -4 -16 9 -24 16 -10 20 -8 25 8 7 22 20 26 30 9 4 -6 0 -16 -10 -23
-14 -10 -12 -14 19 -29 24 -11 36 -23 36 -38 0 -17 -4 -19 -22 -13 -13 3 -24
10 -26 14 -1 4 -14 5 -29 2 -22 -4 -25 -2 -21 15 3 11 1 28 -4 37 -8 14 -12
15 -24 5 -15 -12 -64 -22 -64 -13 0 3 12 16 26 29 21 19 23 25 10 25 -9 0 -16
-5 -16 -12 0 -6 -3 -9 -6 -5 -3 3 -17 2 -31 -4 -23 -8 -79 -2 -69 8 2 3 22 11
43 19 38 14 38 14 -29 9 -49 -5 -68 -3 -68 6 0 8 -4 8 -13 1 -14 -12 -40 3
-50 28 -3 9 -6 3 -6 -13 -1 -16 3 -26 9 -22 6 3 10 -1 10 -10 0 -9 -4 -14 -8
-11 -5 3 -21 -2 -36 -10 -16 -7 -39 -14 -52 -14 -15 0 -24 -6 -24 -15 0 -22
-17 -18 -34 7 -9 12 -16 18 -16 12 0 -5 5 -15 12 -22 9 -9 4 -13 -21 -18 -20
-4 -36 -15 -40 -27 -7 -19 -9 -18 -15 8 -5 20 -3 33 6 40 13 10 24 45 14 45
-10 0 -36 -59 -36 -82 0 -17 -14 -31 -51 -53 -28 -16 -56 -29 -61 -27 -5 1 -7
-1 -4 -6 3 -5 -8 -16 -25 -26 -16 -9 -29 -21 -29 -27 0 -5 -6 -9 -14 -9 -8 0
-17 -7 -20 -16 -10 -26 -7 -28 15 -8 17 16 22 16 29 4 8 -13 10 -12 10 2 0 21
133 101 287 174 119 55 181 75 167 53 -5 -9 -2 -10 9 -6 10 3 17 3 17 -1 0 -5
26 -16 58 -26 239 -75 444 -229 497 -374 23 -63 16 -2 -8 67 -16 47 -27 65
-42 67 -11 2 -21 8 -24 15 -7 23 -83 91 -113 101 -35 12 -58 58 -58 115 l0 38
-105 53 c-97 49 -222 93 -262 91 -10 0 -31 -6 -48 -14z"/>
<path d="M2341 2918 c-1 -21 -17 -24 -24 -5 -2 6 -6 0 -9 -15 -4 -20 -1 -28 9
-28 8 0 11 5 7 12 -5 8 -2 9 9 5 21 -8 27 2 16 28 -6 17 -8 17 -8 3z"/>
<path d="M253 2840 c0 -47 2 -66 4 -42 2 23 2 61 0 85 -2 23 -4 4 -4 -43z"/>
<path d="M2170 2895 c0 -8 7 -15 16 -15 8 0 12 -4 9 -10 -3 -5 -1 -10 4 -10
15 0 14 19 -3 36 -19 18 -26 18 -26 -1z"/>
<path d="M2917 2878 c3 -16 -2 -34 -10 -43 -21 -20 -10 -52 19 -58 19 -3 24 0
24 17 0 12 5 27 11 33 9 9 7 10 -10 6 -12 -3 -21 -1 -21 6 0 6 3 11 8 11 4 0
8 11 8 25 2 20 -1 23 -11 15 -10 -8 -14 -8 -18 2 -2 7 -2 1 0 -14z"/>
<path d="M10 2774 c0 -70 2 -125 5 -122 10 10 15 237 5 243 -7 4 -10 -38 -10
-121z"/>
<path d="M690 2890 c-12 -8 -12 -10 -1 -10 9 0 12 -10 9 -35 -2 -19 0 -35 5
-35 4 0 5 -4 2 -10 -11 -18 -14 -50 -4 -55 5 -4 9 2 10 12 0 10 3 46 5 81 5
63 1 70 -26 52z"/>
<path d="M1850 2859 c87 -49 159 -100 219 -153 54 -48 54 -48 16 -7 -50 54
-154 131 -222 165 -72 36 -80 32 -13 -5z"/>
<path d="M1034 2869 c-5 -8 -3 -9 6 -4 8 5 11 3 8 -6 -3 -8 -12 -13 -21 -13
-9 1 -15 -2 -12 -6 3 -5 1 -11 -5 -15 -13 -8 -13 -35 0 -35 6 0 10 6 10 14 0
18 27 29 33 13 2 -7 4 3 5 20 1 35 -12 51 -24 32z"/>
<path d="M110 2820 c0 -36 4 -52 15 -56 22 -9 18 -23 -5 -17 -22 6 -28 -12 -7
-20 7 -3 5 -6 -6 -6 -15 -1 -15 -4 -5 -21 14 -22 33 -27 25 -7 -9 24 7 39 26
24 18 -13 36 -79 21 -76 -20 3 -28 -2 -15 -10 9 -6 14 -24 13 -45 -1 -30 1
-34 12 -24 8 7 10 15 5 16 -6 2 -5 10 2 18 9 11 8 14 -2 14 -9 1 -8 5 5 15 11
8 14 15 8 15 -7 0 -12 7 -12 15 0 8 5 15 10 15 12 0 -6 34 -33 62 -10 10 -15
23 -12 28 4 6 1 10 -5 10 -7 0 -10 7 -6 15 3 8 1 15 -4 15 -5 0 -7 7 -4 15 4
8 2 15 -4 15 -6 0 -8 9 -5 20 3 11 0 20 -6 20 -7 0 -11 -20 -11 -50z"/>
<path d="M627 2843 c-5 -30 2 -91 12 -97 7 -5 6 112 -1 119 -3 3 -8 -7 -11
-22z"/>
<path d="M783 2841 c0 -25 3 -28 18 -18 13 8 15 15 8 23 -7 8 -6 14 3 17 7 3
4 6 -8 6 -16 1 -21 -5 -21 -28z"/>
<path d="M2386 2835 c-3 -10 -12 -15 -20 -12 -9 4 -13 -2 -12 -18 0 -13 4 -21
9 -18 4 2 7 -7 7 -21 0 -26 23 -36 35 -16 3 6 -1 7 -9 4 -12 -5 -16 1 -16 26
0 17 4 29 9 26 12 -8 24 25 13 36 -6 6 -12 3 -16 -7z"/>
<path d="M2471 2708 c0 -82 2 -148 7 -148 4 0 6 55 4 122 -4 182 -9 193 -11
26z"/>
<path d="M580 2750 c0 -40 2 -71 4 -69 7 7 10 129 3 136 -4 3 -7 -27 -7 -67z"/>
<path d="M787 2793 c-4 -3 -7 -78 -7 -166 0 -88 2 -158 5 -156 3 4 13 329 9
329 0 0 -4 -3 -7 -7z"/>
<path d="M2498 2785 c-4 -11 -5 -36 -3 -55 1 -19 3 -52 4 -72 1 -21 4 -38 9
-38 4 0 6 35 4 78 -4 98 -6 113 -14 87z"/>
<path d="M1922 2765 c4 -4 3 -15 -2 -25 -8 -15 -1 -22 41 -43 27 -15 47 -22
44 -17 -3 6 -2 10 3 10 16 0 92 -91 86 -103 -5 -8 -3 -8 6 0 11 10 10 17 -5
35 -52 62 -80 88 -97 88 -9 0 -22 9 -28 20 -6 11 -20 25 -33 31 -12 6 -19 8
-15 4z"/>
<path d="M2908 2759 c-10 -7 -8 -9 6 -9 12 0 16 -5 12 -15 -7 -20 1 -19 25 4
20 18 20 18 -5 23 -14 3 -31 1 -38 -3z"/>
<path d="M843 2678 c0 -50 2 -56 15 -46 13 11 14 9 7 -11 -5 -16 -4 -21 4 -17
6 4 11 14 11 22 0 8 6 14 13 15 6 1 1 4 -13 8 -20 5 -26 15 -31 46 -6 35 -6
33 -6 -17z"/>
<path d="M1083 2716 c-13 -6 -25 -16 -27 -22 -7 -19 23 -11 46 13 23 24 17 28
-19 9z"/>
<path d="M2384 2722 c-7 -4 -13 -16 -15 -27 -3 -12 -14 -21 -27 -23 -16 -3
-22 -8 -18 -19 3 -8 6 -22 6 -31 0 -31 16 -45 44 -38 28 7 36 33 11 33 -8 0
-15 -4 -15 -9 0 -5 -4 -7 -9 -4 -5 4 -8 14 -6 24 2 9 4 22 4 27 1 6 6 3 11 -5
7 -11 10 -7 10 18 0 17 4 32 8 32 5 0 9 7 9 15 0 8 -1 15 -1 15 -1 0 -6 -4
-12 -8z"/>
<path d="M2897 2716 c-10 -25 -9 -26 16 -36 15 -6 17 -9 6 -9 -17 -1 -34 -41
-18 -41 5 0 9 5 9 10 0 6 5 10 10 10 6 0 9 -3 9 -7 -4 -22 2 -36 10 -27 13 13
25 58 14 51 -5 -3 -9 2 -9 11 1 9 -2 17 -6 17 -4 0 -13 9 -21 19 -13 17 -14
18 -20 2z"/>
<path d="M2960 2703 c0 -7 6 -10 14 -7 9 4 16 -3 19 -18 3 -19 5 -17 6 7 1 25
-3 31 -19 31 -11 0 -20 -6 -20 -13z"/>
<path d="M687 2693 c-3 -5 -5 -20 -5 -36 0 -22 3 -25 14 -16 9 8 11 16 4 29
-5 9 -6 20 -3 24 3 3 4 6 0 6 -3 0 -8 -3 -10 -7z"/>
<path d="M266 2618 c-8 -33 -7 -40 4 -33 6 4 8 10 5 15 -3 4 5 10 16 13 12 3
18 10 14 16 -11 19 -32 12 -39 -11z"/>
<path d="M1880 2595 c0 -25 4 -45 9 -45 14 0 20 25 11 41 -5 7 -5 16 -1 19 5
3 3 11 -5 18 -12 11 -14 6 -14 -33z"/>
<path d="M2892 2604 c-8 -9 -9 -14 -2 -14 6 0 9 -4 6 -8 -2 -4 -1 -14 5 -22 5
-8 9 -10 10 -5 0 6 2 20 3 33 3 28 -5 34 -22 16z"/>
<path d="M682 2573 c-23 -29 -18 -45 22 -64 16 -8 14 -4 -6 15 -16 14 -23 28
-18 31 10 6 34 45 27 45 -2 0 -13 -12 -25 -27z"/>
<path d="M1841 2558 l-1 -28 -361 0 c-284 0 -360 -3 -356 -12 3 -10 59 -13
235 -13 128 0 232 -2 232 -5 0 -3 11 -5 25 -5 31 0 33 12 3 18 -20 4 -20 4 4
6 15 0 29 -3 32 -8 3 -4 37 -8 76 -9 39 0 68 4 64 9 -3 5 43 10 108 10 62 1
100 4 83 6 -16 3 -33 10 -37 16 -6 9 -8 9 -8 0 0 -9 -16 -13 -44 -13 -41 0
-45 2 -49 28 l-4 27 -2 -27z"/>
<path d="M2120 2574 c0 -5 7 -18 15 -28 20 -26 19 -42 -1 -25 -8 7 -1 -11 17
-40 l33 -52 -1 -187 c-1 -186 0 -186 8 -67 12 184 12 247 -2 280 -7 17 -13 32
-14 35 -11 43 -56 111 -55 84z"/>
<path d="M255 2535 c-8 -36 -15 -135 -8 -118 2 7 12 10 21 7 16 -5 16 -4 0 9
-15 11 -15 17 -5 31 12 16 14 16 26 2 12 -14 11 -16 -5 -10 -17 5 -17 4 -4 -8
8 -7 15 -19 16 -25 2 -28 4 -33 14 -33 6 0 9 3 9 8 -3 19 3 21 25 7 22 -15 24
-14 29 5 3 11 1 23 -4 26 -5 3 -9 -1 -9 -8 0 -8 -3 -9 -8 -3 -4 6 -14 10 -22
10 -8 0 -16 10 -18 23 -4 25 10 29 28 7 14 -17 40 -20 40 -5 0 5 7 7 15 3 14
-5 14 -8 0 -29 -14 -21 -13 -24 4 -34 26 -13 31 -13 27 3 -1 6 -1 9 1 5 10
-17 23 -6 23 18 0 17 -4 23 -12 18 -7 -4 -4 2 7 13 11 11 24 18 29 15 4 -2 2
-8 -5 -13 -10 -6 -8 -9 9 -9 21 0 22 -1 8 -16 -22 -21 -20 -25 8 -14 13 5 27
6 30 3 3 -4 6 10 6 30 0 20 5 37 11 37 6 0 9 -10 8 -22 -3 -30 10 -60 23 -52
5 3 1 12 -8 18 -11 8 -13 15 -6 19 5 4 8 15 5 26 -4 17 -15 18 -147 16 l-142
-2 1 28 0 29 134 0 c74 0 131 3 128 6 -4 4 -67 7 -141 8 l-134 1 -7 -30z"/>
<path d="M844 2518 c-4 -13 -10 -25 -14 -28 -4 -3 -10 -16 -14 -30 -6 -24 -6
-24 9 3 9 15 19 27 23 27 4 0 8 11 8 25 2 31 -2 32 -12 3z"/>
<path d="M1004 2511 c-10 -17 -21 -28 -25 -25 -9 5 -46 -75 -55 -115 -3 -14 8
1 25 34 16 32 27 64 24 70 -4 5 -2 7 2 2 11 -9 45 21 45 40 0 8 5 11 10 8 6
-3 10 -1 10 4 0 21 -19 11 -36 -18z"/>
<path d="M2250 2514 c0 -8 -4 -13 -10 -9 -5 3 -5 -6 1 -24 9 -24 13 -28 24
-18 11 10 11 13 -1 15 -16 4 -18 18 -4 27 6 3 10 10 10 16 0 5 -4 9 -10 9 -5
0 -10 -7 -10 -16z"/>
<path d="M1060 2501 c0 -5 11 -11 25 -13 17 -4 25 -1 25 8 0 8 -11 14 -25 14
-14 0 -25 -4 -25 -9z"/>
<path d="M90 2488 c0 -9 -8 -19 -17 -21 -10 -3 -4 -5 13 -6 16 0 36 -7 43 -13
11 -10 13 -10 7 0 -4 6 -3 12 3 12 5 0 12 -6 14 -12 3 -7 6 -3 6 10 1 19 -3
21 -23 16 -17 -4 -27 0 -35 13 -9 16 -10 16 -11 1z"/>
<path d="M745 2460 c19 -20 29 -41 30 -65 0 -19 5 -39 11 -45 6 -6 8 8 6 38
-4 46 -40 102 -66 102 -5 0 3 -13 19 -30z"/>
<path d="M176 2473 c-3 -3 -6 -14 -6 -24 0 -10 -12 -21 -30 -28 -16 -5 -30
-15 -30 -20 0 -16 16 -13 34 5 14 13 16 13 16 1 0 -9 -6 -18 -12 -21 -10 -5
-10 -7 0 -12 6 -3 12 -17 12 -30 0 -20 -5 -24 -32 -25 -28 0 -30 -2 -13 -9 11
-5 16 -9 11 -9 -5 -1 -3 -8 4 -16 7 -8 16 -13 20 -10 4 3 8 -22 7 -56 0 -46
-3 -59 -14 -55 -7 3 -13 1 -13 -4 0 -6 7 -10 15 -10 12 0 15 -18 15 -106 0
-81 -3 -103 -12 -98 -10 6 -10 4 -2 -7 5 -8 9 -20 8 -26 -1 -7 -2 -17 -3 -23
0 -5 -9 -7 -18 -4 -14 4 -13 3 2 -7 22 -14 65 -19 65 -7 0 20 -2 23 -14 20
-16 -3 -25 37 -15 64 4 10 8 70 8 133 1 100 3 112 16 101 12 -10 15 -10 15 4
0 9 -7 16 -16 16 -13 0 -15 15 -12 108 3 84 7 106 18 104 11 -3 11 0 1 12 -7
8 -10 20 -7 25 7 11 -8 24 -18 14z"/>
<path d="M886 2444 c-8 -21 -8 -102 1 -200 4 -54 9 -71 13 -54 4 14 3 59 -1
100 -4 41 -5 96 -2 123 6 47 1 61 -11 31z"/>
<path d="M1122 2418 c-7 -7 -48 -16 -90 -19 -42 -4 185 -6 505 -5 321 0 583 4
583 9 0 4 -220 7 -489 7 -329 0 -490 3 -493 10 -2 7 -8 6 -16 -2z"/>
<path d="M37 2406 c-12 -10 -15 -16 -7 -21 6 -4 9 -13 6 -21 -3 -8 0 -11 10
-7 11 4 12 9 5 16 -8 8 -6 16 6 29 19 21 6 24 -20 4z"/>
<path d="M205 2387 c-4 -11 -3 -23 4 -30 8 -8 11 -8 11 1 0 8 50 11 190 9 163
-2 190 0 190 13 0 10 -10 15 -30 15 -16 0 -30 -2 -30 -5 0 -3 -13 -6 -30 -6
-16 -1 -30 2 -30 7 0 4 -12 4 -27 -1 -39 -12 -113 -19 -113 -11 0 4 -27 7 -60
6 -33 0 -62 5 -64 10 -2 6 -7 2 -11 -8z"/>
<path d="M2230 2359 c-1 -24 -2 -74 -3 -111 -1 -38 0 -68 4 -68 3 0 4 -13 1
-30 -3 -19 0 -30 7 -30 9 0 10 35 5 138 -7 137 -14 185 -14 101z"/>
<path d="M1004 2348 c-4 -7 -3 -8 4 -4 8 5 12 -3 12 -23 0 -17 -5 -31 -11 -31
-5 0 -7 -5 -4 -10 12 -20 25 1 25 41 0 38 -12 51 -26 27z"/>
<path d="M1073 2352 c-12 -7 -16 -25 -14 -54 1 -12 9 -18 26 -18 21 0 25 5 25
29 0 31 -19 54 -37 43z"/>
<path d="M1142 2348 c-7 -7 -12 -25 -12 -40 0 -25 4 -28 31 -28 18 0 28 4 24
10 -4 6 -10 8 -14 6 -14 -9 -30 9 -20 24 8 13 10 13 19 0 9 -12 10 -10 8 9 -3
28 -19 36 -36 19z"/>
<path d="M1221 2347 c-6 -6 -11 -24 -11 -39 0 -24 4 -28 28 -27 23 2 24 2 5 6
-15 3 -23 12 -23 24 0 21 25 26 33 7 3 -7 6 -3 6 8 1 25 -21 38 -38 21z"/>
<path d="M1297 2353 c-4 -3 -7 -16 -7 -27 0 -17 2 -18 9 -7 8 12 12 12 25 2
13 -11 16 -11 16 1 0 25 -29 46 -43 31z"/>
<path d="M1372 2348 c-7 -7 -12 -19 -11 -27 0 -11 2 -12 6 -3 7 18 31 15 37
-5 2 -10 4 -5 3 11 -2 33 -16 43 -35 24z"/>
<path d="M1453 2353 c-20 -7 -16 -43 5 -43 15 0 15 2 2 11 -13 9 -13 10 0 6
25 -6 24 -35 -2 -40 -20 -4 -20 -4 5 -6 24 -1 27 2 27 33 0 33 -13 47 -37 39z"/>
<path d="M1527 2353 c-4 -3 -7 -16 -6 -27 0 -12 3 -15 6 -8 2 6 9 12 14 12 6
0 7 -4 4 -10 -3 -6 1 -7 9 -4 12 5 13 11 5 25 -10 20 -21 24 -32 12z"/>
<path d="M1597 2354 c-11 -11 -8 -44 4 -44 5 0 7 5 3 11 -4 7 -1 10 6 7 24 -8
23 -28 -2 -37 -23 -10 -22 -10 5 -10 27 -1 28 1 25 36 -3 36 -23 54 -41 37z"/>
<path d="M1671 2347 c-9 -12 -7 -16 14 -19 20 -4 25 -2 23 10 -4 21 -23 26
-37 9z"/>
<path d="M1747 2354 c-4 -4 -7 -17 -6 -28 0 -12 3 -15 6 -8 2 6 11 12 18 12 7
0 16 -6 19 -12 3 -7 4 -2 3 12 -2 24 -26 38 -40 24z"/>
<path d="M1827 2354 c-10 -10 -9 -26 2 -20 5 3 15 -2 22 -11 12 -14 11 -15 -9
-9 -19 6 -22 4 -21 -16 0 -13 3 -17 6 -11 3 10 10 10 24 2 19 -10 20 -8 17 28
-3 36 -23 54 -41 37z"/>
<path d="M1906 2348 c-3 -7 -6 -25 -9 -40 -4 -25 -1 -28 24 -28 16 0 29 5 29
10 0 6 -8 10 -17 8 -12 -2 -19 4 -21 20 -4 26 13 29 28 5 9 -16 10 -15 8 7 -3
27 -35 41 -42 18z"/>
<path d="M1979 2348 c-1 -7 -3 -25 -5 -40 -1 -16 1 -28 7 -28 5 0 9 11 9 24 0
14 5 28 11 32 8 5 10 -3 7 -25 -2 -17 -1 -31 4 -31 5 0 8 17 6 37 -2 27 -8 39
-20 41 -10 2 -19 -2 -19 -10z"/>
<path d="M2040 2329 c0 -35 15 -54 50 -63 14 -3 19 -3 13 0 -7 3 -13 10 -13
15 0 6 5 7 12 3 6 -4 8 -3 5 3 -4 6 0 14 9 17 21 8 14 50 -8 54 -15 3 -18 -4
-18 -32 0 -23 -5 -36 -13 -36 -19 0 -28 11 -20 24 14 22 13 46 -2 46 -10 0
-15 -10 -15 -31z"/>
<path d="M2480 2270 c0 -35 3 -61 6 -57 7 7 7 107 0 115 -3 3 -6 -23 -6 -58z"/>
<path d="M804 2279 c1 -21 6 -40 11 -42 14 -3 14 55 0 70 -9 8 -12 2 -11 -28z"/>
<path d="M221 2290 c-1 -20 -3 -22 -11 -10 -8 12 -10 11 -10 -5 0 -12 5 -26
11 -32 6 -6 11 -33 11 -59 0 -38 2 -43 8 -23 4 14 4 54 0 90 -4 35 -8 53 -9
39z"/>
<path d="M385 2299 c6 -9 2 -11 -13 -7 -12 4 -20 2 -17 -2 5 -8 -20 -20 -38
-19 -15 0 -49 -73 -44 -92 3 -11 1 -21 -4 -24 -5 -4 -8 -45 -7 -93 1 -48 -1
-97 -5 -109 l-8 -22 153 4 c84 3 160 5 168 5 9 0 11 3 5 8 -7 4 -11 53 -11
122 0 94 -4 121 -19 150 -11 19 -19 38 -20 42 0 3 -4 10 -9 15 -5 5 -6 3 -2
-4 9 -17 6 -16 -45 6 -68 29 -93 35 -84 20z m34 -45 c16 10 91 -29 91 -48 0
-3 -13 -3 -29 0 -18 4 -38 0 -53 -10 -14 -9 -28 -13 -33 -9 -4 5 -5 3 -2 -3 4
-7 0 -15 -9 -18 -8 -3 -12 -2 -9 4 3 6 -1 7 -9 4 -9 -3 -16 -17 -16 -29 0 -13
-4 -27 -10 -30 -5 -3 -10 -42 -10 -86 0 -46 -4 -79 -10 -79 -5 0 -10 6 -10 13
0 8 -4 7 -11 -3 -8 -12 -9 -10 -4 7 3 12 2 24 -2 26 -13 8 -7 161 7 188 15 28
36 46 68 59 15 6 20 14 16 22 -6 9 -3 9 9 0 9 -8 20 -11 26 -8z m89 -85 c35
-12 42 -30 42 -117 l0 -63 -72 2 c-40 1 -79 4 -85 7 -19 6 -16 93 3 121 12 17
69 61 80 61 1 0 15 -5 32 -11z m-104 -197 c12 -7 -15 -22 -41 -22 -16 0 -23 6
-23 20 0 17 4 19 28 14 15 -4 31 -9 36 -12z"/>
<path d="M64 2288 c-4 -6 -3 -8 4 -4 19 12 25 -15 6 -29 -11 -8 -14 -14 -9
-14 19 0 42 24 36 39 -8 19 -28 23 -37 8z"/>
<path d="M2599 2279 c-53 -29 -80 -62 -86 -108 l-6 -42 30 17 c61 35 142 -20
144 -98 5 -150 15 -272 24 -275 6 -2 9 48 8 139 -1 79 -3 163 -3 187 0 24 -3
41 -6 38 -4 -4 -24 9 -46 28 -42 38 -71 44 -106 19 -31 -21 -28 1 4 32 16 17
32 24 45 21 10 -3 19 0 19 5 0 7 15 8 41 4 26 -4 38 -3 34 4 -10 16 5 12 32
-10 15 -12 20 -20 12 -20 -9 0 -10 -3 -4 -8 6 -4 11 -20 12 -37 1 -16 4 -58 6
-93 2 -34 9 -68 15 -74 9 -9 10 8 5 67 -4 55 -3 76 5 71 7 -4 9 3 6 20 -3 16
0 31 8 35 10 7 8 9 -5 9 -10 0 -16 4 -13 9 8 12 -33 47 -78 65 -47 20 -52 19
-97 -5z"/>
<path d="M2267 2253 c-4 -3 -7 -45 -7 -91 0 -47 2 -83 5 -80 4 3 13 178 9 178
0 0 -4 -3 -7 -7z"/>
<path d="M115 2240 c-4 -6 -11 -7 -17 -4 -6 4 -8 2 -5 -4 4 -5 5 -17 2 -25 -8
-18 -71 -18 -67 1 4 21 -15 5 -21 -17 -3 -13 1 -21 14 -24 12 -3 17 -1 12 5
-4 8 4 9 24 5 36 -7 93 6 75 17 -7 4 -17 4 -24 0 -8 -5 -9 -2 -5 10 4 10 7 20
7 22 0 2 9 4 20 4 11 0 20 5 20 10 0 13 -27 13 -35 0z"/>
<path d="M2052 2224 c-25 -17 -29 -44 -7 -44 14 0 41 48 32 56 -2 2 -13 -3
-25 -12z"/>
<path d="M1485 2216 c-16 -12 -18 -17 -7 -27 15 -16 36 1 30 25 -3 15 -5 15
-23 2z"/>
<path d="M1934 2216 c-4 -10 -2 -22 4 -28 8 -8 13 -7 18 6 4 10 2 22 -4 28 -8
8 -13 7 -18 -6z"/>
<path d="M2645 2220 c27 -11 63 -12 69 -2 3 5 -16 9 -42 9 -34 1 -41 -2 -27
-7z"/>
<path d="M1018 2214 c-11 -10 3 -34 19 -34 8 0 13 7 11 17 -3 18 -20 27 -30
17z"/>
<path d="M1070 2201 c0 -12 6 -21 16 -21 9 0 14 7 12 17 -5 25 -28 28 -28 4z"/>
<path d="M1167 2214 c-14 -14 -7 -35 11 -32 9 2 17 10 17 17 0 16 -18 25 -28
15z"/>
<path d="M1215 2210 c-8 -14 3 -30 21 -30 8 0 14 9 14 20 0 21 -24 28 -35 10z"/>
<path d="M1267 2206 c-7 -16 1 -26 20 -26 7 0 13 9 13 20 0 23 -25 27 -33 6z"/>
<path d="M1320 2206 c0 -18 16 -29 30 -21 13 8 1 35 -16 35 -8 0 -14 -6 -14
-14z"/>
<path d="M1372 2203 c5 -25 28 -28 28 -4 0 12 -6 21 -16 21 -9 0 -14 -7 -12
-17z"/>
<path d="M1420 2213 c0 -5 5 -15 10 -23 7 -11 12 -12 21 -3 6 6 8 16 5 22 -8
12 -36 15 -36 4z"/>
<path d="M1526 2212 c-8 -13 11 -35 23 -28 16 10 14 36 -3 36 -8 0 -17 -4 -20
-8z"/>
<path d="M1580 2200 c0 -11 6 -20 13 -20 7 0 13 9 14 20 1 11 -4 20 -13 20 -8
0 -14 -9 -14 -20z"/>
<path d="M1630 2199 c0 -24 23 -21 28 4 2 10 -3 17 -12 17 -10 0 -16 -9 -16
-21z"/>
<path d="M1683 2200 c1 -11 7 -20 14 -20 7 0 13 9 13 20 0 11 -6 20 -14 20 -9
0 -14 -9 -13 -20z"/>
<path d="M1832 2203 c5 -25 28 -28 28 -4 0 12 -6 21 -16 21 -9 0 -14 -7 -12
-17z"/>
<path d="M1980 2200 c0 -18 3 -19 20 -10 11 6 20 15 20 20 0 6 -9 10 -20 10
-13 0 -20 -7 -20 -20z"/>
<path d="M920 2176 c0 -20 5 -36 10 -36 6 0 10 13 10 29 0 17 -4 33 -10 36 -6
4 -10 -8 -10 -29z"/>
<path d="M2099 2208 c-7 -29 -1 -78 9 -78 15 0 17 66 2 75 -5 3 -10 5 -11 3z"/>
<path d="M2153 2150 c0 -36 2 -50 4 -32 2 17 2 47 0 65 -2 17 -4 3 -4 -33z"/>
<path d="M751 2151 c-10 -6 -10 -10 -1 -16 6 -4 15 -17 20 -29 8 -20 9 -20 9
-1 0 34 -13 55 -28 46z"/>
<path d="M891 2096 c0 -38 1 -67 3 -65 8 9 12 76 5 104 -5 22 -7 11 -8 -39z"/>
<path d="M2480 2013 c0 -81 -2 -155 -3 -163 -1 -8 2 -16 7 -17 5 -1 13 -7 17
-15 10 -16 10 -18 9 162 -1 88 -5 139 -13 149 -7 8 -10 16 -9 18 2 3 1 7 -1
10 -3 2 -6 -62 -7 -144z"/>
<path d="M864 2010 c0 -80 2 -112 3 -72 2 39 2 105 0 145 -1 39 -3 7 -3 -73z"/>
<path d="M2213 2075 c0 -38 2 -53 4 -32 2 20 2 52 0 70 -2 17 -4 1 -4 -38z"/>
<path d="M1530 2110 c-8 -5 -17 -7 -20 -5 -3 2 -7 -12 -8 -32 -2 -20 -4 -39
-6 -42 -9 -14 72 -10 84 4 25 31 -18 95 -50 75z m46 -31 c3 -5 0 -9 -5 -9 -6
0 -11 -10 -12 -22 0 -13 -3 -17 -6 -10 -2 6 -9 12 -14 12 -6 0 -7 -5 -3 -12 4
-7 3 -8 -5 -4 -6 4 -9 11 -6 16 3 4 0 10 -7 12 -6 2 -9 9 -5 15 8 13 55 14 63
2z"/>
<path d="M230 2110 c-1 -3 -3 -25 -5 -50 -4 -44 -4 -44 6 -12 6 19 8 41 6 50
-3 10 -6 15 -7 12z"/>
<path d="M1062 2094 c-24 -17 -29 -84 -6 -84 8 0 14 9 14 19 0 22 16 36 24 22
4 -5 0 -12 -6 -14 -8 -3 -5 -6 6 -6 14 -1 17 -6 12 -25 -4 -18 -1 -25 15 -29
18 -5 20 -2 13 26 -5 18 -7 44 -6 58 1 35 -36 54 -66 33z"/>
<path d="M1215 2096 c-14 -10 -20 -29 -22 -70 l-3 -56 45 0 45 0 0 60 c0 48
-4 61 -19 70 -25 13 -23 13 -46 -4z m35 -72 c0 -17 -5 -24 -20 -24 -23 0 -23
0 -10 35 12 31 30 24 30 -11z"/>
<path d="M1368 2098 c-10 -8 -19 -36 -23 -70 l-7 -58 52 0 51 0 -6 58 c-6 50
-23 82 -45 82 -3 0 -13 -6 -22 -12z"/>
<path d="M1670 2100 c-9 -6 -15 -28 -17 -65 l-2 -55 50 0 50 0 -7 53 c-8 66
-36 91 -74 67z"/>
<path d="M1828 2098 c-9 -7 -19 -36 -23 -65 l-7 -53 52 0 52 0 -7 53 c-6 45
-24 77 -45 77 -3 0 -13 -6 -22 -12z m32 -57 c0 -17 -12 -41 -20 -41 -4 0 -7
11 -6 25 1 23 26 38 26 16z"/>
<path d="M1978 2098 c-9 -7 -19 -36 -23 -65 l-7 -53 52 0 52 0 -7 53 c-6 45
-24 77 -45 77 -3 0 -13 -6 -22 -12z"/>
<path d="M2241 2100 c-10 -46 -15 -527 -6 -572 3 -16 1 -28 -5 -28 -5 0 -10 5
-10 12 0 6 -3 9 -6 5 -6 -5 26 -56 36 -57 3 0 5 78 4 172 -1 121 1 147 5 86 3
-47 8 -89 11 -91 3 -3 5 37 5 89 0 67 -3 94 -12 94 -9 0 -13 41 -16 153 -1 83
-4 145 -6 137z"/>
<path d="M599 2074 c-6 -8 -9 -18 -5 -21 4 -4 11 -1 16 7 7 11 10 8 10 -12 0
-38 15 -36 16 2 1 33 -18 46 -37 24z"/>
<path d="M771 2050 c9 -23 14 -28 20 -18 10 15 12 44 2 35 -3 -4 -12 -2 -19 4
-11 9 -12 6 -3 -21z"/>
<path d="M2450 2069 c0 -6 -9 -9 -20 -6 -15 4 -20 0 -20 -16 0 -17 2 -19 9 -8
5 7 14 11 19 7 6 -4 16 3 22 14 7 13 7 20 0 20 -5 0 -10 -5 -10 -11z"/>
<path d="M914 2048 c3 -13 6 -32 7 -43 1 -13 4 -10 8 10 8 34 4 55 -11 55 -6
0 -8 -10 -4 -22z"/>
<path d="M2100 2026 c0 -34 4 -46 13 -43 14 5 12 66 -3 81 -7 7 -10 -7 -10
-38z"/>
<path d="M2150 2030 c0 -22 4 -40 8 -40 5 0 9 18 10 40 1 22 -3 40 -8 40 -6 0
-10 -18 -10 -40z"/>
<path d="M100 2053 c0 -6 -8 -14 -17 -16 -10 -3 -2 -5 18 -6 24 -1 39 4 43 14
6 17 -9 20 -20 4 -4 -8 -9 -7 -15 2 -6 9 -9 10 -9 2z"/>
<path d="M2183 1975 c0 -44 2 -61 4 -37 2 23 2 59 0 80 -2 20 -4 1 -4 -43z"/>
<path d="M139 2005 c-1 -3 -2 -8 -3 -12 -4 -23 -18 -33 -35 -23 -12 6 -22 5
-29 -2 -9 -9 -12 -9 -12 0 0 7 -5 12 -11 12 -5 0 -7 -5 -4 -10 4 -6 2 -17 -4
-24 -9 -10 -8 -15 4 -20 9 -3 13 -2 10 4 -8 12 30 31 48 24 8 -3 18 0 22 5 3
6 11 9 16 6 5 -4 9 5 9 19 0 22 -7 36 -11 21z"/>
<path d="M2260 1915 c0 -54 3 -96 6 -92 7 7 6 178 -1 186 -3 2 -5 -40 -5 -94z"/>
<path d="M1011 1988 c0 -10 -1 -21 0 -24 0 -4 -5 -11 -13 -15 -9 -6 -3 -9 17
-9 17 0 25 4 19 8 -7 4 -14 18 -17 32 -2 14 -5 17 -6 8z"/>
<path d="M217 1973 c-8 -29 -2 -59 16 -77 9 -10 17 -21 17 -25 0 -4 16 -12 35
-18 24 -8 33 -8 29 -1 -5 7 2 9 20 4 17 -4 25 -3 22 3 -4 6 2 15 13 20 26 14
34 14 25 -1 -4 -6 -3 -8 3 -5 6 4 15 1 20 -6 15 -18 22 -57 11 -57 -5 0 -6 -5
-3 -11 10 -16 16 -5 21 40 4 33 1 42 -17 52 -18 9 -19 13 -8 21 21 14 -47 -1
-79 -18 -42 -22 -87 -18 -99 9 -18 35 -22 66 -10 70 8 2 8 5 0 10 -7 4 -14 0
-16 -10z"/>
<path d="M693 1965 c0 -17 -5 -41 -12 -53 l-12 -22 38 21 c21 11 45 27 53 35
12 12 12 14 -3 14 -9 0 -17 -4 -17 -10 0 -5 -9 -14 -19 -20 -16 -8 -19 -7 -16
8 1 9 7 16 12 15 5 -1 10 5 10 12 0 11 -4 12 -13 4 -9 -7 -14 -5 -17 8 -2 10
-4 4 -4 -12z"/>
<path d="M2568 1979 c-11 -7 -11 -9 0 -9 7 0 10 -4 7 -10 -3 -5 -2 -10 4 -10
5 0 13 5 16 11 4 6 13 8 21 5 8 -3 14 -2 14 3 0 12 -46 20 -62 10z"/>
<path d="M2756 1973 c8 -36 10 -173 2 -173 -4 0 -8 -4 -8 -8 0 -5 7 -9 15 -9
11 0 14 19 12 100 -1 66 -6 102 -14 104 -7 3 -10 -3 -7 -14z"/>
<path d="M2304 1923 c-1 -44 1 -52 7 -34 6 14 15 21 23 18 25 -10 26 5 1 25
-38 29 -31 39 23 33 33 -3 42 -2 32 5 -8 5 -31 10 -50 10 l-36 0 0 -57z"/>
<path d="M2635 1959 c-4 -6 -13 -8 -21 -5 -8 3 -13 0 -11 -7 1 -7 -6 -11 -15
-9 -10 2 -18 -1 -18 -6 0 -12 38 -25 69 -22 22 2 23 -1 17 -37 -6 -30 -5 -35
5 -26 15 15 18 73 4 73 -5 0 -4 4 4 9 12 8 12 12 2 25 -16 19 -27 20 -36 5z"/>
<path d="M2145 1931 c3 -5 -3 -11 -14 -13 -17 -3 -17 -5 7 -22 14 -11 22 -14
18 -8 -4 7 -2 12 3 12 6 0 11 9 11 20 0 11 -7 20 -16 20 -8 0 -13 -4 -9 -9z"/>
<path d="M1972 1918 c-22 -22 -13 -36 26 -36 48 -1 67 10 58 34 -7 18 -9 18
-26 -3 -21 -27 -30 -29 -30 -9 0 21 -15 27 -28 14z"/>
<path d="M2080 1911 c-13 -26 -13 -31 5 -31 13 0 21 -26 16 -53 -1 -4 5 -15
14 -23 14 -14 19 -11 16 9 -2 12 27 8 32 -5 3 -7 6 -3 6 10 1 19 -3 21 -24 16
-20 -5 -24 -3 -19 10 4 9 1 16 -6 16 -7 0 -10 6 -7 14 3 8 -1 20 -8 26 -8 7
-12 16 -9 21 3 5 3 9 0 9 -3 0 -10 -9 -16 -19z"/>
<path d="M1030 1904 c0 -8 4 -13 9 -10 5 4 11 0 14 -6 2 -7 8 -10 12 -6 12 11
-2 38 -20 38 -8 0 -15 -7 -15 -16z"/>
<path d="M1087 1914 c-12 -12 -8 -26 6 -21 6 2 18 -3 25 -12 10 -13 11 -12 4
8 -9 26 -24 36 -35 25z"/>
<path d="M1200 1904 c0 -8 4 -13 9 -9 5 3 12 1 16 -5 3 -5 16 -10 28 -9 l22 0
-22 9 c-13 5 -23 14 -23 20 0 5 -7 10 -15 10 -8 0 -15 -7 -15 -16z"/>
<path d="M1306 1905 c-9 -24 -8 -25 15 -25 14 0 19 5 17 17 -4 23 -24 27 -32
8z"/>
<path d="M1357 1900 c3 -11 14 -20 24 -20 22 0 24 11 7 28 -19 19 -37 14 -31
-8z"/>
<path d="M1417 1914 c-14 -15 -6 -34 14 -34 14 0 19 5 17 17 -3 18 -20 27 -31
17z"/>
<path d="M1467 1914 c-4 -4 -7 -15 -7 -25 0 -12 6 -16 20 -12 12 3 20 12 18
21 -3 17 -21 26 -31 16z"/>
<path d="M1516 1904 c-9 -23 -8 -24 14 -24 13 0 20 7 20 20 0 24 -25 27 -34 4z"/>
<path d="M1570 1901 c-7 -14 -7 -21 0 -21 5 0 10 5 10 11 0 8 6 7 16 -2 14
-12 16 -11 13 5 -6 27 -26 31 -39 7z"/>
<path d="M1627 1914 c-14 -15 -6 -34 14 -34 14 0 19 5 17 17 -3 18 -20 27 -31
17z"/>
<path d="M1677 1914 c-14 -15 -6 -34 14 -34 14 0 19 5 17 17 -3 18 -20 27 -31
17z"/>
<path d="M1727 1900 c-4 -16 0 -20 20 -20 18 0 24 5 21 17 -5 26 -34 28 -41 3z"/>
<path d="M1787 1914 c-16 -16 -6 -34 19 -34 19 0 25 5 22 17 -3 19 -29 29 -41
17z"/>
<path d="M1847 1913 c-11 -10 -8 -33 4 -33 5 0 7 5 4 10 -3 6 -2 10 4 10 5 0
11 -6 14 -12 2 -7 8 -10 12 -6 4 4 5 14 2 23 -7 15 -28 20 -40 8z"/>
<path d="M1907 1914 c-16 -16 -6 -34 18 -32 17 2 25 8 23 18 -3 16 -30 25 -41
14z"/>
<path d="M494 1900 c-34 -13 -39 -30 -9 -30 14 0 28 7 32 15 7 21 2 24 -23 15z"/>
<path d="M2871 1884 c-12 -15 -21 -37 -21 -51 0 -21 2 -22 21 -12 15 8 19 8
15 0 -12 -18 6 -12 20 6 7 10 15 15 19 11 4 -4 -2 -17 -14 -29 -12 -13 -21
-33 -21 -45 0 -13 -4 -25 -9 -28 -15 -10 -22 -84 -10 -110 15 -33 31 -23 19
10 -7 17 -6 32 0 45 8 14 7 19 -2 19 -9 1 -8 4 3 10 10 6 15 20 13 44 -3 39
13 58 53 62 28 3 40 11 30 20 -4 4 -13 1 -22 -6 -9 -8 -15 -8 -15 -2 0 6 9 14
20 17 31 10 24 28 -8 22 -22 -4 -30 -1 -37 16 -15 31 -30 31 -54 1z"/>
<path d="M1163 1873 c-20 -4 -23 -10 -22 -46 l2 -42 6 34 c5 28 13 37 41 47
34 12 19 16 -27 7z"/>
<path d="M216 1853 c2 -6 -7 -14 -19 -16 -22 -4 -22 -4 1 -6 13 0 20 -5 17
-11 -3 -5 0 -10 7 -10 8 0 13 13 14 31 1 17 -2 25 -6 19 -4 -7 -10 -8 -12 -4
-3 5 -3 4 -2 -3z"/>
<path d="M817 1863 c-13 -24 -16 -63 -5 -63 8 0 14 14 15 35 2 34 -2 43 -10
28z"/>
<path d="M917 1728 c2 -79 3 -192 3 -251 0 -60 4 -106 8 -103 4 2 14 1 21 -4
10 -6 8 -9 -8 -15 -11 -3 -21 -13 -21 -21 0 -17 26 -19 33 -1 4 7 6 6 6 -4 1
-21 40 -32 47 -14 3 7 4 30 2 51 l-3 39 -17 -45 -16 -45 -1 58 c-1 44 2 57 14
57 8 0 15 -4 15 -8 0 -5 7 -9 15 -9 8 0 15 4 15 9 0 4 -5 8 -11 8 -6 0 -3 7 6
16 9 9 13 19 9 23 -4 3 -9 0 -11 -6 -3 -7 -14 -13 -25 -13 -22 0 -40 -15 -53
-45 -8 -19 -9 -19 -13 4 -2 13 2 27 8 31 9 5 9 9 1 14 -6 4 -11 16 -11 27 0
12 4 17 11 13 8 -4 9 1 4 16 -5 15 -4 20 4 16 6 -4 11 -2 11 4 0 6 -7 13 -15
16 -18 7 -20 30 -2 37 10 4 10 6 0 6 -7 1 -13 14 -13 30 0 16 6 32 13 35 9 4
9 7 0 12 -8 3 -9 15 -2 37 5 18 9 45 9 60 0 22 4 28 18 25 23 -4 31 -68 8 -68
-9 0 -16 -7 -16 -15 0 -12 4 -13 18 -6 16 8 17 6 14 -25 -3 -21 0 -34 7 -34 6
0 12 10 12 23 1 15 4 10 9 -13 6 -28 8 -30 9 -10 1 19 4 21 10 11 5 -8 16 -11
25 -8 13 5 14 11 5 34 -8 23 -8 26 2 15 8 -7 14 -22 16 -35 7 -59 17 -93 29
-100 16 -9 19 -57 4 -57 -5 0 -10 7 -10 15 0 8 -4 15 -10 15 -5 0 -10 -8 -10
-17 0 -15 -2 -14 -16 3 -15 18 -15 18 -10 -4 3 -18 1 -22 -10 -18 -8 3 -14 1
-14 -4 0 -6 5 -10 10 -10 6 0 10 -14 10 -31 0 -17 4 -28 10 -24 6 3 7 -1 4 -9
-4 -9 -1 -16 6 -16 8 0 10 9 6 24 -3 14 -3 31 0 40 9 23 34 -5 34 -38 0 -14 5
-26 10 -26 10 0 12 5 14 33 1 6 5 15 10 18 4 4 3 15 -2 26 -13 23 -15 84 -6
131 4 21 2 32 -5 32 -6 0 -11 -16 -11 -35 0 -19 -4 -35 -10 -35 -9 0 -12 16
-14 86 -1 24 -25 50 -51 55 -13 3 -30 28 -50 74 -33 76 -40 85 -70 85 -20 0
-21 -5 -18 -142z"/>
<path d="M2826 1823 c-4 -18 -11 -33 -16 -33 -5 0 -10 -12 -12 -27 -2 -18 -10
-29 -22 -31 -11 -3 -16 0 -12 7 4 6 -1 14 -10 18 -10 4 -19 2 -22 -5 -2 -7 -8
-10 -13 -6 -5 3 -9 -2 -9 -10 0 -9 -7 -16 -16 -16 -11 0 -14 6 -9 21 5 15 4
19 -4 15 -6 -4 -14 0 -17 8 -5 13 -15 14 -48 9 -22 -3 -44 -11 -48 -17 -5 -8
-8 -7 -8 2 0 6 -9 12 -19 12 -11 0 -23 5 -26 10 -3 6 -13 10 -21 10 -15 0 -15
-5 -4 -77 0 -2 5 -3 10 -3 6 0 10 12 11 28 0 15 3 21 6 14 2 -6 10 -9 15 -6 6
4 9 3 6 -2 -3 -5 -2 -18 3 -29 7 -19 8 -18 8 4 1 18 4 21 14 12 8 -6 17 -7 22
-3 4 4 4 -3 1 -15 -6 -18 -4 -21 14 -16 12 3 18 9 13 12 -11 7 -12 51 -1 45 4
-3 8 -13 9 -22 0 -10 3 -12 6 -5 6 17 32 -7 26 -23 -2 -7 0 -15 6 -19 6 -3 11
1 11 11 0 15 3 15 23 -4 27 -26 37 -28 37 -7 0 8 -5 15 -12 15 -6 0 -8 3 -5 6
4 4 13 1 21 -6 9 -6 21 -10 28 -7 8 4 7 6 -4 6 -10 1 -18 5 -18 11 0 13 53 9
62 -5 4 -5 8 -18 8 -27 0 -16 -14 -18 -165 -18 l-165 0 2 -167 c0 -93 4 -152
7 -133 5 32 6 31 11 -20 l7 -55 1 70 c1 48 -1 65 -8 55 -7 -10 -9 4 -9 48 1
34 5 62 10 62 5 0 9 7 9 16 0 8 -4 12 -10 9 -6 -4 -10 10 -10 34 0 73 -3 71
150 71 76 0 152 -3 169 -6 27 -6 31 -11 31 -40 0 -34 -19 -60 -21 -27 0 16 -1
16 -8 -2 -8 -19 -9 -18 -13 5 l-5 25 -2 -26 -1 -26 -59 20 c-55 18 -62 18
-113 3 -34 -10 -64 -27 -83 -47 l-30 -32 40 30 c61 47 120 57 189 33 31 -10
56 -16 56 -12 1 17 29 -46 30 -65 0 -13 4 -23 9 -23 6 0 12 -19 14 -42 2 -24
3 -7 1 37 -1 44 -3 85 -3 90 0 6 2 55 4 110 2 55 1 123 -4 150 -7 49 -7 50
-15 18z"/>
<path d="M1057 1809 c-9 -6 -17 -20 -16 -32 0 -21 1 -21 9 -2 7 17 9 17 9 3 1
-27 51 -25 51 2 0 25 -30 41 -53 29z"/>
<path d="M1530 1805 c7 -8 10 -24 7 -35 -3 -11 -1 -20 4 -20 5 0 9 6 9 13 0 6
3 22 6 35 5 18 2 22 -16 22 -19 0 -20 -2 -10 -15z"/>
<path d="M1987 1813 c-4 -3 -7 -19 -7 -35 0 -25 3 -28 35 -28 30 0 35 3 35 23
0 36 -41 63 -63 40z"/>
<path d="M0 1800 c0 -12 106 -14 114 -1 3 4 -22 9 -54 10 -36 1 -60 -3 -60 -9z"/>
<path d="M2184 1690 c0 -69 1 -97 3 -62 2 34 2 90 0 125 -2 34 -3 6 -3 -63z"/>
<path d="M1271 1787 c-8 -11 -7 -19 7 -34 l17 -20 16 21 c16 21 16 22 -2 23
-10 1 -19 -3 -19 -8 0 -6 -5 -7 -12 -3 -7 5 -5 11 7 21 11 7 14 13 8 13 -6 0
-16 -6 -22 -13z"/>
<path d="M1770 1759 c6 -21 5 -27 -2 -23 -7 4 -8 2 -4 -4 9 -15 49 -15 63 -1
14 14 -11 43 -43 51 -20 5 -21 3 -14 -23z"/>
<path d="M55 1773 c-69 -7 -67 -25 2 -21 34 2 65 -1 70 -5 12 -12 14 -46 15
-199 l1 -138 38 0 c20 0 40 -6 43 -12 3 -9 9 -7 20 6 25 31 20 56 -14 69 l-30
11 0 90 c0 80 2 88 14 71 8 -11 12 -24 9 -29 -4 -5 0 -6 7 -1 10 6 12 4 7 -8
-4 -11 6 -26 31 -46 29 -24 34 -33 23 -40 -17 -11 -4 -34 15 -27 9 3 34 -14
62 -42 58 -59 145 -129 172 -137 11 -4 20 -14 20 -23 0 -12 -3 -13 -12 -4 -16
16 -48 15 -48 0 0 -9 -3 -9 -9 1 -6 9 -31 15 -68 17 -32 2 -83 6 -113 8 l-56
5 10 -69 c8 -59 13 -70 29 -70 17 0 17 1 3 16 -9 8 -16 17 -16 20 0 9 25 -1
35 -14 8 -10 32 -13 93 -9 75 4 82 2 82 -15 0 -16 -9 -18 -90 -18 -70 0 -90
-3 -90 -14 0 -10 21 -13 90 -14 69 0 90 3 90 13 0 23 18 27 142 31 105 2 118
1 107 -12 -10 -13 -10 -17 2 -25 10 -6 11 -11 3 -16 -22 -15 -24 -49 -7 -84
l18 -34 3 38 c4 41 7 44 28 23 16 -17 19 -36 4 -36 -5 0 -2 -19 6 -42 9 -24
16 -55 16 -70 -1 -16 4 -28 10 -28 11 0 7 49 -8 98 -5 17 -3 21 9 16 13 -5 14
-1 2 33 -13 37 -22 46 -58 57 -10 3 -15 11 -12 16 5 8 11 7 21 -1 9 -7 14 -8
14 -1 0 6 -6 12 -12 15 -10 3 -10 7 -1 17 13 14 6 43 -8 34 -5 -3 -9 1 -9 10
0 8 6 17 13 19 10 5 -150 8 -371 9 -54 0 -75 3 -79 14 -3 8 -14 14 -24 14 -10
0 -19 3 -19 8 0 13 80 8 89 -6 7 -12 13 -11 37 3 16 9 20 13 9 10 -35 -11 -39
-10 -42 10 -1 11 0 14 3 8 4 -8 12 -10 22 -4 9 4 28 5 42 0 14 -4 19 -7 11 -8
-8 -1 -12 -3 -9 -6 10 -10 126 -16 132 -7 4 6 21 7 43 2 21 -5 45 -8 53 -8 8
1 37 0 63 0 35 -2 46 -5 41 -14 -4 -7 -3 -10 1 -5 8 7 11 20 17 65 1 7 9 10
20 6 17 -5 23 4 19 34 -1 6 4 12 10 12 7 0 10 3 6 6 -3 3 -16 -1 -28 -9 -15
-11 -28 -13 -46 -6 -28 10 -64 -7 -56 -28 3 -8 -3 -13 -18 -13 -20 0 -21 2 -9
11 12 9 11 9 -5 4 -11 -4 -28 -10 -38 -12 -10 -3 -48 9 -85 28 -50 24 -92 58
-168 133 -55 56 -115 120 -133 144 l-33 42 42 0 c23 0 39 -4 36 -9 -3 -5 2
-15 11 -22 14 -12 15 -11 9 11 -7 23 -6 24 8 6 14 -17 42 -14 31 4 -3 5 18 11
47 13 29 2 -1 4 -66 5 -95 2 -123 5 -138 19 -17 15 -18 15 -18 -5 0 -12 -5
-22 -11 -22 -6 0 -8 9 -4 20 5 14 2 20 -9 20 -11 0 -16 10 -16 33 0 55 -20 67
-95 60z m150 -307 c8 -7 11 -16 8 -20 -4 -3 -1 -6 5 -6 7 0 12 -4 12 -9 0 -4
-13 -8 -30 -7 -26 1 -30 5 -30 29 0 30 14 35 35 13z m551 -161 c-3 -8 -1 -15
4 -15 5 0 10 8 12 18 3 14 5 13 10 -6 5 -18 0 -25 -22 -37 -28 -14 -60 -11
-60 5 0 4 9 10 20 13 13 3 18 10 14 21 -4 11 -1 16 11 16 11 0 15 -5 11 -15z
m-93 -112 c-18 -2 -48 -2 -65 0 -18 2 -4 4 32 4 36 0 50 -2 33 -4z"/>
<path d="M548 1769 c-6 -4 -16 -5 -20 -3 -4 3 -8 1 -8 -4 0 -5 11 -15 25 -22
13 -7 22 -18 18 -23 -3 -6 -1 -7 6 -3 6 4 9 11 6 16 -3 5 -1 11 5 15 5 3 10
12 10 19 0 14 -22 17 -42 5z"/>
<path d="M225 1728 c0 -28 4 -43 13 -42 6 1 29 2 50 3 26 1 33 4 23 10 -8 5
-20 7 -27 4 -7 -2 -15 5 -19 16 -3 12 -11 19 -16 15 -6 -3 -5 -12 3 -22 8 -10
8 -13 1 -9 -6 4 -14 1 -17 -5 -2 -7 -4 -4 -3 7 5 40 16 46 49 29 28 -14 30
-14 25 -1 -5 13 4 17 46 20 47 3 45 4 -18 5 -38 1 -79 5 -90 8 -18 4 -20 0
-20 -38z"/>
<path d="M1929 1738 c-2 -18 -1 -49 2 -68 5 -27 7 -19 8 33 1 71 -4 89 -10 35z"/>
<path d="M720 1746 c0 -7 6 -18 13 -24 10 -8 13 -5 15 14 1 15 -3 24 -13 24
-8 0 -15 -6 -15 -14z"/>
<path d="M1535 1720 c-4 -6 -48 -30 -98 -53 -148 -69 -205 -132 -192 -209 5
-29 4 -39 -4 -34 -6 4 -9 11 -6 16 3 5 1 11 -5 15 -12 8 -13 -10 -1 -53 9 -29
8 -32 -13 -32 -20 0 -23 5 -24 47 0 26 3 41 8 34 7 -12 3 172 -5 194 -2 6 -4
-20 -4 -57 -1 -38 -5 -68 -9 -68 -4 0 -7 -19 -6 -42 1 -24 -3 -49 -8 -55 -7
-9 -7 -13 1 -13 7 0 8 -8 1 -26 -6 -14 -10 -45 -10 -70 0 -74 51 -108 65 -43
8 36 25 28 25 -12 0 -23 -4 -29 -17 -27 -9 2 -22 -6 -28 -18 -11 -21 -35 -22
-35 0 0 7 -7 21 -15 32 -13 17 -14 14 -15 -43 0 -56 2 -61 20 -56 29 8 25 -14
-10 -45 -22 -20 -28 -33 -23 -50 3 -15 0 -27 -10 -35 -16 -13 -7 -57 13 -57 5
0 10 -12 10 -27 0 -22 -2 -25 -10 -13 -8 12 -11 13 -19 1 -11 -17 -91 -32
-113 -20 -9 5 -18 21 -20 36 -4 25 -5 26 -12 8 -4 -11 -10 -26 -12 -33 -2 -7
-9 -10 -15 -6 -8 4 -10 27 -6 65 4 51 3 57 -13 56 -10 -1 -16 -5 -14 -9 3 -5
-1 -11 -9 -14 -8 -3 -13 -13 -10 -23 3 -12 -2 -20 -16 -24 -15 -4 -19 -10 -15
-22 4 -10 1 -21 -7 -26 -12 -7 -12 -9 1 -9 13 0 13 -1 0 -10 -15 -10 -13 -10
75 -14 22 -2 29 -35 10 -49 -6 -5 -4 -7 5 -4 9 2 15 16 15 35 0 52 17 18 20
-40 1 -29 6 -69 12 -89 6 -23 7 -43 1 -53 -10 -19 -1 -39 13 -30 21 12 29 55
19 99 -8 35 -6 51 7 82 l17 38 4 -30 c2 -16 2 -69 0 -117 -2 -66 0 -88 10 -88
6 0 12 -4 12 -10 0 -5 4 -10 9 -10 5 0 8 8 6 18 -1 9 -7 16 -13 15 -7 -2 -7 8
0 30 6 17 15 74 21 125 9 87 11 92 33 92 21 0 24 5 24 37 0 20 3 33 7 30 6 -7
8 -18 18 -112 2 -22 4 -41 4 -43 1 -1 10 2 21 8 24 13 26 30 5 30 -10 0 -15
11 -16 38 -2 62 2 76 27 103 24 25 32 45 14 34 -5 -3 -10 1 -10 10 0 9 5 13
10 10 6 -3 10 3 10 14 0 19 13 25 46 20 4 0 11 5 16 13 7 10 11 9 23 -6 14
-19 15 -18 15 15 -1 19 -7 45 -15 59 -19 34 -19 37 10 44 14 4 25 11 25 17 0
6 -4 7 -10 4 -5 -3 -10 -1 -10 4 0 10 22 16 44 12 4 -1 17 1 29 5 19 6 19 7 2
16 -9 6 -20 6 -24 2 -8 -12 -31 -16 -31 -6 0 4 -22 16 -49 27 -45 17 -51 23
-56 57 -11 60 4 117 39 155 17 19 75 55 130 82 l98 48 93 -41 c118 -53 140
-68 169 -114 21 -33 24 -51 25 -144 2 -99 1 -106 -19 -111 -16 -4 -20 -13 -20
-47 0 -28 -4 -39 -11 -34 -6 3 -15 1 -19 -5 -5 -9 -11 -8 -24 4 -12 13 -16 13
-16 3 0 -8 5 -19 10 -24 13 -13 2 -46 -11 -38 -5 3 -9 11 -8 17 1 7 1 21 0 32
-2 18 -3 18 -12 -4 -5 -13 -6 -29 -1 -35 4 -6 7 -22 6 -36 -1 -14 2 -28 7 -31
17 -10 24 -110 9 -119 -9 -5 5 -8 33 -7 26 1 47 5 47 8 0 3 17 6 38 7 20 1 32
-2 25 -6 -6 -4 66 -5 160 -4 169 4 171 4 188 -20 16 -20 21 -21 38 -11 16 10
23 10 36 -3 8 -8 16 -12 16 -7 1 4 2 14 3 22 2 27 26 24 26 -3 0 -18 5 -26 18
-26 13 0 14 2 4 9 -9 5 -11 19 -7 42 3 19 7 41 8 49 2 8 6 21 10 28 6 8 2 12
-12 12 -15 0 -21 8 -24 33 l-4 32 -1 -32 c-1 -18 -6 -33 -10 -33 -4 0 -9 48
-11 107 -2 112 6 143 10 38 2 -40 9 -66 20 -77 14 -13 18 -14 22 -4 3 8 2 17
-2 22 -4 5 -4 41 -1 79 4 39 8 64 8 58 1 -7 14 -13 30 -13 21 0 24 2 12 10
-11 7 -11 10 -2 10 7 0 11 4 8 9 -7 11 75 2 88 -9 12 -12 36 -1 36 16 0 11
-23 14 -109 14 l-109 0 -12 -35 c-7 -20 -10 -74 -8 -124 1 -49 0 -93 -5 -97
-4 -4 -7 -2 -7 6 0 9 -3 10 -13 1 -8 -6 -22 -9 -33 -7 -14 3 -20 -2 -21 -16
-2 -16 2 -19 20 -13 51 16 67 17 67 5 0 -7 -6 -10 -12 -7 -7 2 -22 1 -32 -3
-17 -6 -18 -7 -3 -13 9 -3 17 -2 17 4 0 6 9 5 22 -2 21 -12 22 -12 3 -19 -23
-8 -65 -1 -65 11 0 5 -9 9 -21 9 -11 0 -18 4 -14 9 3 5 1 12 -5 16 -6 4 -13
-7 -16 -24 -6 -28 -10 -31 -45 -31 -37 0 -44 6 -40 37 1 7 -5 10 -12 7 -9 -3
-16 3 -19 18 -4 24 12 48 32 48 6 0 8 5 5 10 -4 6 -11 8 -16 4 -7 -4 -8 7 -4
28 4 25 0 39 -15 58 -19 22 -21 22 -16 4 4 -11 -1 -29 -9 -40 -15 -18 -16 -18
-13 6 3 22 0 25 -26 22 -24 -3 -28 0 -23 17 6 24 -20 37 -27 13 -3 -9 -8 -42
-10 -73 -4 -44 -1 -56 10 -56 8 0 14 5 14 11 0 6 5 4 10 -4 7 -11 10 -11 10
-2 0 7 5 10 10 7 16 -10 12 -52 -6 -59 -8 -3 -12 -11 -8 -17 11 -19 44 32 44
68 0 17 4 34 8 37 7 4 13 -28 15 -86 1 -10 5 -18 9 -18 4 0 8 -9 8 -20 0 -23
-38 -28 -58 -8 -10 10 -17 10 -32 0 -29 -18 -98 -15 -119 6 -10 9 -21 31 -25
47 -4 17 -9 38 -12 47 -4 13 -1 16 10 12 25 -9 19 6 -11 32 -16 13 -23 24 -18
24 6 0 9 19 7 45 -4 45 -4 45 27 45 l32 0 -3 -52 c-3 -46 -1 -53 15 -50 9 2
17 -2 17 -8 0 -5 7 -10 15 -10 8 0 15 9 15 20 0 15 -7 20 -26 20 -24 0 -25 3
-23 43 2 24 0 47 -4 53 -3 6 -7 70 -8 142 -1 126 -2 133 -30 177 -16 25 -32
44 -36 43 -13 -5 -93 25 -93 34 0 4 5 8 11 8 5 0 7 4 4 10 -3 5 -20 7 -36 3
-19 -3 -34 -1 -38 5 -4 6 -16 13 -26 15 -11 1 -28 8 -39 14 -17 9 -16 11 12
15 17 2 29 1 27 -3 -3 -4 2 -10 11 -13 10 -4 13 -2 8 6 -4 6 -3 9 2 6 5 -2 44
-22 87 -42 65 -32 84 -47 112 -89 19 -29 35 -45 35 -37 0 20 -37 79 -63 101
-29 24 -151 89 -168 89 -6 0 -27 11 -45 25 -20 15 -35 21 -39 15z m-310 -407
c-4 -21 -9 -41 -11 -45 -9 -14 -24 -9 -24 7 0 8 4 15 9 15 5 0 7 9 4 20 -3 11
-9 17 -14 14 -10 -6 -12 9 -2 19 3 4 15 7 26 7 17 0 18 -5 12 -37z m70 -63
c-3 -5 3 -10 14 -10 12 0 21 -4 21 -10 0 -5 -11 -10 -25 -10 -18 0 -25 5 -25
20 0 11 5 20 11 20 5 0 7 -4 4 -10z m1023 -102 c1 -51 -1 -58 -9 -39 -10 26
-10 113 1 106 4 -2 7 -32 8 -67z m-995 55 c-15 -3 -24 -12 -25 -26 0 -12 -1
-26 -2 -32 0 -5 -13 -22 -28 -37 l-28 -27 0 56 c0 45 3 54 15 49 8 -3 15 -1
15 4 0 10 25 18 55 17 16 0 16 -1 -2 -4z m-110 -85 c2 -7 -2 -26 -10 -42 -8
-15 -10 -25 -4 -22 15 10 14 -6 -2 -38 -8 -14 -17 -23 -20 -19 -12 11 -8 58 7
78 7 10 11 27 8 37 -5 20 14 25 21 6z m552 -65 c4 -54 -3 -93 -16 -93 -5 0 -9
19 -10 43 l-1 42 -13 -35 c-7 -19 -14 -29 -14 -21 -2 23 22 91 31 91 4 0 8 8
8 17 0 36 12 1 15 -44z m225 7 c0 -15 -7 -20 -27 -20 -22 0 -25 2 -13 10 8 5
10 10 5 10 -6 0 -16 -5 -23 -12 -9 -9 -12 -8 -12 4 0 18 14 26 48 27 16 1 22
-5 22 -19z m-1067 -139 c3 -14 -2 -20 -19 -24 -13 -2 -24 0 -24 4 0 5 5 9 10
9 6 0 10 7 10 15 0 22 17 19 23 -4z m1311 -32 c9 14 26 14 26 -1 0 -6 -3 -8
-7 -5 -3 4 -12 2 -19 -4 -20 -16 -44 -3 -44 23 l0 23 19 -24 c12 -16 21 -20
25 -12z"/>
<path d="M483 1706 c-15 -18 -4 -29 14 -15 10 9 13 7 13 -7 0 -15 2 -16 9 -5
20 31 -12 54 -36 27z"/>
<path d="M805 1701 c-19 -8 -19 -8 0 -20 18 -11 18 -11 -5 -5 -22 6 -23 5 -12
-9 15 -18 8 -37 -14 -37 -16 0 -19 -16 -4 -25 6 -3 10 -1 10 5 0 6 5 8 10 5 6
-3 10 1 10 10 0 9 5 13 10 10 6 -3 10 -5 10 -3 1 2 3 20 6 41 3 20 4 37 2 36
-2 0 -12 -4 -23 -8z"/>
<path d="M36 1682 c-11 -18 4 -34 25 -29 29 8 31 -8 6 -39 l-22 -29 27 20 c31
23 35 40 13 61 -11 11 -15 12 -15 3 0 -7 -6 -5 -13 6 -10 12 -16 14 -21 7z"/>
<path d="M1987 1643 c-4 -3 -7 -26 -7 -50 0 -43 0 -43 35 -43 35 0 35 0 35 44
0 31 -5 46 -16 50 -20 8 -39 8 -47 -1z"/>
<path d="M2940 1615 c0 -14 4 -25 9 -25 12 0 19 21 13 38 -8 21 -22 13 -22
-13z"/>
<path d="M989 1573 c0 -32 -2 -68 -3 -80 -1 -12 1 -20 5 -17 4 2 10 -2 12 -8
3 -7 6 24 6 69 1 45 -3 85 -9 88 -6 4 -10 -16 -11 -52z"/>
<path d="M1048 1623 c7 -2 12 -22 12 -44 0 -46 15 -52 23 -9 9 40 -1 60 -27
59 -11 0 -15 -3 -8 -6z"/>
<path d="M615 1581 c-3 -6 -3 -11 2 -12 4 0 -1 -4 -12 -9 -15 -6 -10 -8 21 -8
29 0 44 6 52 19 10 16 9 19 -4 19 -8 0 -13 -4 -9 -9 10 -18 -18 -24 -31 -7 -8
11 -14 13 -19 7z"/>
<path d="M2883 1571 c-4 -16 -8 -19 -13 -10 -5 7 -7 2 -7 -14 1 -14 4 -25 7
-25 17 1 24 -3 14 -10 -6 -4 -13 -26 -17 -49 -4 -38 -3 -43 14 -43 17 0 24
-16 20 -43 -1 -4 7 -2 18 5 23 14 18 31 -12 46 -12 6 -16 11 -9 11 10 1 10 6
2 21 -8 14 -8 26 0 40 8 16 8 22 -4 26 -12 4 -13 11 -5 31 5 14 7 28 4 31 -3
4 -8 -4 -12 -17z"/>
<path d="M363 1554 c-33 -14 -47 -29 -17 -17 9 3 20 0 24 -7 6 -9 10 -7 15 9
3 11 11 21 16 21 6 0 7 -5 3 -12 -4 -7 -3 -8 4 -4 7 4 12 4 12 -1 0 -4 11 -9
25 -9 34 -2 72 -29 95 -67 18 -30 19 -32 2 -38 -15 -6 -15 -7 3 -11 17 -5 16
-6 -5 -7 -14 -1 -32 -6 -40 -12 -11 -8 -5 -9 23 -4 33 5 37 4 37 -15 0 -12 6
-20 18 -20 12 0 13 3 5 8 -8 5 -14 37 -15 80 -2 40 -7 72 -12 72 -4 0 -6 -10
-3 -21 5 -20 4 -20 -21 4 -24 23 -113 68 -130 66 -4 0 -22 -7 -39 -15z"/>
<path d="M707 1558 c18 -9 20 -16 16 -44 -4 -23 -2 -34 6 -34 8 0 10 8 6 20
-3 11 -2 28 4 37 9 16 10 16 11 -4 0 -12 5 -25 10 -28 21 -13 9 -34 -22 -41
-18 -4 -27 -9 -21 -11 14 -5 101 24 117 39 20 17 26 7 26 -43 l0 -52 -50 5
c-41 4 -50 2 -50 -11 0 -14 2 -14 10 -1 8 13 10 12 10 -3 0 -11 4 -15 11 -11
18 11 110 14 104 3 -4 -5 -1 -9 4 -9 16 0 13 16 -6 35 -10 11 -18 38 -20 73
-2 31 -7 60 -13 66 -5 5 -7 1 -4 -11 5 -16 -2 -23 -33 -36 -36 -14 -38 -14
-41 4 -2 11 -8 17 -13 14 -5 -4 -9 6 -9 22 0 25 -3 28 -38 30 -32 1 -34 0 -15
-9z"/>
<path d="M2136 1534 c-5 -25 -11 -34 -22 -30 -8 3 -14 1 -14 -4 0 -6 8 -10 18
-10 25 0 38 -44 34 -118 -2 -43 -6 -60 -14 -56 -8 5 -9 1 -5 -9 4 -12 1 -17
-11 -17 -25 0 -43 -32 -26 -48 7 -6 15 -8 18 -3 3 4 26 4 51 -2 45 -10 45 -11
45 -54 0 -32 -4 -43 -15 -43 -10 0 -15 -10 -15 -28 0 -15 -5 -33 -12 -40 -9
-9 -9 -12 0 -12 7 0 12 -12 12 -27 0 -22 2 -25 10 -13 8 13 10 12 10 -2 0 -10
5 -18 10 -18 6 0 10 79 10 220 -1 212 -2 220 -20 220 -15 0 -20 7 -21 28 0 24
-1 25 -9 7 -7 -16 -9 -10 -10 25 -2 25 -2 51 -1 58 1 6 -2 12 -7 12 -6 0 -13
-16 -16 -36z"/>
<path d="M72 1544 c-9 -10 -9 -14 -1 -14 6 0 9 -7 5 -17 -6 -16 -5 -17 7 -2 7
9 21 19 32 22 18 4 18 5 -2 6 -12 0 -23 5 -25 10 -1 5 -9 3 -16 -5z"/>
<path d="M1421 1510 c-2 -25 -5 -39 -8 -32 -7 17 -20 15 -20 -3 0 -8 8 -15 18
-15 14 0 18 -7 16 -29 -1 -18 -7 -27 -14 -24 -7 3 -13 0 -13 -6 0 -6 7 -11 16
-11 11 0 15 -8 14 -27 -4 -56 -1 -65 16 -55 9 5 26 8 38 6 12 -2 6 1 -11 8
-27 9 -33 16 -33 39 0 27 3 29 40 29 40 0 40 0 40 -40 0 -39 12 -52 26 -29 3
6 2 14 -4 18 -14 8 -13 112 1 129 7 9 7 16 0 20 -5 4 -13 14 -16 22 -3 8 -6
-13 -6 -47 l-1 -63 -39 0 -39 0 -9 78 c-9 65 -11 70 -12 32z"/>
<path d="M653 1513 c-37 -4 -43 -7 -43 -26 1 -19 2 -20 10 -5 9 15 50 15 48
-1 -2 -19 3 -31 11 -27 5 4 11 0 14 -6 3 -7 4 -3 4 9 -1 12 -5 19 -9 17 -13
-8 -9 21 4 34 7 7 10 11 8 10 -3 -1 -24 -3 -47 -5z"/>
<path d="M1651 1465 c-2 -33 -3 -75 -2 -92 3 -46 -12 -66 -20 -28 l-7 30 -1
-27 c-1 -23 -6 -28 -28 -28 -14 0 -24 -3 -21 -6 3 -3 42 -5 87 -5 77 0 81 -1
81 -22 0 -17 2 -19 9 -7 6 8 8 17 5 21 -2 4 5 9 16 12 20 5 28 27 10 27 -5 0
-10 -4 -10 -10 0 -5 -5 -10 -11 -10 -5 0 -7 5 -4 10 3 6 1 10 -4 10 -6 0 -11
-4 -11 -10 0 -5 -16 -10 -35 -10 -41 0 -44 7 -48 125 -3 76 -3 77 -6 20z"/>
<path d="M1933 1440 c0 -47 2 -66 4 -42 2 23 2 61 0 85 -2 23 -4 4 -4 -43z"/>
<path d="M27 1483 c-16 -4 -15 -8 10 -28 27 -24 47 -18 36 11 -2 7 4 14 14 17
10 3 5 5 -12 5 -16 0 -38 -2 -48 -5z"/>
<path d="M1625 1480 c-3 -6 -17 -7 -30 -4 -12 3 -26 1 -29 -5 -5 -7 7 -11 33
-11 30 0 41 4 41 15 0 17 -6 19 -15 5z"/>
<path d="M2268 1428 c-2 -24 -1 -59 3 -78 5 -26 7 -15 8 43 1 84 -5 102 -11
35z"/>
<path d="M1995 1440 c-4 -6 -11 -8 -16 -5 -5 3 -6 -1 -3 -10 5 -12 9 -13 20
-4 14 12 28 6 30 -12 3 -22 6 -23 13 -4 11 28 -29 59 -44 35z"/>
<path d="M2577 1443 c-9 -14 -10 -58 -2 -75 11 -27 26 -22 16 5 -5 12 -7 35
-6 50 3 27 0 34 -8 20z"/>
<path d="M2682 1415 c-6 -14 -8 -25 -3 -25 9 0 6 -78 -3 -87 -9 -9 -88 -22
-133 -23 -25 0 -43 -5 -43 -11 0 -8 26 -9 88 -5 169 13 265 10 297 -7 17 -9
36 -17 43 -17 8 0 12 -5 10 -11 -2 -6 -28 -13 -58 -15 -30 -2 -62 -7 -72 -10
-9 -2 -19 0 -23 6 -4 6 10 11 37 11 33 2 26 4 -27 9 -38 4 -78 11 -87 15 -11
4 -18 3 -18 -4 0 -6 10 -11 22 -11 12 0 30 -8 40 -17 13 -11 36 -17 73 -17 30
0 55 -3 55 -7 0 -4 9 -9 21 -12 17 -5 18 -3 8 9 -6 8 -8 18 -4 22 4 4 10 1 12
-5 3 -7 11 -13 18 -13 13 0 25 -30 25 -62 0 -31 -46 -22 -67 12 -9 17 -23 30
-30 30 -20 0 -15 -17 7 -23 11 -3 20 -13 20 -24 0 -10 7 -27 15 -37 17 -23 20
-56 5 -56 -5 0 -11 5 -11 10 -2 15 -4 23 -13 48 -8 24 -36 30 -36 7 0 -9 6
-12 15 -9 27 11 16 -12 -12 -26 -17 -7 -23 -14 -15 -17 7 -3 19 1 27 7 13 10
15 8 15 -11 0 -13 -4 -28 -8 -34 -8 -12 -136 -19 -129 -8 2 5 1 17 -3 28 -6
17 -8 16 -14 -11 -4 -20 -15 -34 -27 -37 -22 -6 -28 2 -35 40 -9 47 -14 39
-14 -19 0 -60 -11 -73 -54 -62 -16 4 -32 -3 -53 -20 -17 -14 -36 -26 -42 -26
-6 0 -11 -7 -11 -15 0 -8 -5 -15 -11 -15 -5 0 -8 4 -5 8 3 5 -2 21 -9 36 -8
16 -13 32 -10 36 3 4 -2 11 -11 14 -9 4 -14 13 -10 21 4 12 -3 15 -34 15 -27
0 -40 4 -40 14 0 22 73 15 85 -8 6 -11 16 -21 23 -22 7 -1 8 0 2 3 -19 9 -10
20 21 27 18 3 38 1 45 -5 23 -19 16 -32 -13 -25 -33 9 -44 -7 -31 -45 11 -32
29 -40 21 -10 -3 13 2 21 15 25 35 12 82 60 51 54 -7 -2 -16 11 -21 29 -7 28
-11 31 -31 24 -22 -9 -32 -11 -43 -11 -4 0 -1 -7 6 -15 15 -18 -1 -20 -18 -3
-15 15 3 49 22 42 8 -3 17 -1 21 5 3 6 2 11 -4 11 -6 0 -8 6 -5 13 3 8 -2 20
-11 27 -12 10 -15 10 -15 -4 0 -11 5 -14 12 -10 7 5 8 3 3 -5 -4 -8 -17 -10
-31 -7 -17 5 -26 2 -30 -9 -4 -8 -13 -15 -21 -15 -13 0 -13 2 -2 17 10 11 10
17 3 20 -6 2 -9 14 -7 27 4 18 12 23 36 24 17 0 35 -5 39 -11 4 -7 7 1 7 18 0
17 -3 24 -6 18 -3 -8 -25 -13 -58 -13 -50 0 -53 -2 -58 -27 -3 -18 0 -31 9
-36 19 -11 18 -37 -1 -37 -8 0 -15 -4 -15 -10 0 -5 18 -10 40 -10 24 0 40 5
40 12 0 9 3 9 12 0 20 -20 -10 -34 -59 -27 -28 4 -43 2 -43 -4 0 -6 -7 -11
-15 -11 -9 0 -12 -6 -9 -15 4 -8 10 -12 15 -9 5 3 9 0 9 -5 0 -6 10 -11 23
-11 12 0 29 -6 38 -13 20 -16 42 -77 27 -77 -5 0 -8 -7 -4 -15 6 -17 -9 -20
-20 -4 -3 6 -1 15 7 20 10 6 6 11 -14 18 -26 10 -38 31 -17 31 6 0 10 7 10 15
0 17 -35 21 -45 5 -3 -5 -1 -10 4 -10 6 0 11 -7 11 -15 0 -8 -6 -15 -14 -15
-8 0 -16 -8 -18 -17 -4 -20 13 -63 25 -63 4 0 7 -7 7 -15 0 -8 7 -15 15 -15 8
0 15 7 15 15 0 9 9 15 25 15 29 0 34 -16 8 -23 -10 -3 13 -5 50 -6 37 0 83 -8
103 -16 44 -18 219 -48 250 -42 16 3 25 -1 29 -12 3 -10 17 -16 37 -17 18 0
49 -3 68 -7 19 -4 29 -4 22 -1 -9 4 -10 10 -3 18 8 10 -14 18 -97 35 -59 12
-134 28 -167 36 -130 29 -196 39 -203 29 -11 -15 -52 -15 -52 0 0 22 24 26
171 26 l139 0 -20 20 c-21 21 -35 27 -25 9 5 -7 -13 -9 -51 -7 -48 2 -59 6
-62 21 -3 15 0 18 17 12 16 -5 20 -3 15 9 -5 12 0 16 20 16 16 0 26 -6 26 -15
0 -8 5 -15 10 -15 6 0 8 10 5 23 -5 20 -1 25 31 35 24 7 43 8 55 2 12 -7 19
-6 22 3 3 7 9 1 14 -13 8 -19 7 -28 -6 -37 -14 -11 -13 -12 7 -13 24 0 29 -14
10 -26 -7 -4 -8 -3 -4 4 5 9 -7 12 -41 12 l-48 0 25 -20 c14 -11 35 -20 48
-21 39 -3 43 -4 52 -19 8 -13 10 -12 10 3 0 14 9 17 55 17 48 0 55 2 55 20 0
11 -4 20 -10 20 -5 0 -8 -6 -6 -12 1 -7 1 -10 -1 -5 -3 4 -10 4 -16 0 -7 -4
-24 -8 -38 -9 -30 -3 -48 21 -40 54 6 21 7 22 26 7 19 -14 19 -16 2 -29 -11
-8 -14 -17 -8 -20 14 -9 32 29 24 50 -4 12 -3 15 6 10 7 -5 10 -2 9 6 -2 8 7
13 24 13 26 -1 26 0 10 27 -17 28 -37 33 -37 8 0 -21 -42 -22 -48 -1 -2 10 1
18 7 18 32 -1 44 5 49 23 3 13 11 18 20 14 13 -5 15 3 12 48 -1 29 -3 66 -4
82 -1 21 -5 27 -16 22 -9 -3 -15 0 -15 9 0 8 7 15 16 15 12 0 15 13 13 79 -2
68 -4 78 -18 73 -9 -3 -22 -12 -29 -19 -11 -11 -10 -13 5 -14 10 -1 22 -1 27
0 5 1 6 -5 2 -14 -3 -9 -6 -21 -6 -26 0 -6 -5 -7 -11 -3 -8 5 -8 1 0 -14 6
-11 11 -23 11 -26 0 -12 -32 -5 -69 14 -21 10 -41 16 -45 13 -3 -4 -6 6 -6 20
0 19 -4 25 -15 21 -8 -4 -15 -15 -15 -25 0 -20 -15 -26 -25 -9 -4 7 -14 5 -27
-4 -14 -10 -27 -12 -38 -6 -10 5 -20 7 -23 4 -3 -3 -3 3 0 15 3 12 9 21 13 21
4 0 10 7 13 14 4 10 1 13 -7 10 -8 -3 -17 -1 -21 5 -3 6 -1 11 5 11 6 0 8 5 5
10 -4 6 7 10 26 10 24 0 29 3 21 13 -10 11 -12 17 -12 35 0 4 -4 1 -9 -7 -7
-12 -13 -12 -24 -3 -11 10 -16 7 -25 -13z m-292 -530 c0 -8 -9 -15 -20 -15
-11 0 -20 7 -20 15 0 8 9 15 20 15 11 0 20 -7 20 -15z"/>
<path d="M2604 1417 c6 -26 19 -47 26 -42 12 7 0 43 -15 49 -7 2 -12 -1 -11
-7z"/>
<path d="M2770 1401 c5 -11 19 -19 30 -18 27 2 25 11 -5 25 -35 16 -37 15 -25
-7z"/>
<path d="M305 1400 l-40 -7 48 -2 c26 0 47 4 47 9 0 6 -3 9 -7 9 -5 -1 -26 -5
-48 -9z"/>
<path d="M1305 1389 c4 -12 3 -24 -2 -28 -4 -3 -6 -22 -2 -41 5 -28 7 -30 8
-9 0 14 4 29 8 33 4 4 8 17 8 29 0 15 5 21 18 19 9 -2 17 2 17 8 0 5 -14 10
-31 10 -26 0 -29 -3 -24 -21z"/>
<path d="M112 1375 c6 -14 15 -25 20 -25 4 0 8 -7 8 -15 0 -8 5 -15 10 -15 15
0 12 36 -3 49 -8 6 -17 8 -20 4 -4 -3 -7 -1 -7 5 0 6 21 13 48 15 47 3 47 3
-10 5 l-58 2 12 -25z"/>
<path d="M1062 1351 c-16 -52 -15 -61 7 -61 13 0 20 -10 25 -31 9 -48 8 -59
-9 -53 -8 4 -15 14 -15 25 0 10 -6 22 -14 26 -8 4 -15 13 -15 18 0 6 -17 13
-38 17 -21 5 -48 10 -60 13 -19 4 -23 1 -23 -17 0 -18 2 -20 9 -9 8 12 12 12
25 2 9 -7 13 -17 10 -23 -3 -5 -1 -14 4 -21 5 -7 12 -21 15 -32 5 -19 5 -19
12 2 8 26 25 22 20 -5 -2 -9 -4 -21 -4 -26 -1 -4 -10 -6 -21 -3 -10 3 -19 2
-18 -2 2 -19 -3 -31 -11 -26 -5 3 -13 -4 -16 -15 -5 -17 -10 -19 -21 -9 -17
14 -19 60 -3 76 6 6 9 23 6 39 -4 28 -4 28 -6 -4 -2 -57 -17 -26 -16 32 1 41
-2 56 -12 56 -7 0 -13 11 -13 26 0 14 -4 23 -10 19 -6 -4 -10 -75 -10 -181 0
-157 2 -174 17 -174 13 0 14 3 5 12 -7 7 -12 43 -12 92 0 43 3 76 7 73 3 -4 5
-38 4 -77 -2 -52 1 -70 11 -70 12 0 72 50 80 67 1 4 20 17 41 27 29 15 40 17
49 8 7 -7 25 -12 40 -12 l28 0 -1 88 c0 55 -3 80 -9 67 -9 -22 -9 -21 -28 48
-8 31 -7 39 6 47 15 8 14 9 -4 10 -16 0 -24 -10 -32 -39z m-42 -81 c8 -5 11
-10 6 -10 -5 0 -3 -7 4 -15 13 -16 7 -18 -26 -9 -15 4 -20 11 -17 25 6 21 11
23 33 9z m60 -100 c0 -8 -9 -2 -19 14 -11 17 -17 34 -14 39 7 11 32 -30 33
-53z"/>
<path d="M35 1359 c-37 -6 -36 -6 18 -8 31 0 57 1 57 3 0 8 -37 11 -75 5z"/>
<path d="M1980 1355 c-6 -8 -10 -22 -7 -32 4 -14 5 -13 6 5 1 18 7 22 31 22
17 0 30 5 30 10 0 15 -46 12 -60 -5z"/>
<path d="M199 1338 c0 -13 -2 -35 -3 -50 -1 -16 2 -28 6 -28 4 0 8 23 8 50 0
49 -9 72 -11 28z"/>
<path d="M1930 1260 c0 -51 2 -91 5 -88 8 7 8 169 1 176 -3 3 -6 -37 -6 -88z"/>
<path d="M85 1320 c-20 -9 -20 -9 0 -10 11 -1 14 -4 8 -7 -7 -2 -13 -11 -13
-19 0 -8 -7 -14 -16 -14 -8 0 -12 5 -9 10 10 16 -31 11 -45 -5 -10 -13 -9 -15
9 -15 12 0 20 -4 17 -9 -6 -8 49 -5 64 4 9 5 19 75 10 74 -3 0 -14 -4 -25 -9z"/>
<path d="M1432 1280 c-1 -8 4 -25 11 -36 10 -18 14 -20 24 -9 10 11 9 15 -7
20 -10 3 -21 14 -23 23 -3 12 -5 13 -5 2z"/>
<path d="M2462 1280 c-12 -5 -29 -7 -37 -4 -8 4 -15 1 -15 -4 0 -6 -8 -9 -18
-7 -10 2 -25 -1 -33 -6 -10 -6 -5 -9 17 -9 17 0 34 3 38 7 4 4 23 6 42 4 26
-2 34 1 34 13 0 9 -1 16 -2 15 -2 0 -13 -4 -26 -9z"/>
<path d="M230 1257 c0 -14 -4 -29 -10 -32 -5 -3 -10 1 -10 9 0 18 -25 22 -35
6 -3 -5 1 -10 9 -10 12 0 14 -11 11 -55 -3 -35 0 -55 7 -55 6 0 8 10 4 24 -4
16 -1 26 8 29 15 6 33 93 22 104 -3 4 -6 -5 -6 -20z"/>
<path d="M1762 1268 c-12 -6 -21 -18 -20 -27 2 -9 -3 -15 -9 -13 -7 1 -13 -6
-14 -15 0 -16 -1 -16 -8 1 -5 13 -10 16 -15 8 -7 -12 -36 -5 -36 9 0 5 8 8 18
7 33 -3 53 2 47 12 -3 5 -12 7 -20 3 -8 -3 -15 0 -15 6 0 15 -16 14 -33 -4 -8
-8 -17 -11 -21 -8 -3 4 -6 4 -6 0 0 -15 47 -52 69 -55 26 -2 70 37 63 56 -7
22 9 12 18 -10 8 -21 9 -20 9 10 1 17 0 32 -1 31 -2 0 -13 -5 -26 -11z"/>
<path d="M2525 1242 c-9 -9 -6 -34 4 -28 5 3 29 7 55 7 25 1 46 6 46 10 0 4
12 6 28 3 20 -3 23 -2 12 6 -15 10 -135 12 -145 2z"/>
<path d="M90 1230 c0 -5 -13 -10 -29 -10 -35 0 -61 -9 -61 -20 0 -5 13 -8 29
-8 38 1 51 -8 51 -38 0 -16 -8 -28 -22 -34 -18 -7 -19 -9 -5 -9 14 -1 17 -11
17 -61 0 -37 4 -60 11 -60 6 0 9 7 5 15 -3 8 -1 15 4 15 6 0 10 -5 10 -11 0
-7 10 -20 22 -30 11 -11 17 -19 12 -19 -5 0 -2 -5 6 -10 13 -8 13 -10 -2 -10
-9 0 -20 5 -24 12 -5 7 -10 4 -15 -11 -6 -15 -16 -21 -31 -20 -41 4 -68 -1
-68 -11 0 -6 32 -10 75 -10 l75 0 0 -34 c0 -19 -5 -38 -11 -42 -6 -3 -9 -19
-7 -35 4 -26 2 -29 -26 -30 -17 -1 -38 -1 -47 0 -8 1 -26 -3 -40 -8 -17 -7 13
-10 108 -9 72 1 129 6 127 10 -3 4 -15 8 -27 8 -22 0 -22 2 -19 125 2 89 0
125 -8 125 -8 0 -10 -29 -6 -102 5 -93 -2 -145 -17 -121 -9 14 -12 176 -3 201
7 20 4 22 -27 22 l-35 0 -7 74 c-4 41 -4 92 0 115 4 27 3 41 -4 41 -6 0 -11
-4 -11 -10z"/>
<path d="M1997 1233 c-4 -3 -7 -12 -7 -20 0 -10 5 -11 19 -3 14 7 21 6 24 -3
4 -7 6 -6 6 4 1 9 -6 20 -15 23 -19 7 -19 7 -27 -1z"/>
<path d="M1486 1221 c-3 -5 3 -11 14 -14 11 -3 20 -11 20 -19 0 -18 -59 -21
-66 -3 -3 7 -12 11 -20 8 -9 -3 -13 -12 -10 -20 4 -9 1 -11 -5 -7 -17 10 -79
12 -85 2 -5 -8 53 -12 144 -8 57 2 59 -1 43 -58 -11 -35 -5 -66 10 -56 12 7
11 -3 -1 -27 -12 -22 -70 -27 -70 -6 0 8 -4 7 -10 -3 -8 -12 -10 -9 -10 13 0
16 4 26 9 22 5 -3 12 -1 16 4 3 6 12 8 20 4 8 -3 15 0 15 6 0 6 -8 11 -17 11
-13 0 -14 3 -6 8 10 7 10 14 0 35 -12 28 -29 37 -26 15 4 -37 -2 -60 -15 -55
-9 4 -16 -3 -20 -16 -8 -32 -6 -45 4 -22 8 18 9 17 9 -6 1 -15 -6 -32 -14 -39
-13 -11 -19 -9 -35 8 -15 16 -19 32 -16 64 2 24 2 35 -1 26 -2 -10 -14 -26
-27 -35 -19 -16 -21 -23 -13 -52 6 -24 11 -31 17 -21 12 19 40 4 40 -22 0 -35
11 -66 24 -71 8 -3 10 7 8 33 -2 21 1 47 7 57 9 16 10 16 11 1 0 -9 5 -20 11
-24 8 -4 9 1 4 16 -6 20 -5 21 23 16 40 -9 82 2 75 19 -2 8 -1 20 3 27 6 9 10
6 15 -12 l7 -25 1 26 c1 15 10 38 21 52 11 14 20 29 20 34 0 4 -5 1 -10 -7 -8
-12 -10 -11 -10 7 0 12 -6 24 -12 26 -8 3 -6 6 5 6 21 1 23 17 3 24 -8 3 -16
16 -19 29 -2 13 -3 4 -2 -20 1 -23 5 -45 9 -49 12 -12 6 -53 -8 -53 -9 0 -16
17 -21 48 -3 26 -9 56 -11 67 -6 24 -40 49 -48 36z"/>
<path d="M150 1194 c0 -24 -2 -25 -17 -13 -16 13 -17 12 -5 -3 8 -9 10 -23 6
-29 -4 -8 -3 -9 4 -5 7 4 12 1 12 -9 0 -9 -4 -14 -8 -11 -4 2 -14 1 -22 -5
-11 -6 -7 -9 16 -9 28 0 31 3 32 36 1 20 4 45 7 55 4 13 1 19 -9 19 -11 0 -16
-9 -16 -26z"/>
<path d="M2180 1191 c0 -16 5 -33 10 -36 6 -4 10 6 10 24 0 16 -4 33 -10 36
-6 4 -10 -6 -10 -24z"/>
<path d="M1650 1180 c4 -45 1 -53 -19 -47 -17 4 -18 2 -9 -25 9 -26 12 -28 25
-15 15 14 21 93 8 105 -4 4 -6 -4 -5 -18z"/>
<path d="M2596 1181 c-4 -5 0 -12 6 -14 10 -4 9 -8 -2 -16 -9 -6 -10 -11 -3
-11 6 0 10 -11 8 -25 -1 -14 2 -25 6 -25 12 0 11 -47 0 -55 -6 -3 -9 -14 -8
-25 1 -14 4 -16 14 -8 16 13 18 -3 2 -19 -7 -7 -5 -12 7 -17 15 -6 16 0 9 56
-4 35 -8 81 -8 103 -1 40 -20 74 -31 56z"/>
<path d="M1676 1173 c-2 -3 -2 -11 1 -19 4 -11 9 -12 19 -3 7 6 18 8 24 4 5
-3 10 0 10 7 0 12 -43 21 -54 11z"/>
<path d="M230 1129 c0 -17 -4 -28 -10 -24 -12 7 -110 -5 -110 -14 0 -4 33 -4
73 0 39 4 75 5 79 3 11 -7 38 8 38 21 0 13 -24 15 -36 2 -14 -13 -24 -7 -24
16 0 18 2 19 10 7 8 -13 10 -12 10 3 0 9 -7 17 -15 17 -10 0 -15 -10 -15 -31z"/>
<path d="M2812 1115 c-12 -19 -22 -38 -21 -42 0 -4 -10 -11 -23 -16 l-23 -9
28 -10 c15 -5 27 -14 27 -19 0 -6 4 -8 9 -4 5 3 9 19 9 35 -1 19 8 40 22 54
12 14 19 29 15 35 -10 18 -19 13 -43 -24z"/>
<path d="M2117 1100 c-7 -33 0 -60 15 -60 6 0 8 7 4 15 -3 8 -2 15 2 15 4 0 7
14 8 30 1 39 -22 39 -29 0z"/>
<path d="M2555 1101 c-4 -7 -2 -18 4 -24 6 -6 11 -19 11 -29 0 -10 7 -18 15
-18 19 0 19 -1 -4 45 -12 25 -21 34 -26 26z"/>
<path d="M266 1075 c-11 -8 -13 -14 -6 -17 7 -2 14 -34 17 -71 6 -71 5 -72
-44 -70 -18 1 -16 -24 2 -31 8 -3 15 -1 15 5 0 7 20 10 53 8 115 -5 338 1 332
10 -3 5 -28 7 -56 4 -41 -4 -50 -3 -44 7 6 10 4 12 -8 7 -14 -5 -17 1 -18 36
l-2 42 -6 -40 -6 -40 -50 -1 c-27 -1 -52 -3 -55 -4 -3 -1 -24 -4 -47 -5 -32
-3 -40 0 -37 10 3 8 15 16 27 18 15 3 11 5 -11 6 -20 0 -31 5 -27 11 4 6 12 8
18 4 7 -3 4 1 -6 9 -12 10 -14 17 -7 22 7 4 6 13 -4 27 -8 11 -12 27 -9 34 6
17 35 18 50 3 7 -7 20 -8 30 -4 16 6 15 8 -7 18 -37 15 -74 16 -94 2z"/>
<path d="M987 1063 c-3 -5 -4 -18 -2 -29 2 -10 4 -30 4 -43 1 -30 16 -18 16
12 0 13 10 27 25 34 22 11 23 13 5 13 -12 0 -26 5 -32 11 -6 6 -13 7 -16 2z"/>
<path d="M1255 1043 c-4 -10 -7 -42 -5 -72 1 -49 0 -53 -14 -42 -14 12 -16 10
-16 -12 0 -24 23 -43 45 -38 5 1 1 -7 -9 -18 -15 -16 -16 -21 -5 -22 8 0 5 -4
-6 -8 -17 -7 -15 -9 13 -13 30 -4 46 6 21 14 -6 2 -8 14 -4 31 7 24 11 27 54
27 32 0 42 3 31 9 -8 6 -18 7 -22 5 -4 -3 -8 4 -8 15 0 11 -8 26 -17 33 -13 9
-18 27 -18 58 0 33 -4 46 -16 48 -9 2 -20 -5 -24 -15z"/>
<path d="M1840 1053 c21 -8 30 -24 31 -58 0 -16 3 -24 6 -17 11 28 33 12 34
-25 0 -21 3 -32 6 -25 2 6 9 9 15 6 7 -5 9 2 4 20 -4 16 -2 26 4 26 6 0 8 5 5
10 -3 6 -19 10 -36 10 -21 0 -29 5 -29 18 0 22 -19 42 -39 41 -14 0 -14 -1 -1
-6z"/>
<path d="M667 1009 c-10 -38 -8 -91 3 -84 6 3 10 -1 10 -9 0 -10 -6 -13 -16
-9 -14 5 -16 2 -10 -21 8 -31 -7 -50 -44 -58 -28 -7 -217 -58 -300 -82 -30 -9
-76 -21 -103 -28 -26 -6 -47 -15 -47 -19 0 -5 -6 -6 -13 -4 -21 7 -142 -31
-144 -46 -4 -24 86 -60 130 -53 25 5 34 10 26 15 -7 4 -20 4 -28 0 -22 -10
-60 -6 -74 8 -8 8 -2 12 21 17 17 4 30 10 27 14 -3 4 2 11 11 14 8 3 12 2 9
-4 -3 -6 -1 -10 4 -10 6 0 11 8 12 18 0 14 2 14 9 -3 8 -19 9 -19 9 1 1 13 9
24 21 27 23 6 37 -8 18 -17 -7 -4 -2 -3 12 0 14 3 35 7 47 8 11 0 19 5 16 10
-3 4 5 5 18 2 13 -3 18 -3 12 0 -26 12 -12 24 27 24 22 0 40 4 40 8 0 4 17 7
38 5 32 -2 33 -1 12 6 -26 9 -23 12 18 16 13 1 28 7 35 14 6 6 16 11 21 11 6
0 4 -5 -4 -11 -11 -8 -9 -9 10 -3 14 4 28 11 31 17 4 5 12 6 19 2 9 -6 11 -4
5 5 -5 8 -3 11 6 8 8 -3 34 1 58 9 24 7 46 12 47 10 2 -1 -1 -28 -5 -60 -8
-61 2 -83 33 -71 19 7 22 -16 4 -35 -11 -10 -9 -12 7 -9 12 2 19 10 17 20 -1
9 2 19 8 23 5 3 10 -3 10 -14 0 -17 4 -19 22 -12 19 7 22 16 24 80 2 43 -1 69
-6 66 -11 -7 -13 6 -10 44 1 13 -3 21 -8 17 -5 -3 -8 -29 -7 -57 2 -39 0 -49
-11 -45 -21 8 -12 -31 12 -48 10 -8 16 -18 12 -22 -4 -4 -14 -2 -21 4 -8 7
-17 9 -20 5 -4 -3 -7 1 -7 10 0 10 -4 17 -10 17 -5 0 -9 -5 -7 -11 1 -6 -4
-14 -10 -16 -15 -5 -17 124 -4 194 5 24 4 40 0 37 -5 -3 -9 1 -9 8 0 7 -3 24
-6 38 -4 20 -3 22 5 10 12 -17 13 -4 2 24 -7 18 -8 18 -14 -5z"/>
<path d="M1835 1007 c-12 -26 -8 -60 8 -54 12 4 16 36 8 60 -5 13 -8 12 -16
-6z"/>
<path d="M2088 1009 c-17 -17 -15 -23 5 -20 4 0 7 -8 7 -20 0 -11 -4 -17 -10
-14 -5 3 -10 0 -10 -8 0 -9 10 -14 25 -14 14 0 25 3 25 8 0 5 -4 9 -9 9 -5 0
-8 11 -7 25 1 20 5 24 24 20 26 -4 30 10 5 19 -10 3 -22 8 -28 10 -5 2 -18 -4
-27 -15z"/>
<path d="M248 986 c-7 -39 -4 -55 8 -44 3 3 4 23 2 44 l-3 39 -7 -39z"/>
<path d="M1597 1003 c-11 -11 -8 -23 6 -20 8 1 13 -15 15 -50 3 -47 6 -53 25
-53 20 0 22 5 23 65 l1 65 -32 0 c-17 0 -35 -3 -38 -7z"/>
<path d="M837 993 c-12 -11 -7 -33 7 -33 7 0 16 9 19 20 5 19 -12 28 -26 13z"/>
<path d="M2758 956 c-15 -8 -30 -11 -34 -8 -4 4 -4 -1 -1 -11 4 -10 7 -22 7
-25 0 -4 7 4 16 16 8 12 22 22 30 22 8 0 14 5 14 10 0 13 0 13 -32 -4z"/>
<path d="M2955 931 c-15 -29 -7 -49 14 -36 9 5 13 65 5 65 -2 0 -10 -13 -19
-29z"/>
<path d="M2800 940 c0 -5 -6 -7 -13 -4 -8 3 -20 -2 -27 -11 -11 -13 -9 -15 9
-15 29 0 63 19 56 31 -8 12 -25 12 -25 -1z"/>
<path d="M1504 911 c4 -5 0 -12 -6 -14 -7 -3 3 -6 22 -6 19 0 42 4 50 10 13 9
12 10 -3 5 -9 -3 -29 -1 -43 4 -14 6 -23 6 -20 1z"/>
<path d="M804 855 c-3 -14 -10 -22 -15 -19 -5 3 -9 0 -9 -5 0 -6 15 -10 34 -8
20 1 31 6 28 12 -7 10 -8 16 -11 35 -2 20 -21 10 -27 -15z"/>
<path d="M2100 860 c36 -12 62 -12 55 0 -3 6 -23 10 -43 9 -33 -1 -34 -2 -12
-9z"/>
<path d="M234 810 c-1 -22 2 -40 7 -40 5 0 9 18 9 40 0 22 -3 40 -8 40 -4 0
-8 -18 -8 -40z"/>
<path d="M1363 838 c-2 -5 60 -8 138 -8 78 0 140 3 136 6 -9 9 -268 10 -274 2z"/>
<path d="M1675 826 c16 -7 40 -10 53 -8 33 6 23 11 -34 16 -47 5 -48 4 -19 -8z"/>
<path d="M1784 825 c21 -16 122 -21 143 -7 7 4 -17 6 -53 4 -41 -3 -70 0 -77
7 -6 6 -16 11 -21 11 -6 0 -2 -7 8 -15z"/>
<path d="M2710 824 c38 -8 90 -9 90 -2 0 4 -24 7 -52 7 -29 -1 -46 -3 -38 -5z"/>
<path d="M276 768 c7 -10 43 -9 69 2 15 6 8 9 -27 8 -26 -1 -45 -5 -42 -10z"/>
<path d="M2230 772 c0 -6 -8 -9 -17 -6 -15 5 -16 4 -3 -5 19 -13 67 -14 75 -1
3 6 -1 7 -10 4 -8 -4 -22 -1 -30 6 -10 8 -15 9 -15 2z"/>
<path d="M1923 715 c0 -16 46 -22 107 -14 l45 6 -52 1 c-28 1 -62 6 -76 11
-17 7 -24 6 -24 -4z"/>
<path d="M1626 713 c-4 -4 -24 -7 -44 -6 -31 1 -32 0 -7 -4 28 -4 49 -25 50
-47 0 -5 5 -11 12 -13 7 -3 9 3 6 16 -3 12 -9 21 -14 21 -5 0 -9 5 -9 11 0 5
5 7 10 4 6 -3 10 1 10 9 0 18 -3 20 -14 9z"/>
<path d="M1670 710 c-11 -7 -5 -10 25 -10 79 -1 85 -2 85 -14 0 -6 16 -11 39
-11 30 0 37 3 29 13 -8 8 -7 12 3 12 11 0 11 2 -1 9 -16 11 -33 4 -25 -10 4
-5 -3 -9 -14 -9 -10 0 -21 5 -23 11 -5 14 -99 21 -118 9z"/>
<path d="M2102 693 c9 -2 15 -10 12 -16 -3 -9 23 -11 103 -8 60 2 99 6 88 9
-11 2 -26 9 -34 16 -12 8 -13 8 -7 -1 5 -10 -9 -13 -63 -13 -38 0 -73 5 -76
10 -3 6 -14 9 -23 9 -16 -1 -16 -2 0 -6z"/>
<path d="M2616 692 c-3 -5 14 -26 37 -47 36 -33 49 -39 95 -40 29 -1 55 2 59
8 4 6 0 8 -10 4 -9 -3 -19 -2 -23 4 -4 6 -11 5 -22 -3 -12 -10 -16 -10 -19 0
-3 6 -11 12 -18 12 -20 0 -65 22 -61 29 6 10 -32 43 -38 33z"/>
<path d="M2895 690 c87 -18 105 -20 105 -12 0 10 -75 23 -119 21 -19 -1 -15
-3 14 -9z"/>
<path d="M2535 680 c-20 -9 -20 -9 0 -10 11 -1 28 -1 38 0 10 1 24 -2 31 -7 6
-4 3 0 -7 10 -21 19 -32 20 -62 7z"/>
<path d="M2666 680 c5 -5 25 -12 44 -16 32 -6 33 -5 15 8 -22 16 -74 23 -59 8z"/>
<path d="M1863 660 c-11 -16 -10 -18 2 -14 8 4 15 10 15 15 0 4 21 10 48 12
l47 3 -50 2 c-40 2 -53 -2 -62 -18z"/>
<path d="M2793 666 c0 -8 6 -12 12 -9 7 2 17 -9 23 -26 6 -17 18 -31 26 -31
20 0 21 19 1 26 -8 4 -15 11 -15 16 0 11 -29 37 -41 38 -3 0 -6 -6 -6 -14z"/>
<path d="M1328 657 c-7 -8 -20 -16 -28 -20 -10 -4 -8 -6 7 -6 12 -1 23 5 26
12 3 9 8 8 23 -3 17 -14 18 -13 7 1 -7 9 -10 19 -6 22 3 4 1 7 -5 7 -6 0 -17
-6 -24 -13z"/>
<path d="M1965 649 c-40 -6 -39 -6 13 -8 51 -1 65 3 40 11 -7 2 -31 1 -53 -3z"/>
<path d="M481 629 c-32 -13 -24 -17 21 -11 21 2 35 8 32 13 -6 11 -22 11 -53
-2z"/>
<path d="M655 630 c-54 -4 -66 -7 -35 -8 25 -2 75 -4 113 -6 37 -2 69 0 72 4
2 3 -1 7 -8 7 -7 0 -24 2 -37 4 -14 3 -61 2 -105 -1z"/>
<path d="M1259 633 c-6 -60 -12 -58 41 -14 3 2 -3 1 -14 -3 -14 -5 -17 -2 -12
9 3 8 1 15 -4 15 -6 0 -10 -3 -11 -7z"/>
<path d="M1813 615 c2 -5 20 -10 40 -10 22 0 32 4 27 9 -13 13 -71 13 -67 1z"/>
<path d="M1934 622 c3 -5 22 -9 42 -10 21 -2 35 1 31 5 -10 10 -79 14 -73 5z"/>
<path d="M2024 619 c-3 -5 6 -9 20 -9 13 0 32 -3 42 -7 11 -4 15 -3 11 4 -4 6
-1 13 5 16 7 2 -6 4 -30 4 -23 0 -45 -4 -48 -8z"/>
<path d="M2178 619 c-13 -4 67 -7 176 -8 110 -1 197 1 194 4 -8 8 -342 11
-370 4z"/>
<path d="M2930 619 c0 -7 -10 -9 -26 -5 -15 4 -23 3 -20 -2 8 -13 52 -21 67
-12 6 4 8 13 5 19 -9 14 -26 14 -26 0z"/>
<path d="M2760 589 c0 -5 10 -9 23 -9 24 -1 59 -23 56 -36 -3 -18 1 -34 10
-34 18 0 6 55 -15 66 -29 15 -74 23 -74 13z"/>
<path d="M2894 582 c3 -5 1 -13 -4 -15 -6 -3 -5 -4 2 -3 7 2 34 -7 61 -21 26
-13 47 -21 47 -18 0 2 -15 12 -32 21 -30 15 -31 18 -13 24 16 6 13 8 -11 7
-17 0 -37 4 -44 8 -8 5 -11 4 -6 -3z"/>
<path d="M1926 566 c4 -11 -5 -16 -38 -19 -42 -3 -42 -4 10 -5 50 -2 52 -1 42
18 -12 23 -22 27 -14 6z"/>
<path d="M1614 512 c2 -4 24 -9 48 -9 39 -1 40 0 13 7 -41 11 -67 12 -61 2z"/>
<path d="M1403 493 c-29 -2 -53 -8 -53 -14 0 -6 19 -7 47 -3 44 6 106 24 73
22 -8 -1 -39 -3 -67 -5z"/>
<path d="M100 480 c0 -9 67 -6 77 3 4 5 -12 7 -35 6 -23 -2 -42 -6 -42 -9z"/>
<path d="M1266 481 c-3 -4 12 -8 34 -7 22 1 40 4 40 9 0 10 -68 9 -74 -2z"/>
<path d="M1625 471 c3 -6 -17 -12 -47 -14 l-53 -3 51 -2 c31 -1 57 4 70 13 18
14 18 14 -4 15 -13 0 -21 -4 -17 -9z"/>
<path d="M915 460 c4 -6 -13 -11 -42 -12 -43 -1 -44 -2 -11 -5 29 -3 36 -8 32
-21 -4 -10 2 -7 15 8 23 28 26 40 10 40 -5 0 -7 -4 -4 -10z"/>
<path d="M2602 433 c6 -7 29 -12 52 -11 l41 1 -40 5 c-32 3 -36 6 -20 12 16 7
13 8 -12 7 -24 -2 -29 -5 -21 -14z"/>
<path d="M170 430 c-18 -5 -8 -7 33 -8 33 0 57 1 55 2 -10 9 -66 12 -88 6z"/>
<path d="M1801 433 c15 -2 32 -14 38 -26 l11 -22 -5 22 c-4 15 -1 23 12 26 10
3 -4 5 -32 4 -27 0 -38 -2 -24 -4z"/>
<path d="M1603 423 c8 -7 119 -5 126 3 2 2 -26 4 -64 4 -38 0 -65 -3 -62 -7z"/>
<path d="M2190 424 c0 -8 40 -44 49 -44 3 0 19 -11 35 -25 16 -14 34 -25 39
-25 5 0 -8 14 -29 30 -22 17 -46 37 -54 44 -25 20 -40 28 -40 20z"/>
<path d="M2870 420 c13 -9 13 -10 0 -10 -25 -1 33 -29 60 -29 19 -1 22 2 10 8
-8 6 -17 8 -21 6 -3 -3 -14 4 -24 15 -10 11 -23 20 -29 20 -6 0 -4 -5 4 -10z"/>
<path d="M1966 400 c25 -10 139 -12 130 -2 -4 3 -40 7 -79 8 -43 1 -64 -1 -51
-6z"/>
<path d="M111 393 c-1 -7 -16 -10 -43 -7 -24 2 -35 1 -25 -2 9 -3 17 -9 17
-14 0 -5 -8 -7 -17 -4 -15 5 -16 4 -3 -5 12 -9 13 -11 1 -11 -8 0 -11 -3 -8
-7 4 -3 16 2 26 12 11 9 41 19 67 21 26 2 50 7 53 10 3 4 -9 5 -26 2 -18 -2
-35 0 -37 6 -3 7 -5 7 -5 -1z"/>
<path d="M535 392 c26 -4 28 -5 10 -12 -19 -8 -19 -9 3 -9 12 -1 22 4 22 9 0
6 8 10 18 10 14 0 15 -2 2 -10 -11 -7 -6 -10 20 -9 28 0 31 2 15 9 -18 7 -16
8 10 12 17 3 -6 5 -50 5 -44 0 -66 -2 -50 -5z"/>
<path d="M1420 381 c8 -6 23 -11 33 -11 10 0 20 -7 23 -15 9 -22 23 -18 17 5
-3 13 -14 20 -28 20 -13 0 -32 3 -42 6 -15 5 -15 4 -3 -5z"/>
<path d="M1929 385 c-3 -2 -35 -5 -72 -6 -36 -1 -64 -6 -61 -11 3 -5 13 -7 22
-4 10 3 43 6 74 7 31 1 55 6 52 11 -6 9 -9 10 -15 3z"/>
<path d="M2935 360 c11 -5 16 -9 10 -9 -5 -1 1 -8 13 -17 13 -9 26 -14 28 -11
9 9 -35 47 -53 46 -15 0 -15 -2 2 -9z"/>
<path d="M2765 330 c-2 -3 12 -7 31 -8 19 -2 47 -7 62 -13 21 -8 24 -8 15 2
-13 14 -102 30 -108 19z"/>
<path d="M306 323 c-4 -4 -31 -10 -59 -14 l-52 -7 61 1 c44 0 61 4 61 13 0 16
-1 17 -11 7z"/>
<path d="M1130 305 c0 -10 11 -15 35 -15 19 0 35 -4 35 -10 0 -5 10 -10 23
-10 20 0 20 1 -7 15 -15 8 -37 15 -47 15 -11 0 -19 5 -19 10 0 6 -4 10 -10 10
-5 0 -10 -7 -10 -15z"/>
<path d="M1930 311 c0 -6 -8 -11 -17 -12 -10 -1 -1 -5 21 -10 26 -6 43 -6 51
1 9 8 15 8 20 0 3 -5 13 -10 22 -10 11 0 9 5 -8 19 -19 16 -25 16 -37 5 -17
-17 -17 -17 -36 2 -9 8 -16 11 -16 5z"/>
<path d="M434 295 c-17 -13 -14 -14 41 -13 42 1 48 3 22 5 -20 2 -35 8 -32 14
9 14 -9 11 -31 -6z"/>
<path d="M1580 303 c8 -2 22 -7 30 -10 32 -12 50 -12 50 0 0 8 -16 13 -47 14
-27 1 -41 -1 -33 -4z"/>
<path d="M1268 293 c12 -2 20 -9 17 -14 -10 -15 12 -10 25 6 11 13 7 15 -26
14 -24 -1 -30 -3 -16 -6z"/>
<path d="M1510 293 c0 -9 -27 -14 -97 -15 -89 -2 -92 -2 -25 -5 50 -3 72 -8
72 -17 0 -7 6 -13 14 -13 8 0 12 6 9 14 -4 9 7 13 38 14 24 1 35 4 24 6 -11 3
-23 10 -27 17 -6 8 -8 7 -8 -1z"/>
<path d="M1780 296 c0 -6 62 -37 66 -33 2 1 -1 8 -5 15 -7 12 -61 28 -61 18z"/>
<path d="M307 283 c18 -2 50 -2 70 0 21 2 7 4 -32 4 -38 0 -55 -2 -38 -4z"/>
<path d="M2838 273 c18 -2 45 -2 60 0 15 2 0 4 -33 4 -33 0 -45 -2 -27 -4z"/>
<path d="M630 261 c0 -8 90 -3 99 5 2 2 -19 4 -47 4 -29 0 -52 -4 -52 -9z"/>
<path d="M2250 245 c-12 -15 -6 -35 12 -35 7 0 6 5 -1 14 -9 11 -9 16 0 21 6
4 15 2 19 -5 5 -8 10 -8 14 -2 3 5 -1 13 -10 16 -21 8 -20 8 -34 -9z"/>
<path d="M2354 253 c3 -3 0 -13 -7 -21 -7 -10 -8 -13 -1 -9 7 4 17 0 24 -8 7
-8 17 -12 22 -9 5 3 2 12 -8 18 -16 12 -15 13 5 19 12 3 28 -1 36 -10 13 -13
15 -13 15 1 0 15 -23 24 -69 24 -13 1 -21 -2 -17 -5z"/>
<path d="M823 233 c37 -2 67 -8 67 -14 0 -6 5 -7 10 -4 27 17 3 25 -67 23
l-78 -2 68 -3z"/>
<path d="M1861 223 c-1 -21 4 -23 44 -23 25 0 45 4 45 9 0 5 -8 7 -19 4 -10
-3 -22 0 -25 6 -4 6 -13 11 -19 11 -7 0 -6 -4 3 -10 13 -8 13 -10 -2 -10 -9 0
-19 8 -21 18 -4 13 -5 11 -6 -5z"/>
<path d="M2610 230 l-35 -7 35 -3 c34 -3 34 -3 -10 -10 -30 -4 -1 -7 88 -8 74
-1 139 -5 145 -9 17 -10 69 -12 91 -2 17 8 16 9 -7 4 -15 -3 -36 -1 -47 5 -15
8 -20 8 -20 -2 0 -10 -2 -10 -8 -1 -5 8 -42 13 -102 15 -70 2 -94 6 -92 16 1
6 1 11 0 11 -2 -1 -19 -5 -38 -9z"/>
<path d="M1410 220 l-95 -6 78 -2 c54 -1 77 -6 77 -14 0 -10 2 -10 8 -1 4 6
30 16 57 21 49 9 49 10 10 9 -22 0 -83 -4 -135 -7z"/>
<path d="M2082 211 c-7 -4 -25 -7 -40 -5 -15 2 -19 1 -9 -2 9 -3 17 -10 17
-15 0 -5 7 -9 16 -9 8 0 13 4 9 10 -3 5 9 14 27 19 20 6 25 9 13 10 -11 0 -26
-3 -33 -8z"/>
<path d="M1240 185 c-20 -24 -1 -36 50 -34 27 2 47 6 45 10 -3 4 -25 5 -50 3
-44 -4 -45 -3 -35 16 13 23 8 26 -10 5z"/>
<path d="M907 183 c18 -2 50 -2 70 0 21 2 7 4 -32 4 -38 0 -55 -2 -38 -4z"/>
<path d="M2291 173 c9 -10 8 -13 -1 -13 -8 0 -11 -3 -7 -6 3 -3 14 -1 24 5 10
6 14 11 8 12 -5 1 4 5 20 9 27 7 26 8 -12 7 -35 0 -41 -3 -32 -14z"/>
<path d="M2420 181 c0 -6 5 -13 12 -17 7 -4 8 -3 4 4 -5 8 4 12 29 12 22 0 34
-4 30 -10 -3 -5 -1 -10 5 -10 7 0 25 -9 42 -21 16 -12 31 -19 34 -17 2 3 -11
16 -31 29 l-35 24 33 6 c21 4 6 7 -45 8 -43 0 -78 -3 -78 -8z"/>
<path d="M2656 178 c3 -4 12 -8 20 -8 8 0 14 -4 14 -8 0 -5 48 -9 108 -8 l107
0 -95 3 c-69 3 -91 7 -80 14 12 8 10 9 -7 4 -13 -3 -23 -2 -23 2 0 5 -11 9
-24 9 -14 0 -22 -4 -20 -8z"/>
<path d="M1035 149 c-6 -18 -13 -20 -61 -17 -30 1 -54 -1 -54 -6 0 -4 53 -6
118 -4 64 3 104 2 87 -2 -17 -5 -1 -6 39 -3 51 5 67 3 62 -5 -4 -7 -2 -12 3
-12 18 0 12 27 -6 32 -10 2 -54 3 -99 3 -73 -1 -81 1 -76 17 6 25 -5 23 -13
-3z"/>
<path d="M583 153 c31 -4 36 -7 27 -18 -8 -10 -8 -15 1 -21 7 -4 9 -3 6 3 -12
19 17 32 78 36 33 2 13 3 -45 3 -58 1 -88 -1 -67 -3z"/>
<path d="M1375 139 c-14 -5 -15 -8 -5 -9 8 -1 25 -3 38 -6 12 -2 22 0 22 5 0
13 -33 19 -55 10z"/>
<path d="M1665 131 c5 -16 0 -20 -27 -24 -30 -4 -29 -4 5 -3 20 1 37 -1 37 -4
0 -3 49 -4 110 -3 67 2 110 -1 110 -7 0 -6 9 -10 21 -10 18 0 19 2 5 15 -11
12 -41 15 -130 15 -94 0 -116 3 -116 14 0 10 13 16 38 19 33 3 32 4 -11 5 -44
2 -48 0 -42 -17z"/>
<path d="M2602 117 c-9 -4 17 -5 58 -3 42 2 84 0 93 -5 11 -7 17 -6 17 1 0 11
-8 12 -93 14 -32 1 -65 -2 -75 -7z"/>
<path d="M2365 107 c20 -16 19 -16 -7 -17 -16 0 -28 -5 -28 -11 0 -5 4 -8 9
-5 5 4 29 7 52 8 24 1 38 3 31 6 -7 2 -10 8 -7 12 3 5 0 12 -6 16 -8 5 -9 3
-4 -6 6 -10 4 -12 -8 -7 -48 20 -52 20 -32 4z"/>
<path d="M996 84 c-4 -9 -3 -20 0 -23 4 -3 9 0 11 7 3 6 14 12 26 12 18 0 19
2 7 10 -22 14 -37 12 -44 -6z"/>
<path d="M1446 84 c-4 -12 -14 -15 -34 -11 -15 2 -36 1 -47 -3 -12 -4 4 -7 43
-7 44 0 62 4 62 13 0 7 12 15 28 17 22 3 21 4 -9 6 -26 1 -39 -4 -43 -15z"/>
<path d="M2215 89 l-30 -7 30 -2 c45 -4 89 1 99 11 11 10 -48 8 -99 -2z"/>
<path d="M2505 89 c-15 -6 -8 -8 25 -7 25 1 55 -2 67 -6 13 -4 30 -3 39 2 13
7 10 9 -13 10 -15 1 -44 3 -63 5 -19 3 -44 1 -55 -4z"/>
<path d="M2755 90 l-100 -6 108 -2 c66 -1 107 2 107 8 0 6 -3 9 -7 8 -5 -1
-53 -5 -108 -8z"/>
<path d="M82 75 c-6 -8 -20 -12 -30 -8 -14 5 -13 3 3 -10 14 -11 22 -12 30 -3
5 6 17 17 25 24 12 10 12 12 0 12 -8 -1 -21 -7 -28 -15z"/>
<path d="M2030 79 l-75 -5 96 -2 c82 -2 99 -5 114 -22 23 -26 30 -25 32 3 0
12 -1 17 -4 10 -3 -10 -7 -10 -18 0 -9 9 -10 14 -1 19 11 8 -12 7 -144 -3z"/>
<path d="M2885 85 c26 -9 105 -12 105 -4 0 5 -26 9 -57 8 -32 0 -53 -2 -48 -4z"/>
<path d="M130 59 c-21 -4 -27 -7 -15 -9 29 -3 59 1 68 9 9 9 -5 9 -53 0z"/>
<path d="M764 63 c-22 -4 -61 -39 -53 -48 5 -4 169 -6 393 -6 66 1 116 4 113
8 -4 3 -113 5 -242 4 -164 -2 -235 1 -235 9 0 13 48 32 61 24 5 -3 9 0 9 5 0
11 -7 12 -46 4z"/>
<path d="M1246 60 c-38 -5 -64 -30 -31 -30 9 0 13 4 10 10 -4 6 9 10 32 11 21
1 49 5 63 9 24 8 24 8 -5 7 -16 -1 -48 -4 -69 -7z"/>
<path d="M1689 48 c8 -21 14 -23 89 -23 44 0 78 3 76 7 -3 4 -37 6 -77 5 -56
-2 -72 1 -72 12 0 8 -6 16 -12 18 -10 4 -11 -2 -4 -19z"/>
<path d="M2629 69 c-6 -32 -5 -34 25 -35 17 0 81 -1 141 -2 75 -2 105 -5 95
-12 -8 -5 -10 -10 -4 -10 6 0 14 3 18 7 4 4 15 8 24 8 78 6 52 9 -94 14 -123
4 -176 10 -187 20 -10 7 -17 12 -18 10z"/>
<path d="M2216 38 c-6 -4 31 -8 82 -8 50 0 92 -4 92 -9 0 -5 7 -11 15 -15 12
-4 13 -2 3 14 -10 15 -26 19 -96 22 -46 2 -89 0 -96 -4z"/>
<path d="M2465 40 c-16 -7 -11 -9 22 -9 23 -1 44 -6 46 -13 3 -8 6 -6 6 5 1 9
-5 17 -13 17 -8 0 -20 2 -28 4 -7 3 -22 1 -33 -4z"/>
<path d="M1470 13 c0 -16 16 -17 25 -3 4 6 21 9 38 6 18 -2 41 0 52 5 14 6 -2
8 -47 6 -47 -1 -68 -5 -68 -14z"/>
<path d="M471 10 c8 -4 41 -4 74 0 l60 7 -74 0 c-40 0 -67 -3 -60 -7z"/>
</g>
</svg>
