<?xml version="1.0" standalone="no"?>
<!DOCTYPE svg PUBLIC "-//W3C//DTD SVG 20010904//EN"
 "http://www.w3.org/TR/2001/REC-SVG-20010904/DTD/svg10.dtd">
<svg version="1.0" xmlns="http://www.w3.org/2000/svg"
 width="300.000000pt" height="450.000000pt" viewBox="0 0 300.000000 450.000000"
 preserveAspectRatio="xMidYMid meet">
<metadata>
Created by potrace 1.10, written by Peter Selinger 2001-2011
</metadata>
<g transform="translate(0.000000,450.000000) scale(0.100000,-0.100000)"
fill="#000000" stroke="none">
<path d="M2365 4107 c-11 -10 -28 -25 -38 -34 -9 -9 -15 -24 -12 -33 3 -9 -4
-28 -15 -43 -12 -15 -26 -60 -36 -114 -9 -48 -22 -104 -30 -123 -7 -19 -12
-50 -10 -69 2 -19 -3 -53 -11 -75 -9 -23 -17 -69 -18 -104 -1 -34 -7 -68 -13
-74 -7 -7 -12 -35 -12 -62 -1 -28 -7 -69 -16 -91 -8 -22 -16 -68 -18 -103 -2
-34 -10 -70 -17 -78 -7 -9 -12 -34 -10 -58 1 -23 -4 -60 -13 -82 -8 -21 -17
-70 -21 -108 -3 -38 -10 -78 -16 -88 -6 -11 -12 -46 -14 -78 -2 -32 -10 -72
-18 -87 -8 -15 -12 -42 -10 -60 3 -17 -3 -57 -12 -90 -10 -32 -19 -81 -21
-110 -1 -28 -7 -60 -13 -71 -6 -11 -13 -52 -16 -91 -2 -39 -12 -85 -20 -102
-9 -17 -13 -39 -10 -51 7 -21 -11 -104 -27 -125 -6 -7 -7 -26 -3 -43 7 -30
-10 -100 -24 -100 -10 0 -52 76 -46 82 3 3 -1 11 -10 18 -8 7 -15 18 -15 24 0
6 -11 28 -25 49 -14 20 -23 37 -19 37 3 0 2 6 -4 13 -9 10 -42 71 -108 195 -7
15 -14 19 -19 12 -4 -6 1 -23 11 -38 10 -15 17 -30 16 -34 -1 -5 2 -8 8 -8 6
0 9 -3 9 -7 -3 -18 2 -31 21 -53 11 -13 20 -31 20 -41 0 -10 6 -22 13 -26 6
-4 12 -14 13 -20 1 -7 2 -20 3 -28 0 -8 8 -15 17 -15 9 0 14 -8 13 -17 -3 -33
1 -41 23 -46 17 -5 19 -9 9 -21 -10 -12 -8 -19 8 -35 12 -12 21 -30 21 -41 0
-10 8 -24 19 -29 13 -7 17 -18 14 -36 -6 -31 20 -44 45 -23 22 19 158 98 169
98 4 0 35 19 68 41 33 22 85 52 115 66 30 15 58 31 61 35 10 15 188 116 193
110 3 -3 6 -24 6 -48 0 -25 5 -44 13 -47 8 -3 7 -9 -6 -19 -16 -12 -17 -16 -4
-41 14 -27 15 -27 20 -5 4 13 1 26 -6 30 -9 6 -9 8 1 8 9 0 13 11 10 37 -2 22
2 38 10 41 7 2 12 -6 12 -22 0 -13 5 -28 10 -31 6 -4 7 -12 3 -18 -11 -18 -3
-141 10 -149 8 -5 5 -9 -6 -14 -12 -4 -14 -10 -8 -18 12 -14 16 -125 5 -150
-5 -13 -3 -21 4 -24 7 -2 12 -11 12 -20 -1 -11 -26 -29 -75 -51 -41 -19 -72
-38 -69 -42 6 -10 160 70 157 82 -3 8 32 -2 67 -21 22 -12 34 10 30 55 -2 37
-7 42 -23 26 -9 -11 -9 -14 1 -18 6 -3 12 -14 12 -26 0 -12 -4 -17 -8 -12 -8
12 -29 18 -55 17 -9 0 -15 3 -12 9 4 5 2 9 -3 9 -5 0 -9 26 -9 58 -1 31 2 51
4 45 3 -7 9 -13 14 -13 5 0 3 13 -5 28 -8 16 -14 42 -14 58 0 16 -2 45 -5 64
l-6 35 14 -40 c15 -39 15 -39 8 -5 -3 19 -6 52 -6 73 1 31 -1 36 -13 26 -11
-9 -14 -8 -14 5 0 9 7 16 15 16 9 0 12 6 8 16 -3 8 -11 13 -17 11 -7 -3 -13 6
-14 19 -2 28 8 30 48 9 16 -8 35 -14 42 -13 8 2 14 -14 18 -44 3 -26 10 -51
14 -55 5 -4 6 2 3 15 -7 29 3 28 25 -3 14 -19 16 -31 9 -62 l-9 -38 -7 32 c-5
21 -12 30 -21 26 -9 -3 -11 -9 -5 -17 4 -6 12 -37 15 -68 4 -32 11 -58 15 -58
4 0 6 15 4 33 -3 24 -2 29 6 17 6 -8 11 -27 11 -42 0 -35 -30 -45 -65 -22 -28
18 -39 15 -29 -9 6 -17 40 -33 61 -29 8 2 15 -16 19 -48 4 -27 10 -50 14 -50
5 0 6 10 3 23 -6 21 -5 20 16 -5 14 -18 21 -40 21 -69 0 -42 -1 -42 -15 -22
-8 12 -12 29 -8 39 4 12 2 15 -8 12 -20 -7 -13 -42 19 -96 l27 -47 3 35 c2 19
7 39 11 45 4 5 7 30 7 55 -1 37 -4 45 -19 44 -10 -1 -24 10 -33 27 l-15 30 60
-31 c34 -16 66 -29 73 -28 7 2 15 -15 19 -41 5 -24 11 -47 15 -50 4 -3 4 5 1
19 -6 24 -5 23 18 -5 17 -21 24 -42 24 -70 0 -39 0 -39 -13 -16 -8 14 -12 31
-9 38 6 16 -9 17 -24 2 -9 -9 -8 -15 3 -26 8 -8 14 -26 14 -39 0 -14 4 -23 10
-19 5 3 16 -7 25 -22 15 -27 16 -26 12 44 -2 40 0 74 5 75 11 4 -1 38 -13 38
-5 0 -9 -6 -9 -12 0 -7 -8 3 -19 22 -20 37 -20 49 1 33 26 -20 48 -23 48 -7 0
9 -18 23 -40 32 -22 9 -40 23 -40 31 0 8 6 11 15 7 19 -7 19 -2 -1 35 -12 23
-14 47 -10 93 6 60 5 64 -26 96 -34 36 -25 53 14 26 12 -9 33 -16 45 -16 17 0
24 -7 29 -27 10 -49 12 -49 13 -2 1 32 -3 46 -11 46 -23 -2 -139 56 -135 67 2
6 12 10 21 8 15 -3 14 2 -5 39 -20 40 -20 44 -5 76 14 29 14 33 1 33 -9 0 -15
10 -15 26 0 14 -9 37 -20 51 -31 40 -24 44 30 16 45 -23 50 -29 56 -68 4 -33
11 -45 27 -49 21 -6 21 -7 4 -20 -14 -11 -16 -19 -9 -33 5 -10 15 -42 22 -70
8 -34 17 -53 27 -53 16 0 15 50 -1 62 -5 3 -10 33 -11 65 -1 38 -8 68 -20 86
-11 17 -18 47 -18 73 0 24 -4 44 -9 44 -4 0 -8 -7 -8 -15 0 -8 -4 -15 -8 -15
-17 0 -122 62 -122 72 0 5 7 8 15 4 18 -7 18 -7 0 36 -8 19 -16 65 -19 102 -3
46 -11 75 -26 96 -23 32 -16 39 15 16 11 -8 25 -12 31 -9 12 4 34 -52 34 -84
0 -7 10 -18 22 -24 20 -11 21 -12 4 -24 -13 -10 -15 -18 -8 -32 5 -10 15 -42
22 -70 11 -47 26 -64 42 -48 3 3 -3 29 -13 58 -10 28 -18 67 -19 85 0 18 -7
46 -15 62 -9 16 -18 51 -22 77 -3 27 -9 53 -13 58 -11 15 -32 123 -26 133 3 5
-3 25 -14 44 -10 20 -22 60 -26 90 -4 29 -13 66 -21 81 -8 16 -16 57 -18 92
-2 42 -9 70 -19 80 -9 9 -17 28 -18 43 -3 66 -6 80 -27 124 -13 29 -19 57 -16
71 4 15 -3 40 -19 70 -15 30 -23 58 -21 77 2 16 -2 42 -10 57 -8 14 -17 52
-21 82 -4 31 -13 68 -20 82 -7 15 -15 49 -18 75 -2 27 -9 60 -15 74 -6 14 -20
61 -31 105 -13 50 -30 90 -46 106 -13 14 -24 32 -24 41 0 27 -11 48 -25 48 -8
0 -15 6 -17 13 -2 9 -8 8 -23 -6z m46 -42 c0 -5 -10 -12 -23 -15 -21 -5 -19
-8 22 -38 44 -31 45 -34 69 -137 16 -69 29 -105 38 -105 15 0 18 -16 3 -25 -5
-3 -21 4 -35 16 -18 16 -25 33 -26 58 0 20 -7 65 -14 101 -14 61 -14 62 -10
15 2 -27 7 -71 11 -98 6 -41 5 -47 -10 -41 -9 3 -16 12 -16 20 0 8 -2 14 -5
14 -2 0 -42 -30 -87 -66 -53 -44 -84 -62 -86 -54 -3 7 4 19 14 27 14 10 23 41
36 121 15 94 20 110 45 131 18 16 23 26 15 29 -16 5 -16 34 0 50 15 15 58 12
59 -3z m-8 -313 c-2 -17 2 -34 7 -37 15 -9 12 -25 -5 -25 -8 0 -15 -7 -15 -15
0 -8 5 -15 10 -15 6 0 10 -20 10 -45 0 -32 4 -45 14 -45 10 0 12 7 9 23 -5 22
-5 22 10 2 19 -24 21 -17 6 22 -7 15 -15 49 -19 75 -5 40 -4 46 7 36 12 -9 13
-7 8 14 -4 14 -2 29 4 32 6 4 13 -4 17 -18 3 -15 14 -26 27 -28 18 -2 24 -13
31 -55 6 -34 14 -53 22 -53 16 0 18 -12 4 -26 -6 -6 -4 -24 5 -49 8 -22 14
-48 15 -57 0 -10 7 -18 15 -18 8 0 15 -7 15 -15 0 -8 -5 -15 -11 -15 -14 0
-39 26 -39 40 0 7 -8 9 -21 5 -15 -5 -22 -2 -26 14 -3 11 -9 18 -14 16 -11 -8
-49 17 -49 32 0 17 -28 5 -60 -24 -14 -13 -31 -23 -38 -23 -7 0 -15 -6 -18
-14 -3 -8 -19 -20 -35 -26 -16 -7 -29 -17 -29 -22 0 -10 -51 -57 -62 -58 -13
0 -9 28 4 32 7 3 18 29 24 59 6 30 15 63 20 74 7 18 6 19 -9 6 -10 -8 -21 -11
-25 -7 -4 4 3 15 15 24 16 12 24 33 29 71 5 35 14 59 27 70 11 9 27 24 36 34
8 9 21 17 27 17 6 0 17 7 24 15 19 23 35 12 33 -23z m18 -244 c1 -7 0 -25 -1
-40 -1 -16 3 -28 9 -28 6 0 11 8 11 17 0 15 2 14 15 -3 17 -22 20 -12 5 17 -8
15 -7 19 4 19 17 0 26 -21 26 -61 0 -16 4 -29 10 -29 5 0 7 8 3 18 -5 14 -3
13 10 -3 13 -16 16 -17 17 -5 0 9 -5 21 -12 28 -13 13 -5 27 11 17 6 -3 11
-17 11 -31 0 -13 4 -24 9 -24 5 0 7 -10 5 -22 -2 -13 -1 -17 2 -10 5 10 9 10
22 0 13 -11 12 -7 -2 20 -18 34 -16 49 3 37 6 -3 14 -25 17 -47 4 -22 15 -48
25 -56 12 -10 15 -20 9 -27 -13 -16 19 -135 36 -135 16 0 19 -17 4 -22 -6 -2
-6 -25 2 -65 9 -50 15 -63 30 -63 21 0 24 -15 5 -23 -19 -7 12 -132 38 -151
11 -8 14 -15 7 -20 -15 -9 -82 33 -82 52 0 12 -3 13 -11 5 -13 -13 -78 24 -79
46 0 7 -6 11 -15 7 -19 -7 -85 31 -85 50 0 15 -27 8 -49 -14 -8 -7 -30 -25
-50 -38 -126 -84 -157 -104 -165 -104 -5 0 -18 -9 -30 -21 -65 -64 -152 -106
-102 -50 7 9 18 43 24 76 6 33 14 68 17 78 6 13 3 16 -9 11 -9 -3 -16 -1 -16
5 0 7 6 14 14 17 8 3 17 22 20 42 12 67 26 88 71 111 24 12 58 35 75 51 18 17
36 28 40 25 5 -3 10 -2 12 3 4 10 93 82 102 82 3 0 6 -20 6 -45 0 -25 5 -45
10 -45 6 0 10 10 10 23 0 20 2 20 20 -8 14 -20 20 -25 20 -13 0 9 -4 20 -10
23 -16 10 -11 21 10 22 16 1 20 -4 20 -30 0 -33 19 -78 20 -47 0 9 8 4 18 -12
9 -16 20 -28 24 -28 9 0 0 27 -19 56 -12 20 -12 22 4 20 23 -1 33 -15 33 -46
0 -14 5 -32 11 -40 9 -12 10 -11 5 5 -5 14 0 12 19 -10 27 -32 25 -11 -3 33
-13 19 -12 22 2 22 22 0 20 13 -4 28 -11 7 -20 19 -20 28 0 13 -3 14 -15 4
-11 -10 -18 -9 -30 4 -9 9 -20 16 -25 16 -5 0 -7 7 -3 16 4 12 0 14 -19 9 -20
-5 -30 -1 -47 21 l-21 27 -40 -28 c-23 -16 -43 -32 -46 -37 -3 -4 -14 -8 -24
-8 -11 0 -24 -9 -30 -19 -5 -11 -28 -27 -50 -37 -22 -10 -40 -23 -40 -28 0 -6
-17 -22 -38 -36 -50 -33 -52 -34 -52 -16 0 9 6 16 13 16 8 0 18 22 24 58 6 31
15 66 19 77 7 18 6 18 -9 6 -15 -11 -17 -11 -17 2 0 8 5 17 12 19 7 3 19 33
28 68 13 55 19 65 50 81 19 11 40 25 46 33 6 8 17 16 25 18 8 2 27 18 43 36
29 33 55 42 57 20z m40 -570 c1 -7 1 -28 0 -45 -1 -18 3 -33 9 -33 19 0 10
-19 -12 -26 -20 -6 -20 -8 -5 -19 12 -8 17 -27 17 -58 0 -25 5 -49 10 -52 6
-3 10 -10 10 -15 0 -9 -154 -110 -169 -110 -5 0 -14 -6 -18 -12 -4 -7 -30 -28
-57 -47 -44 -30 -62 -37 -88 -40 -5 -1 -8 -7 -8 -13 -1 -16 -139 -103 -148
-93 -4 4 1 13 12 20 11 9 23 38 31 77 7 35 16 72 20 83 8 18 7 18 -8 6 -15
-12 -17 -11 -17 3 0 9 6 19 14 22 8 3 17 27 20 57 9 69 17 77 111 127 17 8 39
23 50 33 45 38 201 145 213 146 6 1 13 -5 13 -11z m64 -38 c3 -5 12 -7 20 -4
11 4 16 -7 21 -45 4 -28 10 -51 14 -51 5 0 6 10 3 23 -4 17 1 14 18 -12 13
-19 25 -29 27 -23 2 7 -6 25 -18 42 -12 16 -17 30 -11 30 5 0 13 -5 16 -11 4
-6 13 -8 20 -5 13 5 25 -14 25 -39 0 -7 14 -27 30 -45 35 -37 39 -29 9 19 -17
28 -18 33 -4 27 9 -3 23 -6 30 -6 9 0 19 -22 27 -60 7 -36 17 -60 25 -60 16 0
17 -17 2 -22 -9 -3 -9 -9 -1 -23 5 -11 13 -42 17 -68 5 -32 14 -51 27 -58 13
-7 17 -14 11 -20 -14 -14 -106 40 -99 58 4 10 1 13 -12 9 -20 -7 -102 29 -102
44 0 5 8 7 18 4 14 -5 15 -4 2 5 -8 5 -24 8 -35 6 -11 -3 -38 5 -60 18 -34 19
-41 29 -47 67 -7 41 -1 70 9 43 3 -7 9 -13 14 -13 5 0 0 19 -12 42 -12 23 -23
63 -25 87 -4 43 -3 44 12 23 8 -12 20 -22 26 -22 6 0 4 8 -5 18 -10 10 -17 22
-17 25 0 10 18 8 25 -3z m-42 -262 c2 -7 2 -28 -1 -45 -3 -21 0 -33 7 -33 6 0
11 10 11 22 l0 22 16 -22 c11 -17 14 -34 9 -60 -6 -30 -8 -33 -16 -19 -6 9 -7
22 -4 27 7 12 3 12 -19 4 -9 -3 -16 -13 -16 -21 0 -8 5 -11 10 -8 6 4 10 -17
10 -54 0 -34 4 -61 10 -61 6 0 10 17 10 37 0 47 12 35 19 -19 4 -30 11 -42 24
-44 14 -2 17 2 11 14 -4 9 -10 56 -13 103 -4 51 -12 93 -20 103 -19 23 -7 31
20 13 11 -9 27 -13 34 -11 9 4 16 -11 23 -48 5 -29 10 -42 11 -29 1 24 1 24
16 5 18 -24 19 -51 3 -51 -7 0 -21 -4 -30 -8 -15 -6 -18 -2 -18 24 0 17 -5 31
-11 31 -6 0 -8 -8 -5 -17 2 -10 8 -43 11 -73 4 -30 11 -62 16 -70 6 -9 7 5 3
38 -4 32 -3 52 3 52 12 0 23 -46 23 -91 0 -16 4 -29 8 -29 5 0 7 15 5 33 -3
26 -1 28 6 12 13 -28 13 -62 0 -71 -12 -7 -108 41 -126 63 -10 13 -25 7 -102
-41 -50 -31 -95 -56 -100 -56 -5 0 -16 -6 -23 -13 -18 -17 -146 -97 -156 -97
-4 0 -17 -7 -27 -15 -26 -20 -156 -105 -161 -105 -9 0 -3 29 6 32 6 2 15 32
21 68 6 36 17 71 23 79 9 12 8 13 -6 8 -12 -4 -18 -2 -18 7 0 8 6 16 12 18 7
3 17 31 23 63 10 57 11 58 72 96 35 21 72 40 83 44 11 3 20 10 20 15 0 8 99
75 111 75 4 0 22 12 41 27 101 83 132 100 141 76z m184 -103 c12 -9 27 -14 34
-13 8 2 17 -18 24 -52 9 -43 13 -49 17 -30 l4 25 8 -28 c7 -22 4 -31 -10 -42
-15 -11 -17 -16 -6 -26 6 -7 12 -23 12 -35 0 -12 7 -24 15 -28 8 -3 15 -16 14
-28 -1 -22 -1 -22 -9 2 -7 23 -8 24 -9 3 -1 -12 7 -26 17 -32 12 -7 14 -13 6
-20 -7 -8 -27 -2 -67 20 -56 30 -78 57 -36 44 20 -7 20 -6 5 23 -10 20 -15 54
-14 100 1 57 -3 75 -21 101 -24 34 -18 40 16 16z m-158 -243 c-3 -33 1 -52 11
-52 6 0 8 11 4 28 l-7 27 22 -27 c17 -22 20 -34 15 -68 -7 -43 -24 -38 -24 8
0 24 -1 25 -24 16 -20 -8 -21 -30 -1 -38 11 -4 14 -16 11 -45 -2 -25 2 -47 11
-58 13 -16 14 -14 8 20 -4 27 -3 37 4 32 6 -3 11 -21 11 -39 0 -24 7 -38 30
-54 25 -19 28 -20 23 -5 -3 10 -12 27 -19 37 -9 14 -11 41 -7 98 4 47 2 78 -4
78 -5 0 -17 16 -26 36 l-17 36 29 -21 c16 -12 39 -22 52 -23 28 -3 37 -20 38
-70 1 -21 6 -38 12 -38 6 0 8 9 4 23 -6 21 -6 21 14 -3 12 -14 19 -33 16 -45
-3 -11 -5 -27 -5 -35 0 -13 -2 -13 -9 -1 -5 8 -7 20 -4 28 6 16 -2 17 -28 3
-17 -9 -19 -7 -20 17 -1 15 -2 33 -4 38 -1 6 -3 17 -4 25 -1 13 -3 13 -10 1
-5 -8 -7 -24 -5 -35 3 -12 11 -54 19 -94 16 -92 30 -107 22 -24 -4 34 -3 62 2
62 11 0 21 -35 21 -75 0 -16 5 -37 11 -45 7 -11 8 -4 4 25 -5 30 -4 36 4 25
13 -19 14 -77 1 -85 -5 -3 -28 4 -51 15 -33 17 -46 19 -70 11 -29 -10 -37 -4
-20 14 6 6 5 17 -4 28 -13 18 -20 15 -121 -47 -60 -36 -116 -66 -126 -66 -10
0 -18 -4 -18 -10 0 -12 -165 -110 -185 -110 -8 0 -15 -4 -15 -9 0 -5 -35 -30
-77 -55 -43 -26 -86 -52 -95 -59 -22 -15 -38 1 -16 17 9 7 21 39 28 77 6 35
17 70 23 78 10 11 8 13 -11 7 -27 -9 -29 5 -3 28 10 9 21 37 24 61 6 44 25 85
39 85 4 0 33 16 65 35 32 19 66 35 76 35 9 0 17 5 17 10 0 14 120 90 142 90 9
0 18 4 20 9 3 10 145 105 168 113 17 6 32 -14 29 -40z m215 -81 c16 -11 35
-17 42 -14 9 3 15 -10 20 -46 4 -28 10 -51 15 -51 5 0 5 8 2 18 -6 15 -5 15
10 3 11 -9 17 -28 17 -55 0 -28 -3 -37 -9 -27 -5 8 -7 20 -4 28 6 16 -2 17
-28 3 -15 -9 -19 -7 -19 6 0 10 -2 15 -5 12 -7 -7 16 -121 27 -133 9 -9 7 14
-9 83 -3 12 0 22 5 22 12 0 32 -61 32 -97 0 -12 5 -25 10 -28 7 -4 9 3 5 22
-4 23 -4 24 4 8 14 -30 13 -62 -4 -68 -8 -4 -17 -2 -20 3 -3 5 -31 20 -62 35
-42 19 -54 28 -45 37 8 8 15 8 27 -2 19 -16 20 0 0 26 -16 21 -21 109 -5 99 6
-3 10 1 10 9 0 9 -6 16 -13 16 -9 0 -12 9 -9 28 2 19 -3 33 -17 46 -40 36 -24
48 23 17z m101 -335 c10 4 15 -7 20 -40 4 -26 11 -49 16 -52 5 -3 6 3 3 13 -4
12 0 10 15 -7 22 -26 30 -97 10 -84 -6 3 -9 17 -6 30 5 26 -3 30 -21 12 -7 -7
-8 -16 -2 -23 5 -6 16 -38 24 -70 9 -33 13 -45 11 -27 -6 41 10 34 19 -9 11
-56 -5 -59 -94 -17 -44 22 -78 43 -74 49 3 5 14 7 25 4 23 -8 24 -2 3 30 -16
25 -11 91 6 80 4 -3 10 2 14 10 3 8 0 14 -7 12 -7 -1 -11 8 -9 23 2 17 -7 37
-28 60 -42 47 -37 56 15 26 25 -14 52 -23 60 -20z"/>
<path d="M2392 3923 c2 -63 6 -78 19 -81 15 -3 15 3 8 45 -5 26 -10 63 -11 81
-1 17 -5 32 -10 32 -5 0 -8 -35 -6 -77z"/>
<path d="M2477 3643 c-11 -10 -8 -86 4 -103 8 -11 9 -7 6 18 -5 45 14 35 28
-14 7 -25 13 -35 18 -27 5 7 -1 34 -12 59 -12 26 -21 53 -21 60 0 15 -12 18
-23 7z"/>
<path d="M2309 3630 c-11 -6 -15 -18 -11 -35 8 -44 38 -22 30 24 -2 15 -7 18
-19 11z"/>
<path d="M2425 3415 c-14 -11 -16 -18 -7 -21 7 -3 12 -24 12 -49 0 -24 5 -47
10 -50 6 -3 10 4 10 17 1 22 1 22 15 4 21 -28 27 -15 8 19 -9 17 -19 45 -22
63 -6 31 -7 32 -26 17z"/>
<path d="M2496 3372 c-2 -4 1 -33 9 -63 7 -29 13 -46 14 -35 1 16 3 16 21 -5
27 -33 25 -14 -5 37 -14 23 -22 50 -19 58 6 16 -11 23 -20 8z"/>
<path d="M2328 3357 c-10 -7 -13 -19 -9 -30 6 -18 7 -18 23 0 22 24 10 49 -14
30z"/>
<path d="M2561 3341 c-9 -6 -10 -14 -3 -27 5 -11 13 -39 17 -64 6 -33 10 -40
15 -26 6 19 7 19 13 1 4 -10 10 -15 13 -12 3 3 -5 27 -19 54 -13 26 -22 56
-19 66 4 19 2 20 -17 8z"/>
<path d="M2252 3301 c-14 -8 -6 -41 9 -41 14 0 23 30 13 40 -5 5 -15 6 -22 1z"/>
<path d="M2436 3138 c-17 -10 -18 -12 -3 -23 10 -7 17 -30 19 -60 2 -27 8 -50
14 -52 7 -2 9 9 7 29 l-4 33 16 -27 c30 -53 36 -27 6 28 -16 30 -27 62 -24 70
6 17 -5 18 -31 2z"/>
<path d="M2531 3091 c-11 -7 -12 -13 -4 -23 6 -7 14 -37 18 -65 4 -29 10 -53
15 -53 4 0 5 12 2 28 l-5 27 23 -28 c35 -44 36 -23 0 34 -18 29 -29 60 -27 70
6 21 -1 23 -22 10z"/>
<path d="M2328 3072 c-19 -4 -22 -11 -12 -36 5 -14 8 -14 21 -1 19 19 13 42
-9 37z"/>
<path d="M2610 3035 c-8 -10 -9 -15 -2 -15 6 0 14 -17 17 -37 4 -21 11 -49 16
-63 9 -24 9 -23 5 5 l-4 30 18 -23 c32 -39 32 -24 1 34 -16 30 -27 62 -24 70
7 19 -11 18 -27 -1z"/>
<path d="M2217 2997 c-9 -8 -12 -19 -8 -31 7 -17 8 -17 24 -2 28 29 15 57 -16
33z"/>
<path d="M2311 2751 c-8 -5 -11 -17 -6 -30 5 -18 8 -19 21 -7 24 25 12 54 -15
37z"/>
<path d="M2182 2662 c-15 -10 -5 -45 12 -39 13 4 21 47 9 47 -4 0 -14 -4 -21
-8z"/>
<path d="M2574 2775 c-10 -8 -14 -15 -7 -15 6 0 14 -26 18 -60 4 -33 10 -60
15 -60 4 0 5 12 3 28 l-4 27 19 -22 c34 -39 35 -25 3 32 -17 30 -28 61 -25 70
8 19 3 19 -22 0z"/>
<path d="M2676 2721 c-3 -4 -1 -21 4 -37 5 -16 14 -47 20 -69 9 -36 9 -37 5
-5 l-5 35 19 -25 c32 -41 32 -18 1 32 -16 26 -27 54 -24 63 6 16 -11 21 -20 6z"/>
<path d="M2390 2545 c-6 -8 -10 -21 -8 -29 2 -10 8 -8 21 9 18 26 7 44 -13 20z"/>
<path d="M2366 2474 c-3 -9 -5 -46 -4 -82 l1 -67 6 65 c3 36 9 70 14 77 4 6 3
14 -2 17 -5 3 -12 -1 -15 -10z"/>
<path d="M2224 2414 c-8 -19 -17 -49 -20 -67 l-5 -32 15 34 c9 18 16 39 16 46
0 7 7 18 15 25 17 14 20 30 4 30 -5 0 -17 -16 -25 -36z"/>
<path d="M2310 2427 c-9 -7 -14 -20 -12 -29 3 -16 5 -16 18 -3 21 21 15 48 -6
32z"/>
<path d="M2070 2303 c-24 -63 -44 -157 -37 -176 2 -6 9 17 16 52 7 35 23 88
36 117 13 30 20 56 15 59 -5 3 -18 -21 -30 -52z"/>
<path d="M2142 2322 c-17 -11 -4 -42 14 -35 8 3 14 14 14 24 0 20 -8 23 -28
11z"/>
<path d="M2701 2415 c0 -24 25 -135 33 -143 10 -9 7 9 -13 88 -11 41 -20 66
-20 55z"/>
<path d="M2381 2189 c-24 -59 -28 -98 -6 -59 8 14 14 33 15 43 0 9 9 26 19 36
18 18 18 31 1 31 -4 0 -17 -23 -29 -51z"/>
<path d="M2297 2103 c-11 -3 -16 -10 -13 -20 3 -8 6 -19 6 -25 0 -6 9 -1 20
12 11 12 17 27 14 31 -3 5 -6 8 -7 8 -1 -1 -10 -3 -20 -6z"/>
<path d="M2176 2029 c-7 -19 -16 -63 -19 -99 l-6 -65 10 55 c6 30 18 72 26 93
9 20 13 40 10 44 -4 3 -13 -9 -21 -28z"/>
<path d="M2013 1948 c-17 -40 -33 -98 -37 -128 l-5 -55 14 63 c8 35 21 75 29
90 7 15 20 41 27 57 7 17 15 33 17 38 2 4 -1 7 -6 7 -5 0 -23 -33 -39 -72z"/>
<path d="M2107 1983 c-12 -11 -7 -33 7 -33 12 0 26 20 26 36 0 7 -26 5 -33 -3z"/>
<path d="M2815 1773 c3 -10 11 -40 16 -68 13 -67 19 -85 29 -85 4 0 2 26 -7
58 -8 31 -17 69 -20 85 -3 15 -10 27 -15 27 -6 0 -7 -8 -3 -17z"/>
<path d="M86 3206 c-13 -15 -16 -31 -12 -58 4 -21 0 -56 -8 -80 -8 -24 -17
-78 -20 -122 -3 -46 -13 -93 -24 -115 -13 -27 -19 -63 -21 -138 -3 -121 12
-136 29 -30 6 39 15 82 21 95 13 32 11 36 -6 22 -12 -10 -15 -9 -15 4 0 9 6
19 14 22 9 3 19 33 26 77 6 40 15 84 20 99 7 21 6 26 -6 21 -8 -3 -14 1 -14
10 0 8 6 17 14 20 9 4 17 28 21 62 9 67 24 68 45 3 9 -25 22 -53 28 -61 9 -11
10 -17 2 -22 -8 -5 -8 -10 0 -20 6 -7 7 -16 2 -19 -10 -6 -32 36 -32 59 0 17
-2 17 -24 9 -11 -4 -13 -10 -7 -18 6 -7 11 -45 13 -86 2 -57 -1 -78 -12 -86
-12 -10 -12 -15 -1 -28 17 -20 18 -155 2 -166 -7 -4 -10 -17 -6 -32 5 -18 21
-31 58 -47 29 -12 60 -27 69 -32 23 -12 25 -12 31 5 4 11 1 13 -10 9 -13 -5
-15 -2 -10 11 5 14 3 17 -8 12 -9 -3 -15 0 -15 11 0 13 -3 13 -15 3 -12 -10
-15 -9 -15 5 0 15 -2 16 -17 4 -15 -12 -16 -12 -10 4 4 11 2 17 -8 17 -12 0
-15 16 -15 77 l0 77 28 -27 c21 -20 29 -23 29 -12 0 8 -4 15 -8 15 -12 0 -49
75 -49 98 0 10 5 23 12 30 9 9 9 18 0 37 -7 14 -12 33 -12 42 0 35 28 -9 44
-71 14 -49 23 -66 39 -70 22 -6 22 -6 2 -18 -29 -16 -29 -16 -17 -31 6 -7 13
-24 16 -37 3 -14 10 -43 15 -64 5 -22 7 -44 4 -49 -3 -4 5 -11 17 -14 18 -5
21 -12 19 -45 -2 -26 2 -42 11 -49 13 -8 13 -10 1 -18 -11 -7 -5 -13 24 -25
47 -20 55 -15 20 12 -21 16 -28 34 -34 76 -4 30 -12 61 -18 68 -18 21 -44 135
-38 161 4 15 -4 42 -20 76 -17 33 -28 73 -30 109 -2 32 -9 70 -14 85 -6 15 -8
27 -5 27 2 0 -2 12 -10 28 -8 16 -11 35 -6 47 18 48 -51 81 -84 41z m69 -15
c3 -5 -9 -17 -26 -25 -39 -19 -39 -19 -39 -3 0 29 50 51 65 28z"/>
<path d="M1457 2980 c-10 -17 -15 -35 -12 -40 10 -16 22 -3 28 30 4 16 12 30
18 30 6 0 8 -7 5 -15 -19 -47 -19 -50 -2 -30 17 20 17 20 14 -1 -6 -41 38 -94
63 -78 15 9 -2 26 -20 19 -12 -5 -13 -3 -4 6 8 8 8 19 1 41 -8 22 -13 26 -19
16 -6 -9 -10 -3 -15 20 -8 41 -34 42 -57 2z"/>
<path d="M1414 2953 c1 -43 5 -53 21 -53 2 0 0 11 -5 24 -5 15 -5 27 3 35 8 8
8 11 -1 11 -6 0 -9 7 -6 15 4 8 2 15 -4 15 -6 0 -10 -20 -8 -47z"/>
<path d="M1392 2965 c-2 -35 -18 -56 -37 -49 -7 3 -16 1 -19 -4 -5 -9 53 -26
61 -18 2 2 2 26 0 52 -2 27 -4 35 -5 19z"/>
<path d="M1468 2923 c-10 -2 -18 -12 -18 -22 0 -9 -6 -23 -12 -30 -11 -10 -10
-12 5 -9 10 1 18 7 17 11 0 4 6 15 15 23 12 13 22 37 13 33 -2 -1 -11 -3 -20
-6z"/>
<path d="M1472 2865 c-20 -20 -21 -23 -6 -29 20 -8 19 -8 28 27 7 32 8 32 -22
2z"/>
<path d="M1340 2864 c0 -8 5 -12 10 -9 6 3 10 1 10 -6 0 -7 3 -9 7 -5 4 3 12
-6 19 -21 8 -18 13 -22 13 -11 1 15 4 16 32 4 18 -7 38 -24 45 -37 9 -16 14
-19 15 -9 1 8 7 -7 14 -35 7 -27 14 -43 14 -34 1 17 38 55 46 47 3 -3 -5 -17
-16 -33 -16 -20 -22 -40 -22 -76 1 -32 -3 -47 -9 -42 -6 3 -4 -7 5 -23 9 -16
21 -41 27 -56 5 -16 16 -28 25 -28 21 0 19 17 -4 37 -11 9 -18 20 -15 25 3 4
1 8 -4 8 -12 0 -11 34 2 42 17 11 26 -2 20 -27 -3 -12 -1 -26 6 -30 14 -8 7
114 -7 124 -5 3 -8 12 -7 19 1 6 2 19 3 27 1 17 51 22 51 5 0 -5 -9 -10 -20
-10 -22 0 -25 -7 -11 -29 7 -11 13 -9 29 7 11 11 18 23 15 26 -4 3 -1 6 5 6 5
0 13 -5 15 -10 3 -6 4 -5 3 2 -1 7 -31 27 -67 44 -64 32 -64 32 -71 10 -6 -20
-6 -19 -7 4 -1 21 -15 32 -86 67 -64 32 -85 38 -85 27z"/>
<path d="M1583 2859 c-19 -20 -17 -24 40 -79 53 -51 71 -61 61 -35 -4 8 -10
15 -16 15 -5 0 -6 5 -3 10 3 6 3 10 -2 10 -17 0 -61 47 -65 68 -2 19 -5 21
-15 11z"/>
<path d="M1520 2847 c0 -10 -4 -15 -10 -12 -5 3 -10 2 -10 -4 0 -12 39 -35 47
-28 2 3 -2 18 -11 34 -11 20 -15 23 -16 10z"/>
<path d="M1417 2758 c1 -24 2 -113 2 -198 1 -85 4 -192 7 -238 7 -81 7 -82 26
-65 15 13 18 25 13 50 -5 30 8 48 17 22 2 -6 9 5 15 25 6 20 7 37 2 37 -5 1
-15 2 -21 3 -17 1 -17 38 0 44 7 2 11 -2 10 -8 -2 -7 2 -14 9 -17 7 -3 9 3 6
16 -3 12 -12 21 -19 21 -8 0 -14 7 -14 15 0 8 -4 15 -10 15 -20 0 -11 -73 13
-98 l22 -24 -22 6 c-16 5 -23 2 -26 -11 -2 -10 -5 -5 -5 12 0 17 -4 45 -8 63
-4 22 -1 40 10 57 20 30 20 30 0 50 -9 9 -14 19 -11 22 3 3 13 -2 22 -11 20
-20 35 -21 35 -2 0 7 -9 16 -21 19 -12 3 -18 10 -14 17 5 8 10 8 20 0 9 -8 15
-8 20 0 4 6 1 9 -7 8 -7 -2 -12 5 -12 14 1 10 -3 16 -9 15 -14 -2 -19 81 -6
89 5 3 9 0 9 -5 0 -6 7 -11 15 -11 19 0 19 -2 -5 45 -19 37 -20 38 -20 12 0
-17 -5 -27 -14 -27 -24 0 -27 16 -6 40 22 26 25 40 9 40 -5 0 -7 -4 -4 -10 3
-5 1 -10 -4 -10 -6 0 -11 5 -11 10 0 6 -3 10 -7 10 -5 0 -7 -19 -6 -42z m22
-172 c-5 -6 -8 12 -8 45 l2 54 7 -45 c4 -25 4 -49 -1 -54z"/>
<path d="M190 2716 c0 -2 9 -23 20 -47 11 -24 20 -36 20 -26 0 18 -27 77 -35
77 -3 0 -5 -2 -5 -4z"/>
<path d="M115 2542 c-11 -2 -24 -8 -29 -12 -5 -5 -18 -5 -30 -1 -28 10 -46 8
-45 -4 0 -5 9 -9 20 -8 11 2 19 -3 19 -13 0 -8 -4 -13 -9 -10 -4 3 -6 -6 -3
-19 2 -14 8 -28 13 -31 10 -6 23 41 16 59 -7 20 67 14 118 -8 22 -9 58 -25 80
-35 89 -38 98 -37 24 5 -106 59 -155 81 -174 77z"/>
<path d="M123 2470 c2 -10 2 -22 -2 -26 -5 -8 -65 -55 -93 -75 -5 -3 -6 -13
-2 -23 6 -15 8 -15 30 -1 23 15 24 15 24 -10 0 -14 -4 -26 -10 -26 -5 -1 -15
-2 -21 -3 -6 0 -16 -9 -23 -18 -7 -10 -15 -16 -17 -13 -3 2 -5 -5 -6 -16 -2
-22 4 -19 53 24 15 12 24 15 29 8 4 -8 12 -8 28 0 16 9 22 9 25 0 2 -6 12 -11
22 -11 10 0 22 -4 25 -10 3 -5 36 -19 73 -30 37 -11 73 -27 80 -35 7 -8 24
-15 37 -15 14 0 25 -5 25 -11 0 -5 5 -7 10 -4 6 3 13 -1 16 -9 3 -9 10 -13 15
-10 5 3 18 -1 29 -9 18 -13 19 -16 5 -27 -19 -16 -19 -27 1 -47 11 -12 18 -13
27 -4 8 8 7 11 -5 11 -30 0 -32 23 -5 45 l27 21 -105 43 c-58 24 -108 47 -111
52 -3 5 3 6 13 3 10 -3 7 1 -7 9 -14 9 -28 13 -33 10 -9 -5 -150 47 -144 54 3
2 22 -3 42 -12 21 -8 40 -14 42 -11 2 2 -26 16 -62 31 -52 23 -65 32 -65 50 0
26 29 57 31 34 1 -8 1 -23 0 -34 -2 -17 0 -17 8 -5 6 8 11 10 11 4 0 -7 7 -14
15 -18 9 -3 15 0 15 10 0 8 -4 12 -10 9 -6 -4 -7 1 -3 11 4 10 0 20 -10 26
-20 10 -23 43 -4 35 6 -3 50 -22 96 -42 46 -19 86 -33 89 -30 3 3 2 5 -3 5 -4
0 -2 6 4 14 9 11 6 12 -14 8 -26 -4 -155 51 -155 67 0 5 -9 11 -21 14 -17 5
-20 2 -16 -13z"/>
<path d="M1530 2450 c0 -31 4 -40 18 -41 13 0 12 -2 -5 -9 -15 -6 -20 -15 -16
-29 6 -23 18 -27 28 -11 3 6 1 10 -4 10 -6 0 -11 5 -11 10 0 6 9 10 21 10 18
0 20 -4 15 -26 -5 -18 -3 -24 5 -19 14 9 6 82 -11 99 -8 8 -9 7 -5 -6 4 -10 3
-18 -3 -18 -17 0 -25 21 -14 32 11 11 5 38 -9 38 -5 0 -9 -18 -9 -40z"/>
<path d="M0 2388 c0 -50 3 -88 7 -85 3 4 6 24 6 45 0 20 3 42 8 48 10 13 0 84
-12 84 -5 0 -9 -41 -9 -92z"/>
<path d="M1587 2474 c-3 -6 2 -31 11 -57 20 -56 9 -84 -31 -79 -14 1 -29 -3
-33 -9 -5 -8 -3 -9 6 -4 10 6 12 3 8 -13 -4 -13 -1 -22 5 -22 6 0 23 -12 39
-27 34 -32 43 -27 22 12 -13 25 -13 32 1 62 15 32 15 38 -2 90 -11 32 -22 52
-26 47z"/>
<path d="M186 2383 c-12 -12 -6 -21 21 -28 15 -3 31 -12 35 -18 5 -8 8 -6 8 6
0 9 -6 17 -14 17 -8 0 -21 7 -29 15 -8 8 -17 11 -21 8z"/>
<path d="M308 2310 c4 -41 12 -49 66 -70 39 -14 31 -2 -9 14 -32 14 -35 19
-35 55 0 27 -5 41 -13 41 -9 0 -11 -12 -9 -40z"/>
<path d="M1396 2278 c-4 -40 -7 -85 -7 -100 1 -15 -8 -42 -19 -60 -11 -18 -20
-45 -20 -60 0 -24 -18 -50 -96 -142 -13 -15 -27 -39 -30 -52 -8 -32 -42 -32
-50 0 -3 14 -3 29 0 34 9 15 19 88 11 80 -4 -4 -10 -22 -14 -39 -4 -18 -13
-35 -20 -37 -10 -3 -12 0 -8 12 4 11 3 15 -4 10 -8 -4 -9 1 -4 17 3 13 3 20
-2 14 -4 -5 -16 -16 -26 -24 -17 -13 -18 -12 -12 12 5 17 3 27 -4 27 -6 0 -11
-10 -11 -22 0 -17 -3 -19 -12 -10 -7 7 -16 12 -21 12 -15 0 18 -27 43 -35 14
-4 31 -12 38 -17 17 -14 15 -39 -2 -32 -8 3 -17 1 -20 -4 -3 -6 6 -13 21 -17
15 -3 33 -15 41 -26 10 -14 20 -17 39 -13 29 8 43 -7 43 -47 0 -16 7 -30 16
-33 24 -9 29 0 10 19 -19 19 -21 61 -4 71 6 4 13 3 16 -4 2 -6 12 -3 27 10 20
17 22 23 12 39 -10 16 -14 17 -22 6 -5 -8 -20 -19 -32 -26 -21 -11 -23 -9 -23
13 0 32 55 69 83 55 10 -6 16 -17 13 -25 -8 -21 6 -17 31 10 15 15 20 30 16
44 -7 27 -8 27 -33 2 -25 -25 -40 -26 -40 -1 0 11 14 29 30 41 23 16 30 29 30
54 0 17 -5 37 -11 43 -7 7 0 16 25 31 31 18 34 24 27 49 -4 15 -9 64 -10 108
-1 44 -3 81 -5 82 -2 2 -6 -29 -10 -69z"/>
<path d="M45 2248 c-22 -16 -42 -34 -44 -40 -4 -12 10 -5 55 29 17 12 34 20
37 16 4 -3 7 -1 7 5 0 22 -16 19 -55 -10z"/>
<path d="M1459 2229 c-21 -18 -21 -20 -4 -14 45 15 97 17 121 5 13 -8 21 -16
17 -19 -5 -3 -14 -16 -20 -28 -12 -22 -12 -22 12 -11 34 15 44 54 19 73 -30
23 -117 19 -145 -6z"/>
<path d="M38 2213 c-21 -14 -38 -30 -38 -35 0 -11 12 -4 58 31 23 17 33 20 32
10 -5 -30 1 -36 33 -37 l32 -1 -27 17 c-16 9 -28 22 -28 29 0 19 -21 15 -62
-14z"/>
<path d="M31 2171 c-25 -21 -31 -30 -21 -36 9 -5 11 -4 6 3 -4 7 -4 12 1 12
12 1 70 50 58 50 -5 0 -25 -13 -44 -29z"/>
<path d="M1500 2163 c-47 -33 -47 -34 -10 -23 23 7 38 6 47 -1 10 -9 13 -6 13
14 0 36 -10 38 -50 10z"/>
<path d="M49 2130 l-46 -31 -2 -75 c-1 -55 1 -74 10 -69 7 5 9 22 6 44 -5 33
-3 38 36 66 23 16 44 29 47 28 3 0 19 -3 35 -6 30 -6 30 -6 5 6 -26 13 -38 37
-19 37 8 0 8 5 -1 15 -16 20 -18 20 -71 -15z m51 -10 c0 -5 -21 -24 -47 -41
l-48 -33 40 41 c41 42 55 51 55 33z"/>
<path d="M1046 2136 c-10 -8 -20 -27 -22 -42 -1 -14 -8 -39 -14 -55 -8 -19
-10 -50 -6 -87 14 -117 15 -113 -32 -145 -41 -28 -82 -94 -82 -132 0 -8 -13
-28 -29 -46 -17 -18 -30 -35 -29 -38 2 -20 -6 -34 -37 -65 -19 -20 -35 -32
-35 -29 0 4 -11 -8 -25 -27 -32 -43 -32 -60 -1 -29 60 59 73 68 99 78 22 9 27
17 27 45 0 43 21 62 49 44 22 -14 27 -33 11 -43 -5 -3 -10 0 -10 8 0 8 -7 18
-16 21 -8 3 -12 2 -9 -4 3 -6 0 -10 -7 -11 -7 0 -4 -5 8 -10 11 -6 29 -26 39
-46 l19 -35 21 26 c11 14 28 26 37 26 9 0 19 7 22 15 3 9 12 15 20 13 8 -2 21
5 29 16 13 18 15 18 39 2 14 -9 33 -14 42 -10 10 4 18 0 22 -10 4 -11 13 -14
25 -11 12 4 21 1 25 -10 4 -9 13 -14 22 -10 8 3 20 1 27 -5 9 -8 15 -8 20 0 4
6 -13 19 -42 31 -26 12 -71 31 -100 44 l-51 23 -82 -49 c-45 -27 -86 -46 -92
-43 -6 4 -6 9 -2 13 14 9 37 54 25 46 -6 -3 -11 -2 -11 3 0 5 31 28 68 50 38
23 69 48 69 56 0 13 -9 11 -46 -10 -25 -15 -50 -31 -56 -37 -7 -7 -5 -7 4 -2
10 6 12 4 7 -4 -5 -7 -14 -10 -22 -7 -8 3 -13 0 -11 -7 5 -25 -28 -11 -38 16
-8 24 -6 31 10 44 11 8 19 21 17 30 -5 22 28 55 43 43 8 -7 21 3 43 34 17 24
29 46 26 48 -2 3 0 17 5 31 8 21 7 25 -3 21 -32 -12 -42 70 -15 123 13 25 15
41 9 59 -7 19 -6 24 5 24 8 0 15 5 15 10 0 14 27 13 36 -2 4 -6 2 -14 -4 -16
-7 -2 -12 -8 -12 -13 0 -6 9 -5 21 1 16 9 18 14 8 26 -14 17 -3 19 15 2 12
-11 12 -16 -1 -30 -14 -16 -13 -20 11 -48 14 -18 26 -36 26 -41 0 -5 4 -9 9
-9 11 0 5 50 -8 63 -6 6 -11 22 -11 35 0 13 -7 30 -15 38 -22 22 -76 27 -99
10z"/>
<path d="M1594 2132 c-4 -9 -6 -20 -6 -24 1 -5 -4 -7 -10 -5 -7 1 -12 -6 -12
-15 1 -10 -2 -16 -6 -13 -12 7 -51 -45 -43 -58 3 -5 1 -7 -4 -4 -13 8 -35 -16
-31 -34 2 -8 -2 -13 -8 -12 -6 1 -45 -42 -86 -95 -84 -110 -97 -128 -80 -118
16 10 15 -7 0 -23 -10 -11 -10 -14 0 -18 6 -3 12 -11 12 -18 0 -9 -15 -6 -52
12 -29 14 -59 30 -66 36 -7 6 -25 12 -39 13 -15 2 -33 10 -41 18 -13 13 -25 8
-98 -37 -45 -28 -81 -54 -78 -58 2 -4 -4 -12 -13 -18 -10 -6 -14 -11 -10 -11
17 0 128 74 138 92 14 25 34 17 35 -13 2 -69 5 -76 31 -88 24 -11 25 -11 12 5
-13 15 -12 16 11 9 51 -16 54 -15 13 4 -24 11 -43 25 -43 31 0 13 16 13 43 -2
12 -7 27 -13 32 -14 6 -1 30 -10 54 -18 72 -26 37 -4 -46 29 -42 16 -79 36
-81 44 -5 16 -7 16 110 -24 61 -22 76 -30 71 -43 -3 -10 4 -4 17 11 12 15 20
31 16 34 -9 9 14 44 25 38 5 -4 9 2 9 13 0 22 30 52 51 52 11 0 11 2 2 8 -10
6 -3 19 22 46 19 21 35 43 35 48 0 5 5 6 12 2 7 -4 8 -3 4 5 -4 6 7 30 25 54
18 23 34 44 36 46 2 2 5 2 8 -1 3 -2 -4 -14 -15 -26 -12 -12 -17 -22 -12 -22
6 0 17 11 25 24 12 18 13 26 4 36 -9 9 -9 11 0 6 6 -3 14 0 16 6 4 9 6 9 6 -2
1 -10 6 -8 17 8 8 12 12 27 9 32 -3 6 0 10 8 10 10 0 13 8 10 24 -6 30 -29 41
-39 18z m-131 -194 c-5 -7 -38 -50 -73 -96 -35 -45 -65 -80 -68 -78 -5 5 137
186 145 186 3 0 1 -6 -4 -12z"/>
<path d="M1466 2092 c-38 -27 -38 -27 -13 -30 20 -2 24 -7 20 -20 -5 -12 2 -9
20 8 25 24 37 48 18 36 -5 -4 -7 3 -4 14 6 24 7 24 -41 -8z"/>
<path d="M62 2049 c-24 -17 -41 -33 -38 -36 3 -3 21 6 40 21 40 30 46 32 46
12 0 -21 21 -31 30 -16 6 10 30 5 106 -23 54 -20 100 -35 102 -33 1 2 -47 23
-108 46 -61 24 -113 47 -116 52 -8 12 -15 10 -62 -23z"/>
<path d="M1432 2038 c-7 -7 -12 -18 -12 -25 0 -7 -8 -13 -17 -14 -11 0 -13 -3
-5 -6 6 -2 12 -13 12 -23 0 -17 2 -17 25 4 24 22 35 43 16 32 -4 -3 -6 6 -3
19 5 28 2 31 -16 13z"/>
<path d="M2907 1963 c8 -32 19 -62 23 -67 5 -5 3 18 -5 50 -8 32 -14 62 -15
67 0 4 -4 7 -8 7 -5 0 -2 -26 5 -57z"/>
<path d="M1064 2000 c-34 -14 -38 -30 -5 -17 22 8 39 8 65 0 29 -9 36 -8 36 2
0 24 -54 32 -96 15z"/>
<path d="M52 1964 l-52 -37 2 -96 2 -96 3 82 c4 80 5 83 33 98 16 8 36 25 44
37 12 16 16 18 20 7 4 -14 16 -895 16 -1218 0 -154 1 -163 19 -158 10 2 26 0
35 -5 10 -5 16 -5 16 0 0 5 -8 12 -19 15 -22 5 -25 34 -19 185 2 39 1 72 -2
72 -3 0 -5 78 -5 173 1 94 -3 182 -7 195 -4 12 -4 22 1 22 5 0 7 42 4 93 -7
143 -6 273 1 286 4 6 3 11 -2 11 -5 0 -10 57 -11 130 -1 71 -4 136 -7 145 -13
32 5 13 46 -50 23 -36 44 -65 47 -65 5 0 -45 88 -62 110 -28 36 -27 40 14 37
21 -1 37 -5 35 -9 -6 -10 34 -20 47 -12 8 5 9 3 4 -6 -6 -10 -3 -12 13 -8 12
4 20 2 17 -2 -6 -9 25 -21 64 -26 13 -1 20 1 15 6 -6 6 -253 120 -259 120 -1
0 -24 -16 -53 -36z"/>
<path d="M360 1941 l0 -24 25 23 c14 13 25 24 25 24 0 1 -11 1 -25 1 -20 0
-25 -5 -25 -24z"/>
<path d="M1566 1916 c-42 -52 -170 -222 -228 -303 -46 -65 -38 -78 10 -15 60
80 136 177 143 182 3 3 16 24 27 47 12 23 31 44 42 48 11 3 20 13 20 20 0 8 7
18 16 23 9 5 14 17 13 27 -3 14 -12 8 -43 -29z"/>
<path d="M1670 1925 c0 -3 8 -22 19 -43 10 -20 21 -48 25 -62 l7 -25 -15 25
c-27 45 -17 7 21 -77 43 -97 63 -112 27 -20 -14 34 -27 71 -28 82 -5 38 -38
125 -47 125 -5 0 -9 -2 -9 -5z"/>
<path d="M2396 1898 c-9 -12 -16 -29 -16 -38 0 -8 -7 -24 -15 -34 -10 -13 -14
-40 -13 -80 l2 -61 3 55 c3 30 10 62 17 70 7 8 16 28 20 43 4 15 16 31 27 35
18 7 19 10 6 21 -13 10 -18 8 -31 -11z"/>
<path d="M1625 1859 c2 -19 4 -34 5 -34 1 0 3 -10 6 -22 3 -18 -1 -23 -19 -24
l-22 0 23 -9 c27 -12 29 -30 2 -30 -11 0 -23 1 -27 3 -14 4 -10 72 5 90 10 11
11 17 4 17 -7 0 -12 -4 -12 -9 0 -5 -9 -13 -21 -16 -14 -5 -18 -12 -13 -23 3
-10 9 -28 11 -42 4 -25 4 -25 -21 5 -14 16 -28 26 -32 23 -3 -4 7 -21 24 -38
17 -16 32 -25 34 -20 2 5 17 -3 33 -19 21 -19 36 -26 50 -21 13 4 15 9 7 14
-7 4 -12 14 -12 22 0 8 5 12 10 9 6 -3 10 -2 10 4 0 5 -4 12 -9 16 -6 3 -9 13
-9 23 1 9 -2 27 -6 40 -5 15 -3 22 6 22 9 0 9 3 2 8 -6 4 -15 16 -21 26 -9 17
-10 14 -8 -15z"/>
<path d="M2645 1863 c4 -10 13 -49 20 -86 12 -65 20 -85 29 -76 2 2 0 27 -5
54 -5 28 -12 67 -15 88 -4 23 -12 37 -21 37 -10 0 -13 -6 -8 -17z"/>
<path d="M1080 1822 c0 -7 -6 -12 -14 -12 -7 0 -16 -10 -19 -22 -5 -20 -4 -21
6 -7 7 9 15 16 20 17 25 2 32 10 20 23 -10 9 -13 10 -13 1z"/>
<path d="M2197 1793 c-41 -68 -67 -129 -66 -156 l1 -32 8 30 c8 35 47 112 67
137 9 10 11 18 4 22 -5 4 -12 3 -14 -1z"/>
<path d="M2284 1774 c-7 -3 -10 -14 -7 -25 4 -15 8 -17 19 -8 8 6 14 18 14 25
0 14 -6 16 -26 8z"/>
<path d="M1510 1723 c0 -7 35 -58 44 -65 17 -11 34 3 32 28 -1 23 -26 36 -26
13 0 -6 -6 -9 -12 -6 -7 2 -12 11 -10 19 1 8 -5 15 -13 15 -8 0 -15 -2 -15 -4z"/>
<path d="M2028 1711 c-15 -17 -15 -21 -2 -32 20 -17 37 1 27 29 -8 22 -9 22
-25 3z"/>
<path d="M2979 1658 c9 -40 17 -64 19 -53 5 24 -17 125 -27 125 -4 0 -1 -33 8
-72z"/>
<path d="M370 1705 c-1 -11 -2 -22 -2 -25 0 -3 3 -266 7 -585 4 -319 9 -583
12 -588 2 -4 9 -7 14 -7 6 0 7 4 4 10 -3 5 -1 10 4 10 6 0 11 -12 12 -27 0
-28 0 -28 11 -5 15 31 42 24 47 -13 4 -30 4 -30 10 -5 8 31 35 33 39 2 4 -25
17 -29 26 -7 10 27 36 17 36 -14 0 -17 5 -33 10 -36 6 -3 10 4 10 18 0 53 39
42 41 -12 1 -35 1 -36 8 -6 8 36 33 39 41 5 l6 -25 13 23 c18 34 44 10 39 -35
-2 -18 -1 -30 3 -25 4 4 9 18 11 32 2 14 11 26 21 28 13 3 17 -4 18 -30 l1
-33 10 28 c13 35 26 34 42 -4 12 -28 14 -29 19 -10 3 12 12 21 21 21 12 0 16
-11 17 -42 1 -43 1 -43 9 -10 4 18 10 35 13 39 13 13 27 -12 28 -50 l1 -42 10
37 c6 21 16 38 23 38 15 0 28 -42 19 -64 -3 -9 -1 -16 4 -16 6 0 12 15 14 33
2 20 8 32 18 32 20 0 25 -58 7 -77 -12 -12 -13 -25 -6 -64 5 -27 7 -65 4 -85
-4 -21 -2 -40 3 -43 6 -3 13 41 17 110 5 78 11 117 20 120 7 3 58 -6 113 -20
114 -29 120 -30 105 -15 -6 6 -9 17 -7 24 3 8 -21 20 -68 34 -40 12 -85 26
-100 31 -18 6 -28 5 -32 -3 -3 -9 -7 -9 -13 -1 -7 11 -78 30 -501 140 -73 19
-146 34 -161 34 -27 0 -57 21 -46 32 10 10 12 203 3 215 -6 7 -5 19 2 33 6 11
8 30 5 40 -8 25 -3 25 63 0 29 -11 57 -18 61 -15 5 2 26 -4 47 -14 22 -10 68
-26 104 -36 101 -27 100 -26 101 -103 l2 -67 9 79 c6 44 6 82 1 87 -5 5 -25
11 -46 13 -20 3 -46 10 -57 16 -11 6 -32 8 -47 4 -18 -3 -23 -2 -15 3 8 6 -28
21 -110 44 l-123 34 0 42 c0 33 4 43 16 43 28 0 29 26 3 40 -18 10 -21 16 -13
26 6 7 18 10 27 7 14 -4 14 -3 3 5 -8 6 -19 8 -26 6 -7 -3 -12 6 -12 25 0 26
6 32 34 42 18 6 33 15 33 20 0 6 -9 5 -21 -1 -23 -13 -22 -14 -38 18 -10 20
-9 22 11 23 l23 0 -22 11 c-23 11 -23 13 -24 227 0 119 -4 234 -8 256 -5 22
-10 31 -11 20z"/>
<path d="M2406 1655 c-54 -30 -105 -55 -112 -55 -7 0 -17 -6 -21 -13 -7 -11
-205 -127 -217 -127 -8 0 1 56 13 78 7 13 13 37 13 53 1 16 5 32 10 35 4 3 8
13 8 22 0 12 -3 13 -12 4 -8 -8 -15 -8 -24 -1 -9 8 -11 5 -7 -10 5 -19 1 -21
-39 -21 -32 0 -50 -6 -63 -20 -17 -18 -17 -21 -2 -37 14 -17 17 -22 17 -40 0
-3 9 2 19 11 21 19 34 56 20 56 -5 0 -9 -7 -9 -15 0 -13 -3 -13 -20 -3 -26 16
-11 30 34 31 47 1 56 -10 27 -34 -19 -16 -21 -22 -11 -34 10 -12 10 -18 0 -30
-9 -10 -9 -15 -1 -15 6 0 11 -6 11 -13 0 -7 9 -20 20 -30 16 -13 20 -14 20 -3
0 13 172 111 195 111 6 0 17 8 26 17 9 10 60 41 115 69 88 46 122 70 97 69 -4
0 -53 -25 -107 -55z"/>
<path d="M1668 1676 c-39 -22 -44 -38 -15 -44 10 -2 17 3 17 11 0 27 30 28 56
2 28 -28 28 -28 9 19 -17 41 -17 41 -67 12z"/>
<path d="M1023 1642 c-55 -36 -68 -52 -18 -22 59 35 81 50 70 49 -6 0 -29 -12
-52 -27z"/>
<path d="M1473 1664 c-24 -10 -83 -124 -64 -124 5 0 14 14 20 31 6 17 19 33
30 36 12 3 21 16 23 34 3 16 4 29 4 28 -1 0 -6 -3 -13 -5z"/>
<path d="M1850 1654 c0 -6 3 -14 8 -18 4 -4 7 -11 7 -14 1 -4 20 -47 43 -95
23 -49 42 -95 42 -103 0 -8 5 -12 10 -9 6 4 8 15 5 26 -4 13 -2 19 9 19 9 0
16 5 16 11 0 6 -9 8 -21 4 -18 -6 -20 -5 -10 14 11 19 8 25 -11 22 -5 0 -8 5
-8 13 0 7 -7 19 -15 26 -11 9 -13 16 -5 24 16 16 12 29 -9 23 -11 -3 -22 1
-25 9 -3 8 0 13 6 11 6 -1 13 4 15 12 4 9 0 11 -15 7 -14 -5 -24 -1 -31 11 -6
10 -11 13 -11 7z"/>
<path d="M1593 1633 c-8 -3 -13 -23 -13 -49 0 -47 14 -62 18 -18 1 14 6 33 12
42 7 13 9 2 10 -40 0 -32 4 -58 9 -58 14 0 20 37 8 49 -8 8 -7 11 2 11 8 0 22
-10 32 -22 11 -11 19 -16 19 -9 0 20 -20 52 -30 46 -4 -3 -14 8 -22 25 -13 29
-21 33 -45 23z"/>
<path d="M1264 1615 c-8 -19 2 -45 16 -45 13 0 13 27 0 35 -6 4 -8 11 -5 16 4
5 4 9 0 9 -3 0 -8 -7 -11 -15z"/>
<path d="M1491 1583 c0 -12 2 -14 6 -5 4 10 11 8 29 -9 13 -12 24 -26 24 -31
0 -18 40 -52 49 -42 10 10 -28 58 -69 87 -31 22 -40 21 -39 0z"/>
<path d="M2380 1536 c-25 -52 -30 -76 -28 -128 l2 -63 3 55 c4 62 49 180 69
180 7 0 18 -9 24 -20 6 -11 15 -20 21 -20 5 0 0 14 -13 30 -12 17 -28 30 -35
30 -8 0 -27 -29 -43 -64z"/>
<path d="M1719 1585 c-1 -3 -3 -9 -4 -15 -1 -5 -3 -24 -4 -40 -1 -26 -4 -29
-18 -21 -23 13 -73 -13 -73 -38 0 -11 -6 -21 -12 -24 -9 -3 -4 -14 15 -33 17
-18 25 -22 21 -12 -4 12 0 20 10 24 9 3 16 10 16 15 0 6 -8 5 -19 0 -16 -9
-18 -8 -14 10 3 11 17 25 30 30 33 12 34 12 27 -15 -3 -13 -1 -27 5 -30 7 -4
11 1 11 13 0 25 10 51 20 51 4 0 13 -13 20 -30 7 -16 17 -30 22 -30 12 0 2 33
-27 91 -13 26 -21 49 -18 53 4 3 3 6 0 6 -4 0 -8 -2 -8 -5z"/>
<path d="M1079 1553 c-12 -15 -12 -16 3 -10 9 3 22 -1 29 -9 9 -11 14 -12 19
-4 5 9 13 9 29 1 11 -6 30 -15 41 -21 11 -5 26 -10 35 -10 8 0 19 -9 25 -21
14 -26 21 -21 13 9 -3 12 -13 22 -22 22 -9 0 -43 14 -76 30 -69 35 -78 36 -96
13z"/>
<path d="M2550 1549 c0 -5 -4 -7 -10 -4 -5 3 -10 1 -10 -4 0 -6 -7 -11 -15
-11 -8 0 -15 -4 -15 -9 0 -5 -8 -7 -19 -4 -22 6 -38 -14 -23 -29 8 -8 16 -6
27 6 9 9 22 16 28 16 13 1 57 35 57 44 0 3 -4 6 -10 6 -5 0 -10 -5 -10 -11z"/>
<path d="M1008 1515 c-39 -26 -56 -45 -39 -45 6 0 11 5 11 10 0 6 7 10 15 10
8 0 15 4 15 9 0 5 10 11 22 13 12 2 23 9 26 16 6 18 -8 14 -50 -13z"/>
<path d="M1077 1499 c-9 -6 -14 -15 -11 -21 4 -7 2 -8 -5 -4 -6 4 -24 0 -39
-10 -15 -10 -33 -17 -39 -16 -17 4 -17 -15 0 -25 7 -4 21 -25 31 -45 20 -45
28 -47 50 -13 9 14 12 25 6 25 -5 0 -10 -4 -10 -9 0 -5 -7 -12 -16 -15 -12 -4
-14 -1 -9 14 5 15 3 18 -8 14 -10 -4 -14 3 -13 24 1 24 5 28 28 27 15 -1 25 2
22 7 -3 4 2 11 10 14 9 3 14 10 11 14 -3 5 0 12 6 16 7 4 9 3 5 -4 -3 -6 -3
-13 2 -16 4 -2 7 -31 5 -62 -2 -58 -7 -68 -53 -94 -12 -7 -12 -11 -1 -24 13
-15 26 -14 26 2 0 4 4 13 9 20 6 11 11 8 20 -9 7 -14 22 -24 36 -26 14 -1 47
-11 74 -23 48 -20 50 -20 68 -2 19 18 17 19 -73 53 -84 31 -124 59 -85 59 19
0 21 11 5 27 -13 13 -5 43 10 43 5 0 7 -9 4 -20 -4 -13 0 -20 9 -20 11 0 14 7
10 25 -2 14 -9 25 -15 25 -6 0 -8 3 -5 6 3 3 23 -2 44 -11 20 -8 47 -13 58
-10 15 5 17 4 8 -3 -11 -8 -11 -10 1 -15 9 -3 18 0 21 8 3 9 -22 25 -79 49
-92 40 -92 40 -118 25z"/>
<path d="M1460 1501 c-8 -6 -18 -7 -24 -4 -5 3 -6 1 -2 -6 4 -6 1 -14 -8 -17
-8 -3 -17 -12 -20 -20 -3 -8 12 0 34 17 35 29 46 39 38 39 -2 0 -10 -4 -18 -9z"/>
<path d="M820 1494 c0 -19 17 -36 24 -25 4 6 11 9 16 6 5 -3 11 -1 15 5 3 5 0
10 -9 10 -8 0 -21 3 -30 6 -9 3 -16 2 -16 -2z"/>
<path d="M901 1477 c-7 -12 -28 -33 -46 -47 -19 -14 -35 -28 -35 -32 0 -14 40
-8 67 9 24 16 26 16 39 -3 26 -37 54 -66 54 -56 0 6 -11 24 -25 40 -14 17 -25
38 -25 48 0 15 5 13 25 -11 l25 -30 -26 47 c-32 59 -38 63 -53 35z"/>
<path d="M2577 1474 c-16 -9 -26 -18 -23 -21 3 -3 12 0 20 6 18 15 63 3 135
-36 25 -13 48 -20 53 -15 5 5 -22 21 -59 37 -37 15 -72 32 -77 37 -13 11 -16
10 -49 -8z"/>
<path d="M794 1469 c-5 -8 -10 -25 -12 -39 l-3 -25 22 21 c16 17 19 26 11 39
-7 14 -11 15 -18 4z"/>
<path d="M2879 1414 c9 -37 22 -69 29 -72 7 -2 9 5 5 20 -3 13 -8 43 -12 68
-4 30 -11 46 -23 48 -15 3 -15 -2 1 -64z"/>
<path d="M2153 1444 c-12 -13 -18 -24 -12 -24 6 0 8 -4 4 -9 -3 -5 -1 -12 5
-16 5 -3 10 -10 10 -15 0 -14 -92 20 -117 43 -24 21 -27 17 -24 -30 2 -20 -29
-41 -51 -35 -12 3 -9 -56 2 -63 6 -3 10 2 10 12 0 10 9 26 20 36 19 16 20 16
20 -11 0 -21 7 -32 25 -40 36 -17 55 -14 25 3 -29 17 -13 20 25 5 16 -6 25
-16 22 -24 -3 -7 8 -20 25 -30 29 -18 29 -18 17 2 -11 18 -9 25 19 56 37 42
40 56 13 63 -30 8 -37 54 -12 74 12 10 21 20 21 23 0 14 -27 2 -47 -20z m-28
-89 c35 -16 43 -24 28 -24 -22 -1 -113 34 -113 44 0 11 37 3 85 -20z m-31 -21
c28 -10 44 -20 39 -25 -11 -11 -85 13 -91 29 -5 15 -5 15 52 -4z"/>
<path d="M2288 1452 c-10 -2 -18 -12 -18 -23 0 -21 8 -23 28 -10 19 12 11 37
-10 33z"/>
<path d="M2466 1413 c-67 -34 -69 -36 -46 -48 22 -12 19 -14 -66 -60 -136 -73
-149 -81 -147 -93 2 -8 -4 -9 -20 -2 -140 58 -155 62 -187 45 -18 -9 -33 -15
-34 -13 -2 2 -13 22 -26 45 -13 24 -25 41 -28 39 -7 -8 19 -76 29 -76 6 0 7
-4 4 -10 -3 -5 -1 -10 4 -10 6 0 10 -3 10 -7 -4 -22 4 -21 28 2 32 29 39 30
46 11 4 -9 -8 -20 -33 -31 -22 -10 -37 -22 -34 -27 3 -5 14 -2 23 6 20 18 38
21 43 6 2 -5 17 -11 33 -12 17 -1 42 -10 58 -21 29 -20 45 -13 60 25 4 11 12
15 21 12 9 -3 39 8 68 24 134 75 168 92 168 82 0 -5 -19 -22 -42 -36 -56 -35
-55 -34 -36 -45 12 -7 15 -19 12 -50 -5 -38 -4 -40 16 -29 11 6 18 15 15 21
-18 29 -14 57 11 74 l26 17 -4 -36 c-2 -23 0 -35 6 -33 7 3 10 29 8 65 l-2 61
70 37 c39 20 69 39 66 41 -2 3 -34 -12 -71 -32 -36 -21 -69 -35 -72 -31 -3 3
9 13 27 23 18 10 54 32 81 50 38 24 50 28 59 18 6 -7 32 -20 58 -30 26 -10 79
-33 119 -52 40 -18 78 -33 86 -33 7 0 18 -5 25 -12 7 -7 12 -8 12 -4 0 5 6 4
13 -2 6 -5 28 -13 47 -16 34 -7 35 -6 10 8 -14 7 -72 33 -130 57 -58 24 -106
47 -108 51 -2 4 -12 8 -23 8 -25 0 -99 37 -99 50 0 19 -32 10 -94 -25 -35 -19
-71 -35 -82 -35 -11 1 6 14 39 31 31 16 57 31 57 34 0 7 3 8 -74 -32z m-376
-194 c0 -6 7 -9 15 -5 8 3 21 -2 30 -10 8 -9 15 -13 15 -9 0 3 5 3 11 -1 25
-15 -9 -24 -42 -11 -19 8 -42 17 -52 20 -10 4 -15 11 -12 17 8 14 35 13 35 -1z"/>
<path d="M3 1340 c0 -41 2 -58 4 -37 2 20 2 54 0 75 -2 20 -4 3 -4 -38z"/>
<path d="M1403 1390 c3 -18 47 -69 47 -54 0 9 -40 74 -46 74 -2 0 -3 -9 -1
-20z"/>
<path d="M1781 1398 c0 -9 -5 -18 -9 -20 -5 -1 -3 -18 5 -37 18 -44 22 -37 13
24 -4 28 -8 43 -9 33z"/>
<path d="M1271 1358 c-1 -27 1 -48 3 -48 2 0 13 -3 23 -7 15 -6 16 -4 6 8 -7
9 -17 33 -22 55 l-9 39 -1 -47z"/>
<path d="M2606 1378 c3 -13 11 -24 15 -26 5 -2 9 -13 9 -23 0 -12 4 -17 11
-14 6 4 8 13 5 21 -4 10 1 11 22 4 23 -8 24 -8 8 3 -10 6 -29 22 -42 35 -13
12 -26 22 -29 22 -4 0 -3 -10 1 -22z"/>
<path d="M690 1344 c-79 -44 -76 -42 -62 -56 9 -9 12 -9 12 0 0 15 121 73 135
64 5 -3 4 2 -4 11 -7 9 -14 17 -15 17 0 0 -30 -16 -66 -36z"/>
<path d="M1495 1346 c-30 -32 -45 -71 -45 -118 0 -11 5 -16 11 -13 6 4 8 14 5
22 -9 23 12 53 37 53 12 0 34 13 48 29 31 35 54 33 95 -8 25 -25 26 -25 20 -3
-11 33 -1 27 39 -24 41 -55 45 -71 10 -48 -32 21 -47 9 -16 -12 13 -9 20 -22
17 -31 -4 -9 -2 -12 7 -7 9 6 9 5 0 -8 -11 -12 -9 -18 7 -33 27 -24 34 -15 21
30 -5 20 -7 43 -5 50 7 18 -11 52 -50 93 -42 45 -77 62 -127 62 -34 0 -47 -6
-74 -34z m63 -5 c-16 -21 -32 -30 -52 -30 -17 -1 -26 3 -20 7 64 57 110 71 72
23z"/>
<path d="M870 1320 c-8 -15 -6 -20 10 -25 11 -3 20 -11 20 -17 0 -5 -7 -7 -16
-4 -11 4 -15 2 -11 -8 4 -11 -2 -14 -23 -14 -16 1 -27 4 -25 8 3 4 -2 13 -10
20 -12 10 -21 10 -45 0 -17 -7 -29 -15 -26 -17 2 -3 14 1 26 7 12 6 28 9 37 6
10 -4 -3 -16 -43 -37 -71 -38 -102 -59 -89 -60 6 0 1 -4 -10 -8 -29 -12 -47
-2 -39 21 5 17 4 18 -15 6 -29 -18 -26 -25 16 -39 34 -11 38 -10 55 10 9 13
23 24 30 25 26 6 73 28 79 37 3 5 50 -10 110 -36 109 -47 129 -52 129 -34 0 6
7 3 16 -6 9 -9 26 -15 38 -13 12 2 29 -6 38 -17 10 -12 17 -15 18 -7 0 11 -17
30 -52 57 -30 24 -40 27 -48 14 -7 -10 -16 -10 -52 1 -24 8 -49 20 -56 27 -7
7 -19 10 -27 7 -8 -4 -15 -1 -15 6 0 6 4 8 10 5 6 -4 9 4 7 17 -1 17 3 23 18
23 13 0 20 -7 21 -20 2 -38 4 -45 14 -45 6 0 8 11 4 25 -5 20 -2 25 13 25 26
0 35 -10 23 -25 -7 -9 -6 -16 4 -24 11 -9 14 -8 12 6 -1 14 6 17 30 16 22 -2
34 2 39 14 5 15 7 15 15 3 6 -8 10 -25 10 -38 0 -13 4 -21 10 -17 5 3 21 -12
35 -34 15 -22 34 -42 43 -46 11 -4 8 3 -9 22 -33 36 -59 79 -53 86 3 3 31 -3
61 -14 60 -20 83 -24 83 -11 0 4 -21 14 -47 21 -27 7 -67 24 -90 37 -25 15
-44 20 -48 14 -3 -5 -16 -15 -27 -21 -18 -10 -20 -9 -15 5 5 13 3 16 -11 12
-9 -3 -24 -1 -32 4 -12 8 -12 10 -1 10 11 0 11 3 1 15 -7 9 -15 13 -17 11 -3
-2 -29 4 -59 14 -53 18 -54 18 -64 0z"/>
<path d="M2610 1292 c0 -11 8 -18 20 -19 20 -2 23 16 5 29 -17 12 -25 9 -25
-10z"/>
<path d="M2727 1296 c-3 -8 41 -30 130 -65 74 -29 137 -51 140 -48 2 3 -5 10
-16 17 -12 6 -21 7 -21 3 0 -4 -4 -3 -8 3 -6 10 -63 39 -82 42 -3 0 -35 14
-72 31 -48 21 -68 26 -71 17z"/>
<path d="M2696 1238 c-31 -16 -37 -17 -42 -4 -5 12 -43 -4 -182 -74 -98 -50
-190 -102 -207 -116 -16 -14 -24 -23 -17 -19 7 4 12 0 12 -10 0 -15 1 -15 16
0 15 14 17 14 30 -2 11 -16 10 -20 -8 -34 -16 -12 -18 -18 -8 -24 9 -5 11 -4
6 3 -4 7 -2 13 3 13 6 1 16 3 21 4 6 1 15 3 21 4 6 0 9 11 6 24 -5 19 3 26 64
54 38 18 69 30 69 28 0 -3 -30 -20 -67 -39 -38 -19 -64 -35 -60 -36 5 0 67 29
138 65 116 58 132 63 145 50 20 -20 27 -19 50 7 15 17 16 20 3 16 -29 -11 -17
52 13 68 l26 14 1 -54 c0 -51 -1 -53 -34 -69 -19 -9 -35 -21 -35 -27 0 -5 -5
-10 -11 -10 -6 0 -9 7 -6 15 12 31 -16 24 -128 -29 -145 -69 -219 -116 -205
-130 7 -7 20 -7 40 1 39 15 49 -2 12 -21 -22 -11 -32 -12 -41 -3 -16 16 -14
-5 4 -29 13 -17 14 -17 15 -1 0 10 8 17 19 17 11 0 23 5 27 11 4 8 9 7 15 -2
7 -11 9 -9 9 6 0 17 23 32 106 73 l106 51 22 -24 22 -24 18 30 c18 31 46 39
46 14 0 -16 16 -21 22 -6 2 5 31 0 65 -11 46 -15 63 -26 65 -41 4 -26 25 -34
30 -10 4 21 -32 43 -124 74 -53 19 -66 20 -95 10 -18 -7 -42 -10 -52 -6 -12 3
-60 -14 -126 -45 -60 -27 -110 -48 -113 -45 -8 7 -7 8 107 65 89 44 108 50
128 41 32 -15 33 -15 33 14 0 23 2 25 21 14 15 -8 19 -8 15 0 -4 6 0 11 8 11
9 0 16 -4 16 -9 0 -10 61 -34 68 -26 3 3 -1 5 -9 5 -10 1 -8 5 5 15 19 14 18
15 -12 26 -18 6 -32 17 -32 25 0 17 10 17 44 4 39 -14 31 -2 -9 14 -26 11 -33
19 -28 32 4 10 2 15 -4 11 -10 -6 -11 28 -1 39 4 3 58 -17 122 -44 64 -27 118
-46 121 -42 3 4 -56 32 -129 62 l-134 54 -36 -18z m-66 -45 c-1 -24 -305 -172
-321 -156 -8 8 -6 13 7 17 11 3 21 5 24 4 3 0 31 16 63 36 31 20 63 34 69 30
6 -4 8 -3 5 3 -8 13 40 36 56 27 7 -4 8 -3 4 1 -4 5 11 19 35 32 53 27 58 28
58 6z"/>
<path d="M1560 1220 c-12 -7 -8 -11 18 -16 22 -4 31 -11 28 -20 -3 -7 10 -22
30 -34 19 -12 44 -38 55 -58 15 -28 19 -31 15 -12 -3 14 -6 31 -6 38 0 6 -7
12 -15 12 -17 0 -20 16 -5 25 15 9 12 37 -2 32 -7 -2 -12 -11 -12 -20 1 -9 -4
-13 -12 -10 -17 6 -18 20 -1 27 8 3 7 9 -7 20 -10 8 -23 13 -27 10 -5 -3 -9 0
-9 5 0 14 -30 14 -50 1z"/>
<path d="M1343 1214 c-7 -3 -13 -10 -13 -15 0 -7 6 -7 17 0 12 6 32 4 67 -10
59 -22 75 -17 20 6 -47 20 -75 25 -91 19z"/>
<path d="M751 1176 c-35 -18 -59 -36 -53 -40 15 -9 83 25 75 37 -4 6 1 8 11 4
10 -4 15 -3 11 3 -3 6 -2 10 4 10 5 0 13 -4 16 -10 3 -5 15 -10 25 -10 10 0
22 -9 25 -20 5 -16 10 -18 26 -10 14 8 19 7 19 -1 0 -6 9 -9 20 -6 11 3 18 1
15 -4 -3 -4 7 -11 22 -15 15 -4 33 -11 40 -16 7 -6 14 -5 18 3 10 15 -8 26
-73 45 -28 8 -71 26 -95 39 l-42 23 -64 -32z"/>
<path d="M2295 1201 c-36 -12 -75 -34 -75 -42 0 -4 6 -12 13 -16 19 -12 18
-45 -2 -41 -9 2 -15 11 -13 21 2 12 -4 17 -24 17 -23 0 -25 -2 -13 -16 12 -15
11 -16 -11 -9 -14 4 -52 18 -84 31 -60 23 -75 22 -113 -8 -19 -16 -5 -30 18
-18 11 6 17 15 14 21 -4 5 -2 9 4 9 12 0 19 -25 21 -75 3 -60 3 -60 -37 -80
-21 -10 -32 -20 -25 -22 6 -3 10 -8 7 -13 -3 -4 4 -6 15 -3 28 8 35 22 8 16
-22 -4 -22 -3 2 11 23 13 25 13 28 -3 3 -20 144 -67 150 -50 3 6 9 6 17 -1 11
-9 12 -7 8 8 -3 13 -26 26 -71 42 -80 28 -96 38 -82 55 6 8 6 15 -2 23 -9 9
-8 16 6 30 17 16 18 16 11 -5 -8 -27 15 -32 35 -8 9 10 9 15 1 15 -6 0 -11 -4
-11 -10 0 -5 -5 -10 -11 -10 -5 0 -7 5 -4 10 4 6 1 17 -5 25 -15 19 -13 19 41
0 24 -9 49 -13 56 -10 11 4 12 -3 7 -30 -7 -41 2 -88 16 -80 6 4 14 -4 19 -17
l9 -23 10 25 c6 14 11 21 12 15 0 -5 10 -21 21 -35 19 -23 19 -21 -2 15 -30
53 -29 52 -40 35 -8 -13 -10 -13 -19 0 -15 23 -12 30 11 30 18 0 20 4 14 30
-4 19 -3 30 4 30 6 0 11 -7 11 -15 0 -9 6 -12 15 -9 12 5 14 15 9 41 -5 25 -2
39 12 54 17 19 17 20 -2 13 -15 -6 -17 -4 -7 6 6 7 19 10 29 6 13 -5 15 -14
10 -47 -6 -35 -4 -40 10 -35 8 3 17 6 19 6 2 0 1 16 -2 36 -5 29 -2 40 12 50
18 13 17 14 -6 13 -13 -1 -33 -4 -44 -8z"/>
<path d="M1507 1181 c-4 -17 -1 -18 27 -10 17 5 32 9 33 9 2 0 3 5 3 11 0 8
-6 7 -17 -2 -13 -11 -17 -11 -20 -1 -7 18 -20 15 -26 -7z"/>
<path d="M1784 1180 c2 -14 8 -43 12 -65 l7 -40 13 30 c6 17 9 32 4 35 -4 3
-15 19 -24 35 -16 28 -17 28 -12 5z"/>
<path d="M1347 1183 c-13 -12 -7 -18 23 -20 17 -1 44 -10 60 -20 23 -13 32
-14 40 -5 6 6 8 10 4 8 -3 -2 -30 7 -60 20 -62 27 -58 26 -67 17z"/>
<path d="M1854 1169 c2 -9 7 -37 11 -62 4 -25 13 -48 21 -51 21 -8 16 22 -12
79 -13 28 -22 43 -20 34z"/>
<path d="M1277 760 c3 -246 9 -410 15 -417 6 -7 17 -13 24 -13 12 0 13 4 1 27
-11 21 -16 109 -21 363 -4 184 -11 360 -16 390 -4 30 -6 -126 -3 -350z"/>
<path d="M12 1138 c-9 -9 -12 -73 -10 -227 1 -119 3 -198 4 -176 12 144 25
407 22 411 -2 2 -10 -2 -16 -8z"/>
<path d="M1035 1131 c-7 -12 44 -101 57 -101 5 0 8 18 8 41 0 29 3 38 13 33 6
-4 9 -3 4 1 -12 13 -77 34 -82 26z"/>
<path d="M1340 1129 c0 -8 10 -15 23 -16 42 -2 77 -22 77 -43 0 -11 5 -20 10
-20 13 0 13 6 0 31 -7 13 -7 19 0 19 5 0 10 -5 10 -11 0 -5 5 -7 10 -4 16 10
0 27 -21 22 -11 -3 -19 -2 -19 3 0 4 -10 10 -22 13 -13 3 -33 9 -45 12 -16 5
-23 3 -23 -6z"/>
<path d="M502 1110 c14 -23 49 -23 56 -1 3 10 0 12 -11 8 -9 -3 -19 -2 -22 3
-4 6 -13 10 -21 10 -12 0 -12 -3 -2 -20z"/>
<path d="M1570 1124 c-11 -3 -15 -19 -16 -57 -1 -52 -1 -52 8 -14 11 40 17 43
51 25 29 -15 38 -26 61 -71 26 -50 39 -28 15 23 -11 22 -19 46 -19 54 0 31
-53 52 -100 40z"/>
<path d="M684 1107 c19 -14 19 -15 -2 -21 -12 -4 -31 -2 -42 4 -28 15 -36 7
-18 -19 13 -18 16 -19 42 -6 36 19 36 19 36 -5 0 -11 -4 -20 -10 -20 -5 0 -10
-7 -10 -15 0 -8 6 -15 14 -15 9 0 15 15 18 48 3 26 4 48 4 48 -1 1 -12 5 -26
9 -24 7 -24 6 -6 -8z"/>
<path d="M1726 1111 c-4 -5 -2 -12 3 -16 6 -3 8 -12 5 -20 -3 -7 -1 -22 4 -31
7 -13 6 -21 -5 -29 -13 -10 -12 -15 9 -38 16 -17 29 -23 37 -17 10 5 26 -11
57 -56 l42 -64 8 -256 c6 -234 8 -256 25 -265 22 -11 22 -8 10 41 -5 19 -12
116 -16 215 -9 248 -16 312 -34 301 -6 -4 -41 55 -41 69 0 12 21 3 40 -17 l21
-23 -4 29 c-3 23 -10 32 -31 37 -15 4 -33 13 -41 19 -9 7 -15 8 -20 0 -3 -5
-14 -10 -25 -10 -14 0 -17 5 -12 23 8 33 42 52 42 23 0 -8 21 -21 50 -31 49
-16 77 -45 65 -65 -3 -6 -1 -10 4 -10 6 0 11 -9 11 -20 0 -11 5 -20 11 -20 6
0 8 6 5 13 -3 6 -11 31 -18 55 -7 23 -18 42 -25 42 -16 0 -17 16 -2 26 17 10
-93 52 -113 42 -29 -14 -38 -9 -38 21 0 31 -14 49 -24 32z"/>
<path d="M824 812 c1 -166 -3 -302 -7 -302 -5 0 -16 4 -25 9 -9 5 -37 11 -62
14 l-45 6 30 -16 c17 -10 35 -16 41 -15 7 1 14 -4 18 -13 4 -12 11 -13 32 -5
22 9 25 8 20 -5 -3 -8 -1 -15 5 -15 7 0 10 60 7 184 -2 107 1 182 6 179 5 -4
6 6 1 23 -4 16 -10 81 -14 144 -6 84 -8 32 -7 -188z"/>
<path d="M466 1071 c4 -20 1 -30 -9 -34 -13 -5 -14 -10 -4 -31 12 -26 27 -35
27 -17 0 5 7 17 16 25 14 15 14 17 0 22 -9 3 -13 10 -10 15 7 12 -5 49 -16 49
-5 0 -7 -13 -4 -29z"/>
<path d="M955 1070 c-4 -13 -15 -20 -33 -20 -26 0 -26 0 -5 -15 11 -8 32 -19
46 -24 24 -9 25 -8 22 17 -2 15 -4 35 -4 45 -1 23 -18 22 -26 -3z"/>
<path d="M570 1061 c0 -6 5 -13 10 -16 15 -10 12 -35 -5 -35 -8 0 -15 8 -15
17 0 12 -3 14 -11 6 -7 -7 -3 -18 15 -36 14 -14 26 -32 26 -39 0 -8 4 -6 11 4
5 10 16 15 24 12 8 -4 15 -1 15 4 0 6 -9 14 -21 17 -13 4 -18 12 -15 22 7 17
-10 53 -24 53 -6 0 -10 -4 -10 -9z"/>
<path d="M1038 1010 c2 -22 8 -40 13 -40 5 0 9 -5 9 -11 0 -5 -5 -7 -12 -3 -7
4 -8 3 -4 -5 4 -6 12 -9 17 -6 5 4 9 -1 9 -10 0 -13 3 -13 13 -3 11 10 9 21
-12 65 -14 29 -28 53 -31 53 -3 0 -4 -18 -2 -40z"/>
<path d="M1495 1031 c-7 -23 -25 -27 -43 -9 -9 9 -12 7 -12 -9 0 -16 8 -22 41
-27 23 -4 44 -4 47 -1 3 3 -4 5 -16 5 -25 0 -26 3 -11 32 6 11 8 22 6 25 -3 2
-8 -5 -12 -16z"/>
<path d="M1110 980 c0 -62 12 -102 25 -88 4 3 2 15 -4 26 -6 10 -8 35 -4 54 3
20 0 44 -6 54 -8 15 -10 5 -11 -46z"/>
<path d="M870 755 c0 -212 2 -255 14 -255 10 0 12 7 9 23 -5 18 -3 20 8 10 20
-19 37 -16 41 9 4 25 28 37 28 14 0 -22 13 -20 28 4 11 19 10 20 -23 20 l-35
0 17 26 c15 24 18 24 23 8 12 -33 18 0 19 106 1 82 5 108 17 117 17 13 9 38
-22 64 -16 13 -17 11 -11 -26 5 -28 4 -34 -3 -20 -6 14 -9 16 -10 5 -4 -29 -6
-36 -29 -132 -16 -64 -29 -98 -38 -98 -17 0 -16 18 2 50 8 14 14 34 14 45 0
14 -4 9 -15 -14 -20 -46 -28 -34 -10 16 9 25 11 45 5 55 -5 9 -12 44 -16 79
-5 54 -4 64 13 77 16 13 16 14 2 9 -12 -4 -18 -1 -18 8 0 8 5 15 10 15 6 0 10
5 10 11 0 5 -5 7 -12 3 -8 -5 -9 -2 -5 9 3 10 2 17 -3 17 -6 0 -10 -97 -10
-255z m120 9 c0 -30 -4 -53 -9 -50 -5 3 -12 -13 -15 -37 -4 -23 -13 -55 -21
-71 -8 -16 -15 -37 -15 -47 0 -21 -8 -23 -30 -9 -12 7 -13 13 -3 27 6 10 15
17 20 16 5 -1 10 11 10 26 0 15 7 42 16 61 10 18 17 39 17 47 0 7 4 13 9 13 5
0 9 6 8 13 -1 30 3 67 8 67 3 0 5 -25 5 -56z"/>
<path d="M650 988 c0 -4 6 -8 13 -8 6 0 18 -14 26 -31 15 -35 16 -35 24 7 5
28 4 31 -13 27 -11 -3 -20 -1 -20 4 0 5 -7 10 -15 10 -8 0 -15 -4 -15 -9z"/>
<path d="M994 964 c-6 -19 -7 -34 -3 -34 5 0 9 4 9 9 0 5 7 16 15 24 11 12 12
17 2 25 -9 8 -15 2 -23 -24z"/>
<path d="M513 983 c4 -3 -1 -12 -11 -19 -16 -12 -16 -13 3 -14 11 0 30 -3 43
-6 19 -5 21 -3 15 12 -3 11 -11 22 -17 26 -14 9 -42 10 -33 1z"/>
<path d="M945 981 c-3 -7 -1 -19 6 -27 10 -13 10 -17 -2 -25 -8 -5 -20 -9 -26
-9 -7 0 -13 -5 -13 -11 0 -6 9 -9 19 -6 12 3 22 -1 26 -12 6 -14 8 -13 15 5
10 25 -13 103 -25 85z"/>
<path d="M2697 974 c-19 -10 -32 -12 -46 -5 -14 8 -44 -2 -139 -47 -112 -53
-142 -72 -109 -72 6 0 59 22 117 49 l105 48 7 -231 c3 -127 4 -233 2 -235 -2
-2 -14 1 -27 7 -12 6 -34 16 -49 22 -24 8 -28 15 -29 52 0 24 -3 38 -5 31 -3
-7 -12 -9 -20 -6 -9 3 -14 -2 -14 -16 0 -12 7 -24 15 -27 8 -4 15 -12 15 -20
0 -8 -6 -11 -15 -8 -8 4 -15 13 -15 21 0 8 -4 12 -8 9 -5 -3 -21 -2 -37 2 -28
8 -28 9 -32 97 -3 54 -9 93 -16 97 -8 5 -6 8 6 8 15 0 22 11 18 33 -1 7 14 11
39 7 10 -1 8 5 -8 22 -19 20 -25 21 -43 10 -18 -12 -21 -10 -32 17 -12 33 -27
41 -27 15 0 -9 -5 -12 -12 -8 -7 4 -8 3 -4 -4 4 -6 13 -9 21 -6 9 4 12 0 8
-14 -2 -10 3 -26 11 -35 20 -20 20 -25 -1 -23 -10 0 -17 -4 -16 -10 1 -6 -6
-11 -15 -11 -23 -2 -112 27 -112 36 0 11 -60 30 -76 24 -8 -3 -14 0 -14 6 0 6
-7 11 -14 11 -14 0 -66 58 -66 73 0 12 28 8 70 -9 26 -11 40 -22 40 -34 0 -11
5 -22 10 -25 6 -3 10 -1 10 4 0 6 9 11 21 11 11 0 17 -4 14 -10 -7 -11 8 -11
45 -1 24 7 23 8 -15 20 -22 7 -50 20 -62 27 -13 8 -23 12 -23 10 0 -3 -30 10
-67 28 -65 32 -68 33 -100 18 -18 -9 -33 -22 -33 -29 0 -11 6 -11 29 1 l29 15
6 -217 c3 -119 8 -266 11 -327 3 -60 5 -138 5 -172 0 -50 3 -63 16 -63 13 0
15 12 11 70 -2 40 1 70 6 70 5 0 4 6 -2 14 -8 9 -12 58 -11 143 1 70 0 130 -1
133 -1 3 -3 46 -4 95 -4 101 -12 184 -21 212 -3 10 4 4 15 -13 23 -34 77 -75
126 -95 17 -7 37 -18 45 -25 8 -6 33 -17 55 -24 30 -10 40 -10 43 -1 3 9 10 7
23 -5 15 -14 21 -14 34 -4 12 10 15 10 15 -4 0 -12 -10 -16 -39 -16 -60 0
-141 22 -151 41 -5 9 -17 19 -25 23 -14 5 -15 -16 -10 -202 11 -405 15 -450
36 -455 16 -4 19 0 19 25 0 27 3 30 23 23 61 -19 67 -18 67 6 0 19 2 21 10 9
7 -10 10 9 10 63 0 50 -4 76 -10 72 -6 -4 -10 7 -10 24 0 17 4 31 9 31 5 0 7
9 4 20 -3 11 0 20 6 20 6 0 12 -20 13 -47 l1 -48 4 44 c3 29 -1 48 -11 60 -10
11 -16 43 -18 98 -2 45 -6 79 -11 76 -4 -2 -4 -9 -1 -15 4 -7 2 -8 -5 -4 -7 5
-8 13 -2 24 7 13 3 19 -22 31 -41 18 -49 19 -64 8 -15 -11 -18 -71 -4 -63 5 3
7 14 4 25 -3 12 2 20 16 24 24 6 46 -17 54 -58 6 -31 -9 -113 -24 -129 -5 -5
-1 -14 7 -21 14 -10 20 -41 23 -123 1 -13 5 -21 10 -18 5 4 7 -4 3 -16 -3 -14
-2 -19 6 -14 7 4 12 1 12 -8 0 -20 -4 -20 -57 0 -39 15 -58 34 -33 34 14 0 12
27 -2 33 -10 4 -10 6 0 6 9 1 12 26 12 93 0 73 -4 95 -17 111 -10 11 -13 17
-6 14 7 -5 14 2 19 15 7 22 7 22 14 3 7 -18 9 -18 15 -3 4 9 3 24 -2 33 -8 14
-13 13 -37 -10 l-27 -25 2 -144 c1 -152 4 -162 52 -179 9 -4 17 -13 17 -22 0
-18 -1 -18 -35 -5 -19 7 -25 7 -24 -3 4 -29 -1 -51 -10 -42 -5 6 -12 125 -15
265 -4 140 -9 267 -12 282 -7 36 2 50 24 38 9 -6 39 -19 66 -30 37 -16 51 -18
57 -9 5 8 13 -1 23 -26 20 -46 20 -56 1 -31 -15 19 -15 19 -15 -1 0 -11 7 -26
16 -34 24 -19 57 -88 37 -76 -5 3 -7 -56 -5 -131 2 -89 7 -139 15 -144 15 -9
29 1 23 18 -7 17 8 18 54 1 21 -7 36 -20 38 -32 6 -32 22 -42 22 -13 0 25 1
25 37 13 21 -7 39 -19 41 -26 11 -42 13 -44 22 -29 5 8 6 18 4 22 -12 18 8 28
22 11 16 -22 18 -64 3 -60 -6 1 -14 -4 -16 -10 -3 -7 2 -13 11 -13 12 0 16
-11 16 -46 0 -42 -1 -45 -22 -39 -16 5 -20 4 -13 -3 6 -5 19 -12 30 -16 19 -5
20 -1 21 98 l1 103 -35 11 c-19 6 -39 9 -44 6 -11 -7 -78 15 -78 26 0 4 -17
11 -37 15 -40 7 -92 26 -94 35 -9 53 -6 67 12 63 14 -4 19 0 19 15 0 26 -19
39 -31 21 -7 -11 -9 -11 -9 2 0 9 10 21 23 27 16 8 17 11 6 11 -9 1 -19 11
-23 23 -8 32 -7 40 3 33 5 -3 16 2 25 11 17 17 39 13 91 -14 17 -9 33 -15 36
-14 4 0 6 -6 5 -16 -1 -16 3 -18 40 -21 8 0 12 -5 9 -11 -3 -6 -3 -15 1 -22 5
-7 12 6 19 33 6 24 16 43 22 42 7 -2 10 65 9 223 -1 212 0 226 18 240 11 8 25
14 31 14 7 0 16 -148 27 -476 9 -262 19 -478 22 -482 3 -3 8 -3 11 -1 8 9 9
150 1 299 -4 80 -9 206 -11 280 -3 74 -9 180 -14 235 -5 55 -7 102 -5 104 2 2
8 -8 13 -22 10 -25 57 -57 83 -57 7 1 -3 9 -22 18 -30 14 -77 78 -66 89 2 2
33 -7 69 -20 37 -14 69 -22 72 -19 5 6 -149 82 -163 82 -4 -1 -19 -8 -35 -16z
m-297 -354 c0 -27 -4 -50 -10 -50 -5 0 -10 23 -10 50 0 28 5 50 10 50 6 0 10
-22 10 -50z"/>
<path d="M627 939 c-4 -15 1 -23 19 -30 33 -12 33 -12 31 10 -1 11 -11 24 -23
30 -18 8 -23 6 -27 -10z"/>
<path d="M1720 951 c0 -25 20 -59 45 -75 l26 -17 -3 28 c-2 23 -7 27 -25 25
-17 -2 -23 2 -23 17 0 11 -4 23 -10 26 -5 3 -10 2 -10 -4z"/>
<path d="M1690 935 c0 -8 4 -15 9 -15 4 0 6 -11 3 -25 -2 -15 0 -25 7 -25 14
0 15 47 1 55 -6 4 -8 11 -5 16 4 5 1 9 -4 9 -6 0 -11 -7 -11 -15z"/>
<path d="M1450 916 c25 -24 65 -24 74 -1 4 12 2 13 -14 2 -16 -9 -24 -9 -40 1
-27 16 -38 15 -20 -2z"/>
<path d="M1625 920 c-4 -7 2 -14 14 -17 12 -3 21 -12 21 -19 0 -8 5 -14 10
-14 13 0 13 17 0 25 -6 4 -7 12 -4 18 4 7 4 9 -1 5 -4 -4 -14 -3 -21 3 -8 7
-14 7 -19 -1z"/>
<path d="M2889 842 c-2 -53 1 -130 6 -182 2 -19 7 -176 11 -348 4 -171 9 -312
11 -312 13 0 35 33 27 38 -12 9 -17 442 -5 442 5 0 16 -12 26 -26 9 -14 19
-24 22 -21 9 10 -29 68 -52 79 -22 10 -24 15 -21 76 4 69 12 82 59 82 15 0 27
5 27 11 0 11 -40 8 -71 -5 -14 -6 -17 2 -21 56 -3 35 -1 66 5 69 5 4 5 9 -2
13 -13 9 -15 56 -2 56 5 0 11 -5 13 -12 3 -8 6 -9 11 -1 3 5 -5 15 -18 21 -25
11 -25 11 -26 -36z"/>
<path d="M1063 844 c-10 -21 -10 -32 1 -52 l13 -25 4 24 c3 13 2 36 -1 51 l-5
28 -12 -26z"/>
<path d="M1450 745 c0 -71 2 -126 5 -123 3 3 6 58 6 123 0 65 -3 120 -6 123
-3 3 -5 -52 -5 -123z"/>
<path d="M1540 840 c0 -11 -7 -20 -15 -20 -8 0 -15 -6 -15 -13 0 -21 12 -28
26 -17 9 8 13 0 16 -36 2 -25 0 -48 -3 -50 -4 -2 -1 -28 7 -56 13 -51 38 -81
77 -94 9 -3 17 -15 17 -27 1 -33 39 51 40 86 0 15 5 27 11 27 8 0 9 -13 5 -40
-5 -32 -3 -40 9 -40 8 0 15 -9 15 -20 0 -13 -5 -18 -15 -14 -8 3 -24 -1 -36
-10 -16 -11 -27 -12 -41 -5 -10 5 -22 7 -27 4 -5 -3 -24 13 -42 35 -18 22 -42
40 -53 40 -17 0 -17 -2 5 -21 13 -11 31 -24 39 -29 12 -7 12 -11 1 -24 -9 -11
-10 -16 -2 -16 6 0 11 5 11 12 0 6 6 3 14 -7 12 -16 16 -17 30 -6 14 11 16 11
16 -3 0 -18 35 -22 45 -6 4 6 11 8 16 4 5 -3 16 0 24 6 8 7 15 9 15 5 0 -4 12
4 26 19 26 25 26 26 9 52 -11 17 -13 29 -7 33 18 11 24 57 13 96 -6 21 -7 59
-4 84 7 44 7 44 14 16 6 -29 7 -28 8 9 l1 39 -25 -23 c-14 -13 -25 -33 -25
-46 0 -12 -7 -24 -15 -28 -17 -6 -22 -86 -5 -86 6 0 10 -7 10 -16 0 -14 -3
-14 -15 -4 -8 7 -16 9 -17 4 -1 -5 -4 31 -7 80 l-6 89 -35 12 c-19 7 -52 15
-72 19 -34 6 -38 5 -38 -14z m90 -25 c33 -12 35 -15 32 -55 -1 -24 3 -49 10
-58 11 -13 10 -14 -14 -8 -25 6 -28 4 -27 -16 0 -13 3 -17 6 -10 2 6 8 10 13
7 10 -6 0 -55 -11 -55 -5 0 -9 -7 -9 -15 0 -8 3 -14 8 -14 22 4 35 -2 26 -11
-11 -11 -56 -1 -48 11 3 5 -4 9 -15 9 -20 0 -25 9 -22 38 1 6 -3 12 -10 12 -8
0 -8 4 1 15 9 10 9 15 1 15 -6 0 -11 7 -11 15 0 17 23 16 30 -2 3 -8 10 -9 20
-3 11 7 12 12 4 18 -14 8 0 52 16 52 5 0 10 8 9 18 0 10 -3 12 -6 5 -2 -7 -11
-13 -19 -13 -8 0 -14 -10 -14 -25 0 -18 -5 -25 -20 -25 -11 0 -20 5 -20 11 0
5 5 7 10 4 18 -11 10 35 -9 57 -11 11 -17 27 -14 34 6 15 11 14 83 -11z m50
-172 c0 -25 -17 -49 -27 -39 -4 5 -3 11 3 13 7 2 10 13 7 23 -3 11 0 20 6 20
6 0 11 -8 11 -17z"/>
<path d="M1811 645 c-1 -210 4 -295 18 -295 9 0 3 419 -8 470 -6 33 -9 -13
-10 -175z"/>
<path d="M1121 623 c-1 -227 -1 -232 19 -230 15 1 18 6 14 17 -4 8 -9 92 -11
187 -6 277 -21 294 -22 26z"/>
<path d="M1971 823 c0 -10 4 -36 8 -58 l8 -40 4 58 c3 41 1 57 -8 57 -7 0 -13
-8 -12 -17z"/>
<path d="M754 815 c22 -17 46 -20 46 -6 0 10 -25 21 -48 21 -15 -1 -14 -3 2
-15z"/>
<path d="M2300 818 c0 -7 7 -22 15 -32 14 -19 15 -18 15 12 0 22 -5 32 -15 32
-8 0 -15 -6 -15 -12z"/>
<path d="M2930 803 c0 -5 16 -16 35 -25 19 -8 35 -12 35 -8 0 5 -18 17 -62 38
-5 2 -8 -1 -8 -5z"/>
<path d="M490 756 c0 -14 29 -31 38 -22 2 3 2 12 -1 21 -8 19 -37 20 -37 1z"/>
<path d="M697 758 c-2 -7 0 -22 6 -33 10 -19 10 -19 17 0 8 22 3 45 -10 45 -5
0 -10 -6 -13 -12z"/>
<path d="M1048 609 l3 -156 -32 -9 -32 -9 52 -17 52 -17 -2 159 c-2 113 -5
157 -14 154 -6 -3 -15 8 -20 23 -7 18 -9 -21 -7 -128z"/>
<path d="M580 734 c0 -9 -7 -14 -17 -12 -13 2 -19 -5 -21 -26 -5 -41 14 -55
21 -16 5 22 12 30 24 28 22 -4 29 27 8 35 -9 4 -15 1 -15 -9z"/>
<path d="M653 714 c-3 -9 0 -20 8 -25 21 -13 29 -11 29 10 0 24 -29 36 -37 15z"/>
<path d="M1927 595 c3 -66 7 -123 10 -127 2 -5 -1 -8 -7 -8 -7 0 -8 -6 0 -19
13 -25 13 -171 0 -171 -5 0 -14 8 -19 18 -10 20 -85 47 -101 37 -17 -10 13
-44 45 -51 69 -14 75 -24 76 -137 l2 -102 8 80 c5 44 7 88 5 97 -2 9 -1 18 3
20 9 4 -7 404 -19 448 -5 23 -7 -5 -3 -85z"/>
<path d="M737 686 c-7 -16 1 -26 20 -26 7 0 13 9 13 20 0 23 -25 27 -33 6z"/>
<path d="M708 674 c-12 -11 -10 -52 3 -59 17 -11 23 3 13 36 -5 17 -12 27 -16
23z"/>
<path d="M63 523 l-63 -37 0 -83 c0 -49 4 -83 10 -83 6 0 10 31 10 73 l0 72
45 24 c24 13 42 28 38 34 -3 5 0 7 8 5 10 -3 14 -23 14 -69 1 -35 2 -79 3 -98
2 -33 3 -34 16 -15 8 10 13 31 10 47 -2 15 -6 42 -9 60 l-4 32 31 -35 31 -35
-21 38 c-12 21 -22 40 -22 42 0 3 17 4 38 2 20 -1 48 2 62 6 l25 8 -25 -16
-25 -16 28 6 c19 4 26 2 22 -5 -8 -13 11 -13 38 2 21 10 21 10 7 -7 -14 -17
-13 -18 13 -13 19 4 30 0 37 -11 4 -9 12 -12 16 -8 5 5 2 12 -5 16 -7 5 -11
13 -8 18 4 6 -47 24 -116 43 -67 18 -126 35 -132 36 -5 2 -38 -13 -72 -33z"/>
<path d="M956 511 c5 -5 19 -12 32 -16 16 -5 22 -2 22 9 0 11 -10 16 -32 16
-19 0 -28 -4 -22 -9z"/>
<path d="M1768 512 c-10 -2 -18 -10 -18 -18 0 -8 -4 -13 -9 -10 -15 10 -35
-24 -33 -55 2 -20 -2 -29 -13 -29 -8 0 -12 -6 -9 -14 4 -10 -4 -13 -27 -12
-35 1 -51 -20 -24 -31 11 -4 21 0 27 11 8 13 13 15 24 5 10 -8 14 -8 14 -1 0
6 7 9 15 6 8 -4 15 -1 15 6 0 9 8 7 25 -4 15 -10 25 -12 25 -6 0 6 5 8 10 5 6
-3 10 -2 10 3 0 6 -6 12 -14 15 -11 4 -12 16 -4 57 11 62 8 77 -14 72z m-8
-103 c0 -10 -7 -19 -15 -19 -15 0 -21 31 -9 43 11 10 24 -3 24 -24z"/>
<path d="M2447 476 c-4 -9 -2 -16 4 -16 7 0 9 -12 5 -34 -8 -40 2 -50 28 -30
18 12 18 14 2 20 -9 4 -15 12 -13 18 3 7 -1 22 -8 35 -10 20 -13 21 -18 7z"/>
<path d="M2537 463 c-3 -7 -2 -80 2 -107 0 -5 10 -1 21 9 15 13 17 21 8 26
-10 7 -14 18 -20 67 -2 14 -5 15 -11 5z"/>
<path d="M1350 434 c0 -14 8 -19 32 -20 18 -1 34 -6 36 -13 2 -6 11 -11 21
-11 9 0 27 -7 39 -16 20 -14 22 -23 22 -125 0 -89 3 -109 15 -109 14 0 14 12
0 83 -3 16 -1 16 23 -2 34 -24 114 -51 151 -51 17 0 31 -6 35 -16 9 -23 8 -24
-21 -25 l-28 -1 25 -7 c14 -5 35 -6 48 -4 13 2 22 -2 22 -9 0 -7 5 -5 11 6 9
14 7 22 -5 34 -15 15 -16 15 -16 -3 -1 -17 -3 -17 -15 5 -9 18 -10 29 -3 37
10 13 -1 18 -26 14 -48 -9 -112 2 -136 24 -9 8 -24 15 -33 15 -9 0 -19 6 -24
12 -10 18 -13 88 -3 88 5 0 24 -13 42 -30 18 -16 38 -30 45 -30 6 0 15 -5 18
-10 4 -7 -3 -9 -22 -5 -25 6 -26 5 -8 -6 11 -7 38 -13 60 -14 22 -1 52 -5 67
-9 15 -5 34 -3 45 3 16 9 16 10 1 11 -10 0 -16 7 -15 20 1 20 22 34 38 24 5
-3 9 -1 9 5 0 16 -42 51 -59 50 -11 0 -12 -2 -3 -6 7 -2 16 -12 21 -22 7 -13
5 -17 -10 -18 -11 -1 -17 2 -14 8 10 14 -11 11 -24 -5 -7 -8 -21 -12 -33 -8
-14 3 -19 1 -14 -6 4 -7 3 -12 -3 -12 -5 0 -13 5 -16 11 -4 6 -13 8 -21 5 -8
-3 -14 -1 -14 4 0 6 -7 10 -15 10 -8 0 -20 9 -27 20 -7 11 -18 20 -24 20 -18
0 -65 41 -58 51 6 11 -45 34 -98 44 -33 6 -38 5 -38 -11z m391 -168 c-9 -11
-77 -15 -101 -6 -9 4 54 18 84 19 23 1 26 -2 17 -13z"/>
<path d="M470 394 c37 -11 237 -62 454 -115 21 -5 43 -8 48 -7 10 4 -521 139
-537 137 -5 0 10 -7 35 -15z"/>
<path d="M2591 393 c-1 -6 3 -14 8 -17 5 -3 14 -26 20 -51 11 -46 31 -62 31
-25 0 11 -4 20 -10 20 -5 0 -10 14 -10 30 0 19 -5 30 -14 30 -8 0 -17 6 -19
13 -4 9 -6 9 -6 0z"/>
<path d="M392 323 c3 -55 7 -68 21 -71 18 -4 24 22 7 33 -13 8 -13 55 1 55 18
0 5 45 -14 48 -16 3 -18 -3 -15 -65z"/>
<path d="M2487 361 c-3 -14 2 -21 16 -25 26 -7 27 -6 16 22 -10 27 -25 29 -32
3z"/>
<path d="M1397 326 c-7 -47 -4 -66 9 -54 3 3 4 28 2 54 l-3 49 -8 -49z"/>
<path d="M2571 341 c-8 -15 -7 -20 5 -25 26 -10 32 -7 27 14 -8 29 -20 34 -32
11z"/>
<path d="M552 329 c1 -12 9 -24 16 -27 9 -3 13 3 10 19 -1 12 -9 24 -16 27 -9
3 -13 -3 -10 -19z"/>
<path d="M100 308 c0 -7 -23 -25 -50 -40 -28 -16 -50 -32 -50 -38 0 -15 6 -13
49 14 35 23 44 24 97 16 60 -9 216 -44 333 -75 39 -10 67 -13 73 -7 8 8 -304
92 -344 92 -10 0 -27 10 -39 23 -12 12 -19 16 -15 10 5 -9 0 -13 -13 -13 -14
0 -19 5 -15 15 4 9 0 15 -10 15 -9 0 -16 -6 -16 -12z"/>
<path d="M447 313 c-12 -11 -8 -31 8 -37 11 -4 15 1 15 19 0 24 -10 32 -23 18z"/>
<path d="M700 296 c0 -13 7 -29 15 -36 12 -10 15 -9 15 8 0 27 -10 52 -21 52
-5 0 -9 -11 -9 -24z"/>
<path d="M504 297 c-7 -20 3 -37 22 -37 18 0 18 24 -1 40 -12 10 -16 9 -21 -3z"/>
<path d="M1120 188 c0 -82 2 -99 13 -89 7 8 12 41 11 92 0 49 4 79 10 79 23 0
106 -30 132 -47 16 -10 25 -12 21 -5 -6 8 -2 12 12 12 20 0 21 -6 22 -102 1
-57 4 -93 6 -82 3 16 9 20 24 17 25 -7 26 21 1 39 -13 9 -18 28 -19 63 -2 73
-5 84 -19 78 -7 -2 -56 7 -109 21 -53 14 -99 26 -101 26 -2 0 -4 -46 -4 -102z"/>
<path d="M593 261 c-10 -16 -9 -20 8 -24 22 -6 33 7 25 28 -7 20 -19 19 -33
-4z"/>
<path d="M844 254 c11 -45 28 -55 24 -15 -2 19 -9 37 -17 39 -11 4 -12 -2 -7
-24z"/>
<path d="M654 259 c-8 -14 21 -43 35 -35 17 11 13 24 -8 36 -14 7 -22 7 -27
-1z"/>
<path d="M1820 165 c0 -77 3 -95 15 -95 11 0 15 15 15 67 0 93 2 103 14 104
11 0 -22 17 -36 18 -5 1 -8 -42 -8 -94z"/>
<path d="M53 223 c-35 -18 -51 -32 -50 -45 2 -22 1 -22 38 -3 16 9 27 20 24
25 -3 6 1 7 10 4 10 -4 15 -2 13 6 -2 7 3 15 10 17 6 3 12 -2 12 -11 0 -19 1
-19 34 -3 l26 14 -26 11 c-32 15 -30 16 -91 -15z"/>
<path d="M990 222 c0 -33 16 -43 27 -16 3 8 -2 23 -11 32 -15 15 -16 14 -16
-16z"/>
<path d="M745 230 c-4 -6 -12 -8 -18 -4 -7 3 -3 -2 7 -10 26 -21 36 -20 36 4
0 21 -15 27 -25 10z"/>
<path d="M802 208 c2 -12 9 -23 15 -26 19 -6 29 28 12 39 -23 14 -31 10 -27
-13z"/>
<path d="M2390 208 c0 -10 4 -18 9 -18 6 0 7 -24 4 -55 -5 -47 -3 -55 11 -55
18 0 22 15 6 25 -7 4 -7 12 0 25 14 27 12 42 -10 70 -16 20 -20 22 -20 8z"/>
<path d="M707 204 c-11 -11 -8 -42 4 -49 16 -10 19 -2 11 29 -4 15 -11 24 -15
20z"/>
<path d="M886 194 c-6 -16 8 -33 27 -34 12 0 4 43 -9 47 -6 2 -14 -4 -18 -13z"/>
<path d="M58 159 c-32 -16 -58 -34 -58 -39 0 -14 5 -13 58 14 31 16 59 23 81
20 18 -2 40 1 50 7 13 9 13 10 -6 6 -12 -3 -23 -1 -25 3 -8 21 -47 17 -100
-11z"/>
<path d="M942 174 c2 -11 11 -20 22 -22 13 -3 17 1 14 14 -2 11 -11 20 -22 22
-13 3 -17 -1 -14 -14z"/>
<path d="M2550 166 c0 -9 -7 -16 -15 -16 -17 0 -21 -45 -5 -55 6 -4 10 5 10
19 0 16 6 26 15 26 17 0 20 25 5 35 -5 3 -10 -1 -10 -9z"/>
<path d="M843 154 c-3 -8 2 -23 11 -32 15 -15 16 -14 16 16 0 33 -16 43 -27
16z"/>
<path d="M1030 159 c0 -5 -6 -7 -12 -4 -7 4 -4 -1 6 -9 26 -21 36 -20 36 4 0
11 -7 20 -15 20 -8 0 -15 -5 -15 -11z"/>
<path d="M2963 100 c0 -41 2 -58 4 -38 2 21 2 55 0 76 -2 20 -4 3 -4 -38z"/>
<path d="M207 153 c-3 -4 7 -9 21 -10 15 0 38 -4 51 -7 15 -3 21 -2 15 3 -13
14 -81 24 -87 14z"/>
<path d="M553 135 c33 -12 83 -25 206 -51 109 -23 279 -66 294 -74 13 -8 17
-7 17 4 0 17 40 32 49 18 6 -9 64 -18 171 -27 46 -4 39 -1 -49 21 -60 15 -99
29 -92 34 9 5 8 9 -4 14 -24 9 -37 7 -30 -4 3 -5 -7 -16 -22 -24 -26 -13 -47
-10 -278 45 -245 57 -345 74 -262 44z"/>
<path d="M1390 131 c0 -10 6 -23 13 -29 9 -8 13 -3 14 19 2 20 -2 29 -12 29
-8 0 -15 -8 -15 -19z"/>
<path d="M986 125 c-6 -18 2 -45 15 -45 5 0 9 14 9 30 0 32 -14 40 -24 15z"/>
<path d="M2360 111 c0 -28 -1 -29 -37 -20 -21 4 -39 6 -41 4 -7 -7 39 -26 48
-20 6 3 10 1 10 -4 0 -6 7 -11 15 -11 11 0 15 11 15 40 0 22 -2 40 -5 40 -3 0
-5 -13 -5 -29z"/>
<path d="M82 117 c-12 -7 -19 -17 -15 -22 4 -4 2 -5 -5 -1 -7 4 -23 1 -36 -8
-18 -12 -24 -24 -24 -53 0 -21 3 -32 5 -25 9 24 106 66 148 65 l40 -2 -32 10
c-40 12 -44 24 -5 16 15 -3 34 -1 42 4 11 8 9 9 -9 4 -14 -5 -21 -3 -17 3 13
21 -57 28 -92 9z m38 -22 c0 -6 -96 -55 -107 -55 -10 0 89 59 100 59 4 1 7 -1
7 -4z"/>
<path d="M397 110 c14 -15 61 -22 69 -9 3 5 -3 9 -13 9 -10 0 -29 3 -43 6 -20
5 -23 4 -13 -6z"/>
<path d="M2017 102 c-24 -11 -35 -22 -32 -31 3 -7 1 -19 -5 -26 -20 -24 4 -22
29 2 l24 23 -24 0 c-18 1 -21 3 -9 9 27 16 55 17 55 2 0 -15 112 -50 168 -53
17 -1 27 -7 27 -16 0 -12 3 -12 14 4 14 18 15 18 21 1 6 -13 11 -15 20 -7 9 8
15 8 20 0 3 -5 34 -9 68 -9 34 1 53 3 42 6 -60 14 -201 56 -210 63 -5 4 -40
14 -76 23 -36 9 -72 18 -80 21 -8 2 -31 -3 -52 -12z"/>
<path d="M2627 113 c-10 -9 -9 -41 2 -47 11 -7 21 28 12 43 -4 6 -10 8 -14 4z"/>
<path d="M1437 76 c-4 -9 -12 -15 -19 -14 -8 2 -14 -9 -16 -25 -2 -15 1 -27 7
-27 6 0 11 9 11 21 0 15 5 19 15 15 19 -7 32 21 18 35 -7 7 -12 5 -16 -5z"/>
<path d="M1695 80 c3 -5 21 -12 40 -16 28 -5 35 -11 35 -30 0 -13 5 -24 10
-24 6 0 10 9 10 21 0 11 4 18 9 15 5 -4 17 -3 27 1 12 4 -7 12 -57 24 -41 10
-75 18 -77 19 -2 0 -1 -4 3 -10z"/>
<path d="M1482 54 c2 -11 11 -20 22 -22 13 -3 17 1 14 14 -2 11 -11 20 -22 22
-13 3 -17 -1 -14 -14z"/>
<path d="M2420 50 c0 -10 69 -32 113 -35 41 -3 20 10 -45 29 -66 19 -68 19
-68 6z"/>
<path d="M79 25 c-37 -20 -40 -23 -17 -22 14 1 24 6 20 11 -3 5 2 6 12 3 11
-5 15 -3 10 4 -4 7 -1 10 7 7 8 -3 13 -11 12 -17 -2 -6 2 -11 7 -11 6 0 10 6
10 14 0 8 6 16 12 18 7 3 3 7 -8 10 -11 3 -40 -5 -65 -17z"/>
<path d="M1563 34 c-4 -12 -8 -12 -13 -3 -6 8 -11 5 -19 -10 -13 -23 -6 -26
33 -11 14 5 26 16 26 25 0 20 -19 19 -27 -1z"/>
<path d="M2054 34 c3 -9 6 -20 6 -25 0 -5 5 -9 10 -9 6 0 10 7 10 15 0 8 6 15
13 16 6 0 3 4 -8 9 -30 13 -38 12 -31 -6z"/>
</g>
</svg>
