<?xml version="1.0" standalone="no"?>
<!DOCTYPE svg PUBLIC "-//W3C//DTD SVG 20010904//EN"
 "http://www.w3.org/TR/2001/REC-SVG-20010904/DTD/svg10.dtd">
<svg version="1.0" xmlns="http://www.w3.org/2000/svg"
 width="300.000000pt" height="401.000000pt" viewBox="0 0 300.000000 401.000000"
 preserveAspectRatio="xMidYMid meet">
<metadata>
Created by potrace 1.10, written by Peter Selinger 2001-2011
</metadata>
<g transform="translate(0.000000,401.000000) scale(0.100000,-0.100000)"
fill="#000000" stroke="none">
<path d="M2161 3697 c-6 -8 -8 -17 -4 -21 4 -4 1 -11 -7 -16 -13 -8 -12 -10 3
-10 13 0 17 6 15 23 -2 14 2 22 12 22 8 0 15 -9 15 -20 0 -14 7 -20 22 -21 21
-1 21 0 -5 27 -31 33 -35 34 -51 16z"/>
<path d="M680 3661 c8 -6 17 -8 21 -5 4 2 9 -13 11 -33 l3 -38 5 43 c5 41 5
42 -25 42 -22 0 -26 -3 -15 -9z"/>
<path d="M740 3620 c0 -45 2 -50 23 -50 16 0 19 2 8 9 -20 13 -25 71 -7 71 26
0 26 16 0 18 -22 2 -24 -1 -24 -48z"/>
<path d="M2120 3629 c0 -5 9 -9 20 -9 11 0 23 -7 26 -15 5 -13 8 -13 21 0 17
17 33 20 33 5 0 -5 4 -10 10 -10 5 0 7 7 4 15 -4 8 -1 15 7 15 7 0 10 2 8 5
-3 2 -20 1 -37 -4 -18 -6 -45 -6 -62 -1 -18 5 -30 5 -30 -1z"/>
<path d="M707 3566 c-4 -10 -13 -13 -23 -9 -12 4 -15 3 -10 -5 4 -7 14 -12 23
-12 11 0 14 -6 9 -26 -5 -20 -4 -23 6 -13 13 12 18 62 7 74 -4 3 -9 -1 -12 -9z"/>
<path d="M2170 3531 c0 -6 -10 -11 -22 -11 l-23 0 23 -18 c21 -16 22 -23 16
-77 -4 -33 -11 -66 -17 -73 -7 -9 -7 -16 1 -24 13 -13 17 -62 5 -55 -5 3 -9
-28 -10 -69 0 -41 3 -74 8 -74 17 0 9 -59 -9 -72 -11 -7 -22 -20 -25 -28 -4
-8 -5 4 -2 28 14 115 13 120 -5 32 -11 -52 -18 -102 -16 -110 2 -8 4 -1 5 15
1 21 4 26 10 17 7 -11 9 -11 14 2 14 35 27 14 26 -39 -2 -39 -6 -55 -16 -55
-7 0 -13 -4 -13 -10 0 -5 5 -10 10 -10 21 0 9 -27 -17 -38 l-28 -12 29 6 c26
5 28 3 17 -10 -7 -8 -16 -15 -19 -14 -18 2 -32 -3 -32 -12 0 -6 9 -6 26 0 35
14 36 13 33 -17 -3 -41 0 -63 9 -63 4 0 9 42 10 93 2 50 5 112 7 137 2 25 4
118 5 208 1 89 6 162 11 162 5 0 9 -11 9 -24 0 -14 4 -28 10 -31 6 -4 7 6 3
26 -5 27 -4 31 10 26 10 -4 17 -2 17 4 0 5 -13 12 -28 15 -25 5 -27 9 -24 40
4 30 6 33 17 18 11 -16 12 -16 18 1 5 12 1 18 -14 22 -17 5 -20 12 -17 37 3
17 7 37 9 45 2 7 -2 16 -8 18 -7 3 -13 0 -13 -6z"/>
<path d="M741 3503 c-1 -17 -7 -23 -25 -23 -17 0 -24 -5 -24 -17 2 -49 -20
-186 -39 -233 -3 -8 -7 -24 -8 -35 -2 -11 -15 -65 -30 -119 -20 -73 -24 -101
-15 -106 8 -5 8 -9 -3 -13 -8 -3 -22 -27 -31 -53 -17 -49 -21 -93 -9 -80 4 4
8 15 8 24 0 9 8 18 18 20 15 3 16 0 7 -24 -6 -16 -7 -30 -2 -33 13 -8 6 -99
-9 -117 -9 -11 -9 -14 1 -14 7 0 19 8 26 18 13 16 13 16 14 -3 1 -18 2 -18 10
3 6 13 18 22 30 22 18 0 19 -3 10 -20 -9 -17 -8 -20 11 -20 15 0 19 5 15 15
-3 9 0 15 9 15 9 0 15 -14 18 -42 2 -24 5 36 7 132 5 200 5 222 -3 345 -3 50
-5 107 -6 128 -1 20 -4 37 -8 37 -9 0 -7 -319 1 -362 5 -27 4 -28 -37 -30
l-42 -1 40 -6 c39 -6 40 -7 43 -52 3 -37 0 -48 -14 -53 -9 -3 -18 -5 -19 -4
-1 2 -7 12 -13 23 -9 16 -11 17 -12 4 0 -9 7 -22 15 -29 8 -7 15 -17 15 -22 0
-6 -7 -5 -15 2 -20 16 -44 6 -42 -18 0 -11 6 -18 13 -15 7 2 15 0 18 -6 4 -5
-2 -9 -11 -9 -10 0 -25 -1 -33 -3 -10 -3 -15 4 -15 21 0 14 7 31 15 38 13 11
13 13 -2 23 -19 11 -25 49 -7 49 5 0 7 5 4 10 -4 6 0 43 8 83 9 40 18 90 22
112 3 22 17 101 32 175 21 114 28 136 44 137 10 1 22 -4 27 -10 8 -11 33 -148
78 -437 22 -142 22 -143 44 -137 14 4 20 0 20 -13 0 -10 -9 -20 -20 -23 -23
-6 -27 -27 -5 -27 8 0 15 -3 16 -7 0 -5 2 -18 3 -30 2 -18 -2 -23 -20 -23 -17
0 -22 -4 -18 -15 4 -8 10 -13 14 -10 4 3 13 -2 20 -10 11 -13 10 -14 -2 -10
-11 5 -14 -1 -10 -25 2 -16 9 -30 14 -30 5 0 6 -4 3 -10 -3 -5 -1 -10 4 -10 7
0 11 27 11 69 0 69 0 69 28 67 15 -1 32 -5 39 -9 8 -5 11 0 10 15 -1 28 -14
38 -50 38 -27 0 -28 2 -22 33 10 43 16 52 26 36 7 -11 9 -10 9 3 0 9 -5 20
-11 24 -6 3 -8 16 -4 28 13 45 17 88 7 82 -6 -4 -11 -14 -11 -24 0 -72 -30
-155 -32 -89 0 21 -1 21 -11 -3 l-11 -25 -7 30 c-4 17 -13 66 -20 110 -7 44
-13 87 -15 95 -1 8 -5 38 -9 65 -4 28 -13 84 -21 125 -28 147 -27 142 -24 195
1 14 -6 34 -15 44 -10 11 -13 21 -8 22 5 2 6 13 1 24 -7 19 -8 19 -8 -2z m11
-77 c10 -47 7 -51 -24 -34 -12 7 -25 14 -26 15 -2 1 -1 16 3 33 10 44 37 36
47 -14z m-32 -671 c0 -23 -4 -34 -12 -32 -19 3 -26 30 -14 50 17 27 26 20 26
-18z m245 -45 c4 -6 -8 -10 -30 -10 -22 0 -34 4 -30 10 3 6 17 10 30 10 13 0
27 -4 30 -10z"/>
<path d="M2231 3316 c-1 -15 99 -400 106 -406 3 -3 3 6 -1 20 -3 14 -18 74
-32 134 -40 175 -71 281 -73 252z"/>
<path d="M2206 3208 c16 -76 17 -88 4 -68 -8 12 -10 9 -10 -12 0 -14 -3 -34
-7 -44 -5 -14 -2 -16 15 -12 17 5 20 1 20 -21 0 -14 2 -41 6 -58 6 -24 4 -33
-6 -33 -8 0 -9 -3 -3 -8 6 -4 15 -21 21 -39 l12 -32 -47 -4 -46 -3 48 -2 c43
-2 47 -4 47 -26 0 -14 5 -28 10 -31 12 -8 12 -4 -1 70 -15 88 -28 170 -39 255
-15 105 -20 130 -30 130 -4 0 -1 -28 6 -62z"/>
<path d="M2513 2943 c2 -18 -1 -35 -7 -37 -7 -3 -7 -7 2 -13 9 -7 10 -22 3
-59 -5 -27 -9 -57 -10 -66 -4 -50 -6 -58 -12 -58 -4 0 -9 -14 -11 -30 -3 -23
-1 -30 9 -26 10 4 13 -7 12 -47 0 -45 -2 -49 -11 -29 -6 12 -15 22 -20 22 -5
0 -4 -9 2 -20 7 -14 7 -20 0 -20 -17 0 -11 -17 8 -22 27 -8 42 17 42 70 0 48
1 49 30 50 30 1 30 0 30 -56 0 -31 5 -64 10 -72 8 -10 9 8 4 60 -4 41 -8 77
-10 79 -2 2 -18 7 -36 11 l-33 8 33 1 c27 1 31 3 20 15 -9 9 -19 11 -30 5 -20
-11 -26 2 -20 44 3 20 7 25 13 16 4 -7 11 -10 15 -6 4 4 -1 16 -10 26 -14 15
-16 29 -11 63 3 23 1 61 -4 83 -9 34 -10 36 -8 8z"/>
<path d="M2066 2868 c-10 -54 -23 -98 -28 -98 -6 0 -8 -10 -5 -22 6 -20 5 -20
-10 -5 -13 12 -14 19 -5 30 12 14 7 27 -10 27 -14 0 -9 -67 7 -80 21 -17 20
-54 -1 -46 -9 3 -27 6 -40 6 -13 0 -24 4 -24 10 0 5 17 7 38 5 26 -4 33 -2 22
5 -8 5 -25 10 -37 10 -18 0 -23 6 -23 24 0 13 3 32 6 41 6 13 9 14 16 3 7 -9
8 -7 3 7 -14 37 -17 75 -7 75 6 0 13 -8 15 -17 4 -16 5 -16 6 -1 0 9 -3 20 -9
23 -5 3 -10 17 -10 31 0 23 -10 31 -23 17 -4 -3 -3 -11 2 -17 6 -7 4 -39 -4
-84 -8 -40 -12 -79 -9 -86 3 -7 -2 -13 -11 -13 -9 0 -14 6 -11 14 3 7 2 13 -3
13 -4 0 -6 11 -3 25 2 15 0 25 -7 25 -6 0 -11 -10 -12 -22 -2 -107 -8 -168
-19 -193 -7 -16 -12 -34 -11 -39 1 -5 6 -35 11 -65 l9 -56 -2 48 c-2 39 1 48
18 54 20 6 20 6 0 15 -14 6 -8 6 18 3 20 -3 37 -2 37 3 0 5 -14 9 -31 10 -17
0 -34 4 -37 7 -9 9 20 25 31 18 6 -3 7 7 3 26 -3 17 -9 45 -12 61 -4 20 -2 30
6 30 7 0 10 -6 7 -14 -3 -8 -1 -16 6 -19 7 -2 11 -22 9 -50 -1 -26 3 -47 8
-47 6 0 10 24 10 53 0 49 2 53 23 52 27 0 59 -23 51 -36 -3 -5 2 -9 10 -9 10
0 13 7 10 23 -7 31 38 271 47 255 4 -6 5 -17 2 -23 -3 -5 0 -5 7 2 9 9 10 16
3 25 -6 7 -13 24 -15 38 -1 14 -11 -19 -22 -72z"/>
<path d="M344 2923 c0 -16 -3 -41 -6 -58 -3 -16 -9 -48 -12 -70 l-6 -40 14 35
c8 19 15 29 15 23 1 -7 5 -13 11 -13 6 0 5 10 -2 25 -8 17 -8 39 -1 75 7 36 7
50 -1 50 -6 0 -11 -12 -12 -27z"/>
<path d="M381 2893 c0 -30 3 -53 9 -53 6 0 10 -20 10 -45 0 -25 4 -45 9 -45
11 0 8 80 -4 100 -5 8 -12 33 -16 55 -6 40 -7 40 -8 -12z"/>
<path d="M956 2865 c3 -22 10 -60 14 -85 l7 -45 2 38 c0 23 5 36 11 32 6 -3
10 -2 10 4 0 5 -4 11 -8 13 -5 2 -16 21 -26 43 l-17 40 7 -40z"/>
<path d="M746 2881 c15 -14 74 -31 74 -21 0 9 -21 17 -61 25 -13 3 -18 1 -13
-4z"/>
<path d="M499 2829 c-1 -8 0 -26 1 -41 1 -18 -3 -28 -12 -28 -10 0 -13 10 -10
36 3 27 1 35 -8 29 -6 -4 -10 -18 -7 -31 2 -13 0 -24 -4 -24 -5 0 -6 -7 -2
-16 3 -8 12 -13 20 -10 11 5 14 -2 13 -27 -3 -60 19 -99 34 -60 4 10 4 14 0
10 -4 -4 -13 -2 -20 3 -9 9 -9 22 2 63 13 49 12 92 -1 105 -3 3 -5 -1 -6 -9z"/>
<path d="M2233 2788 c2 -16 0 -28 -7 -28 -6 0 0 -7 12 -16 18 -12 26 -13 37
-4 21 17 19 42 -2 38 -10 -2 -24 5 -31 17 -12 19 -13 18 -9 -7z"/>
<path d="M2357 2778 c-2 -18 -4 -34 -3 -34 0 -1 8 6 18 15 14 13 14 19 3 34
-11 16 -13 14 -18 -15z"/>
<path d="M2165 2734 c-4 -29 -4 -74 -1 -99 5 -27 3 -45 -3 -45 -5 0 -12 6 -14
13 -4 8 -6 7 -6 -3 -1 -9 8 -23 19 -33 20 -17 20 -16 20 83 0 60 4 100 10 100
15 0 12 27 -4 33 -11 5 -16 -7 -21 -49z"/>
<path d="M304 2655 c0 -52 3 -95 6 -95 4 0 10 30 14 68 7 65 7 67 36 69 37 3
52 -22 47 -77 -3 -30 0 -40 11 -40 11 0 13 8 8 35 -5 25 -3 35 6 35 9 0 9 3
-2 10 -17 10 -20 32 -7 41 15 10 -33 36 -78 43 l-40 5 -1 -94z m97 58 c12 -15
12 -16 -4 -10 -10 4 -32 7 -48 7 -18 0 -28 4 -24 10 10 16 61 11 76 -7z"/>
<path d="M2386 2735 c-9 -26 -7 -35 8 -35 23 0 30 20 14 37 -14 13 -16 13 -22
-2z"/>
<path d="M456 2699 c-10 -50 -7 -69 9 -69 9 0 15 9 15 25 0 14 -6 25 -12 25
-8 0 -9 3 -3 8 12 8 16 42 5 42 -4 0 -10 -14 -14 -31z"/>
<path d="M1006 2653 c6 -32 15 -66 19 -75 8 -21 5 -21 -29 -8 -14 5 -26 7 -26
4 0 -16 23 -44 35 -44 12 0 15 -15 15 -65 0 -36 3 -65 8 -65 6 0 8 56 4 118
-1 12 -8 22 -16 22 -8 0 -18 4 -21 10 -4 6 4 9 17 7 29 -3 32 28 11 93 -22 67
-31 69 -17 3z"/>
<path d="M2197 2679 c4 -14 12 -19 24 -16 18 5 20 2 23 -43 1 -8 5 -21 9 -27
5 -8 4 -13 -2 -13 -5 0 -13 5 -16 10 -11 18 -34 11 -32 -10 2 -24 17 -27 17
-3 0 14 3 13 20 -5 12 -12 23 -22 25 -22 2 0 3 34 3 75 l0 75 -38 0 c-34 0
-37 -2 -33 -21z"/>
<path d="M2285 2658 c2 -18 8 -32 14 -30 6 1 11 -7 11 -19 0 -11 -4 -17 -10
-14 -7 4 -8 -3 -4 -22 9 -37 14 -42 14 -12 1 20 2 22 13 9 24 -29 37 -22 37
21 0 36 2 40 15 29 8 -7 15 -10 15 -7 0 3 3 12 6 20 4 11 -1 13 -20 10 -19 -4
-26 -12 -26 -29 0 -15 -6 -24 -15 -24 -8 0 -15 8 -15 18 0 17 -27 82 -35 82
-1 0 -1 -15 0 -32z"/>
<path d="M542 2650 c3 -16 1 -30 -4 -30 -5 0 -4 -9 2 -20 15 -29 26 -18 28 28
2 29 -2 41 -14 46 -13 5 -16 1 -12 -24z"/>
<path d="M638 2674 c-5 -4 -8 -17 -8 -30 0 -12 -4 -24 -9 -26 -4 -1 0 -11 9
-21 17 -17 18 -17 22 0 6 26 -6 86 -14 77z"/>
<path d="M758 2663 c6 -2 9 -10 6 -15 -4 -7 -2 -8 4 -4 7 4 16 -3 22 -18 5
-14 17 -29 27 -35 15 -8 19 -6 19 10 0 12 -7 19 -18 19 -13 0 -18 8 -18 25 0
21 -5 25 -27 24 -16 0 -22 -3 -15 -6z"/>
<path d="M2060 2625 c0 -7 8 -19 18 -25 14 -9 14 -10 -6 -5 -21 6 -22 5 -10
-14 7 -12 16 -21 20 -21 9 0 15 31 10 58 -5 24 -32 31 -32 7z"/>
<path d="M2544 2600 c1 -21 5 -43 9 -47 5 -4 7 12 6 35 -4 54 -17 65 -15 12z"/>
<path d="M497 2605 c-4 -25 4 -40 17 -28 9 9 7 41 -3 47 -5 3 -11 -6 -14 -19z"/>
<path d="M676 2605 c-9 -30 -7 -35 9 -35 9 0 15 9 15 23 1 20 2 21 14 5 17
-24 36 -23 36 1 0 14 -9 20 -34 23 -28 3 -36 0 -40 -17z"/>
<path d="M450 2600 c12 -22 30 -18 30 6 0 8 -9 14 -20 14 -18 0 -19 -3 -10
-20z"/>
<path d="M2027 2603 c-12 -12 -7 -53 6 -53 9 0 12 10 9 30 -5 32 -5 33 -15 23z"/>
<path d="M2386 2575 c9 -39 14 -44 14 -15 0 22 1 23 20 5 19 -18 20 -17 20 2
0 12 -8 23 -20 26 -11 3 -20 0 -20 -6 0 -7 -5 -6 -10 3 -8 11 -9 7 -4 -15z"/>
<path d="M289 2544 c-2 -10 -2 -6 6 -69 7 -59 10 -64 19 -29 6 24 10 26 44 20
20 -3 49 -6 64 -6 22 0 25 -3 20 -22 -3 -13 -1 -19 6 -15 5 4 13 1 16 -5 3 -7
4 -1 2 15 -3 24 0 27 26 27 17 0 27 -4 23 -10 -3 -6 1 -18 11 -27 16 -17 17
-16 12 10 -5 24 -2 27 22 27 23 0 27 -4 23 -19 -3 -11 2 -21 12 -25 14 -5 16
-2 11 20 -6 24 -5 26 16 20 13 -3 26 -6 30 -6 4 0 5 -8 3 -18 -2 -11 3 -19 11
-19 8 0 14 9 14 19 0 12 7 18 24 18 18 0 23 -4 19 -18 -3 -12 1 -19 11 -19 9
0 16 9 16 19 0 12 7 18 24 18 19 0 24 -5 21 -18 -2 -11 3 -19 12 -19 9 0 13 7
10 19 -4 14 1 18 23 18 23 0 27 -4 23 -19 -3 -11 2 -30 10 -42 9 -11 13 -28
10 -37 -5 -12 -1 -14 18 -9 13 4 32 7 42 7 9 0 17 5 17 11 0 5 -4 8 -9 4 -5
-3 -13 0 -17 6 -5 8 -8 8 -14 0 -5 -9 -10 -8 -19 3 -11 13 -7 15 27 13 22 -1
38 1 36 5 -3 5 -23 8 -45 8 -38 0 -40 2 -37 27 2 19 10 27 27 30 37 5 38 13 3
13 -18 0 -32 5 -32 10 0 6 3 9 8 9 18 -3 32 2 32 12 0 5 -5 7 -10 4 -5 -3 -10
-1 -10 4 0 14 57 14 65 1 4 -6 11 -7 17 -4 30 19 -35 26 -288 29 -153 2 -307
7 -341 11 -35 3 -64 2 -64 -2z m276 -29 c55 -2 147 -4 205 -5 58 -1 97 -4 87
-7 -9 -2 -15 -9 -11 -14 3 -5 9 -7 13 -5 4 3 8 -1 8 -9 0 -13 -31 -14 -216
-10 -119 3 -243 8 -277 11 -59 5 -61 6 -56 31 5 25 5 25 76 18 39 -4 116 -9
171 -10z"/>
<path d="M1908 2513 c-10 -2 -18 -9 -18 -14 0 -6 5 -7 10 -4 6 3 10 1 10 -4 0
-6 -4 -11 -9 -11 -5 0 -8 -18 -7 -41 0 -30 -5 -45 -19 -55 -14 -11 -19 -24
-16 -47 1 -18 4 -33 6 -35 5 -6 35 11 35 20 0 5 -5 6 -11 2 -7 -4 -10 -1 -7 7
3 8 10 13 16 12 5 -1 8 7 5 17 -4 15 -2 19 10 14 12 -4 14 -14 11 -37 -3 -18
-6 -40 -7 -50 -1 -12 -12 -20 -29 -24 -32 -6 -35 -21 -13 -83 10 -29 15 -82
15 -170 0 -100 3 -129 14 -133 20 -8 26 2 25 37 -1 29 -1 30 -8 6 -11 -41 -17
-2 -10 75 l5 70 3 -55 c2 -41 5 -50 11 -35 6 14 9 3 9 -40 1 -64 7 -80 30 -80
10 0 16 -15 19 -50 2 -27 6 -52 8 -54 7 -7 4 101 -6 174 -6 47 -5 74 2 82 8
10 7 13 -3 13 -11 0 -11 3 1 11 13 9 13 10 0 6 -8 -2 -14 -12 -14 -21 1 -9 -4
-16 -12 -16 -17 0 -27 17 -14 25 5 3 10 12 10 18 0 7 -4 6 -10 -3 -8 -12 -10
-10 -10 8 0 13 4 20 10 17 7 -4 7 2 0 19 -6 16 -6 27 0 31 6 4 10 11 10 16 0
6 -5 7 -11 3 -8 -4 -9 1 -3 17 4 13 6 38 5 56 -1 17 5 38 14 47 15 15 15 16
-5 16 -13 0 -20 5 -17 13 2 6 9 12 15 12 5 0 13 3 17 7 4 3 -5 5 -19 4 -14 -2
-26 0 -26 3 1 17 18 28 41 27 17 -1 25 3 22 11 -3 6 -11 9 -19 6 -7 -3 -17 2
-20 11 -3 9 -14 16 -24 16 -11 0 -22 5 -25 10 -3 6 -1 10 4 10 6 0 11 9 11 20
0 17 7 20 43 22 l42 1 -45 6 c-25 3 -44 9 -42 14 1 4 2 14 2 23 0 14 10 16 78
10 42 -3 170 -7 285 -7 161 -1 207 -4 207 -14 0 -19 34 -24 50 -7 13 14 12 15
-3 9 -9 -3 -19 -2 -22 3 -4 6 14 10 41 10 26 0 44 3 40 7 -4 4 -114 8 -244 9
-130 2 -280 5 -332 7 -52 3 -103 3 -112 0z m10 -308 c2 -34 -1 -45 -13 -45
-17 0 -20 16 -4 26 7 4 7 10 1 16 -7 7 -7 17 1 29 7 11 12 19 13 19 0 0 2 -20
2 -45z"/>
<path d="M960 2460 c-10 -6 -11 -10 -2 -10 6 0 12 -8 12 -18 0 -20 35 -62 50
-62 6 0 10 5 10 10 0 6 -6 10 -14 10 -8 0 -20 18 -28 40 -10 31 -16 37 -28 30z"/>
<path d="M390 2418 c4 -18 9 -37 10 -43 6 -23 -1 -96 -8 -91 -4 2 -9 -4 -9
-15 -1 -11 2 -17 8 -14 5 4 9 1 9 -4 0 -10 -9 -13 -27 -9 -5 0 -7 9 -5 20 2
10 -2 18 -7 18 -14 0 -14 -47 -1 -55 6 -4 7 -11 4 -17 -4 -7 -2 -8 5 -4 8 5
11 -4 9 -32 -2 -30 -6 -38 -15 -30 -9 8 -12 2 -12 -23 1 -30 -15 -89 -24 -89
-1 0 -3 27 -4 59 -1 56 0 60 25 66 15 4 21 10 15 12 -7 3 -13 13 -13 24 0 10
-4 19 -10 19 -15 0 -12 77 3 83 6 3 3 6 -8 6 -16 1 -20 -5 -20 -31 0 -90 -18
-388 -24 -388 -3 0 -4 -27 -3 -60 3 -51 7 -60 23 -60 25 0 26 46 1 73 -17 19
-16 20 12 15 28 -6 28 -5 24 36 -6 51 6 151 22 191 7 17 15 46 17 65 8 72 21
54 30 -41 8 -94 8 -91 -1 -171 l-7 -67 45 -6 c25 -4 53 -5 61 -1 8 3 15 2 15
-2 0 -6 190 -7 240 -1 49 5 -85 18 -196 18 l-131 1 -7 31 c-3 17 -3 36 0 41 4
6 6 66 5 133 -1 117 1 126 28 178 20 39 26 59 19 71 -14 26 -26 19 -22 -14 2
-16 -1 -32 -6 -35 -6 -4 -10 9 -10 29 0 25 -5 36 -14 36 -10 0 -13 8 -11 21 6
30 15 37 15 11 0 -12 5 -22 11 -22 5 0 7 5 4 10 -6 9 4 13 40 13 30 0 35 -3
35 -18 0 -8 -9 -15 -20 -15 -13 0 -18 -5 -14 -15 5 -12 11 -11 34 8 15 12 23
25 17 28 -17 11 27 16 51 5 12 -5 22 -17 22 -28 0 -23 -26 -24 -34 -1 -5 12
-10 13 -18 5 -8 -8 -8 -15 1 -26 16 -19 -4 -32 -25 -15 -8 6 -18 9 -22 5 -4
-4 3 -16 16 -27 13 -10 28 -31 33 -46 8 -25 9 -24 5 9 -4 30 -1 40 14 48 17 9
20 6 26 -17 10 -48 14 -50 10 -5 -3 30 -1 42 7 39 7 -3 11 -9 10 -15 -1 -5 6
-8 17 -5 14 4 21 -1 26 -21 3 -14 12 -26 19 -26 17 0 30 -20 19 -29 -15 -11
-34 -50 -34 -71 0 -11 -6 -20 -12 -20 -9 0 -9 -3 1 -9 9 -6 15 -28 17 -53 2
-58 1 -56 27 -61 l22 -4 -22 -2 c-25 -1 -33 -35 -10 -44 10 -4 10 -6 0 -6 -17
-1 -17 -29 0 -45 16 -17 48 -17 39 0 -11 19 -2 201 9 183 7 -12 9 -11 9 3 0 9
-5 18 -11 20 -6 2 -12 19 -13 38 -2 19 -6 44 -10 55 -7 19 -7 19 7 3 17 -22
47 -24 47 -3 0 9 -8 14 -21 12 -28 -3 -36 19 -10 28 13 4 18 12 14 21 -4 11
-9 12 -16 5 -14 -14 -37 -14 -37 0 0 7 7 17 16 24 15 11 13 15 -19 40 -29 24
-33 31 -22 42 16 15 29 17 20 3 -3 -5 1 -10 9 -10 10 0 13 -6 9 -17 -4 -10 5
-4 19 12 26 30 27 30 42 10 15 -20 15 -20 16 0 0 17 2 17 10 5 6 -10 10 -11
10 -2 0 6 4 12 9 12 11 0 7 -47 -4 -58 -5 -4 -5 1 -2 11 4 10 3 16 -2 13 -12
-8 -20 -56 -10 -56 5 0 9 6 9 13 0 8 3 7 9 -3 12 -18 3 -33 -15 -26 -7 3 -16
1 -19 -5 -4 -5 -10 -7 -14 -4 -5 2 -3 -12 4 -33 11 -32 18 -37 47 -40 25 -2
29 0 18 8 -13 9 -13 11 0 20 13 10 13 11 0 9 -8 -1 -24 -1 -35 0 -17 1 -18 3
-5 12 12 9 12 10 -3 5 -12 -4 -17 -2 -14 6 2 7 13 12 25 10 15 -2 23 3 26 20
8 37 12 108 6 109 -4 1 -135 3 -412 8 -44 1 -48 3 -48 26 0 14 -4 25 -9 25 -5
0 -5 -14 -1 -32z m275 -46 c6 -4 10 -13 9 -19 -1 -7 -2 -17 -3 -23 0 -5 -8
-10 -17 -10 -12 0 -15 6 -10 24 5 21 2 25 -21 29 l-28 4 30 1 c17 1 35 -2 40
-6z m-227 -70 c-1 -15 1 -33 6 -40 4 -6 2 -20 -3 -29 -6 -10 -11 -12 -11 -5 0
6 -5 12 -10 12 -7 0 -7 -6 0 -19 14 -28 12 -38 -3 -16 -8 10 -19 15 -25 11 -7
-4 -12 -3 -12 3 0 5 5 11 11 13 13 4 40 78 33 90 -3 4 0 8 6 8 5 0 9 -13 8
-28z m-108 -339 c-5 -19 -12 -38 -16 -41 -4 -4 -4 1 -1 11 4 10 7 35 7 55 0
25 3 32 9 23 5 -7 5 -29 1 -48z"/>
<path d="M2482 2412 c-1 -20 -4 -38 -7 -40 -6 -6 -128 -11 -147 -6 -9 3 -21
18 -27 34 -10 29 -9 30 21 30 21 0 29 -4 25 -14 -3 -7 0 -19 6 -25 19 -19 27
-12 17 13 -9 24 -8 25 43 29 29 2 -51 3 -178 3 l-230 -1 3 -27 c2 -24 -1 -28
-25 -29 l-28 -1 30 -7 c17 -3 31 -12 31 -19 1 -6 2 -14 4 -17 7 -19 1 -78 -10
-85 -7 -5 2 -7 23 -6 19 0 39 5 44 10 5 5 1 7 -9 3 -10 -4 -19 -3 -19 1 -1 4
-3 16 -4 27 -2 11 -6 32 -10 48 -7 25 -5 27 21 26 l29 -1 -25 -8 c-22 -7 -21
-8 13 -9 23 -1 36 3 32 9 -3 6 -1 10 4 10 6 0 11 -4 11 -10 0 -5 8 -10 18 -11
9 0 12 -3 5 -5 -7 -3 -10 -11 -7 -18 3 -7 -4 -12 -16 -12 -22 0 -27 12 -7 19
6 2 0 4 -15 4 -24 0 -25 -2 -15 -18 7 -11 18 -17 24 -14 7 2 13 0 13 -5 0 -6
-9 -10 -21 -10 -11 0 -18 -4 -15 -9 9 -13 -18 -72 -30 -67 -7 3 -10 -3 -7 -15
3 -10 0 -25 -6 -33 -7 -8 -9 -27 -6 -42 22 -122 27 -163 22 -206 -7 -59 6 -78
53 -78 17 0 29 -3 27 -7 -3 -5 21 -8 53 -8 32 0 56 3 53 8 -6 9 17 8 42 -3 11
-5 14 -9 7 -9 -7 -1 -11 -5 -8 -10 3 -5 -1 -11 -9 -15 -8 -3 -15 -10 -15 -16
0 -6 7 -4 16 4 8 9 20 13 25 10 6 -3 10 0 8 7 -3 28 1 39 17 39 8 0 22 7 31
16 13 12 15 35 11 124 -5 112 -2 127 12 68 l8 -33 1 32 c1 17 -6 38 -14 47 -8
8 -15 21 -15 30 0 20 -21 66 -30 66 -14 0 -23 -44 -24 -117 -1 -52 3 -73 12
-73 6 0 12 -3 13 -7 0 -5 2 -23 3 -40 2 -18 0 -30 -5 -27 -5 3 -9 -4 -9 -15 0
-12 5 -21 10 -21 6 0 10 -4 10 -10 0 -5 -7 -10 -16 -10 -8 0 -12 -4 -9 -10 3
-5 -3 -10 -14 -10 -17 0 -19 7 -19 53 0 167 -5 242 -20 265 l-16 24 -18 -24
c-24 -31 -23 -45 7 -61 l26 -13 -21 -26 c-18 -23 -19 -28 -5 -35 9 -6 16 -24
17 -49 0 -21 5 -45 11 -51 6 -8 6 -13 0 -13 -5 0 -8 -16 -7 -35 l3 -35 -52 -1
c-29 -1 -56 0 -62 1 -5 2 -22 5 -37 8 -16 2 -28 5 -29 6 0 0 -3 72 -5 159 -4
144 -3 161 16 205 20 45 65 102 81 102 11 0 21 -38 14 -50 -5 -8 -11 -7 -21 1
-22 18 -30 2 -10 -20 9 -10 21 -32 26 -47 9 -27 10 -27 7 9 -2 28 1 41 14 47
21 12 32 -10 23 -46 -4 -16 -2 -24 6 -24 9 0 11 12 7 45 -6 37 -4 45 9 45 10
0 14 -6 11 -14 -4 -10 0 -13 15 -11 14 3 22 -2 25 -15 6 -23 19 -26 30 -6 13
21 51 38 58 26 10 -16 -16 -42 -37 -37 -21 6 -23 -2 -5 -27 12 -17 14 -17 20
-2 4 9 13 16 21 16 10 0 13 6 9 18 -4 12 1 9 18 -8 13 -14 22 -26 19 -28 -3
-1 -4 -20 -2 -42 3 -27 8 -38 16 -33 7 5 7 2 -1 -8 -13 -16 -25 -269 -13 -269
3 0 6 -8 6 -19 0 -13 -5 -17 -16 -13 -13 5 -13 3 -1 -11 11 -14 11 -17 0 -17
-9 -1 -8 -4 4 -11 9 -6 15 -14 12 -18 -2 -5 3 -15 12 -22 15 -13 16 -6 8 96
-4 61 -8 124 -8 140 0 36 13 138 19 144 2 3 -3 15 -11 28 -9 13 -11 23 -5 23
5 0 10 -4 10 -10 0 -5 6 -10 14 -10 10 0 17 -17 21 -55 5 -33 11 -52 17 -49 7
5 7 1 0 -12 -6 -12 -7 -27 0 -43 5 -14 9 -52 8 -86 0 -33 3 -86 6 -117 5 -49
9 -58 25 -58 15 0 18 5 14 23 -3 12 -7 37 -8 54 -1 20 -7 33 -15 33 -10 0 -9
4 3 16 9 10 13 20 8 23 -12 9 -12 41 0 41 7 0 7 4 -1 12 -7 7 -12 26 -12 42 0
25 2 28 11 16 7 -11 8 17 2 95 -4 61 -7 127 -8 148 l0 38 -37 -6 -38 -7 0 54
c0 48 2 54 21 55 17 2 19 -1 10 -10 -22 -22 -13 -40 16 -32 38 9 41 14 19 31
-17 12 -17 14 -4 14 9 0 20 -9 23 -20 7 -22 20 -26 31 -8 4 6 3 8 -4 4 -6 -3
-13 3 -17 14 -4 14 -15 20 -36 20 -26 0 -29 3 -29 31 0 31 1 31 45 27 57 -4
44 8 -15 14 l-45 5 -3 -35z m-415 12 c-8 -8 11 -44 23 -44 6 0 6 9 0 25 -9 23
-7 25 20 25 17 0 29 -3 28 -7 -1 -5 3 -18 10 -30 12 -22 12 -23 -35 -23 -72 0
-93 8 -93 36 0 19 5 24 27 24 14 0 23 -3 20 -6z m145 -16 c2 -12 9 -23 16 -26
9 -3 10 2 2 22 -9 24 -8 26 21 26 23 0 30 -4 26 -14 -3 -8 1 -20 9 -27 22 -18
0 -28 -46 -22 -27 4 -39 1 -43 -9 -4 -12 8 -14 69 -12 58 2 74 -1 74 -12 0 -8
4 -14 10 -14 5 0 7 8 4 18 -5 16 -5 16 6 0 13 -22 32 -24 24 -3 -4 10 0 15 11
15 11 0 15 -5 11 -15 -8 -21 11 -19 23 3 10 16 12 13 15 -20 1 -7 6 -16 11
-20 9 -7 -35 -13 -59 -9 -4 1 -14 -3 -21 -9 -9 -7 -16 -6 -25 5 -7 9 -8 15 -2
15 6 0 12 -5 14 -12 3 -7 7 -5 11 6 6 14 2 17 -16 14 -14 -2 -21 -9 -19 -20 3
-21 -13 -32 -34 -20 -14 8 -14 10 0 22 13 10 14 16 5 26 -15 18 -30 18 -23 0
7 -18 -15 -31 -28 -18 -8 8 -7 16 2 27 11 13 9 15 -9 15 -18 0 -21 -4 -16 -20
10 -31 -19 -35 -47 -7 -22 21 -23 26 -9 35 12 8 13 13 4 19 -6 5 -16 21 -22
36 -10 26 -9 27 19 27 22 0 29 -5 32 -22z m214 -178 c2 0 0 9 -6 19 -14 27
-13 31 11 31 11 0 17 -5 14 -10 -7 -11 17 -40 33 -40 14 0 24 -28 27 -71 2
-33 1 -35 -15 -20 -9 9 -15 19 -13 24 2 4 -5 7 -17 7 -17 0 -19 4 -14 25 5 19
2 25 -9 25 -16 0 -47 37 -47 55 1 5 8 -2 16 -17 8 -16 17 -28 20 -28z"/>
<path d="M293 2373 c4 -20 14 -44 23 -52 15 -15 16 -14 11 6 -3 13 -1 26 5 29
5 3 2 14 -7 24 -16 18 -15 19 22 23 35 3 34 4 -11 5 l-49 2 6 -37z"/>
<path d="M1401 2371 c-9 -6 -10 -11 -2 -15 6 -4 9 -13 5 -19 -3 -7 1 -4 9 6
19 23 45 21 68 -5 10 -13 18 -17 19 -10 0 6 -4 12 -10 12 -5 0 -10 6 -10 14 0
24 -51 35 -79 17z"/>
<path d="M976 2350 c4 -14 7 -25 8 -25 0 0 11 -5 23 -12 19 -11 22 -10 20 6
-1 11 -7 17 -17 14 -10 -3 -21 5 -28 19 l-12 23 6 -25z"/>
<path d="M754 2336 c-3 -8 0 -25 7 -38 11 -19 14 -20 17 -6 2 9 11 19 20 22 9
3 5 4 -11 2 -23 -3 -27 0 -22 15 7 22 -3 26 -11 5z"/>
<path d="M892 2305 c3 -14 1 -28 -4 -31 -4 -3 -6 -10 -3 -15 4 -5 2 -9 -4 -9
-5 0 -11 4 -13 9 -1 5 -9 2 -17 -6 -11 -12 -10 -14 5 -11 13 2 20 -6 25 -29 6
-32 5 -33 -25 -34 -17 -1 -34 -1 -37 -1 -12 2 -34 -221 -31 -311 1 -28 -2 -36
-11 -31 -8 5 -7 2 2 -9 7 -10 9 -17 3 -17 -7 0 -7 -10 1 -30 18 -48 27 -15 26
106 0 115 7 164 25 176 7 5 6 8 -3 8 -10 0 -11 3 -2 14 6 8 11 18 10 22 -1 5
-1 21 0 37 1 23 5 27 31 27 l30 0 -20 -20 c-12 -12 -18 -26 -13 -33 4 -7 8
-70 9 -142 3 -240 2 -225 25 -225 18 0 20 5 17 50 -2 31 -8 50 -15 50 -15 0
-6 61 10 71 5 4 8 28 5 53 -3 25 -2 43 3 40 5 -3 9 4 9 15 0 24 -16 36 -24 19
-3 -7 -2 -2 2 12 4 14 6 69 5 123 -1 72 2 97 11 97 14 0 49 -34 41 -41 -2 -3
7 -6 20 -7 14 -1 25 3 25 8 0 5 -7 7 -15 4 -8 -4 -15 -1 -15 4 0 6 10 12 22
14 12 2 23 9 24 16 1 7 0 8 -3 2 -7 -15 -39 -12 -53 5 -8 9 -22 12 -42 8 -28
-6 -31 -4 -26 15 4 12 2 22 -4 22 -6 0 -8 -11 -6 -25z"/>
<path d="M1280 2224 c-58 -58 -111 -112 -119 -121 -8 -8 -24 -13 -38 -10 -19
3 -23 0 -23 -19 0 -12 4 -25 8 -28 7 -4 234 219 271 267 30 38 0 12 -99 -89z"/>
<path d="M1433 2304 c-4 -10 -7 -33 -7 -51 0 -26 -2 -29 -11 -16 -9 12 -14 13
-19 4 -4 -6 -12 -8 -18 -5 -6 4 -8 2 -5 -3 4 -6 0 -16 -8 -23 -13 -11 -14 -10
-8 6 6 16 5 17 -9 4 -11 -11 -12 -17 -4 -22 10 -7 1 -12 -17 -9 -5 1 -6 -2 -3
-7 8 -13 -33 -54 -46 -46 -6 4 -5 -3 2 -16 6 -12 9 -24 6 -28 -3 -3 -6 0 -6 6
0 6 -9 10 -19 9 -11 0 -19 -6 -18 -11 1 -6 -3 -10 -10 -11 -6 0 -14 -3 -17 -7
-3 -5 -3 -6 0 -3 4 2 13 -2 21 -10 8 -8 26 -15 41 -15 15 0 22 -4 16 -8 -5 -4
-8 -28 -6 -54 4 -46 5 -48 36 -48 18 0 38 6 45 13 8 6 11 7 8 1 -4 -7 7 -11
31 -11 20 0 67 -3 104 -8 l67 -7 3 53 c2 34 8 54 16 55 22 3 23 4 12 24 -7 14
-7 20 0 20 5 0 10 -7 10 -15 0 -8 7 -15 15 -15 21 0 20 4 -22 48 -73 77 -80
89 -48 82 6 -1 -3 12 -19 29 -36 38 -49 42 -15 5 l24 -27 -30 7 -30 8 29 -31
c21 -22 30 -43 33 -78 5 -42 1 -53 -22 -81 -26 -31 -26 -32 -5 -32 13 0 19 4
14 12 -4 6 -3 8 4 4 5 -3 12 0 15 6 2 7 4 1 4 -15 0 -15 -4 -30 -10 -34 -6 -4
-7 -1 -2 7 5 8 3 11 -6 8 -8 -3 -13 -11 -11 -17 1 -7 -2 -10 -8 -6 -6 3 -8 10
-5 15 9 14 -21 18 -61 8 -105 -28 -191 87 -134 179 27 44 73 66 126 60 24 -2
45 -2 48 0 3 3 -6 17 -20 32 -14 14 -30 35 -36 46 -10 18 -10 19 6 6 24 -20
30 -8 6 14 -19 17 -20 17 -27 -1z m-92 -325 c11 -11 19 -22 17 -24 -7 -7 -51
20 -56 33 -6 19 16 14 39 -9z"/>
<path d="M2502 2288 c3 -7 13 -15 23 -16 10 -2 15 0 11 6 -3 6 4 13 16 15 14
3 8 5 -15 6 -27 1 -37 -3 -35 -11z"/>
<path d="M484 2259 c-6 -10 11 -28 28 -29 17 0 17 20 -1 30 -14 7 -22 7 -27
-1z"/>
<path d="M1798 2227 c-5 -10 -8 -33 -8 -52 0 -18 -3 -47 -6 -64 -6 -28 -10
-31 -43 -31 l-36 0 27 -26 c34 -35 53 -26 63 28 7 39 8 41 15 18 5 -14 8 -42
9 -62 1 -23 6 -38 14 -38 9 0 9 -2 0 -8 -8 -5 -9 -26 -4 -69 5 -39 3 -67 -3
-73 -7 -7 -1 -10 18 -10 25 0 27 2 16 16 -11 12 -11 15 1 12 8 -2 17 -7 21
-13 5 -6 8 -3 8 7 0 10 -8 22 -17 27 -15 8 -18 23 -18 100 0 61 -3 91 -11 91
-13 0 -33 67 -36 125 -2 29 -5 35 -10 22z"/>
<path d="M2110 2225 c0 -8 6 -15 14 -15 21 0 26 -25 10 -55 -18 -34 -18 -30 9
-55 l22 -21 -21 -18 -22 -17 21 -17 c12 -9 16 -17 9 -17 -7 0 -12 -8 -12 -17
0 -14 2 -15 9 -4 6 9 10 0 13 -28 2 -29 0 -41 -9 -41 -7 0 -13 -7 -13 -15 0
-17 30 -55 44 -55 5 0 7 59 4 144 -5 123 -9 151 -28 190 -23 46 -50 68 -50 41z"/>
<path d="M526 2186 c-21 -34 -20 -53 4 -61 24 -8 25 -18 5 -35 -20 -17 -19
-37 3 -43 16 -4 16 -5 0 -6 -11 -1 -18 -9 -18 -20 0 -11 8 -22 18 -24 16 -4
16 -5 0 -6 -14 -1 -18 -10 -18 -35 0 -19 -6 -37 -12 -39 -7 -3 -3 -6 10 -6 12
-1 22 -7 22 -16 0 -19 16 -19 24 0 3 8 4 78 3 155 -2 149 -11 180 -41 136z"/>
<path d="M624 2193 c-4 -13 -10 -23 -15 -23 -17 0 -9 -39 10 -45 48 -15 65 21
31 65 l-20 25 -6 -22z"/>
<path d="M2397 2187 c-3 -9 -13 -17 -22 -17 -8 0 -15 -4 -15 -9 0 -4 13 -8 30
-7 32 1 32 1 21 30 -7 18 -8 18 -14 3z"/>
<path d="M959 2155 c-1 -22 -2 -49 -2 -60 1 -33 15 -150 19 -154 9 -9 3 225
-6 239 -7 11 -10 5 -11 -25z"/>
<path d="M1057 2163 c-4 -3 -7 -22 -6 -42 0 -20 3 -30 6 -22 5 11 7 11 15 0 7
-10 8 -8 3 6 -4 11 -7 30 -6 43 1 23 -1 26 -12 15z"/>
<path d="M460 2146 c0 -8 8 -17 18 -21 16 -7 16 -8 -2 -14 -11 -4 -15 -10 -10
-13 5 -4 18 0 29 8 10 8 13 14 7 14 -7 0 -12 9 -12 20 0 11 -7 20 -15 20 -8 0
-15 -6 -15 -14z"/>
<path d="M1630 2143 c0 -4 17 -24 37 -43 20 -19 32 -28 25 -19 -6 9 -9 18 -6
21 3 3 -9 16 -25 28 -17 12 -31 18 -31 13z"/>
<path d="M1978 2089 c4 -36 22 -57 22 -25 0 8 6 17 13 19 7 3 5 6 -5 6 -10 1
-18 5 -18 11 0 5 6 7 13 4 8 -3 14 1 14 8 0 7 -10 14 -21 14 -19 1 -21 -3 -18
-37z"/>
<path d="M591 2109 c8 -5 22 -9 32 -9 17 0 17 -1 3 -16 -22 -21 -20 -32 7 -37
l22 -4 -22 -2 c-28 -1 -32 -37 -5 -44 16 -4 16 -5 0 -6 -11 -1 -18 -9 -18 -22
0 -11 4 -18 9 -14 5 3 12 1 16 -5 3 -5 0 -10 -7 -10 -7 0 -18 -8 -25 -19 -10
-16 -9 -18 10 -17 13 1 21 -4 20 -11 -2 -7 3 -13 11 -13 11 0 15 23 18 103 2
56 1 109 -2 117 -3 9 -19 15 -44 16 -24 1 -33 -2 -25 -7z"/>
<path d="M1412 2108 c-26 -26 1 -65 38 -53 16 5 20 14 18 33 -3 30 -35 41 -56
20z"/>
<path d="M1008 2034 c-1 -36 0 -73 3 -82 4 -10 -1 -25 -12 -37 -10 -11 -18
-24 -18 -30 0 -5 -4 -11 -9 -13 -5 -1 -15 19 -20 45 l-11 48 3 -45 c2 -25 7
-52 11 -62 4 -11 1 -18 -12 -21 -10 -3 3 -5 29 -6 44 -1 47 0 53 30 5 23 9 28
16 18 6 -9 8 4 8 36 -2 47 -2 48 -9 15 -9 -40 -11 -28 -12 53 0 64 8 89 10 31
2 -42 12 -60 12 -21 0 19 6 27 23 30 l22 4 -22 2 c-16 1 -23 7 -23 20 0 29
-11 51 -25 51 -9 0 -14 -20 -17 -66z"/>
<path d="M1487 2078 c-2 -13 -8 -31 -12 -40 -5 -13 -2 -18 10 -18 13 0 16 6
12 21 -4 15 -2 19 9 15 8 -3 12 -2 9 3 -3 5 0 13 6 17 8 4 7 9 -2 15 -21 13
-26 11 -32 -13z"/>
<path d="M2403 1990 c0 -47 2 -66 4 -42 2 23 2 61 0 85 -2 23 -4 4 -4 -43z"/>
<path d="M1377 2053 c-4 -3 -7 -12 -7 -20 0 -15 26 -18 34 -4 7 11 -18 33 -27
24z"/>
<path d="M2011 2039 c-1 -15 -3 -39 -5 -55 -2 -16 -1 -23 1 -16 3 7 8 10 12 8
4 -3 5 12 3 32 -5 49 -10 64 -11 31z"/>
<path d="M1169 2038 c-1 -7 -1 -18 0 -25 1 -6 -9 -19 -21 -27 -12 -9 -18 -16
-13 -16 5 0 0 -7 -11 -15 -18 -13 -17 -14 19 -15 l38 0 -2 55 c-2 50 -7 73
-10 43z"/>
<path d="M1215 2029 c-19 -20 -15 -30 19 -42 15 -5 13 -127 -1 -127 -7 0 -13
9 -13 20 0 11 -5 20 -11 20 -8 0 -7 6 2 18 12 15 12 16 -1 5 -9 -6 -17 -24
-18 -40 -2 -26 1 -28 38 -31 l40 -2 0 83 c0 69 -3 87 -18 101 -18 15 -20 15
-37 -5z"/>
<path d="M1617 2022 c-13 -14 -17 -38 -17 -98 l0 -80 40 4 40 4 -6 42 c-4 22
-11 46 -16 51 -6 6 -7 -3 -3 -23 5 -28 3 -33 -12 -30 -12 2 -17 11 -15 26 2
12 -1 22 -7 22 -13 0 2 53 17 58 7 2 16 -7 21 -20 9 -22 10 -22 10 8 1 27 -14
54 -29 54 -4 0 -14 -8 -23 -18z"/>
<path d="M2469 1998 c-3 -20 -1 -34 3 -32 8 5 12 -10 9 -33 -1 -6 3 -14 8 -18
6 -3 8 -12 4 -20 -3 -8 0 -15 5 -15 11 0 7 39 -8 80 -5 14 -11 36 -12 50 -3
20 -5 17 -9 -12z"/>
<path d="M1690 1972 c0 -42 0 -42 36 -42 21 0 33 4 29 10 -4 6 -11 7 -17 4 -7
-4 -8 -2 -4 4 4 7 -4 24 -18 39 l-26 28 0 -43z"/>
<path d="M385 1966 c4 -37 11 -54 19 -45 2 2 -3 22 -10 44 l-14 40 5 -39z"/>
<path d="M1323 1923 c26 -2 68 -2 95 0 26 2 4 3 -48 3 -52 0 -74 -1 -47 -3z"/>
<path d="M1921 1848 c-1 -25 -3 -27 -41 -22 -33 4 -40 2 -41 -13 0 -10 -2 -26
-4 -37 -2 -10 1 -28 6 -40 9 -21 10 -21 5 1 -2 13 0 26 5 29 5 3 9 14 9 25 0
15 7 19 34 19 41 0 49 10 37 42 -10 23 -10 23 -10 -4z"/>
<path d="M2916 1844 c-10 -27 -7 -39 6 -26 15 15 45 16 54 1 4 -8 -1 -9 -16
-4 -16 5 -20 4 -15 -5 4 -6 -1 -21 -12 -32 -18 -21 -18 -21 4 -9 12 6 29 8 37
5 15 -6 15 -25 0 -72 -2 -8 2 -12 8 -10 8 3 14 25 16 52 2 32 -1 46 -7 41 -6
-3 -11 -2 -11 4 0 5 5 11 11 13 14 5 -36 58 -54 58 -8 0 -18 -7 -21 -16z"/>
<path d="M498 1834 c-4 -3 -4 -13 -1 -22 4 -10 2 -13 -5 -8 -7 4 -12 2 -12 -3
0 -16 20 -13 26 4 4 8 11 12 16 9 6 -4 9 -1 6 6 -5 16 -21 23 -30 14z"/>
<path d="M1949 1824 c0 -10 -1 -36 -3 -56 -2 -32 0 -38 17 -38 15 0 18 5 13
23 -4 12 -9 35 -11 51 -5 34 -15 47 -16 20z"/>
<path d="M1034 1818 c-3 -4 -11 -5 -19 -1 -10 3 -15 -2 -15 -16 0 -24 18 -28
26 -6 4 8 13 15 21 15 8 0 12 -4 9 -8 -3 -5 32 -7 77 -5 227 8 357 9 357 1 0
-4 11 -7 24 -6 14 1 23 6 20 10 -3 4 21 9 53 11 32 2 -59 4 -202 6 -143 1
-280 3 -303 4 -24 1 -46 -1 -48 -5z"/>
<path d="M1705 1811 c3 -5 -5 -11 -17 -14 -13 -2 -6 -4 15 -4 24 0 33 3 25 8
-7 5 -8 9 -2 9 5 0 15 -5 22 -12 9 -9 12 -9 12 0 0 8 9 10 25 6 15 -4 25 -2
25 5 0 7 -22 11 -56 11 -31 0 -53 -4 -49 -9z"/>
<path d="M1120 1775 c0 -11 7 -14 25 -11 13 3 27 0 30 -5 4 -5 1 -9 -4 -9 -6
0 -11 -7 -11 -15 0 -24 -37 -18 -45 8 l-7 22 -6 -23 c-4 -13 -7 -61 -7 -108
l0 -84 -35 -2 -35 -1 33 -4 33 -4 -7 -74 c-7 -73 -7 -74 16 -68 15 4 21 2 17
-4 -4 -6 4 -14 18 -17 24 -6 25 -10 24 -74 -1 -52 -3 -60 -9 -37 l-8 30 -2
-30 c-1 -16 -1 -34 0 -40 1 -5 2 -24 2 -42 -1 -18 3 -35 8 -38 6 -3 9 -16 9
-28 -1 -17 -2 -18 -6 -5 -4 16 -22 18 -199 17 -107 -1 -197 -5 -200 -10 -9
-15 -11 -98 -2 -111 5 -9 8 -6 9 10 1 12 3 27 4 32 1 6 3 22 4 38 1 26 3 27
42 24 l41 -4 -6 -132 c-18 -402 -18 -406 -4 -423 12 -15 10 -16 -17 -9 -16 4
-33 13 -37 19 -5 8 -8 6 -8 -5 0 -11 8 -18 19 -18 24 0 38 -19 22 -30 -7 -4
-11 -13 -9 -21 2 -8 -3 -13 -10 -11 -8 1 -11 -2 -8 -7 4 -5 -2 -11 -11 -13
-10 -3 5 -4 32 -3 41 0 49 3 47 18 -2 9 2 17 8 17 5 0 10 -5 10 -11 0 -6 12
-9 28 -7 20 2 28 9 30 28 3 24 3 25 -12 5 -18 -24 -19 -21 -7 23 6 20 6 32 0
32 -5 0 -9 -6 -10 -12 -2 -47 -19 -89 -19 -50 0 29 -20 39 -27 13 -6 -25 -25
-28 -21 -4 2 10 16 24 31 30 16 7 26 17 22 23 -3 5 3 10 13 10 13 0 21 9 24
25 4 17 1 25 -8 25 -8 0 -13 -3 -13 -7 4 -22 -4 -32 -32 -42 -41 -14 -40 -15
-35 12 3 12 8 90 11 172 3 83 8 177 11 210 10 102 10 135 0 135 -6 0 -6 3 -1
9 15 13 85 1 85 -15 0 -8 10 -15 23 -15 18 -1 16 -3 -8 -9 l-30 -8 30 -2 c26
-1 27 -3 10 -9 -11 -5 -23 -7 -27 -4 -5 2 -8 -5 -8 -16 0 -13 7 -21 16 -21 10
0 14 6 10 15 -3 9 0 15 8 15 23 0 11 -35 -13 -38 -22 -4 -23 -6 -16 -95 3 -51
6 -118 5 -149 -1 -35 3 -58 9 -58 6 0 11 -8 11 -17 0 -16 -2 -16 -11 -3 -8 11
-9 -2 -5 -49 3 -35 6 -75 6 -87 0 -20 5 -24 30 -24 17 0 30 -4 30 -8 0 -5 -13
-8 -29 -7 -17 1 -29 -1 -28 -4 1 -3 -4 -16 -11 -28 -13 -23 -7 -28 23 -17 13
5 14 9 4 15 -25 15 -1 21 45 11 52 -11 56 -8 55 27 -1 17 -3 20 -6 9 -3 -11
-14 -18 -26 -17 -21 0 -21 1 -2 8 19 7 18 9 -5 22 -24 13 -30 15 -57 18 -21 2
-15 21 10 31 14 5 16 9 6 9 -10 1 -15 11 -15 31 0 23 4 30 20 31 18 1 18 2 -4
9 -14 4 -19 8 -12 9 7 1 10 6 7 11 -3 6 0 10 7 10 8 0 9 3 3 8 -6 4 -11 19
-13 34 -2 19 2 28 15 31 16 4 16 5 -2 6 -17 1 -18 3 -5 11 10 6 11 10 3 10 -8
0 -13 15 -13 40 0 36 3 40 25 40 14 0 25 5 25 11 0 6 -7 9 -15 6 -8 -4 -17 -1
-21 5 -4 7 -3 8 4 4 7 -4 12 -3 12 3 0 15 -16 22 -35 15 -13 -5 -14 -8 -3 -15
10 -6 10 -11 0 -21 -19 -19 -40 6 -22 27 10 12 10 18 0 30 -10 12 -10 15 1 15
9 0 10 3 4 8 -20 14 -15 32 10 32 23 0 27 7 24 37 0 4 8 10 18 14 17 7 17 8 1
8 -13 1 -18 10 -18 34 0 32 1 33 38 29 20 -3 40 -10 44 -16 6 -8 8 -7 8 2 0 6
11 12 25 12 14 0 25 -5 25 -11 0 -5 -4 -7 -10 -4 -6 3 -7 -1 -4 -9 5 -12 -1
-16 -22 -17 -24 -1 -25 -2 -9 -7 34 -12 28 -39 -7 -33 -4 0 -5 -6 -2 -14 4 -8
10 -12 15 -9 5 3 6 -2 3 -10 -3 -9 -10 -13 -15 -10 -5 3 -9 0 -9 -5 0 -6 5
-11 10 -11 14 0 13 -37 -2 -46 -6 -4 -14 -2 -16 4 -2 7 -11 12 -20 11 -9 0
-12 -3 -6 -5 6 -2 8 -18 6 -35 -4 -28 -3 -30 24 -24 16 3 22 2 14 -1 -21 -10
-30 -25 -30 -56 0 -15 -7 -34 -16 -42 -14 -14 -14 -16 0 -16 8 0 14 -6 12 -12
-1 -7 -1 -10 1 -5 3 4 9 7 14 7 6 0 7 -4 4 -10 -3 -5 -1 -10 4 -10 6 0 11 7
11 15 0 8 -5 15 -11 15 -5 0 -8 4 -5 9 4 5 0 12 -6 14 -7 3 3 5 22 6 20 0 29
-3 20 -7 -8 -4 -16 -21 -16 -39 -1 -18 2 -31 6 -28 5 3 11 1 14 -4 3 -5 -1
-12 -9 -15 -12 -4 -13 -10 -6 -25 13 -23 6 -30 -21 -23 -16 4 -19 10 -14 33 6
31 3 33 -29 19 -11 -5 -14 -9 -8 -9 15 -1 13 -51 -2 -51 -6 0 -7 -3 0 -8 15
-11 18 -34 4 -42 -7 -5 -8 -10 -1 -14 6 -3 14 3 17 14 8 24 47 42 70 34 13 -5
15 8 15 85 l0 91 40 0 c38 0 39 -1 28 -20 -10 -15 -10 -23 -2 -28 7 -4 14 -16
17 -27 3 -11 5 13 4 53 -1 39 2 73 8 75 5 2 4 7 -3 11 -7 4 -12 2 -12 -3 0 -7
-24 -11 -57 -11 -32 0 -53 4 -47 8 13 8 23 101 12 104 -4 2 -5 14 -1 27 6 23
7 23 14 5 5 -13 8 -6 8 25 1 33 4 41 14 33 6 -5 23 -12 37 -14 25 -3 25 -5 23
-83 l-2 -80 14 64 c19 86 81 166 153 197 35 15 36 16 15 24 -13 5 -26 22 -30
39 l-8 30 -17 -40 c-16 -37 -16 -39 2 -39 14 0 18 5 13 18 -5 14 -3 13 10 -3
15 -19 14 -20 -21 -25 -31 -4 -40 -12 -66 -57 -18 -32 -34 -49 -42 -46 -8 3
-11 9 -8 14 3 5 -10 9 -28 9 -43 0 -67 14 -45 26 12 7 16 40 20 169 2 88 2
154 0 148 -3 -7 -14 -13 -26 -12 -21 0 -21 1 -2 9 17 7 17 9 3 9 -11 1 -15 6
-12 16 4 11 0 15 -16 15 -17 0 -21 -4 -15 -17 5 -14 3 -15 -5 -7 -17 17 -2 54
21 54 10 0 19 5 19 11 0 6 -9 9 -20 6 -14 -4 -20 0 -20 12 0 22 56 111 70 111
5 0 10 6 10 13 0 8 13 13 38 13 30 0 42 -6 65 -36 16 -19 30 -36 32 -38 1 -1
10 9 19 23 13 19 14 30 6 39 -5 8 -8 20 -4 29 3 8 1 18 -5 22 -7 4 -8 0 -5
-10 4 -9 3 -15 -2 -14 -21 4 -24 -2 -10 -17 9 -8 16 -21 15 -27 0 -9 -2 -9 -5
-1 -3 7 -13 10 -24 7 -15 -4 -18 -1 -13 19 4 18 3 20 -6 8 -9 -12 -11 -11 -11
8 0 16 6 22 23 23 17 1 18 2 4 6 -9 2 -15 9 -12 14 4 5 2 9 -3 9 -6 0 -15 -15
-22 -32 -7 -18 -14 -28 -16 -22 -3 6 -21 9 -44 7 -24 -2 -40 0 -40 7 0 5 5 9
12 8 6 -2 14 5 16 15 2 12 -3 17 -17 17 -14 0 -19 -5 -15 -15 4 -10 0 -15 -15
-15 -21 0 -28 -14 -12 -24 5 -4 12 0 14 6 3 7 6 4 6 -7 0 -11 -3 -26 -8 -33
-6 -10 -11 -6 -17 15 -13 47 -13 65 2 59 8 -3 14 -1 14 3 0 5 -6 12 -12 14
-14 6 22 11 64 8 15 0 30 3 33 9 4 6 -6 8 -25 6 -17 -2 -29 1 -28 6 2 5 7 9
11 9 4 -1 35 -1 70 -2 46 -1 56 -3 37 -9 -23 -7 -23 -8 -3 -9 12 -1 30 -9 39
-18 17 -17 18 -17 11 0 -5 13 -3 17 5 15 15 -5 17 -35 5 -62 -16 -33 8 -40 33
-9 22 28 22 28 2 31 -22 3 -20 28 2 45 7 5 3 7 -9 6 -43 -3 -55 1 -55 21 0 14
7 20 21 20 15 0 19 -5 15 -15 -4 -11 2 -15 25 -15 20 0 28 -4 23 -12 -5 -7 -3
-8 6 -3 10 6 12 3 8 -12 -4 -17 -1 -19 21 -15 23 5 24 6 6 13 -11 4 -15 8 -10
9 6 0 2 5 -7 11 -20 11 -13 39 9 39 9 0 13 -6 9 -15 -4 -11 2 -15 22 -14 16 1
20 3 10 6 -10 2 -15 10 -11 19 4 10 -4 14 -31 14 -25 0 -36 -4 -36 -15 0 -8
-7 -15 -16 -15 -10 0 -14 6 -10 15 4 12 -3 15 -29 15 -24 0 -35 -5 -35 -15 0
-8 -7 -15 -15 -15 -8 0 -15 7 -15 15 0 9 -9 15 -25 15 -14 0 -27 0 -30 0 -3 0
-4 -3 -3 -7 0 -5 9 -7 19 -5 9 2 20 -2 24 -8 4 -6 -9 -10 -34 -10 -34 0 -41 3
-41 20 0 20 -19 23 -32 5 -5 -6 -8 -5 -8 3 0 6 -7 12 -15 12 -8 0 -15 -7 -15
-15z m90 -950 c0 -12 -11 -15 -55 -14 -35 1 -55 6 -55 14 0 8 20 13 55 14 44
1 55 -2 55 -14z"/>
<path d="M1796 1775 c18 -14 18 -14 -1 -15 -17 0 -17 -2 -5 -10 23 -15 30 -12
28 13 -1 15 -9 24 -21 24 -19 2 -19 2 -1 -12z"/>
<path d="M1493 1751 c1 -16 6 -27 11 -23 5 3 7 -2 3 -11 -5 -13 -1 -17 21 -16
18 0 22 3 12 7 -8 4 -16 12 -17 17 -1 6 -5 18 -8 28 -6 13 -2 17 15 17 12 0
18 -4 15 -10 -4 -6 -11 -7 -17 -4 -7 4 -8 2 -4 -4 4 -6 13 -9 21 -5 8 3 15 1
15 -5 0 -6 -6 -12 -12 -15 -7 -2 13 -4 45 -4 56 1 57 1 57 29 0 25 -3 28 -35
28 -24 0 -35 -5 -35 -15 0 -18 12 -19 28 -3 10 10 15 10 22 -2 5 -8 6 -18 3
-24 -4 -5 -10 -1 -14 10 -7 17 -8 17 -8 2 -1 -28 -51 -7 -51 21 0 6 -16 11
-35 11 -32 0 -34 -2 -32 -29z"/>
<path d="M1670 1767 c0 -9 13 -14 35 -14 23 0 35 5 35 14 0 17 -27 17 -33 1
-4 -10 -6 -10 -6 0 -1 16 -31 16 -31 -1z"/>
<path d="M1004 1748 c3 -13 6 -26 6 -30 0 -5 4 -8 8 -8 15 0 12 48 -4 54 -13
5 -15 2 -10 -16z"/>
<path d="M2930 1734 c-19 -14 -43 -23 -52 -20 -17 4 -25 -14 -13 -26 10 -9
105 43 105 57 0 18 2 19 -40 -11z"/>
<path d="M277 1665 c1 -51 -2 -85 -8 -85 -6 0 -8 -9 -4 -19 3 -11 1 -22 -4
-26 -7 -4 -7 -14 0 -31 8 -22 7 -25 -6 -20 -9 3 -13 2 -10 -4 3 -6 -5 -10 -18
-10 -14 0 -28 -7 -31 -16 -6 -15 4 -15 52 3 14 6 15 -6 3 -26 -6 -9 -6 -22 0
-32 5 -10 5 -20 0 -23 -14 -9 -10 -56 5 -56 10 0 14 15 14 55 0 30 5 55 10 55
20 0 1 -238 -22 -266 -5 -8 -3 -14 6 -17 20 -8 26 1 26 40 0 33 1 33 45 33
l45 0 1 68 c1 37 0 79 -1 95 -1 20 3 27 17 27 15 0 16 -2 3 -10 -12 -8 -12
-10 5 -10 15 0 17 -2 6 -9 -11 -7 -11 -9 0 -14 9 -4 10 -6 2 -6 -7 -1 -10 -7
-7 -15 3 -8 0 -17 -6 -21 -9 -6 -9 -10 1 -16 9 -6 10 -12 4 -16 -14 -11 -14
-53 -1 -53 6 0 5 -4 -2 -9 -8 -4 -16 -26 -19 -47 -5 -37 -3 -40 20 -42 26 -2
26 -2 22 70 -2 42 1 78 7 85 6 7 7 21 3 30 -5 10 -7 23 -5 28 2 6 4 22 5 37 3
23 -1 27 -31 30 -19 2 -40 0 -47 -4 -9 -6 -9 -8 1 -8 6 0 12 -7 12 -15 0 -8
-6 -15 -12 -15 -9 0 -9 -3 -2 -8 5 -4 10 -18 10 -32 0 -14 -5 -28 -10 -32 -8
-5 -8 -8 0 -8 6 0 11 -7 11 -15 0 -8 -4 -15 -9 -15 -5 0 -6 -4 -3 -10 3 -5 -1
-10 -10 -10 -10 0 -14 -5 -9 -12 5 -10 3 -10 -7 0 -12 11 -12 14 1 22 11 7 11
10 2 10 -7 0 -17 -10 -22 -22 -7 -20 -9 -17 -9 18 -1 22 4 45 11 52 7 7 8 12
3 12 -16 0 -9 111 6 121 11 7 10 9 -3 9 -10 0 -18 -5 -18 -11 0 -6 -6 -9 -12
-6 -7 2 -13 20 -13 40 0 41 12 50 17 15 2 -19 11 -24 48 -28 34 -5 39 -7 20
-10 -20 -4 -14 -7 25 -15 l50 -11 1 42 c0 24 10 58 22 79 12 20 22 38 22 39 0
2 -11 4 -25 4 -34 0 -39 6 -28 38 10 31 33 44 33 20 0 -9 -5 -16 -11 -16 -5 0
-8 -4 -5 -9 4 -5 1 -11 -6 -13 -7 -3 4 -5 23 -6 41 -1 77 27 63 50 -6 10 -4
10 7 2 10 -8 21 -7 39 2 22 12 15 14 -67 14 l-93 0 0 -45 c0 -38 3 -45 20 -45
23 0 26 -13 6 -29 -11 -9 -15 -9 -19 1 -2 7 -7 10 -11 7 -4 -4 0 -14 9 -23 15
-15 15 -16 -2 -16 -10 0 -14 -4 -8 -8 14 -10 17 -32 5 -32 -5 0 -7 -6 -4 -14
3 -8 1 -17 -5 -21 -6 -3 -11 1 -11 9 0 12 -10 16 -34 16 -19 0 -38 6 -42 13
-4 6 -3 9 1 4 5 -4 17 0 27 10 11 9 18 11 18 5 0 -7 7 -12 15 -12 8 0 15 4 15
9 0 13 -35 20 -54 9 -11 -6 -23 -4 -38 6 -12 9 -19 17 -15 17 4 1 10 2 15 3 4
1 14 5 22 11 13 8 13 7 1 -8 -12 -15 -11 -17 2 -17 9 0 20 8 26 17 8 15 11 15
27 3 16 -14 17 -13 11 4 -5 12 -3 23 5 28 8 5 2 8 -17 8 -17 0 -36 -5 -42 -11
-17 -17 -23 4 -13 42 5 19 12 50 15 70 l5 35 163 -1 c241 -2 286 -5 262 -15
-19 -8 -19 -9 3 -9 20 -1 33 -21 13 -21 -6 0 -10 -9 -10 -20 -1 -11 -1 -29 -2
-40 0 -11 -7 -20 -15 -20 -8 0 -14 6 -13 13 3 24 -1 37 -12 37 -5 0 -7 -4 -4
-10 9 -14 -14 -52 -27 -44 -6 4 -8 3 -5 -3 4 -6 1 -16 -7 -22 -10 -8 -16 -8
-25 3 -9 10 -8 16 4 26 18 15 6 34 -34 54 -35 18 -52 10 -45 -18 7 -31 -22
-44 -31 -14 -5 14 -10 17 -18 9 -7 -7 -6 -15 3 -26 19 -23 -3 -44 -30 -28 -14
10 -20 10 -23 0 -2 -7 5 -17 16 -23 16 -9 26 -9 43 3 17 11 22 11 21 1 -1 -7
3 -34 7 -60 6 -37 12 -48 27 -48 11 0 19 5 19 10 0 6 -5 10 -11 10 -6 0 -7 5
-2 13 4 6 6 22 4 35 -1 12 2 22 7 22 5 0 9 -6 10 -12 10 -73 15 -88 30 -86 8
2 17 -3 20 -11 3 -9 0 -11 -7 -7 -8 5 -10 -3 -6 -31 9 -63 12 -123 5 -123 -4
0 -6 -19 -6 -42 1 -26 -5 -47 -13 -54 -12 -9 -10 -11 12 -11 15 0 27 5 28 11
8 115 13 236 8 236 -3 0 -6 7 -6 15 0 9 10 15 24 15 15 0 23 6 23 17 0 13 -3
14 -12 5 -19 -19 -28 -14 -28 13 0 18 5 25 20 25 13 0 18 5 14 15 -4 11 -11
12 -24 5 -14 -7 -20 -6 -24 7 -6 15 8 32 26 33 4 0 5 7 2 15 -5 11 1 15 20 15
24 0 32 -17 14 -30 -4 -3 -4 -31 -1 -62 l6 -57 55 -3 56 -3 -2 -65 c-1 -36 -5
-102 -8 -147 l-6 -83 38 1 c22 1 32 3 24 5 -12 4 -16 19 -16 68 1 52 3 63 16
59 8 -2 6 2 -5 9 -15 10 -20 25 -21 61 -1 26 2 47 5 47 3 0 7 18 8 41 2 27 -1
38 -8 33 -7 -4 -9 0 -5 14 18 55 28 152 17 152 -6 0 -9 17 -6 42 2 26 0 45 -8
50 -8 5 -4 8 9 8 13 0 24 -8 27 -19 3 -14 16 -20 51 -22 25 -2 46 -1 46 3 0 5
-9 8 -20 8 -11 0 -20 5 -20 11 0 8 -4 8 -15 -1 -15 -12 -39 -5 -30 10 3 5 2
11 -3 14 -6 4 -482 9 -587 7 -30 -1 -30 -1 -26 -52 2 -38 0 -50 -9 -44 -6 4
-10 24 -9 44 3 36 -5 61 -19 61 -4 0 -6 -38 -5 -85z m588 38 c6 -16 9 -51 7
-79 l-3 -50 -42 2 c-23 1 -41 5 -40 8 1 3 5 38 9 76 6 67 8 70 33 70 20 0 29
-7 36 -27z m-347 -51 c2 -7 -6 -12 -18 -12 -12 0 -18 -4 -15 -10 3 -5 -1 -10
-10 -10 -12 0 -14 4 -6 19 6 10 8 20 6 23 -3 3 5 4 17 3 12 -1 24 -7 26 -13z
m132 -26 c0 -8 -4 -17 -8 -20 -13 -8 -35 11 -28 23 10 16 36 14 36 -3z m-34
-59 c8 3 14 1 14 -5 0 -5 -7 -13 -16 -16 -11 -4 -15 -14 -12 -30 4 -17 1 -23
-9 -19 -16 6 -17 25 -1 41 9 9 9 12 0 12 -7 0 -12 8 -12 17 0 13 3 14 11 6 6
-6 18 -9 25 -6z m253 -61 c-2 -45 -5 -54 -20 -53 -10 1 -16 4 -13 8 2 4 -2 12
-10 18 -11 9 -14 8 -12 -6 0 -9 -7 -19 -16 -21 -11 -2 -18 3 -18 12 0 9 6 16
13 17 7 0 8 2 2 5 -6 2 -9 20 -7 39 4 33 6 35 44 35 l39 0 -2 -54z"/>
<path d="M1746 1741 c-3 -4 -17 -7 -31 -6 -14 2 -25 -1 -25 -6 0 -5 13 -7 30
-5 25 3 29 0 26 -18 -2 -14 -10 -20 -22 -19 -11 1 -14 0 -7 -3 7 -3 9 -13 6
-22 -6 -14 -4 -15 8 -5 12 9 15 3 17 -38 2 -31 -1 -49 -8 -49 -6 0 -8 5 -5 10
3 6 0 10 -7 10 -9 0 -9 3 2 10 13 9 7 14 -12 11 -16 -2 -7 18 10 22 13 4 11 5
-5 6 -13 0 -23 -3 -23 -9 0 -5 -5 -10 -11 -10 -5 0 -8 4 -5 9 3 4 -24 8 -60 8
-36 0 -68 -5 -71 -10 -4 -6 0 -8 10 -4 10 3 17 2 17 -2 0 -5 -7 -11 -15 -15
-13 -5 -20 5 -16 27 0 4 -4 7 -10 7 -5 0 -7 5 -4 10 3 6 -2 10 -13 10 -12 0
-18 -7 -17 -18 1 -22 25 -82 33 -82 2 0 22 16 43 35 22 19 46 35 55 35 28 0
101 -82 113 -125 6 -25 8 -104 5 -207 -3 -114 -2 -168 6 -168 8 0 17 150 11
184 -1 6 -3 106 -4 223 -1 193 -5 231 -21 204z"/>
<path d="M17 1726 c-21 -16 -23 -56 -2 -56 8 0 15 -4 15 -9 0 -5 14 -8 31 -6
23 3 30 1 26 -10 -3 -7 0 -16 8 -19 7 -2 16 3 20 12 5 15 9 14 25 -8 10 -13
17 -27 14 -31 -2 -4 3 -9 11 -13 8 -3 17 -1 20 4 7 12 -25 61 -35 55 -5 -3
-26 11 -47 31 -24 23 -33 39 -25 41 6 3 12 9 12 15 0 6 -7 4 -17 -3 -13 -11
-17 -11 -20 -1 -6 15 -13 15 -36 -2z m27 -18 c-5 -7 -2 -9 9 -5 16 6 27 -10
20 -30 -5 -13 -31 -6 -51 14 -15 15 -8 33 14 33 9 0 12 -5 8 -12z"/>
<path d="M128 1714 c-28 -15 -29 -38 -2 -48 15 -6 54 13 54 26 0 5 -7 8 -16 8
-10 0 -14 6 -10 15 3 8 4 15 3 14 -1 -1 -14 -8 -29 -15z"/>
<path d="M1923 1706 c5 -13 -1 -16 -38 -16 -25 0 -45 -4 -45 -9 0 -5 10 -7 21
-4 20 6 21 3 15 -28 -4 -19 -8 -53 -9 -76 -1 -23 -6 -45 -11 -50 -5 -5 -6 -2
-1 6 5 9 4 12 -4 10 -8 -3 -13 -30 -15 -70 l-2 -65 49 7 c50 8 75 19 44 19
-14 0 -17 10 -17 49 0 27 3 51 8 54 4 2 1 2 -5 1 -15 -4 -18 22 -4 31 15 8 10
65 -5 65 -22 0 -11 38 12 43 20 4 21 -1 28 -101 9 -158 8 -170 -11 -175 -17
-4 -17 -5 0 -6 9 0 17 -7 17 -15 0 -8 -8 -17 -17 -19 -17 -4 -17 -5 0 -6 19
-1 24 -31 5 -31 -9 0 -9 -3 1 -9 8 -5 11 -16 8 -25 -3 -8 1 -22 9 -31 9 -8 11
-15 5 -15 -6 0 -11 -7 -11 -15 0 -9 -9 -15 -22 -14 -22 0 -22 1 -3 9 16 7 17
9 3 9 -9 1 -19 7 -21 14 -4 7 -6 6 -6 -4 -1 -9 -8 -22 -16 -29 -13 -10 -15 -9
-15 12 0 13 -6 30 -12 37 -10 11 -10 13 0 7 9 -5 12 4 12 34 0 33 4 43 20 47
11 3 20 14 20 24 0 15 -7 19 -37 19 l-38 0 2 -125 c3 -139 13 -164 68 -166 29
-1 29 -1 5 -9 l-25 -8 26 -1 c44 -2 55 -44 58 -228 1 -128 -1 -163 -11 -163
-10 0 -10 -2 -1 -8 17 -11 21 -46 12 -105 -6 -33 -5 -55 3 -64 9 -12 5 -17
-14 -14 -4 0 -5 -5 -2 -12 2 -7 13 -13 23 -14 18 -2 19 6 16 105 -3 69 -1 101
5 92 5 -8 10 -30 10 -47 0 -33 13 -43 26 -21 4 6 3 8 -3 5 -7 -4 -11 16 -12
56 -1 34 -6 63 -11 65 -6 2 -10 7 -10 11 0 4 20 5 45 1 24 -4 42 -3 40 1 -3 4
1 10 7 12 7 3 -11 6 -39 6 l-53 1 0 105 c0 77 -3 105 -12 105 -9 0 -9 3 -3 8
6 4 11 16 11 27 0 11 -5 23 -11 27 -7 5 -6 8 2 8 6 0 10 13 9 31 l-2 32 140
-6 c78 -4 204 -7 281 -7 82 0 134 -4 126 -9 -10 -6 -10 -10 -1 -16 16 -10 9
-79 -10 -87 -12 -5 -12 -7 3 -7 11 -1 17 -9 17 -26 0 -22 -9 -30 -32 -26 -4 0
-5 -6 -2 -14 4 -8 10 -15 16 -15 5 0 6 5 3 10 -3 6 -1 10 5 10 7 0 10 -13 8
-32 -2 -25 -7 -32 -20 -30 -10 2 -18 -2 -18 -8 0 -5 11 -10 25 -10 22 0 25 -4
25 -39 0 -40 0 -40 -40 -39 l-40 0 0 45 c0 27 4 42 10 38 6 -3 10 -2 10 4 0 5
-6 11 -12 14 -10 3 -10 9 0 26 8 14 9 21 1 21 -7 0 -10 18 -7 50 2 35 -1 50
-9 50 -7 0 -13 8 -13 18 0 12 -8 18 -27 19 -16 0 -20 -1 -10 -4 9 -2 18 -8 18
-11 7 -43 6 -68 -4 -74 -9 -6 -9 -8 1 -8 7 0 10 -4 7 -10 -3 -5 -2 -10 4 -10
5 0 12 17 14 38 2 21 4 6 5 -35 2 -67 0 -72 -20 -75 -21 -3 -21 -4 -4 -20 17
-17 16 -18 -11 -18 -18 0 -24 3 -15 8 7 5 10 16 6 25 -4 13 -1 17 15 17 16 0
21 6 21 25 0 17 -5 25 -17 25 -10 0 -14 -4 -8 -8 18 -13 15 -32 -5 -32 -11 0
-20 -3 -20 -7 0 -5 -4 -25 -9 -45 -9 -37 -8 -38 18 -37 23 0 24 1 6 9 -19 8
-19 9 3 9 13 1 22 -5 22 -14 0 -8 -6 -15 -12 -15 -9 0 -9 -3 -3 -8 6 -4 11
-34 10 -67 0 -44 4 -62 15 -67 13 -6 12 -7 -2 -7 -12 -1 -15 -7 -11 -23 5 -19
3 -21 -8 -11 -17 17 -26 16 -26 -1 0 -8 6 -12 13 -9 14 5 37 -30 27 -41 -3 -3
-1 -6 6 -6 8 0 11 8 8 20 -3 11 -1 20 5 20 5 0 8 -12 6 -27 -2 -19 2 -27 15
-29 9 -1 17 2 17 7 0 5 -4 9 -10 9 -5 0 -10 18 -10 39 0 34 3 39 19 36 14 -3
18 1 14 11 -3 8 -11 14 -19 14 -9 0 -14 12 -15 38 0 20 -2 44 -4 53 -2 12 6
15 36 15 21 -1 39 -4 39 -8 0 -5 -6 -8 -12 -8 -8 0 -9 -3 -3 -8 6 -4 11 -24
12 -44 2 -27 -2 -38 -15 -41 -16 -4 -16 -5 1 -6 21 -1 23 -19 2 -27 -11 -5
-12 -9 -2 -19 7 -7 15 -11 20 -8 4 2 7 -2 7 -10 0 -8 3 -29 6 -46 6 -31 6 -31
-36 -31 -66 0 -40 -11 37 -16 37 -2 89 -7 116 -10 46 -6 47 -5 47 20 0 15 -6
26 -13 26 -8 0 -22 9 -32 20 -10 11 -24 20 -32 20 -12 0 -11 -4 1 -22 18 -25
21 -58 6 -58 -5 0 -10 8 -11 18 0 9 -3 12 -6 5 -3 -9 -9 -10 -23 -1 -14 9 -16
16 -9 25 13 15 3 33 -16 33 -9 0 -12 -6 -8 -17 5 -14 3 -16 -7 -6 -17 15 -22
303 -6 303 8 0 8 2 0 8 -6 4 -14 60 -18 135 -6 108 -5 127 8 127 8 0 17 -6 19
-12 4 -10 6 -10 6 0 1 6 6 12 11 12 6 0 10 -20 10 -45 0 -35 4 -45 16 -45 10
0 14 6 10 15 -4 12 3 15 34 15 22 0 40 5 40 10 0 6 -13 10 -29 10 -45 0 -64
10 -50 26 7 8 9 26 4 46 -4 18 -9 63 -12 101 -3 40 -9 67 -16 67 -8 0 -8 3 -1
10 6 6 9 28 7 49 -3 32 0 39 22 51 14 7 28 10 32 6 14 -14 31 -139 32 -231 1
-49 5 -96 10 -104 6 -9 7 44 4 135 -3 82 -9 151 -14 152 -5 2 -9 16 -9 30 0
21 2 24 10 12 7 -11 10 -5 10 23 0 20 -2 37 -4 37 -2 0 -23 -7 -46 -15 -46
-16 -91 -20 -52 -5 33 14 27 21 -8 9 -16 -6 -28 -14 -26 -18 11 -16 15 -231 5
-231 -6 0 -3 -7 5 -16 9 -8 16 -26 16 -39 0 -13 8 -29 18 -35 12 -8 -28 -9
-153 -6 -93 3 -266 6 -382 7 -125 0 -213 4 -213 10 0 5 4 9 10 9 5 0 12 16 16
35 4 25 12 35 24 35 16 0 18 -6 13 -35 -3 -21 -2 -35 5 -35 6 0 17 -3 26 -6
13 -5 16 2 16 35 l0 41 40 0 c40 0 40 0 40 -40 0 -33 3 -40 20 -40 19 0 20 6
17 136 -2 108 0 137 11 143 12 7 12 9 -2 14 -20 8 -20 48 -2 100 17 45 57 107
71 107 6 0 19 7 29 15 18 14 12 15 -67 15 l-87 0 3 -33 c2 -18 6 -37 10 -44
10 -15 0 -19 -47 -19 l-40 1 3 60 c3 85 6 93 39 87 15 -3 30 -10 34 -16 5 -8
8 -7 8 2 0 10 31 12 138 11 178 -2 226 -9 230 -31 2 -11 -3 -18 -12 -18 -8 0
-17 -6 -19 -12 -4 -10 -6 -10 -6 0 -1 8 -20 12 -63 11 -50 0 -58 -2 -40 -10
13 -5 29 -6 34 -2 7 3 8 1 4 -5 -4 -7 -1 -12 8 -12 9 0 16 5 16 10 0 6 5 10
11 10 5 0 7 -5 4 -10 -7 -11 23 -9 41 3 7 4 14 -3 16 -18 5 -22 2 -25 -26 -26
l-31 -1 30 -8 c17 -4 23 -8 15 -9 -13 -1 -13 -2 0 -11 8 -5 10 -10 4 -10 -18
0 -22 -33 -11 -89 6 -32 15 -51 23 -51 8 0 14 -4 14 -10 0 -5 -9 -10 -21 -10
-11 0 -17 -4 -14 -10 3 -5 2 -10 -4 -10 -9 0 -10 -17 0 -35 3 -5 5 -56 4 -112
-2 -98 -1 -101 21 -106 31 -6 35 0 28 40 l-6 33 46 0 46 0 0 -40 c0 -30 3 -38
14 -34 10 4 12 13 6 37 -13 49 -23 407 -12 407 11 0 9 26 -2 53 -5 9 -6 31 -4
47 3 21 0 30 -11 33 -9 3 -1 5 18 6 19 0 32 3 30 5 -2 2 -154 8 -338 12 -307
6 -334 5 -328 -10z m56 -58 c0 -35 -4 -72 -9 -83 -8 -19 -9 -15 -12 112 0 13
-4 20 -9 17 -5 -3 -9 0 -9 5 0 6 9 11 20 11 18 0 20 -6 19 -62z m545 -7 c4
-30 9 -66 13 -79 5 -23 4 -24 -25 -18 -18 4 -33 3 -37 -3 -4 -7 6 -11 27 -12
27 0 30 -2 13 -9 -18 -8 -18 -9 -2 -9 16 -1 18 -8 14 -46 -2 -25 0 -48 5 -51
20 -13 5 -24 -32 -24 -29 0 -40 4 -40 15 0 12 7 14 26 9 20 -5 25 -3 22 7 -3
8 -15 14 -27 13 -18 0 -21 5 -21 38 0 29 4 38 18 39 16 1 16 2 0 6 -20 5 -21
10 -22 108 l-1 71 31 0 c31 0 32 -1 38 -55z m-379 -17 c-13 -14 -14 -19 -3
-25 7 -5 8 -9 3 -9 -6 0 -17 6 -24 13 -11 10 -11 8 -1 -13 13 -24 12 -24 -5
-10 -16 14 -17 13 -11 -7 4 -12 2 -32 -4 -43 -6 -12 -12 -39 -12 -61 0 -21 -5
-39 -10 -39 -5 0 -6 5 -3 10 3 6 -3 10 -14 10 -14 0 -19 -5 -15 -15 4 -8 14
-15 24 -15 11 0 22 -4 25 -10 3 -5 -2 -10 -11 -10 -16 0 -16 -1 1 -20 18 -20
17 -20 -21 -21 l-39 -2 40 -6 40 -6 -28 -21 c-15 -12 -27 -31 -27 -43 0 -23
14 -28 26 -9 4 7 3 8 -4 4 -7 -4 -12 -5 -12 -2 0 3 9 10 21 16 18 10 19 10 10
-8 -6 -11 -7 -22 -4 -26 3 -3 -6 -6 -21 -6 -16 0 -25 -4 -21 -10 4 -6 -6 -10
-24 -10 -16 0 -32 -6 -34 -12 -3 -7 -4 5 -2 27 1 22 3 64 4 93 1 42 4 52 19
53 16 1 16 2 0 6 -15 4 -18 16 -18 74 0 56 3 69 16 69 8 0 12 -4 9 -10 -9 -14
8 -12 24 3 8 7 11 7 8 1 -4 -7 2 -14 13 -17 11 -3 18 -1 14 4 -3 5 1 9 8 9 9
0 9 3 -2 10 -14 9 -7 14 13 11 4 -1 3 7 -3 18 -5 11 -10 31 -10 45 0 24 4 26
41 26 38 0 39 -1 24 -16z m-245 -151 c0 -24 -11 -35 -25 -25 -12 8 -14 63 -3
56 4 -3 8 1 8 8 0 23 20 -15 20 -39z m620 -105 c0 -9 4 -8 10 2 7 11 10 -3 10
-47 0 -44 -4 -63 -12 -63 -9 0 -8 -4 2 -10 12 -8 12 -10 -5 -11 -11 0 -14 -3
-7 -6 6 -2 12 -9 12 -14 0 -4 -7 -5 -17 -2 -11 4 -14 3 -9 -5 4 -7 3 -12 -3
-12 -17 0 -28 31 -30 85 -3 72 -11 69 -11 -4 0 -37 -4 -60 -10 -56 -5 3 -6 13
-3 22 4 11 3 14 -5 9 -7 -4 -12 -2 -12 3 0 6 5 11 10 11 15 0 12 40 -2 41 -10
0 -10 2 0 6 15 6 16 33 1 33 -5 0 -7 -5 -3 -12 4 -7 3 -8 -4 -4 -22 13 -13 28
13 24 14 -3 28 -1 32 5 3 6 1 7 -5 3 -7 -4 -12 -2 -12 3 0 6 14 11 30 11 17 0
30 -5 30 -12z"/>
<path d="M2480 1670 c-1 -3 -4 -18 -6 -35 -3 -23 -2 -26 6 -15 8 13 10 13 10
-1 0 -9 7 -20 16 -23 14 -5 15 -4 5 8 -7 8 -16 27 -21 43 -4 15 -9 26 -10 23z"/>
<path d="M1470 1700 c0 -5 6 -10 13 -11 6 0 4 -4 -6 -8 -17 -6 -17 -8 -3 -20
13 -11 16 -11 16 1 0 11 9 14 31 12 19 -2 28 0 24 7 -4 5 -15 7 -26 4 -12 -4
-21 -1 -25 9 -7 18 -24 22 -24 6z"/>
<path d="M350 1690 c0 -15 28 -80 35 -80 3 0 -2 16 -10 36 -8 20 -12 40 -9 45
3 5 0 9 -5 9 -6 0 -11 -5 -11 -10z"/>
<path d="M2789 1680 c-1 -3 -1 -8 0 -12 0 -5 -7 -9 -16 -9 -10 -1 -24 -2 -32
-3 -8 0 -18 -14 -22 -31 -8 -30 -8 -30 9 -9 24 29 50 37 55 16 4 -13 5 -13 6
3 1 13 12 25 31 32 28 11 30 10 30 -14 0 -21 3 -23 23 -17 25 7 55 23 45 24
-4 0 -18 -4 -32 -10 -21 -8 -25 -6 -28 13 -2 18 -10 22 -35 22 -18 0 -34 -2
-34 -5z"/>
<path d="M630 1671 c21 -11 130 -12 130 -1 0 6 -33 10 -72 10 -44 0 -67 -4
-58 -9z"/>
<path d="M1013 1674 c-7 -3 -9 -12 -6 -20 4 -11 -5 -14 -38 -15 -24 0 -38 -3
-31 -6 6 -2 10 -9 6 -14 -3 -5 1 -9 8 -9 10 0 9 -3 -2 -10 -8 -5 -11 -13 -6
-17 4 -4 13 0 20 10 19 24 34 21 32 -7 0 -13 -5 -22 -10 -19 -5 4 -6 -5 -3
-19 5 -18 2 -30 -10 -39 -9 -8 -14 -9 -10 -3 4 7 0 15 -9 18 -14 5 -15 0 -12
-35 3 -35 1 -40 -14 -36 -10 3 -18 1 -18 -4 0 -5 9 -9 21 -9 11 0 17 -4 14
-10 -4 -6 10 -10 35 -10 l41 0 -1 68 c-3 155 -2 169 21 175 17 4 19 3 10 -6
-6 -6 -11 -18 -10 -26 0 -10 4 -7 9 7 5 12 14 22 20 22 6 0 8 5 5 10 -6 10
-41 12 -62 4z"/>
<path d="M1420 1670 c-22 -13 2 -35 25 -23 13 8 14 11 3 21 -9 7 -19 7 -28 2z"/>
<path d="M39 1642 c-1 -4 -1 -11 0 -15 1 -4 -8 -3 -18 3 -18 9 -20 7 -18 -17
3 -38 32 -42 41 -7 6 21 9 25 16 14 5 -8 6 -18 4 -22 -9 -15 3 -8 17 9 10 11
10 14 2 9 -8 -4 -13 -2 -13 7 0 15 -29 33 -31 19z"/>
<path d="M2237 1634 c-3 -4 -2 -15 3 -24 7 -13 6 -20 -6 -24 -22 -9 -24 -8
-24 9 0 16 -12 20 -23 8 -4 -3 -2 -12 4 -19 6 -8 8 -21 5 -30 -5 -13 -9 -14
-21 -4 -25 21 -39 0 -15 -22 16 -15 20 -27 16 -47 -13 -52 -12 -55 17 -58 22
-1 27 2 23 13 -3 9 -6 20 -6 25 0 4 -7 6 -16 2 -14 -5 -14 -3 -2 17 10 18 10
24 1 27 -18 6 -16 20 3 27 8 3 12 2 9 -4 -3 -6 -1 -10 5 -10 7 0 9 -8 5 -20
-3 -11 -2 -20 3 -20 14 0 21 35 11 53 -7 12 -4 15 16 13 14 0 25 -7 25 -13 0
-7 7 -13 15 -13 17 0 21 -40 6 -55 -13 -15 6 -58 23 -52 8 3 17 -2 21 -11 3
-9 1 -18 -4 -20 -18 -6 -13 -42 7 -42 10 0 13 -3 7 -8 -13 -9 -13 -115 0 -124
6 -5 5 -8 -2 -8 -7 0 -13 -9 -13 -20 0 -11 5 -20 11 -20 5 0 8 -3 6 -7 -3 -5
2 -14 10 -21 12 -12 13 -7 9 40 -5 53 -9 224 -6 243 11 58 -24 128 -84 169
-17 11 -17 14 -2 28 14 14 14 17 0 22 -20 8 -29 8 -37 0z"/>
<path d="M2870 1599 c-173 -60 -185 -62 -201 -32 -11 20 -11 26 1 33 11 7 17
4 22 -8 5 -14 7 -12 7 6 1 20 -3 22 -21 17 -43 -13 -49 -27 -27 -62 17 -26 28
-33 53 -33 18 0 36 3 40 7 4 4 25 13 47 19 36 11 39 11 27 -3 -11 -13 -14
-130 -3 -141 1 -1 10 1 19 4 16 6 17 16 11 79 -4 50 -3 75 5 80 19 11 22 0 22
-79 0 -55 4 -76 15 -80 8 -3 11 -1 8 4 -3 6 1 10 11 10 14 0 16 8 12 55 -3 30
-1 55 4 55 4 0 8 10 8 23 -1 20 -2 21 -14 5 -7 -10 -17 -18 -22 -18 -4 0 -3 5
3 11 6 6 9 19 6 28 -3 10 -2 12 4 6 16 -20 93 11 93 37 0 23 6 24 -130 -23z"/>
<path d="M1380 1620 c0 -4 6 -13 14 -20 8 -6 17 -21 19 -33 4 -18 5 -17 6 6 0
15 6 27 11 27 6 0 10 -12 10 -27 0 -17 3 -23 8 -16 5 8 13 9 22 3 17 -10 53 6
45 21 -4 6 -13 5 -25 -1 -16 -8 -21 -5 -32 17 -10 21 -21 28 -45 29 -18 1 -33
-2 -33 -6z"/>
<path d="M1840 1588 c0 -49 8 -47 14 5 3 20 1 37 -4 37 -6 0 -10 -19 -10 -42z"/>
<path d="M1206 1595 c7 -27 -4 -33 -24 -13 -16 16 -28 2 -13 -15 6 -8 22 -12
36 -9 14 2 31 0 38 -6 8 -6 18 -4 30 8 14 14 15 20 6 26 -7 4 -15 2 -17 -4 -2
-7 -11 -12 -19 -12 -11 0 -14 7 -9 25 5 21 3 25 -14 25 -17 0 -19 -4 -14 -25z"/>
<path d="M2304 1598 c1 -16 7 -23 21 -23 13 0 21 -8 23 -22 2 -13 10 -23 17
-23 8 0 12 6 9 14 -3 8 2 16 13 19 14 4 13 5 -4 4 -12 -1 -35 10 -51 26 -29
28 -29 28 -28 5z"/>
<path d="M1622 1584 c3 -33 40 -53 63 -34 11 9 13 16 5 24 -8 8 -13 7 -19 -3
-12 -19 -30 -5 -24 19 4 14 0 20 -11 20 -11 0 -15 -8 -14 -26z"/>
<path d="M84 1589 c-4 -7 -3 -9 3 -6 6 4 13 0 17 -8 3 -8 1 -15 -4 -15 -6 0
-10 -7 -10 -15 0 -8 6 -15 14 -15 8 0 17 -4 20 -8 3 -5 -5 -8 -17 -7 -15 1
-24 11 -30 34 -11 43 -18 36 -8 -9 5 -26 13 -36 29 -38 29 -4 39 -28 23 -54
-10 -17 -10 -17 9 -6 12 8 18 19 14 30 -4 13 0 16 14 13 11 -2 31 3 46 10 15
8 29 14 31 15 3 0 4 3 3 8 -2 4 -7 6 -11 4 -5 -1 -6 1 -3 6 2 4 1 14 -5 22 -7
13 -9 12 -9 -2 0 -19 -24 -18 -43 2 -10 10 -9 12 6 7 10 -4 17 -1 17 7 0 7 -6
13 -12 14 -36 4 -68 11 -77 16 -5 4 -13 1 -17 -5z m69 -36 c-7 -19 22 -44 43
-36 8 3 14 1 14 -4 0 -5 -8 -9 -18 -10 -9 -1 -22 -2 -27 -3 -21 -5 -36 0 -30
9 3 5 -2 17 -11 26 -15 15 -15 17 2 30 23 16 35 10 27 -12z"/>
<path d="M2580 1572 c0 -4 5 -13 12 -20 9 -9 9 -12 1 -12 -7 0 -11 -9 -10 -20
1 -11 2 -20 3 -20 1 0 16 6 34 14 30 12 30 14 10 19 -12 3 -24 15 -27 26 -5
20 -23 30 -23 13z"/>
<path d="M3 1526 c1 -16 8 -31 15 -34 8 -2 10 2 5 13 -5 14 -2 16 18 11 23 -7
23 -6 4 5 -11 7 -22 12 -24 10 -2 -1 -7 3 -12 11 -5 8 -7 2 -6 -16z"/>
<path d="M1190 1518 c-26 -43 -25 -58 5 -91 14 -15 22 -27 17 -27 -5 0 -8 -24
-7 -52 3 -89 17 -198 26 -198 32 0 34 11 34 178 0 144 -3 172 -18 195 -23 35
-33 34 -57 -5z m45 -45 c4 -16 8 -36 10 -45 2 -10 -1 -21 -6 -24 -5 -3 -9 9
-9 26 0 25 -4 31 -15 26 -9 -3 -15 0 -15 10 0 8 4 12 10 9 6 -3 7 1 4 9 -3 9
-1 16 5 16 6 0 13 -12 16 -27z"/>
<path d="M1286 1535 c-9 -7 -14 -15 -9 -17 15 -8 73 -1 73 8 -1 16 -46 22 -64
9z"/>
<path d="M536 1532 c-4 -7 -6 -16 -2 -19 3 -3 -1 -12 -9 -20 -23 -23 -18 -43
10 -43 27 0 31 18 16 70 -5 18 -9 21 -15 12z"/>
<path d="M1380 1499 c-7 -23 -9 -50 -7 -60 3 -11 1 -17 -4 -13 -5 3 -9 0 -9
-5 0 -14 47 -14 55 -1 3 6 1 10 -6 10 -10 0 -10 3 -1 12 7 7 12 31 12 55 0 58
-25 59 -40 2z"/>
<path d="M1443 1474 c3 -37 10 -70 17 -74 9 -5 9 -9 1 -14 -14 -9 -5 -26 14
-26 9 0 14 13 14 43 0 62 -20 137 -37 137 -12 0 -14 -13 -9 -66z"/>
<path d="M1601 1507 c-12 -19 -21 -48 -21 -66 0 -28 3 -31 31 -31 19 0 28 -4
23 -11 -3 -6 -16 -8 -29 -5 -24 6 -41 -16 -29 -35 9 -15 10 -138 2 -132 -7 4
-11 -47 -5 -64 1 -4 15 -9 31 -11 26 -3 28 -1 24 23 -3 15 -1 45 4 68 5 23 11
57 14 76 2 18 7 37 10 42 3 5 1 9 -4 9 -5 0 -7 14 -4 30 5 36 22 40 22 5 0
-14 4 -25 10 -25 16 0 1 102 -18 129 -27 36 -37 36 -61 -2z m45 -64 c-7 -18
-36 -16 -36 3 0 8 5 25 11 37 l12 21 9 -24 c5 -13 6 -30 4 -37z"/>
<path d="M2950 1487 c0 -55 1 -58 22 -55 26 3 38 38 14 38 -10 0 -16 9 -16 23
0 12 -5 29 -10 37 -7 11 -10 -2 -10 -43z"/>
<path d="M460 1515 c0 -18 34 -20 48 -2 8 9 3 13 -19 14 -20 2 -29 -2 -29 -12z"/>
<path d="M2753 1523 c-9 -3 -13 -26 -13 -69 0 -57 2 -64 20 -64 17 0 20 6 19
43 -2 60 -12 95 -26 90z"/>
<path d="M2648 1491 c-40 -13 -59 -15 -62 -7 -2 6 -5 1 -5 -11 -1 -21 0 -21
27 -7 33 17 76 20 52 3 -10 -7 -11 -9 -2 -7 8 2 12 7 10 12 -2 4 11 14 27 21
43 19 19 17 -47 -4z"/>
<path d="M46 1484 c-3 -9 -6 -17 -6 -18 0 -1 16 -2 35 -2 32 1 46 21 14 21 -8
0 -19 4 -25 8 -7 4 -15 0 -18 -9z"/>
<path d="M2120 1491 c0 -5 7 -12 16 -15 21 -8 21 -8 28 9 4 11 -1 15 -19 15
-14 0 -25 -4 -25 -9z"/>
<path d="M1295 1480 c-3 -5 -2 -10 4 -10 5 0 16 -3 25 -6 11 -4 16 -1 16 10 0
18 -35 22 -45 6z"/>
<path d="M1523 1483 c-22 -8 -14 -23 13 -23 15 0 24 5 22 12 -5 14 -18 18 -35
11z"/>
<path d="M2230 1443 c0 -17 6 -23 23 -23 21 1 22 1 3 15 -11 8 -14 15 -8 15 7
0 12 4 12 8 0 5 -7 9 -15 9 -9 0 -15 -10 -15 -24z"/>
<path d="M56 1453 c-2 -3 -2 -12 1 -21 4 -10 2 -13 -5 -8 -8 5 -10 2 -6 -8 7
-18 24 -11 24 10 0 8 3 13 8 12 4 -2 9 1 12 6 5 10 -25 18 -34 9z"/>
<path d="M146 1425 c4 -8 12 -15 19 -15 7 0 18 -7 25 -15 7 -8 21 -15 32 -15
17 0 18 3 8 14 -6 8 -18 12 -26 9 -10 -3 -12 0 -9 10 4 8 -1 17 -10 21 -9 3
-13 2 -10 -4 3 -6 1 -10 -4 -10 -6 0 -11 5 -11 10 0 6 -4 10 -10 10 -5 0 -7
-7 -4 -15z"/>
<path d="M491 1413 c-1 -12 6 -29 15 -37 8 -9 11 -16 5 -16 -6 0 -11 -18 -11
-40 0 -54 17 -51 22 4 3 42 -8 109 -12 76 -1 -8 -6 -4 -10 10 -7 23 -8 23 -9
3z"/>
<path d="M545 1409 c-19 -21 -19 -21 0 -35 10 -8 14 -14 7 -14 -7 0 -10 -16
-8 -45 1 -25 -1 -50 -5 -57 -4 -7 -3 -16 4 -20 9 -6 9 -8 0 -8 -7 0 -13 -9
-13 -20 0 -11 4 -20 10 -20 5 0 7 -7 4 -15 -4 -9 0 -15 9 -15 13 0 16 21 19
123 4 140 1 157 -27 126z"/>
<path d="M746 1398 c-4 -22 -7 -52 -9 -93 -1 -11 2 -33 6 -50 4 -16 4 -25 -1
-18 -4 7 -8 -11 -8 -42 -1 -47 1 -55 17 -55 15 0 19 8 19 40 0 40 0 40 38 40
24 0 32 3 23 9 -7 5 -15 30 -16 57 -3 32 -1 43 6 34 7 -13 9 -12 9 3 0 9 -7
17 -16 17 -13 0 -15 -9 -12 -49 3 -42 1 -48 -13 -41 -13 7 -15 23 -11 89 4 70
2 81 -12 81 -8 0 -18 -10 -20 -22z"/>
<path d="M800 1403 c-13 -15 -12 -16 4 -10 13 5 17 3 13 -6 -3 -8 3 -13 17
-14 11 0 15 1 9 4 -7 3 -13 13 -13 24 0 23 -10 24 -30 2z"/>
<path d="M975 1400 c-22 -4 -31 -8 -20 -10 17 -2 17 -3 -5 -10 l-25 -8 28 -1
c15 -1 27 -6 27 -12 0 -6 -9 -8 -22 -4 -22 6 -23 6 -3 -10 18 -14 20 -14 30 6
11 19 12 18 12 -10 0 -18 -3 -27 -7 -21 -5 8 -9 7 -13 -4 -4 -9 -3 -16 1 -16
4 0 8 -17 9 -37 0 -21 -2 -31 -5 -23 -3 10 -10 3 -18 -20 -7 -19 -13 -27 -13
-17 -1 10 4 27 9 37 7 13 7 21 0 25 -5 3 -10 0 -10 -9 0 -8 -5 -16 -11 -18 -7
-2 -8 -20 -4 -51 7 -43 10 -47 35 -47 27 0 28 2 35 67 7 66 15 204 12 202 -1
-1 -20 -5 -42 -9z"/>
<path d="M1277 1396 c-10 -26 -9 -38 4 -30 6 3 15 0 20 -7 7 -11 9 -11 9 3 0
9 6 19 13 21 6 3 2 6 -10 6 -12 1 -23 6 -25 13 -3 7 -7 5 -11 -6z"/>
<path d="M2186 1400 c-45 -6 -54 -20 -30 -45 16 -15 19 -16 23 -2 4 11 11 4
23 -24 9 -21 13 -39 10 -39 -12 0 -9 -80 3 -80 5 0 4 -4 -4 -9 -9 -6 -11 -15
-6 -27 5 -11 7 -22 7 -26 -1 -5 6 -8 16 -8 14 0 18 6 16 28 -9 84 -11 201 -3
196 5 -3 9 -1 9 5 0 5 8 12 18 14 11 3 7 5 -10 6 -14 0 -28 4 -30 9 -1 4 -21
5 -42 2z"/>
<path d="M71 1388 c-1 -10 -2 -18 -4 -18 -1 0 -17 4 -35 9 -25 8 -32 7 -29 -2
2 -7 20 -12 40 -12 19 0 39 -4 43 -8 4 -4 2 -7 -5 -7 -8 0 -11 -6 -7 -17 4 -9
1 -20 -6 -25 -10 -6 -10 -8 -1 -8 7 0 10 -6 7 -14 -6 -14 -33 -11 -44 5 -3 4
-11 4 -18 0 -10 -6 -4 -12 17 -21 17 -7 31 -20 31 -29 0 -10 -3 -12 -8 -5 -12
18 -52 24 -52 7 0 -8 4 -12 9 -8 6 3 13 0 18 -7 4 -7 20 -13 35 -13 14 -1 24
3 22 7 -8 13 41 9 55 -4 11 -11 11 -9 2 9 -12 23 -5 56 10 47 6 -3 7 -15 3
-26 -4 -13 -2 -18 4 -14 5 3 15 -1 22 -9 6 -7 17 -12 24 -9 7 3 13 -2 13 -10
0 -8 -6 -12 -14 -9 -7 3 -13 -2 -13 -12 0 -9 -4 -13 -10 -10 -5 3 -7 0 -5 -7
3 -8 -5 -24 -19 -37 -20 -19 -28 -21 -43 -11 -16 10 -16 11 0 6 11 -3 17 0 17
10 0 12 -4 12 -20 4 -16 -9 -20 -8 -20 5 0 8 -7 15 -15 15 -8 0 -15 -5 -15
-12 0 -6 3 -8 6 -5 4 3 15 -5 26 -18 11 -14 28 -25 38 -25 11 0 23 -8 28 -17
9 -16 11 -16 36 0 40 26 66 22 67 -10 2 -34 2 -28 -4 -88 -8 -83 -17 -105 -41
-105 -17 0 -18 2 -6 10 12 7 8 10 -14 10 -16 0 -26 3 -23 7 4 3 2 12 -5 20 -6
7 -8 16 -5 20 9 8 38 -17 31 -28 -3 -5 7 -8 23 -8 17 1 21 3 10 6 -9 2 -15 9
-12 14 4 5 0 9 -7 10 -7 1 -2 5 12 10 24 8 24 8 -5 7 -61 -1 -71 1 -55 12 11
7 11 10 2 10 -7 0 -10 5 -7 11 4 6 13 8 20 5 9 -3 13 2 12 13 -1 12 -9 19 -23
19 -17 0 -20 -5 -17 -22 4 -21 4 -21 -11 -2 -9 11 -16 23 -16 27 0 10 74 18
78 8 2 -4 11 -5 19 -2 14 6 14 8 -3 14 -18 7 -18 8 3 8 12 1 24 -5 26 -11 4
-10 6 -10 6 0 1 7 -6 15 -14 18 -8 4 -12 10 -9 15 9 16 -5 10 -26 -11 -23 -23
-97 -29 -84 -7 6 9 5 9 -8 0 -12 -11 -18 -10 -31 5 -15 17 -15 18 4 19 12 1
17 -3 13 -9 -5 -7 -2 -8 5 -3 9 5 6 14 -11 32 -13 13 -24 19 -26 13 -3 -7 -9
-4 -17 6 -11 16 -14 16 -27 3 -23 -22 -18 -49 8 -49 14 0 25 -8 29 -20 4 -11
10 -18 15 -15 5 3 11 1 15 -4 3 -5 -2 -14 -10 -19 -15 -8 -15 -10 -1 -21 20
-17 20 -37 0 -45 -8 -3 -12 -11 -8 -17 4 -8 0 -8 -15 0 -24 13 -29 36 -6 28 8
-4 17 -2 20 3 4 6 0 10 -7 11 -7 0 -21 2 -31 4 -9 2 -15 0 -12 -5 3 -5 -1 -11
-7 -13 -10 -4 -9 -8 2 -17 11 -9 12 -13 2 -17 -6 -2 -12 -16 -12 -30 0 -19 4
-24 16 -19 9 3 19 6 22 7 4 0 -2 4 -13 9 -16 7 -17 9 -3 9 9 1 24 -7 34 -16
17 -17 17 -17 12 5 -3 12 -2 22 3 22 5 0 9 -4 9 -10 0 -5 9 -10 20 -10 25 0
26 28 3 46 -12 9 -14 13 -5 14 7 0 11 4 8 9 -3 5 5 9 17 9 19 0 23 -5 20 -27
-1 -14 -5 -36 -9 -48 -5 -20 -3 -23 22 -23 56 0 74 -10 74 -40 0 -41 -10 -60
-30 -60 -26 0 -31 12 -20 48 5 19 5 34 -1 37 -5 4 -9 -3 -9 -14 0 -11 -4 -22
-9 -26 -6 -3 -6 -18 -1 -35 5 -19 5 -28 -1 -25 -5 4 -9 -1 -9 -9 0 -9 -5 -16
-11 -16 -5 0 -8 -4 -4 -9 3 -5 1 -12 -5 -16 -5 -3 -10 -27 -9 -53 0 -38 2 -43
9 -24 13 32 25 27 25 -10 0 -23 -5 -34 -17 -36 -12 -2 -18 -13 -18 -33 0 -26
3 -28 31 -25 21 2 29 0 26 -9 -4 -8 3 -10 18 -7 18 3 23 0 21 -14 -3 -23 -42
-28 -51 -7 -3 8 -12 12 -20 9 -8 -3 -16 0 -16 7 -1 7 -4 -1 -8 -18 -4 -17 -2
-33 4 -37 15 -12 67 -10 60 2 -3 5 1 10 9 10 9 0 16 -4 16 -9 0 -6 9 -9 20 -8
11 1 20 5 20 10 0 5 -7 7 -15 3 -12 -4 -13 -2 -3 14 7 10 21 21 33 23 11 2 8
3 -7 2 -28 -2 -36 12 -19 30 7 8 18 93 21 163 0 7 3 11 8 9 4 -3 7 5 7 18 0
13 -3 21 -8 18 -4 -2 -7 3 -7 11 0 10 8 14 28 11 15 -2 31 -4 36 -4 5 -1 6
-17 3 -37 -4 -25 -2 -34 6 -31 7 2 13 22 15 44 2 32 7 40 20 38 9 -1 11 0 4 2
-7 3 -10 9 -7 14 4 5 1 9 -4 9 -6 0 -11 -4 -11 -10 0 -5 -20 -10 -45 -10 l-45
0 6 58 c11 122 15 141 32 145 16 4 16 5 0 6 -21 1 -26 51 -5 51 9 0 9 2 -1 8
-7 5 -11 23 -10 40 l2 32 235 0 c129 0 232 2 229 5 -3 3 -130 6 -282 7 -273 1
-277 1 -256 20 11 10 20 27 20 38 0 10 7 23 16 28 11 6 15 18 12 35 -3 15 0
28 6 31 6 2 1 5 -12 5 -13 1 -21 -3 -18 -7 2 -4 -11 -12 -30 -18 -19 -6 -34
-7 -34 -3 0 5 12 12 26 15 19 5 22 9 12 15 -18 12 -31 11 -23 -1 8 -13 -1 -13
-24 2 -10 6 -27 8 -37 4 -16 -6 -16 -9 -4 -16 12 -8 11 -10 -7 -10 -25 0 -39
16 -21 23 10 4 10 6 1 6 -14 1 -6 31 9 31 5 0 6 -4 3 -10 -3 -5 -2 -10 4 -10
5 0 13 5 17 11 4 8 9 7 16 -2 8 -11 9 -11 5 1 -2 8 -9 16 -15 16 -7 1 -19 2
-27 3 -8 0 -14 4 -13 9 0 4 -4 18 -10 32 -8 18 -11 20 -11 8z m179 -135 c0 -9
-3 -13 -7 -10 -3 4 -16 1 -29 -7 -12 -8 -24 -12 -27 -9 -8 8 16 30 39 36 10 2
20 5 22 6 1 0 2 -6 2 -16z m-14 -505 c1 -9 -4 -22 -12 -29 -10 -8 -11 -15 -4
-25 8 -9 6 -15 -7 -23 -17 -10 -17 -10 2 -11 18 0 20 -5 17 -37 -3 -21 -11
-42 -18 -46 -21 -12 -17 -26 6 -20 11 3 20 1 20 -5 0 -16 -41 -26 -50 -13 -3
7 -14 9 -22 6 -9 -4 -19 -1 -24 6 -4 8 -3 10 5 5 6 -4 14 0 17 8 3 9 14 16 23
17 12 0 12 2 2 6 -11 5 -11 7 0 14 11 7 9 9 -6 9 -17 0 -17 2 -5 10 13 9 13
10 0 11 -10 0 -8 3 5 9 18 8 18 9 2 9 -17 1 -17 2 -2 17 18 19 12 32 -8 16 -7
-6 -18 -8 -25 -3 -16 10 12 51 36 52 14 0 13 2 -3 9 -18 8 -18 9 5 10 23 1 24
2 5 10 -17 8 -16 9 9 7 19 -1 30 -8 32 -19z"/>
<path d="M630 1349 c0 -35 -3 -48 -11 -43 -7 4 -10 1 -7 -6 8 -26 25 -21 31 8
3 17 9 41 12 54 5 18 2 27 -9 31 -13 5 -16 -2 -16 -44z"/>
<path d="M1344 1378 c-4 -7 -3 -8 4 -4 8 5 12 -3 12 -23 0 -17 -4 -31 -9 -31
-4 0 -6 -12 -3 -27 4 -22 2 -25 -13 -20 -13 5 -16 3 -11 -8 9 -24 -4 -48 -19
-35 -9 8 -11 4 -7 -16 5 -25 6 -24 37 27 18 29 30 59 27 67 -3 9 -1 13 5 9 6
-4 13 0 17 8 3 8 1 17 -4 20 -6 4 -10 15 -10 26 0 21 -15 25 -26 7z"/>
<path d="M180 1372 c0 -4 12 -18 25 -31 23 -21 25 -21 25 -5 0 11 -11 24 -25
31 -14 6 -25 8 -25 5z"/>
<path d="M1036 1370 c11 -20 11 -19 13 -97 1 -84 9 -78 13 10 2 54 -1 70 -16
85 -13 11 -16 12 -10 2z"/>
<path d="M1420 1374 c0 -5 5 -15 12 -22 6 -6 12 -27 13 -47 1 -30 -3 -35 -22
-35 -29 0 -57 -38 -41 -57 17 -21 28 -15 18 12 -8 20 -7 23 7 18 11 -4 14 -3
9 5 -11 17 19 15 34 -3 13 -16 4 -39 -12 -29 -7 4 -8 2 -4 -4 8 -14 16 -15 35
-3 11 7 11 13 0 32 -7 13 -14 35 -15 49 -2 19 3 14 22 -20 41 -72 76 -142 72
-145 -2 -2 -14 16 -27 41 -16 29 -27 41 -32 33 -4 -7 -5 -18 -2 -26 3 -8 0
-11 -8 -8 -18 6 -46 -11 -36 -22 5 -4 12 -1 17 7 8 13 10 12 10 -3 0 -10 4
-16 9 -13 5 3 11 -1 15 -9 3 -8 14 -15 24 -15 12 0 24 -11 31 -28 7 -15 22
-39 34 -53 13 -13 23 -27 24 -32 3 -35 15 -110 19 -122 4 -8 1 -15 -5 -15 -6
0 -11 10 -12 23 0 12 -3 16 -6 10 -2 -7 -11 -13 -19 -13 -8 0 -14 -4 -14 -10
0 -5 9 -10 20 -10 14 0 20 -7 20 -24 0 -29 -34 -41 -55 -19 -16 16 -18 23 -15
71 3 65 -73 172 -123 172 -26 0 -95 -67 -107 -104 -13 -39 -16 -98 -6 -114 4
-7 3 -12 -2 -12 -6 0 -15 -14 -21 -30 -5 -17 -6 -28 -2 -25 5 2 11 -4 14 -15
3 -13 1 -18 -6 -13 -7 4 -8 -26 -4 -100 6 -101 5 -107 -14 -107 -11 0 -19 -7
-19 -16 0 -14 3 -14 15 -4 13 10 15 9 15 -9 0 -14 6 -21 18 -20 10 0 12 3 5 6
-26 10 -12 23 25 24 l37 2 -32 6 c-24 4 -30 10 -24 20 7 11 27 11 116 1 88 -9
110 -9 116 2 7 10 9 9 9 -4 0 -10 5 -18 10 -18 6 0 10 11 10 25 0 14 5 25 10
25 6 0 10 -10 10 -23 0 -12 9 -30 20 -40 11 -9 20 -13 20 -7 0 5 -4 11 -8 14
-5 3 -7 19 -4 36 4 25 8 31 23 27 11 -3 19 -1 19 5 0 21 -44 2 -51 -22 -8 -30
-1 93 9 170 6 44 11 55 27 58 17 3 17 1 5 -8 -12 -8 -9 -9 14 -6 53 9 54 26 3
26 -62 0 -61 20 1 22 l47 1 -50 6 c-29 4 -45 9 -38 14 13 8 13 83 0 104 -4 7
-7 28 -5 48 2 34 3 35 46 35 26 0 41 -4 37 -10 -3 -5 -1 -10 5 -10 8 0 9 -23
5 -79 -5 -48 -4 -81 2 -84 6 -4 9 -26 6 -49 -2 -24 -4 -50 -5 -58 -1 -8 0 -43
0 -78 2 -57 4 -63 27 -72 14 -5 25 -14 25 -20 0 -13 -36 -13 -61 0 -14 8 -19
7 -19 -1 0 -7 -3 -9 -6 -6 -4 3 -15 2 -26 -4 -16 -8 -19 -20 -17 -64 2 -36 6
-52 13 -47 6 3 17 7 25 7 28 0 23 25 -6 26 -23 1 -24 2 -5 6 12 2 22 8 22 13
0 5 -7 7 -15 4 -8 -4 -15 -1 -15 4 0 7 18 9 50 5 34 -4 50 -2 50 6 0 6 -8 11
-17 12 -14 0 -13 2 4 9 23 10 51 50 34 50 -27 0 -49 118 -28 148 16 21 27 13
28 -20 2 -31 2 -31 8 7 4 27 2 43 -6 48 -7 4 -13 14 -13 22 0 7 -8 16 -17 18
-17 4 -17 5 0 6 15 1 20 17 16 47 0 4 5 10 13 15 10 6 9 11 -7 23 -17 13 -18
17 -6 25 11 7 8 10 -15 14 -27 4 -27 4 6 6 32 1 33 3 15 13 -19 12 -19 12 5
19 l25 7 -25 1 c-20 1 -22 3 -10 11 13 8 12 10 -3 10 -10 0 -15 5 -12 10 3 6
-2 10 -13 10 -10 0 -19 7 -19 15 0 9 9 15 22 15 12 0 25 3 28 6 12 13 -13 43
-39 46 -25 3 -26 5 -29 88 -2 47 -6 96 -9 110 -6 20 -1 28 21 42 26 16 26 17
6 18 -54 0 -62 -20 -43 -103 5 -23 11 -84 13 -134 l3 -93 -28 0 c-26 0 -40 22
-20 33 4 2 1 2 -5 1 -8 -2 -13 7 -13 21 0 20 -5 25 -27 25 -25 0 -25 -15 0
-15 7 0 11 -9 9 -18 -2 -10 2 -25 9 -33 9 -11 8 -14 -5 -14 -10 0 -14 -4 -11
-10 3 -5 2 -10 -4 -10 -6 0 -20 18 -31 40 -23 45 -25 54 -8 44 6 -4 -19 51
-57 122 -68 129 -85 157 -85 138z m39 -377 c26 -23 29 -31 36 -102 2 -22 4
-40 5 -40 1 0 3 -10 6 -22 2 -14 -2 -23 -14 -26 -9 -3 4 -5 29 -6 45 -1 45 -2
41 -31 -3 -18 0 -30 7 -30 6 0 11 14 11 32 0 18 4 28 8 23 5 -6 6 -54 4 -107
-3 -76 -7 -98 -18 -98 -8 0 -14 -4 -14 -10 0 -5 -4 -10 -9 -10 -6 0 -8 32 -6
73 3 68 3 69 -5 21 -18 -101 -12 -97 -130 -95 -106 2 -132 7 -92 18 20 5 22
12 21 62 -1 61 -4 59 -19 -10 -7 -36 -9 -23 -7 65 2 75 6 111 15 114 16 5 15
34 0 51 -11 11 -10 13 3 8 13 -4 15 -1 12 13 -3 10 2 32 10 49 11 22 12 31 3
34 -6 3 -2 8 9 13 11 4 24 13 28 21 12 19 36 16 66 -10z"/>
<path d="M1352 643 l-2 -51 55 -4 c48 -3 55 -1 55 16 0 15 -3 16 -15 6 -9 -8
-28 -10 -49 -6 -32 6 -35 10 -39 49 -3 40 -4 40 -5 -10z"/>
<path d="M2290 1363 c0 -12 6 -24 13 -26 10 -4 10 -6 0 -6 -14 -1 -18 -31 -4
-31 16 0 19 36 5 61 -13 23 -13 23 -14 2z"/>
<path d="M1080 1281 c0 -49 -4 -91 -8 -93 -4 -1 -2 -14 5 -28 13 -25 13 -25
14 13 5 118 3 197 -3 197 -5 0 -8 -40 -8 -89z"/>
<path d="M2880 1359 c-12 -9 -12 -10 3 -5 11 4 31 -3 48 -15 17 -12 32 -19 35
-16 4 4 -57 47 -67 47 -2 0 -11 -5 -19 -11z"/>
<path d="M2790 1343 c1 -16 115 -60 135 -52 17 6 16 8 -8 8 -15 1 -50 12 -77
26 -28 14 -50 22 -50 18z"/>
<path d="M1406 1309 c-18 -31 -8 -39 18 -13 18 17 20 30 8 38 -5 3 -16 -8 -26
-25z"/>
<path d="M479 1234 c-3 -54 -1 -70 8 -67 7 3 10 9 7 14 -3 5 0 9 5 9 6 0 11 9
11 20 0 11 -5 20 -11 20 -6 0 -3 8 7 18 16 15 16 17 1 20 -8 2 -18 11 -20 20
-2 9 -6 -15 -8 -54z"/>
<path d="M2288 1250 c-2 -28 0 -40 9 -40 8 0 13 14 13 40 0 22 -4 40 -9 40 -5
0 -11 -18 -13 -40z"/>
<path d="M623 1230 c-2 -22 2 -40 7 -40 6 0 10 18 10 40 0 52 -14 52 -17 0z"/>
<path d="M2760 1170 c0 -40 4 -70 10 -70 6 0 10 30 10 70 0 40 -4 70 -10 70
-6 0 -10 -30 -10 -70z"/>
<path d="M2891 1165 c1 -53 6 -75 15 -75 15 0 20 28 16 98 -3 37 -8 52 -18 52
-12 0 -15 -15 -13 -75z"/>
<path d="M2156 1184 c-12 -32 -6 -44 22 -43 23 2 24 2 5 6 -26 5 -31 23 -8 23
8 0 15 7 15 15 0 20 -26 19 -34 -1z"/>
<path d="M2286 1178 c-9 -36 -8 -38 22 -37 l27 1 -25 8 c-14 4 -19 8 -12 9 13
1 17 41 3 41 -5 0 -11 -10 -15 -22z"/>
<path d="M1214 1128 c-9 -15 5 -60 17 -52 6 3 9 15 6 25 -3 11 1 19 12 21 12
3 10 5 -6 10 -13 3 -26 2 -29 -4z"/>
<path d="M1410 1125 c0 -11 7 -14 25 -9 21 5 25 3 25 -15 0 -23 -10 -27 -28
-9 -8 8 -15 8 -27 -2 -14 -11 -17 -10 -21 8 -4 13 -11 19 -21 15 -10 -4 -11
-9 -4 -16 6 -6 11 -17 11 -24 0 -18 -27 -16 -34 3 -3 8 -11 12 -17 9 -7 -5 -5
-13 7 -26 16 -18 17 -18 56 2 l39 20 35 -21 c26 -17 80 -76 89 -97 4 -9 45 12
45 24 0 11 -4 11 -21 2 -17 -9 -23 -8 -30 2 -5 9 -1 17 13 25 14 8 17 13 9 18
-7 4 -19 2 -27 -5 -13 -10 -17 -10 -24 1 -11 18 14 35 33 24 6 -4 4 2 -6 13
-9 11 -16 22 -15 24 2 2 -2 -2 -9 -10 -7 -8 -14 -19 -16 -25 -3 -8 -9 -7 -18
2 -11 10 -11 16 -1 32 10 17 8 21 -18 35 -37 19 -50 19 -50 0z"/>
<path d="M630 1097 c0 -18 102 -17 108 1 5 15 -24 16 -34 1 -4 -8 -9 -7 -16 2
-7 11 -11 11 -15 2 -2 -7 -9 -13 -14 -13 -6 0 -7 5 -4 10 3 6 -1 10 -9 10 -9
0 -16 -6 -16 -13z"/>
<path d="M1840 1101 c0 -5 -8 -12 -17 -14 -16 -4 -16 -5 1 -6 12 -1 16 -6 12
-16 -4 -10 1 -15 15 -15 12 0 17 4 13 11 -3 6 0 15 7 20 11 7 10 9 -4 9 -10 0
-15 5 -12 10 3 6 1 10 -4 10 -6 0 -11 -4 -11 -9z"/>
<path d="M554 1089 c-3 -6 -1 -16 4 -21 8 -8 4 -20 -14 -41 l-25 -30 23 -24
c13 -14 30 -22 40 -20 21 6 24 -14 6 -43 -11 -17 -9 -23 13 -43 24 -20 25 -23
10 -37 -8 -8 -18 -14 -20 -12 -5 2 -5 -16 -2 -50 1 -9 4 -8 11 2 9 13 11 13
20 0 6 -10 6 -16 0 -18 -14 -5 -13 -32 1 -32 6 0 9 -7 5 -15 -3 -8 0 -15 7
-15 20 0 14 -130 -7 -145 -8 -7 -12 -16 -8 -20 4 -4 -3 -6 -14 -3 -17 4 -20 2
-16 -14 3 -13 7 -16 12 -8 4 6 10 11 14 11 29 -4 38 1 33 18 -2 10 -1 25 4 32
14 22 24 -20 12 -51 -9 -24 -7 -29 17 -44 39 -22 43 -21 35 16 -9 41 -14 46
-25 28 -8 -13 -10 -13 -10 1 0 19 23 31 36 20 5 -4 20 -2 34 5 19 11 21 14 7
14 -28 0 -21 70 8 71 16 1 17 2 3 6 -15 4 -18 16 -18 72 l0 67 35 -4 c21 -3
35 0 35 7 0 6 -16 11 -35 11 -34 0 -35 1 -35 40 0 40 0 40 40 40 29 0 40 4 40
15 0 10 -9 14 -24 13 -14 -1 -22 -6 -20 -10 3 -4 -2 -8 -10 -8 -12 0 -16 11
-16 45 l0 45 38 1 c33 2 33 2 7 6 -16 2 -40 9 -52 15 -13 6 -26 8 -30 5 -3 -4
1 -7 10 -7 10 0 17 -7 17 -15 0 -8 -4 -15 -8 -15 -10 0 -9 -51 1 -67 4 -7 3
-15 -3 -18 -6 -4 -8 -16 -4 -27 4 -14 2 -18 -5 -14 -14 9 -15 46 -1 46 7 0 7
7 0 20 -6 11 -8 25 -5 30 3 5 -1 25 -9 45 -8 19 -12 35 -8 35 4 0 0 5 -8 10
-12 8 -10 10 8 10 13 0 20 -4 17 -10 -3 -5 -1 -10 5 -10 25 0 2 25 -26 29 -26
3 -27 4 -9 11 17 8 16 9 -8 9 -27 1 -27 1 -13 -28 20 -38 37 -143 25 -156 -6
-5 -9 -2 -9 8 0 9 -7 17 -15 17 -21 0 -19 -13 4 -27 17 -10 19 -22 17 -83 -3
-59 -1 -70 13 -69 10 0 11 2 4 6 -10 3 -9 11 2 34 10 18 11 29 5 29 -6 0 -8 5
-5 10 3 6 1 10 -5 10 -6 0 -8 5 -4 11 4 8 12 2 21 -15 10 -20 11 -31 2 -47 -9
-17 -8 -20 2 -14 9 6 10 3 5 -11 -5 -10 -8 -40 -7 -66 1 -27 -2 -48 -6 -48 -4
0 -13 -11 -19 -25 -9 -18 -9 -24 0 -22 6 1 14 7 18 12 4 6 8 -3 8 -19 0 -24
-2 -26 -15 -16 -8 6 -19 9 -25 5 -5 -3 -10 1 -10 9 0 9 -4 16 -10 16 -20 0 -9
21 16 30 14 6 22 14 19 20 -3 5 -2 10 4 10 6 0 8 7 5 15 -11 26 -33 18 -28
-11 3 -16 1 -23 -6 -19 -5 3 -10 24 -10 46 0 21 -4 39 -10 39 -5 0 -10 21 -10
48 0 34 3 43 10 32 8 -12 10 -11 10 8 0 12 -4 22 -10 22 -5 0 -6 7 -3 17 5 12
3 14 -7 8 -10 -6 -12 -1 -7 25 4 18 7 39 7 46 0 8 9 14 20 14 11 0 20 7 20 15
0 18 -12 19 -27 4 -8 -8 -14 -6 -22 9 -9 17 -8 22 9 27 11 3 20 13 20 21 0 19
-19 18 -26 -1 -5 -12 -10 -13 -20 -4 -21 17 -17 39 7 39 12 0 18 4 13 11 -3 6
0 16 7 21 11 8 11 9 -2 5 -9 -3 -21 -1 -27 5 -8 8 -9 5 -6 -9 7 -24 -13 -40
-28 -25 -8 8 -8 15 1 26 7 8 10 20 6 26 -8 13 -32 13 -41 -1z"/>
<path d="M2042 1079 c3 -8 18 -14 33 -14 16 -1 30 -6 33 -13 2 -7 8 -12 13
-12 4 0 6 8 3 18 -5 15 -4 15 10 -2 8 -10 22 -16 31 -13 19 8 19 0 0 -20 -9
-8 -13 -18 -10 -21 7 -7 34 29 35 47 0 8 -6 11 -17 7 -11 -5 -23 1 -35 16 -10
13 -18 18 -18 12 0 -12 -49 -12 -69 1 -9 5 -12 3 -9 -6z"/>
<path d="M2801 1008 c1 -46 5 -112 9 -148 l8 -65 0 65 c1 86 4 95 12 35 l7
-50 1 57 c2 48 -1 56 -14 51 -13 -5 -14 3 -9 58 6 69 11 81 25 59 8 -13 10
-12 10 3 0 12 -8 17 -25 17 -25 0 -25 -1 -24 -82z"/>
<path d="M2251 1071 c-12 -8 -13 -12 -1 -26 19 -22 -2 -44 -25 -25 -20 16 -32
5 -15 -15 7 -8 10 -20 7 -28 -2 -7 9 -28 26 -47 16 -19 27 -27 24 -18 -3 9 0
21 7 27 21 17 25 2 9 -30 -13 -27 -13 -32 1 -54 9 -13 16 -35 16 -47 0 -19 -2
-20 -10 -8 -8 11 -10 5 -8 -22 1 -24 6 -34 11 -29 16 16 34 -11 31 -47 -1 -22
2 -32 12 -32 10 0 14 -13 14 -46 0 -50 25 -89 40 -64 5 7 4 24 -1 37 -5 12 -6
36 -3 53 5 25 3 30 -12 30 -17 0 -19 6 -15 52 3 41 6 48 12 33 9 -20 9 -20 6
0 -2 11 -10 19 -18 19 -13 -1 -16 9 -13 58 3 66 -11 109 -51 157 -27 31 -26
51 1 51 10 0 14 -7 12 -20 -2 -10 0 -19 5 -20 25 -1 27 1 18 19 -6 10 -7 22
-3 26 4 5 2 5 -4 2 -6 -4 -20 0 -30 8 -23 17 -25 17 -43 6z"/>
<path d="M2363 1073 c26 -2 67 -2 90 0 23 2 2 3 -48 3 -49 0 -68 -1 -42 -3z"/>
<path d="M1885 1060 c-3 -5 -3 -10 2 -10 4 0 1 -5 -7 -10 -13 -9 -13 -10 0
-11 10 0 8 -3 -5 -9 -13 -5 -14 -9 -5 -9 8 0 24 4 35 9 20 9 20 9 0 10 -17 2
-16 3 5 10 l25 8 -25 2 c-23 1 -23 2 -5 10 16 7 17 9 3 9 -9 1 -20 -3 -23 -9z"/>
<path d="M448 1043 c18 -7 4 -23 -16 -17 -13 5 -14 4 -3 -4 11 -8 11 -14 1
-33 -7 -13 -18 -27 -24 -31 -8 -6 -7 -8 1 -8 7 0 10 -9 7 -22 -12 -49 -11 -98
1 -98 8 0 13 19 13 54 0 47 12 85 50 159 2 4 -7 7 -20 6 -12 0 -17 -3 -10 -6z"/>
<path d="M1045 1040 c3 -5 -2 -10 -12 -11 -17 0 -17 -1 0 -7 17 -7 16 -9 -4
-30 -13 -15 -16 -23 -8 -21 27 3 40 -1 34 -11 -3 -5 -1 -10 4 -10 6 0 11 21
11 50 0 39 -4 50 -16 50 -8 0 -12 -4 -9 -10z"/>
<path d="M2348 1031 c16 -11 52 -97 52 -124 0 -19 5 -27 18 -27 13 0 14 2 4 9
-8 4 -14 12 -14 16 0 4 6 12 14 16 10 7 10 9 0 9 -7 0 -10 5 -7 10 3 6 2 10
-3 10 -4 0 -16 16 -25 35 -20 43 -22 60 -3 25 l14 -25 -1 27 c-2 22 -7 26 -30
26 -16 -1 -24 -4 -19 -7z"/>
<path d="M214 1024 c-13 -6 -6 -54 8 -54 5 0 6 5 3 10 -3 6 -1 10 4 10 6 0 11
5 11 11 0 5 -4 7 -10 4 -5 -3 -10 -2 -10 4 0 5 6 12 13 14 6 3 8 5 2 5 -5 0
-15 -2 -21 -4z"/>
<path d="M2690 1010 c0 -5 5 -10 10 -10 7 0 8 -28 4 -80 -4 -66 -3 -80 9 -80
10 0 13 11 12 43 -2 23 -3 63 -4 90 -1 35 -5 47 -16 47 -8 0 -15 -4 -15 -10z"/>
<path d="M470 996 c0 -8 9 -17 19 -21 13 -4 18 -12 14 -28 -4 -18 -3 -19 6 -7
16 23 13 48 -8 60 -26 13 -31 13 -31 -4z"/>
<path d="M1170 985 c5 -14 11 -47 12 -73 l1 -47 6 50 c7 54 1 87 -18 93 -8 3
-8 -3 -1 -23z"/>
<path d="M1644 998 c-4 -6 -3 -8 4 -4 6 4 11 -1 11 -11 0 -10 4 -40 8 -68 l8
-50 5 45 c4 28 1 56 -7 73 -15 30 -19 32 -29 15z"/>
<path d="M1881 984 c5 -7 6 -14 1 -16 -5 -1 -2 -11 7 -20 16 -16 17 -15 13 16
-2 19 -9 33 -18 33 -10 0 -11 -4 -3 -13z"/>
<path d="M2117 983 c22 -4 22 -5 7 -35 -18 -35 -24 -85 -12 -110 7 -14 4 -18
-12 -18 -13 0 -20 -7 -20 -19 0 -24 14 -34 39 -26 16 5 17 14 14 68 -3 40 1
77 11 105 l15 42 -32 -1 c-23 -1 -26 -3 -10 -6z"/>
<path d="M2170 980 c0 -16 38 -55 46 -47 3 3 -6 18 -20 33 -17 20 -25 24 -26
14z"/>
<path d="M977 973 c9 -3 10 -10 3 -23 -12 -23 -3 -29 30 -19 23 6 23 7 3 8
-16 1 -20 6 -16 21 4 15 1 20 -13 19 -11 0 -13 -3 -7 -6z"/>
<path d="M2620 915 c0 -52 -3 -64 -17 -68 -14 -4 -13 -5 3 -6 24 -1 36 -20 41
-63 2 -24 -1 -28 -21 -28 -18 0 -26 7 -29 23 -4 19 -4 18 -6 -5 -1 -25 3 -28
29 -28 17 0 29 -3 29 -7 -1 -5 -1 -44 0 -88 l2 -80 42 -27 c23 -15 43 -25 45
-24 7 8 -12 36 -24 36 -27 0 -41 39 -39 111 1 71 12 93 42 82 9 -4 13 6 13 36
0 30 -4 41 -15 41 -10 0 -15 -11 -15 -35 0 -19 -5 -35 -11 -35 -6 0 -8 7 -5
16 4 10 2 13 -6 8 -7 -5 -9 1 -4 20 4 18 2 26 -6 26 -10 0 -10 2 0 9 7 4 12
23 10 44 -1 20 -6 33 -10 31 -7 -5 -12 25 -9 52 1 7 -8 14 -19 17 -18 5 -20 0
-20 -58z"/>
<path d="M1830 960 c13 -9 13 -10 0 -10 -13 0 -13 -1 0 -10 12 -8 12 -10 -5
-11 -20 0 -20 0 0 -9 13 -6 15 -9 5 -9 -11 -1 -11 -4 -3 -9 7 -4 11 -35 11
-82 0 -41 5 -137 12 -214 l14 -138 34 6 c43 6 45 9 37 35 -8 26 -25 27 -25 2
0 -10 -8 -21 -17 -23 -16 -4 -18 3 -18 64 0 37 3 68 8 68 4 0 7 -5 7 -11 0 -5
5 -7 10 -4 15 9 12 25 -5 25 -8 0 -15 5 -15 11 0 5 -4 8 -8 5 -5 -3 -9 2 -9
10 0 9 11 20 24 25 31 12 29 17 -4 13 -16 -2 -22 -1 -15 2 6 3 12 12 12 20 0
8 8 14 18 15 14 0 14 2 -3 9 -20 9 -20 9 0 10 18 1 18 2 -4 11 -15 6 -21 14
-17 25 3 9 9 27 12 40 4 17 13 24 29 24 21 0 23 -3 18 -40 -5 -33 -3 -40 11
-40 25 0 20 54 -8 84 -25 28 -46 34 -46 14 0 -9 -4 -8 -10 2 -6 10 -10 11 -10
3 0 -28 -17 -11 -18 17 0 19 4 30 13 30 9 0 12 -6 9 -15 -5 -12 1 -15 27 -14
30 2 31 3 7 6 -18 3 -25 9 -21 19 3 8 0 14 -7 14 -6 0 -8 5 -4 13 5 7 0 6 -11
-3 -17 -14 -18 -13 -13 8 5 18 2 22 -15 22 -18 0 -19 -2 -7 -10z"/>
<path d="M450 936 c0 -10 9 -16 21 -16 24 0 21 23 -4 28 -10 2 -17 -3 -17 -12z"/>
<path d="M526 920 c-20 -42 -21 -40 14 -40 35 0 34 -2 16 40 l-13 33 -17 -33z"/>
<path d="M1550 945 c0 -18 14 -30 39 -33 16 -3 22 1 19 10 -3 7 -14 12 -24 11
-10 -1 -22 4 -26 10 -4 7 -8 8 -8 2z"/>
<path d="M2150 917 c0 -20 37 -29 44 -11 3 8 1 14 -3 14 -5 0 -16 3 -25 6 -10
4 -16 1 -16 -9z"/>
<path d="M301 885 c-18 -20 -20 -25 -7 -25 9 0 16 4 16 9 0 5 9 7 20 4 15 -4
20 0 20 16 0 28 -20 26 -49 -4z"/>
<path d="M895 900 c-3 -5 -3 -15 1 -22 4 -6 0 -16 -8 -22 -10 -8 -13 -23 -10
-48 4 -33 8 -38 31 -38 20 0 23 -2 11 -10 -10 -6 -11 -10 -2 -10 14 0 12 -21
-3 -32 -6 -4 -2 -8 8 -8 13 0 17 8 17 35 0 28 -4 35 -19 35 -12 0 -20 9 -24
27 -6 34 1 53 20 53 8 0 13 6 10 13 -2 6 -10 11 -16 10 -18 -5 -12 15 7 20 15
4 15 5 0 6 -9 0 -20 -3 -23 -9z"/>
<path d="M2212 890 c-16 -26 -16 -27 13 -32 14 -3 25 -1 25 3 0 5 -4 9 -10 9
-5 0 -10 5 -10 11 0 5 4 7 10 4 6 -3 7 1 4 9 -8 21 -17 20 -32 -4z"/>
<path d="M2758 875 c2 -19 10 -35 16 -35 8 0 13 14 13 35 0 26 -5 35 -17 35
-12 0 -15 -8 -12 -35z"/>
<path d="M97 878 c16 -27 12 -40 -8 -22 -17 16 -19 16 -19 1 0 -10 4 -17 9
-17 5 0 16 -3 24 -6 19 -7 28 28 11 44 -17 16 -27 15 -17 0z"/>
<path d="M2899 833 c3 -50 12 -72 31 -73 3 0 3 29 2 65 -3 53 -7 65 -20 65
-14 0 -16 -9 -13 -57z"/>
<path d="M2019 860 c11 -6 11 -9 0 -13 -8 -3 0 -6 16 -6 28 -1 71 17 50 20
-40 7 -77 6 -66 -1z"/>
<path d="M127 830 c-9 -11 -16 -35 -16 -53 l2 -32 4 30 c3 17 12 38 20 48 9 9
14 19 12 22 -3 2 -13 -5 -22 -15z"/>
<path d="M2162 820 c12 -8 16 -20 13 -48 -3 -20 -2 -28 1 -17 3 11 9 32 14 48
8 25 7 27 -18 27 -23 -1 -24 -2 -10 -10z"/>
<path d="M60 801 c0 -5 -12 -11 -27 -13 -29 -3 -40 -33 -16 -42 10 -4 13 -2
10 8 -4 10 0 14 14 13 11 -1 19 -9 19 -19 0 -11 7 -18 18 -18 10 0 13 3 6 8
-13 8 -25 52 -15 52 4 0 12 -5 19 -12 9 -9 12 -9 12 0 0 6 -9 16 -20 22 -12 7
-20 7 -20 1z"/>
<path d="M2153 720 c0 -41 2 -58 4 -37 2 20 2 54 0 75 -2 20 -4 3 -4 -38z"/>
<path d="M400 761 c0 -11 5 -23 10 -26 6 -4 8 -11 5 -16 -4 -5 -1 -9 6 -9 7 0
9 9 5 23 -3 12 -6 28 -6 35 0 6 -4 12 -10 12 -5 0 -10 -9 -10 -19z"/>
<path d="M798 743 c13 -5 17 -33 5 -33 -5 0 -8 -11 -8 -25 0 -14 4 -25 8 -25
5 0 5 -4 2 -10 -3 -5 -2 -10 3 -10 5 0 10 25 11 55 1 46 -2 55 -17 54 -10 0
-12 -3 -4 -6z"/>
<path d="M20 716 c0 -9 -6 -16 -12 -16 -7 -1 2 -7 21 -15 43 -19 51 -19 23 1
-12 8 -20 19 -17 24 3 5 1 11 -5 15 -5 3 -10 -1 -10 -9z"/>
<path d="M480 719 c0 -12 11 -18 38 -22 20 -2 41 -2 45 0 10 6 -12 33 -27 32
-7 0 -6 -2 2 -6 6 -2 12 -8 12 -12 0 -12 -54 0 -62 13 -5 7 -8 5 -8 -5z"/>
<path d="M2043 723 c9 -2 17 -13 17 -23 0 -17 28 -36 38 -25 3 3 -1 6 -9 6 -8
1 2 5 21 9 l35 7 -33 2 c-18 0 -31 5 -28 10 7 10 -18 22 -42 20 -15 -1 -15 -2
1 -6z"/>
<path d="M75 709 l-30 -6 29 -12 c31 -13 40 -10 34 11 -2 9 -12 12 -33 7z"/>
<path d="M438 703 c-2 -5 -1 -28 2 -53 l6 -45 4 53 c4 45 -2 67 -12 45z"/>
<path d="M2230 695 c-8 -9 -21 -13 -36 -9 -24 6 -24 5 -23 -57 2 -50 3 -56 8
-29 5 32 9 35 41 35 19 1 41 -5 48 -12 7 -7 18 -13 25 -13 6 0 2 7 -9 15 -18
15 -18 15 9 9 17 -4 27 -2 27 5 0 7 -25 11 -70 11 -40 0 -70 4 -70 10 0 6 28
10 63 11 34 0 55 3 47 6 -8 3 -18 11 -22 17 -5 8 -8 7 -8 -1 0 -7 -8 -13 -17
-13 -15 0 -16 2 -3 10 8 5 12 12 9 15 -4 3 -12 -1 -19 -10z"/>
<path d="M1185 690 c13 -6 15 -9 5 -9 -13 -1 -13 -2 0 -11 13 -8 13 -10 -2
-10 -23 0 -33 -19 -19 -33 9 -9 11 -8 6 6 -6 13 -2 17 14 17 12 0 21 -5 21
-11 0 -5 -4 -8 -9 -5 -5 4 -7 -4 -3 -16 5 -21 5 -21 14 2 14 38 0 80 -25 79
-21 0 -21 -1 -2 -9z"/>
<path d="M2865 691 c18 -18 124 -50 131 -40 3 6 3 13 0 16 -3 4 -6 2 -6 -4 0
-6 -30 0 -67 14 -38 13 -63 20 -58 14z"/>
<path d="M469 685 c-1 -3 -3 -9 -4 -15 -1 -5 -3 -21 -4 -35 -1 -18 -9 -29 -28
-37 -22 -9 -24 -12 -10 -15 20 -5 23 -38 5 -47 -7 -3 -1 -4 15 -1 15 3 27 1
27 -5 0 -9 -23 -14 -57 -13 -7 1 -13 -2 -13 -6 0 -4 -6 -8 -12 -9 -7 0 -23 -4
-35 -7 -15 -5 -23 -3 -23 4 0 6 -4 11 -9 11 -6 0 -9 -9 -8 -20 1 -14 8 -20 25
-20 15 0 21 -4 16 -11 -5 -9 1 -10 22 -5 24 7 79 15 119 18 6 1 48 -2 95 -5
47 -3 77 -4 68 -1 -10 3 -18 11 -18 17 0 7 -4 6 -10 -3 -7 -12 -10 -12 -10 -1
0 7 -6 11 -15 7 -8 -3 -20 3 -28 14 -8 11 -17 17 -22 12 -4 -4 -5 3 -2 16 3
15 1 22 -10 22 -8 0 -11 -4 -8 -10 3 -5 1 -10 -6 -10 -7 0 0 -10 14 -23 25
-21 25 -23 7 -23 -11 0 -20 4 -20 9 0 4 -4 5 -10 2 -5 -3 -10 2 -10 12 -1 17
-2 17 -15 -1 -8 -11 -15 -17 -15 -13 0 4 -9 3 -20 -3 -16 -9 -20 -8 -20 5 0 9
4 14 8 11 4 -2 19 4 32 15 14 11 18 18 10 17 -10 -2 -14 4 -12 17 2 15 0 17
-6 6 -14 -20 -25 5 -12 28 5 11 10 31 10 44 0 23 2 24 76 25 42 1 79 3 82 6 3
4 -32 6 -77 6 -52 0 -80 4 -76 10 3 6 4 10 1 10 -3 0 -7 -2 -7 -5z"/>
<path d="M5 671 c-3 -6 0 -11 7 -11 8 0 9 -3 3 -8 -14 -10 -15 -44 -1 -39 6 2
9 12 8 22 -3 16 -2 17 12 6 25 -21 25 -9 0 17 -14 14 -25 19 -29 13z"/>
<path d="M320 664 c0 -9 -5 -12 -12 -8 -8 5 -9 2 -5 -10 4 -10 7 -20 7 -22 0
-2 4 -4 9 -4 5 0 11 14 13 30 3 17 1 30 -4 30 -4 0 -8 -7 -8 -16z"/>
<path d="M80 662 c0 -8 -5 -10 -12 -5 -7 4 -5 -5 5 -20 9 -14 17 -32 17 -39 0
-9 -3 -9 -10 2 -8 13 -10 12 -10 -2 0 -10 -5 -18 -11 -18 -8 0 -7 -5 2 -16 10
-13 10 -17 -2 -25 -12 -7 -12 -9 2 -9 9 0 16 -7 16 -15 0 -11 -11 -15 -39 -15
-24 0 -37 -4 -33 -10 3 -5 19 -10 36 -10 16 0 29 -4 29 -10 0 -5 6 -10 14 -10
20 0 28 179 9 200 -9 10 -13 11 -13 2z"/>
<path d="M1817 653 c5 -12 3 -14 -8 -8 -12 7 -12 6 -1 -7 7 -9 11 -28 8 -42
-3 -14 0 -28 5 -31 12 -8 12 -55 -1 -55 -5 0 -13 0 -17 0 -5 0 -8 5 -8 12 0 6
-5 13 -10 15 -6 2 -12 -13 -13 -32 -3 -35 -2 -35 38 -35 37 0 40 2 36 23 -3
12 -8 57 -11 100 -4 42 -11 77 -16 77 -4 0 -5 -7 -2 -17z"/>
<path d="M1610 648 c0 -15 8 -18 53 -16 l52 1 -45 4 c-24 3 -48 10 -52 16 -5
8 -8 6 -8 -5z"/>
<path d="M2100 611 c0 -5 -12 -12 -27 -14 -21 -3 -18 -4 12 -6 27 -1 35 -4 26
-10 -8 -5 -9 -11 -3 -15 15 -9 24 10 17 34 -6 20 -25 28 -25 11z"/>
<path d="M514 585 c7 -29 7 -29 -8 -10 -9 12 -15 15 -16 7 0 -7 6 -19 13 -27
11 -11 16 -9 26 7 11 17 10 23 -4 37 -16 15 -17 14 -11 -14z"/>
<path d="M567 591 c3 -12 8 -21 12 -22 3 0 16 -2 29 -5 24 -4 27 3 12 26 -7
10 -10 11 -10 2 0 -9 -6 -8 -24 3 -23 16 -24 15 -19 -4z"/>
<path d="M1177 597 c-5 -13 -1 -17 16 -18 21 0 21 -1 2 -9 -11 -5 -14 -9 -7
-9 7 -1 20 -8 29 -16 8 -9 18 -13 22 -9 3 4 0 9 -6 11 -7 3 -13 13 -13 24 0
10 -6 19 -14 19 -8 0 -16 5 -18 12 -3 7 -7 6 -11 -5z"/>
<path d="M313 570 c-1 -17 2 -30 6 -30 5 0 11 -10 15 -22 5 -19 8 -21 16 -8 5
8 10 11 10 5 0 -5 6 -3 13 6 7 9 19 18 26 21 12 3 12 6 -2 11 -9 3 -23 0 -30
-8 -18 -17 -37 -1 -37 32 0 34 -15 28 -17 -7z"/>
<path d="M355 591 c-7 -12 12 -24 44 -27 20 -3 22 -1 11 7 -37 24 -49 29 -55
20z"/>
<path d="M1064 583 c-9 -6 -13 -16 -10 -21 3 -6 0 -13 -6 -15 -7 -3 11 -6 41
-6 43 -1 52 -4 47 -16 -3 -9 0 -15 10 -15 14 0 14 22 -1 70 -7 22 -53 24 -81
3z"/>
<path d="M2260 566 c0 -32 -8 -37 -52 -27 -20 5 -42 5 -48 1 -7 -4 -25 -4 -40
0 -20 6 -27 4 -27 -7 0 -8 6 -12 14 -9 9 4 11 1 7 -6 -5 -8 -2 -9 11 -4 11 4
22 2 26 -5 4 -7 17 -13 28 -14 17 -1 20 2 15 18 -4 13 -2 17 5 13 6 -4 11 -14
11 -22 0 -17 14 -18 41 -3 15 7 24 7 34 -1 18 -15 36 -4 28 15 -4 11 2 15 20
15 14 0 27 -5 29 -12 3 -8 7 -6 11 5 4 10 2 16 -6 14 -7 -1 -11 3 -10 9 1 6
-5 11 -13 11 -7 0 -14 -4 -14 -9 0 -4 -6 -8 -14 -8 -8 0 -17 -8 -19 -17 -4
-17 -5 -17 -6 0 0 9 -6 17 -12 17 -6 0 -8 8 -4 19 3 11 1 22 -5 26 -6 4 -10
-4 -10 -19z"/>
<path d="M2060 569 c0 -5 -6 -7 -12 -4 -7 4 -6 1 3 -7 9 -7 14 -19 12 -25 -3
-7 0 -13 5 -13 6 0 10 14 10 30 -1 27 -18 45 -18 19z"/>
<path d="M2808 563 c-122 -7 -74 -23 65 -22 105 1 124 3 92 11 -59 13 -83 15
-157 11z"/>
<path d="M2841 498 c0 -13 3 -17 6 -10 4 10 8 10 19 1 11 -9 14 -7 14 10 0 14
-6 21 -20 21 -14 0 -20 -6 -19 -22z"/>
<path d="M728 503 c6 -2 12 -16 12 -29 0 -13 4 -24 9 -24 5 0 7 9 4 20 -5 20
4 25 36 21 7 -2 10 2 6 8 -3 6 -23 11 -43 10 -20 0 -31 -3 -24 -6z"/>
<path d="M1110 485 c7 -8 18 -15 25 -15 7 0 15 7 19 15 4 11 -2 15 -26 15 -26
0 -29 -2 -18 -15z"/>
<path d="M1263 468 c-10 -4 6 -7 40 -7 31 -1 57 1 57 3 0 8 -80 11 -97 4z"/>
<path d="M2211 473 c-25 -3 -31 -7 -20 -13 9 -6 -7 -9 -46 -9 -33 1 -133 0
-222 -2 -88 -2 -159 -1 -156 4 2 4 0 7 -6 7 -5 0 -13 -5 -16 -11 -4 -5 -17 -9
-28 -8 -58 4 -77 -1 -77 -21 0 -11 5 -20 10 -20 6 0 10 5 10 10 0 18 29 10 35
-10 4 -11 10 -18 14 -16 4 3 12 -4 19 -15 9 -15 10 -18 0 -17 -6 2 -13 -6 -15
-17 -3 -13 -1 -16 4 -8 7 10 13 8 25 -6 11 -13 17 -48 20 -130 3 -64 9 -116
15 -119 6 -4 13 -18 14 -31 2 -14 9 -26 16 -28 14 -5 -3 80 -18 85 -5 2 -9 11
-9 19 0 13 3 13 15 3 12 -10 15 -9 15 6 1 18 1 18 14 2 9 -12 16 -14 23 -7 7
7 32 8 68 4 53 -7 57 -9 52 -31 -6 -32 1 -30 14 4 l11 27 13 -25 c23 -40 19
-53 -15 -48 -16 3 -30 1 -30 -4 0 -4 5 -8 12 -8 6 0 8 -3 4 -7 -4 -5 -33 -11
-64 -14 -52 -6 -50 -6 28 -7 47 0 94 4 105 9 16 7 12 8 -17 6 -41 -3 -51 7
-17 16 19 5 21 11 16 41 -7 44 10 57 32 27 17 -22 17 -22 18 13 1 26 -5 39
-22 50 -14 9 -22 23 -20 38 1 13 0 16 -2 7 -3 -14 -13 -16 -46 -12 -32 3 -38
2 -27 -6 8 -6 24 -11 35 -11 17 -1 18 -2 4 -10 -20 -12 -59 -2 -59 15 0 17
-37 23 -96 15 -46 -5 -49 -5 -49 18 0 18 4 22 20 18 20 -5 20 -5 1 9 -11 8
-18 17 -15 19 2 2 49 5 104 6 164 3 188 1 182 -12 -2 -7 -1 -22 4 -33 6 -17 8
-16 8 9 1 24 3 27 16 16 8 -7 15 -9 15 -4 -1 19 -47 42 -82 39 -50 -3 -69 10
-44 28 18 14 18 15 -16 26 -31 10 -147 18 -173 11 -39 -10 -90 29 -68 51 5 5
92 12 194 14 263 7 289 10 301 26 8 11 9 10 4 -3 -5 -16 4 -18 82 -20 48 -1
96 -3 107 -4 11 -1 29 -2 40 -3 14 -1 16 -4 8 -12 -12 -12 -140 -15 -216 -5
-34 4 -37 4 -12 -3 107 -32 130 -33 215 -11 45 12 89 19 96 16 8 -3 22 -2 32
1 14 6 13 8 -8 14 -19 5 -13 7 25 9 39 2 45 4 25 9 -14 4 -38 4 -55 -1 -34
-10 -93 -2 -141 18 -39 16 -118 20 -94 4 11 -7 4 -10 -27 -10 -32 0 -43 4 -43
15 0 15 -5 15 -69 8z m-311 -134 c0 -6 7 -9 15 -5 8 3 15 4 15 2 0 -3 3 -11 6
-20 4 -12 0 -16 -15 -16 -12 0 -21 5 -21 11 0 8 -4 8 -12 2 -13 -11 -78 -16
-78 -7 0 3 5 14 10 25 12 21 80 28 80 8z m-102 -22 c2 -10 -3 -17 -12 -17 -10
0 -16 9 -16 21 0 24 23 21 28 -4z m102 -125 c0 -18 80 -36 109 -25 20 7 32 7
44 -2 30 -22 18 -25 -70 -20 -49 3 -109 6 -135 5 -41 -1 -47 1 -45 20 2 24 29
27 51 4 9 -8 17 -13 17 -10 1 3 3 11 4 16 1 6 3 12 4 15 2 9 21 5 21 -3z"/>
<path d="M1022 458 c-19 -19 -14 -28 16 -28 19 0 29 -5 29 -16 0 -11 -6 -14
-21 -9 -12 4 -29 7 -38 6 -10 0 -18 3 -18 7 0 4 -66 3 -147 -1 -82 -4 -211 -5
-288 -3 -77 3 -158 6 -179 5 -22 0 -52 5 -67 11 -18 8 -37 8 -60 2 l-34 -10
38 -1 c20 -1 37 -4 37 -8 0 -5 10 -9 23 -9 56 -4 88 -23 41 -25 -24 -1 -25 -3
-6 -6 12 -2 20 -9 17 -14 -10 -16 -53 -10 -64 9 -10 16 -10 16 -11 -1 0 -11 9
-21 21 -24 20 -6 20 -6 -2 -29 -12 -13 -17 -24 -11 -24 7 0 12 5 12 12 0 6 2
9 5 6 13 -13 -8 -58 -26 -58 -12 0 -19 -7 -18 -17 0 -11 3 -13 6 -5 2 6 11 12
19 12 7 0 11 -6 8 -14 -4 -9 6 -18 30 -26 39 -13 56 -7 56 18 0 9 10 -2 22
-26 12 -23 25 -37 28 -32 4 7 11 5 20 -5 7 -8 17 -15 22 -15 10 0 58 45 55 52
-1 2 3 -2 9 -9 6 -7 13 -12 15 -10 2 1 -2 -4 -10 -10 -11 -9 -11 -13 -2 -13 7
0 9 -4 6 -10 -3 -5 0 -11 7 -11 7 -1 24 -3 38 -6 14 -2 42 -5 62 -6 20 -1 42
-7 49 -14 9 -9 19 -7 43 8 17 10 36 19 43 19 22 0 44 -31 38 -54 -5 -19 -5
-19 6 -3 9 15 18 17 45 12 28 -5 33 -3 28 10 -5 13 -1 15 22 12 22 -3 30 -10
32 -28 2 -13 10 -31 18 -40 8 -9 11 -19 7 -22 -3 -4 8 -7 24 -7 l31 0 -18 51
c-18 47 -30 71 -30 57 0 -3 7 -25 15 -48 17 -50 18 -50 7 -50 -9 0 -52 116
-52 138 0 8 5 10 13 6 9 -5 9 -4 0 6 -6 7 -9 20 -6 29 4 14 3 14 -7 1 -8 -12
-10 -3 -7 38 3 28 2 52 -2 52 -3 0 -7 14 -8 30 -1 18 2 28 7 25 6 -4 10 -16
10 -28 0 -12 8 -31 17 -42 14 -18 15 -18 9 -2 -3 11 -9 31 -12 45 -4 22 -3 24
6 12 9 -12 10 -11 5 8 -3 12 -3 31 0 42 12 38 22 20 22 -37 0 -94 2 -108 19
-129 15 -19 16 -19 10 1 -6 20 -6 20 9 1 15 -19 15 -19 15 2 0 16 -6 22 -22
22 -19 0 -20 2 -8 10 13 9 13 11 0 20 -12 8 -8 10 15 11 23 1 25 3 8 6 -14 3
-20 9 -16 19 3 8 -1 15 -8 15 -8 1 0 5 16 9 23 6 25 8 8 9 -12 0 -25 6 -29 13
-4 7 -3 8 4 4 7 -4 12 -3 12 3 0 5 -6 12 -12 14 -7 3 0 6 15 6 26 1 28 4 25
34 -2 24 -8 33 -26 35 -12 2 -20 8 -17 13 8 13 1 11 -13 -3z m-574 -66 c2 -7
-7 -12 -22 -12 -24 0 -33 10 -20 22 9 10 38 2 42 -10z m342 -12 c8 -5 12 -11
9 -14 -6 -6 -185 -8 -262 -4 -26 2 -48 -1 -50 -6 -1 -4 -9 -1 -16 8 -13 16 -4
17 123 15 76 0 140 2 143 5 9 9 36 7 53 -4z m136 -2 c7 -8 -17 -12 -43 -9 -7
1 -13 -5 -13 -14 0 -18 -26 -20 -33 -2 -2 7 -8 8 -13 3 -5 -5 -4 -11 4 -13 6
-3 12 -9 12 -15 0 -6 -8 -7 -17 -4 -16 6 -16 6 0 -12 16 -17 15 -20 -11 -45
-16 -15 -31 -24 -35 -20 -4 3 -7 1 -7 -5 0 -7 9 -12 21 -12 26 0 22 -30 -6
-45 -11 -5 -19 -17 -17 -26 2 -13 -6 -18 -38 -21 -23 -2 -43 -2 -46 1 -2 3
-29 3 -59 2 -32 -1 -55 2 -55 8 0 15 18 23 25 11 10 -16 45 -12 45 5 0 18 -26
20 -33 3 -3 -8 -6 -6 -6 5 -1 11 -9 17 -26 17 -18 0 -25 5 -25 19 0 10 -7 21
-15 25 -18 7 -20 33 -2 39 6 2 28 3 47 1 32 -3 32 -2 -7 8 -31 8 -43 16 -43
29 0 11 -6 19 -14 19 -18 0 -29 -75 -17 -117 5 -17 7 -34 3 -37 -8 -8 -35 -7
-49 2 -17 11 -5 52 16 53 10 0 11 2 4 6 -8 3 -11 15 -8 31 5 25 5 25 -4 5 -16
-35 -22 -27 -16 20 3 29 2 33 -3 13 -5 -20 -14 -30 -31 -33 -20 -3 -23 0 -19
22 3 14 1 25 -3 25 -5 0 -8 12 -8 28 1 16 3 20 6 10 3 -13 14 -18 41 -17 20 1
42 0 47 -1 6 -1 15 -2 20 -1 41 8 211 -2 217 -12 6 -9 8 -9 8 1 0 6 5 12 11
12 6 0 9 -7 5 -15 -3 -8 -1 -15 4 -15 6 0 10 7 10 15 0 10 10 15 30 15 24 0
30 4 30 23 0 20 5 22 54 22 30 0 58 -3 62 -7z m0 -98 c-15 -38 -15 -40 6 -59
13 -13 22 -34 23 -60 2 -37 1 -39 -31 -43 -29 -3 -33 -1 -38 24 -3 15 -3 35 0
43 4 8 1 15 -5 15 -11 0 -15 -13 -12 -37 1 -7 -4 -13 -11 -14 -7 0 -25 -2 -40
-3 -15 -1 -30 4 -32 11 -3 7 0 13 7 13 17 0 43 47 51 94 8 45 19 57 61 71 38
13 43 0 21 -55z m-558 13 c14 -63 12 -79 -8 -79 -14 0 -17 12 -18 63 -1 75 12
82 26 16z"/>
<path d="M621 303 c-1 -28 3 -33 22 -33 18 0 19 -2 7 -10 -9 -6 -10 -10 -3
-10 6 0 15 5 18 10 3 6 14 10 23 10 14 -1 13 -4 -6 -20 -21 -17 -21 -19 -3
-17 11 0 22 9 24 18 4 13 16 17 52 17 26 0 48 2 49 4 2 2 -1 14 -5 28 -6 22
-7 23 -8 4 -1 -19 -7 -22 -63 -23 -40 0 -58 2 -49 8 8 5 11 16 8 26 -9 21 -27
10 -27 -16 0 -28 -23 -19 -31 12 -6 21 -7 21 -8 -8z"/>
<path d="M753 213 c-13 -2 -23 -9 -23 -14 0 -5 -6 -9 -14 -9 -9 0 -14 -9 -13
-20 2 -25 1 -25 29 3 13 13 28 22 34 20 6 -2 11 3 11 12 0 8 -1 14 -1 14 -1
-1 -11 -4 -23 -6z"/>
<path d="M1461 466 c8 -9 169 -14 169 -6 0 4 -39 8 -87 9 -48 1 -85 -1 -82 -3z"/>
<path d="M60 435 c-11 -13 -8 -15 14 -15 16 0 26 5 26 15 0 8 -6 15 -14 15 -7
0 -19 -7 -26 -15z"/>
<path d="M1107 443 c-4 -3 -7 -19 -7 -35 0 -23 4 -28 25 -28 14 0 25 4 25 9 0
5 -8 8 -17 7 -10 0 -19 7 -21 17 -2 9 1 17 7 17 6 0 8 -7 4 -16 -4 -12 -2 -15
8 -12 8 2 15 14 17 26 3 16 -2 22 -16 22 -10 0 -22 -3 -25 -7z"/>
<path d="M1180 441 c0 -5 -3 -17 -7 -27 -4 -11 -3 -15 4 -11 6 4 13 3 15 -1 1
-5 12 0 23 11 20 20 20 20 -2 8 -19 -10 -23 -9 -23 3 0 8 12 16 28 19 25 4 25
4 -5 6 -18 0 -33 -3 -33 -8z"/>
<path d="M1257 419 c5 -36 -13 -89 -30 -85 -7 2 -9 1 -4 -1 15 -9 6 -25 -10
-18 -15 5 -16 4 -5 -7 11 -11 16 -9 27 7 8 11 19 25 25 32 12 15 13 103 1 103
-5 0 -7 -14 -4 -31z"/>
<path d="M1280 438 c0 -10 27 -13 119 -13 66 0 122 3 126 7 4 4 -1 7 -11 7
-11 0 -67 3 -126 6 -86 5 -108 4 -108 -7z"/>
<path d="M1540 424 c0 -13 3 -14 15 -4 19 16 62 5 68 -18 3 -11 5 -8 6 9 1 24
-2 26 -44 27 -36 2 -45 -1 -45 -14z"/>
<path d="M2797 432 c-38 -2 -48 -7 -45 -19 3 -14 33 -23 91 -26 22 -2 23 -37
1 -37 -13 0 -14 -3 -4 -14 6 -8 18 -12 26 -9 7 3 17 -2 20 -11 3 -9 11 -16 17
-16 5 0 3 8 -6 18 -8 9 -17 30 -19 47 -3 27 -7 30 -51 37 -79 11 -68 21 18 17
44 -2 82 -7 85 -10 3 -3 19 -9 35 -13 24 -6 28 -5 18 5 -18 18 -16 32 3 25 8
-3 12 -2 9 4 -5 9 -81 9 -198 2z"/>
<path d="M2683 400 c1 -19 -2 -48 -6 -63 -5 -19 -4 -26 2 -22 6 3 13 22 17 43
6 30 8 33 15 17 4 -11 8 -18 8 -15 1 3 5 20 10 38 9 28 7 32 -10 32 -11 0 -17
-4 -14 -10 3 -5 2 -10 -4 -10 -5 0 -11 6 -14 13 -3 6 -4 -4 -4 -23z"/>
<path d="M2618 412 c-1 -4 -19 -17 -38 -30 -30 -18 -32 -22 -13 -22 12 0 25 5
29 11 3 6 16 8 29 5 28 -7 37 2 24 25 -10 20 -25 25 -31 11z"/>
<path d="M32 403 c21 -5 19 -43 -2 -44 -10 0 -9 -3 5 -9 18 -7 17 -8 -10 -16
l-30 -8 25 -7 c16 -4 19 -7 8 -8 -16 -1 -16 -3 2 -21 11 -11 27 -20 35 -20 8
0 15 -9 15 -20 0 -13 -7 -20 -20 -20 -11 0 -20 7 -20 15 0 8 -9 15 -20 15 -11
0 -20 -5 -20 -11 0 -5 4 -8 9 -4 5 3 12 1 15 -4 4 -5 -2 -12 -11 -14 -17 -4
-17 -5 0 -6 9 0 17 -5 17 -11 0 -5 -7 -7 -15 -4 -8 4 -15 1 -15 -5 0 -6 8 -11
18 -12 15 0 14 -1 -2 -8 -18 -7 -18 -8 5 -14 35 -10 59 -8 59 3 0 6 -9 10 -20
10 -14 0 -20 7 -20 21 0 14 5 19 18 17 9 -2 16 -10 15 -16 -2 -7 2 -12 7 -12
6 0 10 25 9 58 0 31 -3 51 -6 45 -8 -21 -33 -15 -33 8 0 15 5 20 23 17 19 -3
22 1 22 32 0 28 -4 34 -18 32 -22 -4 -22 15 1 21 9 3 -1 5 -23 5 -22 0 -32 -2
-23 -5z"/>
<path d="M1215 394 c-9 -9 -14 -21 -13 -26 5 -14 23 -5 23 12 1 8 7 14 14 12
7 -1 10 2 6 8 -8 13 -11 13 -30 -6z"/>
<path d="M2470 373 l-85 -23 56 4 c31 2 74 13 95 25 48 25 41 24 -66 -6z"/>
<path d="M1163 365 c0 -14 2 -25 6 -25 4 0 8 -12 9 -27 3 -41 12 -41 12 0 0
20 -4 37 -10 37 -5 0 -7 6 -4 14 3 8 1 17 -4 20 -5 3 -9 -6 -9 -19z"/>
<path d="M1640 329 c0 -56 1 -59 25 -59 20 0 25 5 24 23 -1 16 -2 18 -6 5 -2
-10 -12 -18 -21 -18 -15 0 -15 2 -2 10 13 9 13 11 0 20 -12 8 -9 10 12 10 22
0 25 3 20 22 -3 12 -7 17 -10 10 -2 -6 -11 -12 -20 -11 -12 0 -13 2 -3 6 11 5
11 7 0 14 -10 6 -8 9 9 9 12 0 22 4 22 9 0 5 -11 9 -25 9 -24 0 -25 -3 -25
-59z"/>
<path d="M1101 333 c1 -21 3 -30 6 -20 2 9 12 17 21 16 11 0 12 -2 5 -6 -18
-7 -16 -23 2 -23 10 0 15 11 15 35 0 31 -3 35 -25 35 -22 0 -25 -4 -24 -37z"/>
<path d="M141 344 c-12 -14 -12 -17 0 -25 10 -6 8 -9 -8 -9 -13 0 -23 -5 -23
-11 0 -6 9 -8 20 -4 12 4 20 2 20 -5 0 -6 5 -8 10 -5 6 3 7 18 4 32 -4 16 -2
28 7 34 12 7 11 9 -1 8 -8 0 -21 -7 -29 -15z"/>
<path d="M1602 314 c-2 -53 -18 -74 -41 -51 -8 8 -11 8 -11 0 0 -14 25 -35 33
-27 9 9 31 -17 35 -41 7 -37 12 -29 12 18 0 26 -4 47 -9 47 -6 0 -12 24 -14
53 l-3 52 -2 -51z"/>
<path d="M1711 258 c1 -29 3 -45 6 -36 2 9 12 19 21 21 14 4 14 5 -2 6 -15 1
-17 6 -12 31 3 17 1 30 -4 30 -6 0 -9 -24 -9 -52z"/>
<path d="M2763 279 c-10 -4 -16 -8 -13 -9 14 -6 100 -4 100 1 0 10 -66 16 -87
8z"/>
<path d="M213 273 c40 -6 33 -22 -8 -18 -19 2 -35 -1 -35 -6 0 -5 8 -9 17 -9
9 0 13 -3 9 -7 -4 -4 -24 -7 -44 -6 -28 1 -30 0 -9 -4 20 -3 27 -9 23 -19 -9
-25 20 -15 34 11 9 17 16 21 21 14 5 -9 11 -8 23 4 24 23 10 47 -28 46 -30 -2
-30 -2 -3 -6z"/>
<path d="M1350 271 c0 -4 -15 -8 -32 -8 -57 0 -78 -3 -78 -11 0 -5 63 -9 140
-11 93 -1 140 1 140 8 0 7 -33 12 -82 13 l-83 2 85 6 85 6 -87 2 c-49 1 -88
-2 -88 -7z"/>
<path d="M2908 248 c-24 -24 -28 -32 -18 -41 8 -8 11 -8 7 -1 -4 6 5 17 18 24
14 7 25 17 25 22 0 4 11 8 25 8 14 0 25 4 25 9 0 20 -54 7 -82 -21z"/>
<path d="M1093 220 c1 -22 17 -28 17 -7 0 8 3 7 10 -3 8 -13 11 -13 22 -1 10
10 10 12 1 7 -7 -4 -13 -3 -13 3 0 5 6 12 13 14 6 3 -2 6 -20 6 -26 1 -31 -3
-30 -19z"/>
<path d="M2943 213 c-19 -39 -16 -43 17 -27 26 13 28 18 17 35 -16 25 -20 24
-34 -8z"/>
<path d="M999 203 c15 -51 38 -98 60 -120 27 -28 41 -31 16 -3 -19 21 -13 42
7 22 14 -14 28 -16 28 -4 0 4 -10 12 -22 17 -13 6 -22 17 -20 27 2 11 -4 15
-15 14 -12 -2 -23 10 -35 36 -20 44 -30 50 -19 11z"/>
<path d="M1270 220 c0 -5 18 -10 40 -10 22 0 40 5 40 10 0 6 -18 10 -40 10
-22 0 -40 -4 -40 -10z"/>
<path d="M1360 221 c0 -13 32 -17 103 -13 84 5 69 19 -23 21 -47 1 -80 -2 -80
-8z"/>
<path d="M1265 190 c-10 -16 -9 -16 75 -9 62 4 66 6 25 7 -27 1 -60 5 -71 8
-12 3 -25 1 -29 -6z"/>
<path d="M1716 193 c-3 -4 -6 -15 -6 -25 0 -10 -7 -18 -17 -18 -15 0 -15 -2
-4 -9 8 -5 20 -7 27 -4 17 6 30 -45 16 -59 -6 -6 -8 -17 -5 -24 8 -21 -27 -17
-66 7 -35 21 -68 19 -55 -3 4 -7 4 -10 -1 -6 -4 4 -17 3 -27 -3 -14 -8 -23 -8
-31 0 -7 7 -14 7 -23 0 -8 -6 -39 -8 -83 -3 -70 6 -70 7 -48 25 28 23 5 25
-30 2 -24 -16 -26 -16 -39 2 -12 17 -16 17 -28 5 -17 -19 -10 -80 10 -80 8 0
14 7 14 16 0 16 21 16 190 0 40 -4 47 -3 25 3 -27 8 -26 9 20 11 28 1 55 2 62
1 7 -1 9 7 5 21 l-5 22 23 -22 c13 -12 40 -25 59 -28 20 -4 42 -11 49 -17 7
-5 15 -7 19 -3 3 3 1 6 -5 6 -7 0 -12 4 -12 10 0 5 8 7 18 4 12 -4 9 1 -8 17
-15 13 -20 24 -13 26 8 3 8 14 1 40 -5 20 -8 46 -5 59 4 22 -14 40 -27 27z"/>
<path d="M2380 188 c14 -6 44 -10 68 -9 23 0 42 -4 42 -9 0 -6 5 -10 12 -10 8
0 7 5 -3 15 -10 10 -39 17 -80 19 -48 2 -58 1 -39 -6z"/>
<path d="M1460 180 c0 -5 14 -10 30 -10 17 0 30 5 30 10 0 6 -13 10 -30 10
-16 0 -30 -4 -30 -10z"/>
<path d="M2242 174 c-9 -9 -21 -12 -35 -8 -19 6 -20 5 -5 -9 12 -12 16 -33 14
-82 -1 -62 0 -65 22 -65 21 0 23 3 17 33 -4 17 -11 33 -15 35 -4 2 -6 11 -3
21 5 19 54 25 191 23 31 0 42 4 42 15 0 13 -9 15 -57 9 -117 -15 -173 -15
-173 -1 0 15 61 27 74 15 5 -5 15 -6 22 -3 11 4 11 7 -1 19 -16 16 -45 19 -45
4 0 -5 -8 -10 -17 -10 -15 0 -16 2 -3 10 13 9 13 10 0 9 -8 0 -21 -7 -28 -15z"/>
<path d="M2692 120 c1 -41 4 -84 8 -95 11 -29 11 104 1 141 -7 22 -9 12 -9
-46z"/>
<path d="M93 161 c-12 -10 -19 -21 -16 -25 3 -3 0 -12 -7 -21 -16 -19 -3 -20
15 -1 8 7 11 16 8 20 -4 3 5 6 18 7 13 0 19 3 12 5 -7 3 -9 12 -6 20 7 18 3
17 -24 -5z"/>
<path d="M2660 165 c0 -8 -4 -15 -9 -15 -5 0 -8 -8 -6 -17 2 -10 4 -28 4 -41
1 -15 5 -21 12 -16 7 4 10 2 8 -5 -3 -7 -8 -12 -12 -12 -4 1 -13 1 -21 1 -11
0 -13 10 -9 41 5 38 4 40 -13 31 -10 -6 -31 -13 -46 -17 -16 -3 -28 -10 -28
-16 0 -6 11 -8 29 -4 17 3 32 2 36 -4 4 -7 -8 -11 -35 -11 -39 0 -40 -1 -34
-27 9 -38 14 -41 14 -10 0 15 5 27 10 27 6 0 10 -9 10 -20 0 -11 5 -20 11 -20
6 0 8 9 4 20 -5 15 -3 18 9 14 9 -3 16 -10 16 -14 0 -4 14 -6 31 -5 28 2 30 1
24 -24 -4 -19 -3 -22 5 -11 11 17 14 83 3 94 -4 4 -6 23 -4 42 1 18 0 34 -3
34 -3 0 -6 -7 -6 -15z"/>
<path d="M2166 143 c4 -25 2 -33 -9 -33 -9 0 -18 -6 -21 -12 -3 -10 -9 -8 -19
5 -8 9 -16 17 -18 17 -7 0 -13 -74 -10 -107 1 -15 41 -18 41 -3 0 6 -4 10 -10
10 -5 0 -7 7 -4 15 4 8 1 15 -6 15 -6 0 -9 4 -6 9 3 5 15 7 26 4 14 -4 20 -14
20 -34 0 -19 5 -29 15 -29 18 0 19 14 4 42 -8 15 -8 22 1 28 6 4 11 10 11 14
-3 18 0 18 14 0 12 -16 14 -17 15 -2 0 9 -5 18 -12 20 -6 2 -18 20 -25 39
l-13 34 6 -32z"/>
<path d="M1260 150 c0 -6 36 -10 89 -10 50 0 93 5 96 10 4 6 -28 10 -89 10
-57 0 -96 -4 -96 -10z"/>
<path d="M2720 102 c0 -28 5 -54 10 -57 10 -6 15 10 10 30 -2 6 -4 23 -6 38
-4 50 -14 42 -14 -11z"/>
<path d="M431 133 c-1 -7 -8 -10 -16 -7 -11 5 -15 -1 -15 -25 0 -17 5 -31 10
-31 6 0 10 -15 10 -34 0 -29 3 -33 24 -33 19 0 26 6 31 28 5 24 12 29 36 29
25 0 30 -5 36 -30 7 -38 21 -39 18 -2 -3 41 -3 42 -30 52 -16 6 -23 14 -19 25
8 19 -5 19 -30 0 -12 -9 -20 -28 -20 -47 -1 -17 -6 -33 -13 -35 -8 -3 -10 8
-6 34 2 21 0 49 -6 63 -5 14 -10 20 -10 13z"/>
<path d="M1150 119 c0 -11 31 -14 160 -14 88 -1 160 3 160 7 0 10 22 8 -162
15 -130 4 -158 3 -158 -8z"/>
<path d="M2750 114 c0 -5 9 -22 20 -39 l20 -30 0 34 c0 19 -3 31 -7 28 -3 -4
-12 -2 -20 4 -7 6 -13 8 -13 3z"/>
<path d="M2806 101 c3 -13 7 -30 8 -37 4 -25 16 -27 16 -3 0 14 -7 34 -16 45
-15 18 -15 18 -8 -5z"/>
<path d="M365 90 c-16 -17 -20 -18 -34 -6 -9 7 -24 12 -34 11 -23 -4 -57 -34
-57 -50 0 -7 -9 -15 -21 -18 -12 -3 -18 -10 -15 -16 5 -7 13 -7 24 -2 9 5 25
12 35 15 10 3 15 11 12 16 -8 13 13 40 31 40 9 0 14 -11 14 -30 0 -22 -6 -33
-22 -40 -13 -5 -18 -9 -11 -9 7 -1 23 4 37 10 20 9 29 9 41 -1 13 -11 15 -9
17 14 4 64 5 86 3 86 -1 0 -10 -9 -20 -20z"/>
<path d="M859 68 c-1 -7 -1 -16 0 -20 0 -5 -6 -8 -14 -8 -9 0 -15 -9 -15 -21
0 -14 5 -19 18 -17 12 2 17 14 19 41 1 34 -5 54 -8 25z"/>
<path d="M898 63 c6 -2 12 -18 12 -34 0 -24 4 -29 23 -29 13 0 26 3 30 6 10
10 -4 33 -18 28 -7 -3 -16 4 -20 15 -3 12 -14 21 -23 20 -11 0 -12 -3 -4 -6z"/>
<path d="M106 39 c-10 -6 -38 -9 -62 -6 -24 2 -44 1 -44 -4 0 -5 33 -9 73 -9
45 0 67 4 58 9 -11 7 -10 10 5 14 12 3 13 5 4 6 -8 0 -23 -4 -34 -10z"/>
<path d="M2270 19 c0 -5 23 -9 50 -9 28 0 50 4 50 9 0 5 -22 9 -50 9 -27 1
-50 -3 -50 -9z"/>
</g>
</svg>
